%TF.GenerationSoftware,KiCad,Pcbnew,8.0.5-8.0.5-0~ubuntu22.04.1*%
%TF.CreationDate,2024-09-17T07:55:55-05:00*%
%TF.ProjectId,cheating-calc,63686561-7469-46e6-972d-63616c632e6b,rev?*%
%TF.SameCoordinates,Original*%
%TF.FileFunction,Legend,Top*%
%TF.FilePolarity,Positive*%
%FSLAX46Y46*%
G04 Gerber Fmt 4.6, Leading zero omitted, Abs format (unit mm)*
G04 Created by KiCad (PCBNEW 8.0.5-8.0.5-0~ubuntu22.04.1) date 2024-09-17 07:55:55*
%MOMM*%
%LPD*%
G01*
G04 APERTURE LIST*
G04 Aperture macros list*
%AMRoundRect*
0 Rectangle with rounded corners*
0 $1 Rounding radius*
0 $2 $3 $4 $5 $6 $7 $8 $9 X,Y pos of 4 corners*
0 Add a 4 corners polygon primitive as box body*
4,1,4,$2,$3,$4,$5,$6,$7,$8,$9,$2,$3,0*
0 Add four circle primitives for the rounded corners*
1,1,$1+$1,$2,$3*
1,1,$1+$1,$4,$5*
1,1,$1+$1,$6,$7*
1,1,$1+$1,$8,$9*
0 Add four rect primitives between the rounded corners*
20,1,$1+$1,$2,$3,$4,$5,0*
20,1,$1+$1,$4,$5,$6,$7,0*
20,1,$1+$1,$6,$7,$8,$9,0*
20,1,$1+$1,$8,$9,$2,$3,0*%
G04 Aperture macros list end*
%ADD10C,0.150000*%
%ADD11C,0.200000*%
%ADD12C,0.120000*%
%ADD13C,0.127000*%
%ADD14R,1.070000X0.600000*%
%ADD15R,1.700000X1.700000*%
%ADD16O,1.700000X1.700000*%
%ADD17R,3.460000X1.280000*%
%ADD18RoundRect,1.000000X-0.000010X0.375000X-0.000010X-0.375000X0.000010X-0.375000X0.000010X0.375000X0*%
G04 APERTURE END LIST*
D10*
G36*
X101691815Y-68932880D02*
G01*
X101293211Y-69195930D01*
X101293211Y-69369098D01*
X101691815Y-69369098D01*
X101691815Y-69502210D01*
X100686023Y-69502210D01*
X100686023Y-69150745D01*
X100808633Y-69150745D01*
X100808633Y-69369098D01*
X101170601Y-69369098D01*
X101170601Y-69150745D01*
X101166582Y-69098669D01*
X101152691Y-69050459D01*
X101125950Y-69009165D01*
X101119799Y-69002978D01*
X101077529Y-68973806D01*
X101027292Y-68958098D01*
X100989373Y-68955106D01*
X100937304Y-68959883D01*
X100886471Y-68978224D01*
X100848346Y-69010321D01*
X100822930Y-69056173D01*
X100811457Y-69104892D01*
X100808633Y-69150745D01*
X100686023Y-69150745D01*
X100686023Y-69149524D01*
X100687967Y-69098631D01*
X100695432Y-69043447D01*
X100708495Y-68994686D01*
X100730811Y-68945917D01*
X100760748Y-68905889D01*
X100765646Y-68900884D01*
X100809412Y-68866370D01*
X100854393Y-68844259D01*
X100905616Y-68829698D01*
X100954488Y-68823227D01*
X100989617Y-68821994D01*
X101038718Y-68824694D01*
X101090253Y-68834391D01*
X101136903Y-68851141D01*
X101183546Y-68878414D01*
X101222652Y-68914748D01*
X101253141Y-68960279D01*
X101273008Y-69008471D01*
X101283441Y-69049384D01*
X101677649Y-68783159D01*
X101691815Y-68783159D01*
X101691815Y-68932880D01*
G37*
G36*
X101684000Y-67993766D02*
G01*
X101684000Y-68603397D01*
X101561390Y-68603397D01*
X101561390Y-68361352D01*
X100806191Y-68361352D01*
X100806191Y-68603397D01*
X100683581Y-68603397D01*
X100683581Y-67993766D01*
X100806191Y-67993766D01*
X100806191Y-68228240D01*
X101561390Y-68228240D01*
X101561390Y-67993766D01*
X101684000Y-67993766D01*
G37*
G36*
X100683581Y-67782741D02*
G01*
X100683581Y-67616900D01*
X101444397Y-67204374D01*
X100683581Y-67204374D01*
X100683581Y-67071261D01*
X101684000Y-67071261D01*
X101684000Y-67231484D01*
X100920252Y-67649628D01*
X101684000Y-67649628D01*
X101684000Y-67782741D01*
X100683581Y-67782741D01*
G37*
G36*
X101199422Y-66539056D02*
G01*
X101199422Y-66180508D01*
X101590699Y-66180508D01*
X101621025Y-66221584D01*
X101648512Y-66267542D01*
X101669463Y-66313833D01*
X101674474Y-66327786D01*
X101687740Y-66376673D01*
X101695479Y-66424913D01*
X101699238Y-66477171D01*
X101699631Y-66501687D01*
X101697459Y-66550797D01*
X101689433Y-66604662D01*
X101675493Y-66654835D01*
X101655639Y-66701314D01*
X101637838Y-66732252D01*
X101608102Y-66772108D01*
X101573176Y-66807686D01*
X101533062Y-66838986D01*
X101487758Y-66866009D01*
X101459540Y-66879531D01*
X101406491Y-66899516D01*
X101357542Y-66912739D01*
X101305380Y-66922357D01*
X101250008Y-66928367D01*
X101191424Y-66930771D01*
X101181348Y-66930822D01*
X101121123Y-66929119D01*
X101064279Y-66924013D01*
X101010817Y-66915503D01*
X100960735Y-66903588D01*
X100914035Y-66888270D01*
X100860415Y-66864335D01*
X100812078Y-66835080D01*
X100794223Y-66821889D01*
X100754046Y-66785337D01*
X100720678Y-66743765D01*
X100694120Y-66697172D01*
X100674372Y-66645557D01*
X100661434Y-66588922D01*
X100655986Y-66539999D01*
X100654760Y-66501198D01*
X100656557Y-66451108D01*
X100662768Y-66398806D01*
X100673415Y-66350034D01*
X100677475Y-66336090D01*
X100694649Y-66288121D01*
X100716940Y-66242045D01*
X100736093Y-66211771D01*
X100835744Y-66272831D01*
X100810920Y-66316242D01*
X100793996Y-66363522D01*
X100788849Y-66386648D01*
X100781417Y-66435355D01*
X100777549Y-66486345D01*
X100777370Y-66499000D01*
X100781174Y-66554705D01*
X100792586Y-66604399D01*
X100815515Y-66654778D01*
X100848799Y-66696976D01*
X100885570Y-66726635D01*
X100928944Y-66750789D01*
X100977916Y-66769946D01*
X101032487Y-66784105D01*
X101082240Y-66792087D01*
X101135880Y-66796599D01*
X101181592Y-66797709D01*
X101237427Y-66795777D01*
X101289374Y-66789981D01*
X101337433Y-66780321D01*
X101389972Y-66763629D01*
X101436912Y-66741372D01*
X101471752Y-66718575D01*
X101512770Y-66681018D01*
X101543713Y-66637805D01*
X101564582Y-66588935D01*
X101575376Y-66534408D01*
X101577021Y-66500710D01*
X101574151Y-66449449D01*
X101565542Y-66401181D01*
X101548995Y-66350455D01*
X101531103Y-66313620D01*
X101322032Y-66313620D01*
X101322032Y-66539056D01*
X101199422Y-66539056D01*
G37*
G36*
X96119422Y-69141708D02*
G01*
X96119422Y-68783159D01*
X96510699Y-68783159D01*
X96541025Y-68824236D01*
X96568512Y-68870193D01*
X96589463Y-68916485D01*
X96594474Y-68930438D01*
X96607740Y-68979324D01*
X96615479Y-69027564D01*
X96619238Y-69079823D01*
X96619631Y-69104339D01*
X96617459Y-69153449D01*
X96609433Y-69207314D01*
X96595493Y-69257487D01*
X96575639Y-69303966D01*
X96557838Y-69334904D01*
X96528102Y-69374760D01*
X96493176Y-69410338D01*
X96453062Y-69441638D01*
X96407758Y-69468661D01*
X96379540Y-69482182D01*
X96326491Y-69502168D01*
X96277542Y-69515391D01*
X96225380Y-69525008D01*
X96170008Y-69531019D01*
X96111424Y-69533423D01*
X96101348Y-69533473D01*
X96041123Y-69531771D01*
X95984279Y-69526665D01*
X95930817Y-69518155D01*
X95880735Y-69506240D01*
X95834035Y-69490922D01*
X95780415Y-69466986D01*
X95732078Y-69437732D01*
X95714223Y-69424541D01*
X95674046Y-69387989D01*
X95640678Y-69346417D01*
X95614120Y-69299823D01*
X95594372Y-69248209D01*
X95581434Y-69191574D01*
X95575986Y-69142651D01*
X95574760Y-69103850D01*
X95576557Y-69053760D01*
X95582768Y-69001458D01*
X95593415Y-68952685D01*
X95597475Y-68938742D01*
X95614649Y-68890773D01*
X95636940Y-68844697D01*
X95656093Y-68814422D01*
X95755744Y-68875483D01*
X95730920Y-68918893D01*
X95713996Y-68966174D01*
X95708849Y-68989300D01*
X95701417Y-69038007D01*
X95697549Y-69088997D01*
X95697370Y-69101652D01*
X95701174Y-69157357D01*
X95712586Y-69207050D01*
X95735515Y-69257430D01*
X95768799Y-69299628D01*
X95805570Y-69329286D01*
X95848944Y-69353441D01*
X95897916Y-69372597D01*
X95952487Y-69386757D01*
X96002240Y-69394739D01*
X96055880Y-69399250D01*
X96101592Y-69400361D01*
X96157427Y-69398429D01*
X96209374Y-69392633D01*
X96257433Y-69382973D01*
X96309972Y-69366281D01*
X96356912Y-69344024D01*
X96391752Y-69321226D01*
X96432770Y-69283670D01*
X96463713Y-69240456D01*
X96484582Y-69191586D01*
X96495376Y-69137060D01*
X96497021Y-69103362D01*
X96494151Y-69052101D01*
X96485542Y-69003833D01*
X96468995Y-68953107D01*
X96451103Y-68916272D01*
X96242032Y-68916272D01*
X96242032Y-69141708D01*
X96119422Y-69141708D01*
G37*
G36*
X95603581Y-68650291D02*
G01*
X95603581Y-68484450D01*
X96364397Y-68071924D01*
X95603581Y-68071924D01*
X95603581Y-67938812D01*
X96604000Y-67938812D01*
X96604000Y-68099035D01*
X95840252Y-68517179D01*
X96604000Y-68517179D01*
X96604000Y-68650291D01*
X95603581Y-68650291D01*
G37*
G36*
X96123598Y-67049340D02*
G01*
X96181553Y-67054263D01*
X96236192Y-67062878D01*
X96287518Y-67075186D01*
X96335529Y-67091186D01*
X96358291Y-67100570D01*
X96407677Y-67125777D01*
X96451757Y-67155448D01*
X96490531Y-67189583D01*
X96523999Y-67228183D01*
X96540741Y-67252245D01*
X96565389Y-67297592D01*
X96583984Y-67346866D01*
X96596525Y-67400067D01*
X96602455Y-67448794D01*
X96604000Y-67491603D01*
X96604000Y-67767109D01*
X95603581Y-67767109D01*
X95603581Y-67484520D01*
X95726191Y-67484520D01*
X95726191Y-67633997D01*
X96481390Y-67633997D01*
X96481390Y-67493069D01*
X96478550Y-67443549D01*
X96468732Y-67394510D01*
X96449834Y-67347839D01*
X96445486Y-67340173D01*
X96415009Y-67298350D01*
X96377800Y-67263740D01*
X96349254Y-67244674D01*
X96302508Y-67221398D01*
X96252397Y-67203961D01*
X96217119Y-67195581D01*
X96167444Y-67187376D01*
X96117827Y-67182578D01*
X96072771Y-67181170D01*
X96022050Y-67183186D01*
X95966317Y-67190925D01*
X95916183Y-67204469D01*
X95864768Y-67227607D01*
X95820974Y-67258646D01*
X95815339Y-67263725D01*
X95780603Y-67302507D01*
X95754398Y-67346618D01*
X95736725Y-67396059D01*
X95727584Y-67450830D01*
X95726191Y-67484520D01*
X95603581Y-67484520D01*
X95603581Y-67483055D01*
X95605990Y-67430519D01*
X95613217Y-67379461D01*
X95625262Y-67329883D01*
X95628249Y-67320145D01*
X95646625Y-67273071D01*
X95670915Y-67229241D01*
X95701121Y-67188654D01*
X95707872Y-67180926D01*
X95745582Y-67144986D01*
X95790018Y-67114103D01*
X95835762Y-67090631D01*
X95852220Y-67083718D01*
X95899527Y-67068117D01*
X95952054Y-67056973D01*
X96002298Y-67050879D01*
X96056540Y-67048197D01*
X96072771Y-67048058D01*
X96123598Y-67049340D01*
G37*
G36*
X99144000Y-69236474D02*
G01*
X98268633Y-69236474D01*
X98268633Y-69533473D01*
X98146023Y-69533473D01*
X98146023Y-68798791D01*
X98268633Y-68798791D01*
X98268633Y-69103362D01*
X99144000Y-69103362D01*
X99144000Y-69236474D01*
G37*
G36*
X99144000Y-67993766D02*
G01*
X99144000Y-68603397D01*
X99021390Y-68603397D01*
X99021390Y-68361352D01*
X98266191Y-68361352D01*
X98266191Y-68603397D01*
X98143581Y-68603397D01*
X98143581Y-67993766D01*
X98266191Y-67993766D01*
X98266191Y-68228240D01*
X99021390Y-68228240D01*
X99021390Y-67993766D01*
X99144000Y-67993766D01*
G37*
G36*
X98507600Y-67058506D02*
G01*
X98562474Y-67069133D01*
X98611878Y-67087591D01*
X98655813Y-67113879D01*
X98683846Y-67137451D01*
X98716965Y-67177362D01*
X98741949Y-67225501D01*
X98756890Y-67273311D01*
X98765854Y-67327167D01*
X98768759Y-67376664D01*
X98768842Y-67387067D01*
X98768842Y-67633997D01*
X99136184Y-67633997D01*
X99136184Y-67767109D01*
X98143581Y-67767109D01*
X98143581Y-67385846D01*
X98266191Y-67385846D01*
X98266191Y-67633997D01*
X98646233Y-67633997D01*
X98646233Y-67385846D01*
X98641924Y-67333396D01*
X98627031Y-67284863D01*
X98598362Y-67243322D01*
X98591766Y-67237102D01*
X98551175Y-67209569D01*
X98504292Y-67193465D01*
X98456212Y-67188742D01*
X98405560Y-67193465D01*
X98357667Y-67209569D01*
X98317970Y-67237102D01*
X98288490Y-67276387D01*
X98272309Y-67322869D01*
X98266393Y-67373473D01*
X98266191Y-67385846D01*
X98143581Y-67385846D01*
X98143581Y-67384625D01*
X98145662Y-67333445D01*
X98153653Y-67277963D01*
X98167638Y-67228956D01*
X98191529Y-67179965D01*
X98223577Y-67139785D01*
X98228822Y-67134764D01*
X98268754Y-67103930D01*
X98314180Y-67080668D01*
X98365098Y-67064981D01*
X98421510Y-67056866D01*
X98456212Y-67055630D01*
X98507600Y-67058506D01*
G37*
G36*
X92932191Y-68892336D02*
G01*
X92932191Y-69314632D01*
X93239692Y-69314632D01*
X93208969Y-69273265D01*
X93188157Y-69230124D01*
X93174483Y-69181656D01*
X93169274Y-69132836D01*
X93169106Y-69121924D01*
X93173839Y-69071539D01*
X93188039Y-69024154D01*
X93209162Y-68983683D01*
X93240481Y-68943501D01*
X93279362Y-68909264D01*
X93321270Y-68883299D01*
X93368487Y-68863464D01*
X93420379Y-68850975D01*
X93471079Y-68846016D01*
X93488820Y-68845685D01*
X93543255Y-68848835D01*
X93593904Y-68858282D01*
X93640765Y-68874028D01*
X93665163Y-68885497D01*
X93709347Y-68913480D01*
X93746947Y-68947664D01*
X93777964Y-68988050D01*
X93783377Y-68996872D01*
X93805659Y-69043912D01*
X93819689Y-69095580D01*
X93825260Y-69146038D01*
X93825631Y-69163690D01*
X93823371Y-69213445D01*
X93815557Y-69265557D01*
X93802162Y-69314329D01*
X93797055Y-69328309D01*
X93775450Y-69374735D01*
X93749602Y-69417333D01*
X93717687Y-69460704D01*
X93701556Y-69480228D01*
X93614117Y-69388637D01*
X93647000Y-69349258D01*
X93673848Y-69305767D01*
X93681284Y-69289963D01*
X93696143Y-69242052D01*
X93702490Y-69191367D01*
X93703021Y-69170284D01*
X93696354Y-69118731D01*
X93676354Y-69072546D01*
X93646601Y-69035218D01*
X93606916Y-69005465D01*
X93558693Y-68986732D01*
X93507991Y-68979294D01*
X93489553Y-68978798D01*
X93437947Y-68983330D01*
X93388564Y-68998783D01*
X93346915Y-69025204D01*
X93313278Y-69064222D01*
X93295166Y-69112032D01*
X93291716Y-69148791D01*
X93296280Y-69199022D01*
X93304661Y-69233787D01*
X93321654Y-69280404D01*
X93338611Y-69314632D01*
X93338611Y-69439684D01*
X92809581Y-69439684D01*
X92809581Y-68892336D01*
X92932191Y-68892336D01*
G37*
G36*
X92809581Y-68675204D02*
G01*
X92809581Y-68533787D01*
X92858792Y-68522807D01*
X92907140Y-68511848D01*
X92970261Y-68497270D01*
X93031848Y-68482730D01*
X93091902Y-68468228D01*
X93150421Y-68453764D01*
X93207406Y-68439339D01*
X93262856Y-68424951D01*
X93290006Y-68417772D01*
X93343118Y-68403236D01*
X93394741Y-68388448D01*
X93444876Y-68373408D01*
X93493522Y-68358116D01*
X93540680Y-68342572D01*
X93597534Y-68322788D01*
X93652063Y-68302611D01*
X93673224Y-68294429D01*
X93619625Y-68274100D01*
X93563701Y-68254177D01*
X93517287Y-68238530D01*
X93469385Y-68223143D01*
X93419994Y-68208015D01*
X93369115Y-68193147D01*
X93316748Y-68178538D01*
X93290006Y-68171331D01*
X93235323Y-68156959D01*
X93179105Y-68142541D01*
X93121353Y-68128077D01*
X93062067Y-68113568D01*
X93001247Y-68099012D01*
X92938892Y-68084411D01*
X92891120Y-68073430D01*
X92842484Y-68062423D01*
X92809581Y-68055071D01*
X92809581Y-67913655D01*
X92869173Y-67927059D01*
X92927507Y-67940528D01*
X92984583Y-67954061D01*
X93040402Y-67967659D01*
X93094962Y-67981321D01*
X93148265Y-67995048D01*
X93200309Y-68008839D01*
X93251096Y-68022694D01*
X93300624Y-68036614D01*
X93348895Y-68050598D01*
X93380376Y-68059956D01*
X93441639Y-68078885D01*
X93500742Y-68098180D01*
X93557685Y-68117842D01*
X93612468Y-68137870D01*
X93665091Y-68158264D01*
X93715554Y-68179025D01*
X93763857Y-68200152D01*
X93810000Y-68221645D01*
X93810000Y-68367214D01*
X93763857Y-68388432D01*
X93715554Y-68409346D01*
X93665091Y-68429954D01*
X93612468Y-68450256D01*
X93557685Y-68470254D01*
X93500742Y-68489946D01*
X93441639Y-68509333D01*
X93380376Y-68528414D01*
X93332944Y-68542528D01*
X93284254Y-68556570D01*
X93234306Y-68570538D01*
X93183101Y-68584433D01*
X93130637Y-68598256D01*
X93076915Y-68612005D01*
X93021935Y-68625682D01*
X92965698Y-68639285D01*
X92908202Y-68652815D01*
X92849449Y-68666273D01*
X92809581Y-68675204D01*
G37*
D11*
G36*
X86961193Y-56987001D02*
G01*
X86961193Y-55498878D01*
X86456294Y-55498878D01*
X86456294Y-55263867D01*
X87731828Y-55263867D01*
X87731828Y-55498878D01*
X87214057Y-55498878D01*
X87214057Y-56987001D01*
X86961193Y-56987001D01*
G37*
G36*
X89100369Y-56987001D02*
G01*
X88037424Y-56987001D01*
X88037424Y-56751990D01*
X88448900Y-56751990D01*
X88448900Y-55494726D01*
X88037424Y-55494726D01*
X88037424Y-55259715D01*
X89100369Y-55259715D01*
X89100369Y-55494726D01*
X88701765Y-55494726D01*
X88701765Y-56751990D01*
X89100369Y-56751990D01*
X89100369Y-56987001D01*
G37*
G36*
X90548632Y-56114223D02*
G01*
X90548632Y-56349234D01*
X89538834Y-56349234D01*
X89538834Y-56114223D01*
X90548632Y-56114223D01*
G37*
G36*
X92076615Y-56494558D02*
G01*
X92070168Y-56586173D01*
X92050826Y-56671056D01*
X92018591Y-56749208D01*
X92010596Y-56764031D01*
X91959066Y-56838545D01*
X91894682Y-56901087D01*
X91824996Y-56947555D01*
X91745660Y-56982370D01*
X91657646Y-57004290D01*
X91571014Y-57012994D01*
X91540575Y-57013574D01*
X91450863Y-57010720D01*
X91358809Y-57000684D01*
X91276148Y-56983423D01*
X91226259Y-56967901D01*
X91145876Y-56934408D01*
X91071868Y-56895805D01*
X90996283Y-56849189D01*
X90962184Y-56825898D01*
X91095882Y-56626181D01*
X91164723Y-56673184D01*
X91240751Y-56716329D01*
X91282313Y-56736212D01*
X91364355Y-56763633D01*
X91447384Y-56776537D01*
X91499054Y-56778564D01*
X91584306Y-56771863D01*
X91670751Y-56745476D01*
X91742784Y-56693860D01*
X91792123Y-56626226D01*
X91819876Y-56544390D01*
X91823750Y-56496634D01*
X91810262Y-56411503D01*
X91769799Y-56337348D01*
X91727836Y-56294010D01*
X91653202Y-56247440D01*
X91569770Y-56221879D01*
X91481993Y-56212533D01*
X91460854Y-56212213D01*
X91319267Y-56212213D01*
X91319267Y-55977203D01*
X91464591Y-55977203D01*
X91550216Y-55970831D01*
X91636223Y-55945738D01*
X91706660Y-55896652D01*
X91756932Y-55823460D01*
X91780590Y-55742153D01*
X91784305Y-55688630D01*
X91772919Y-55606223D01*
X91730855Y-55531631D01*
X91703339Y-55506767D01*
X91626294Y-55465043D01*
X91543651Y-55447221D01*
X91509019Y-55445730D01*
X91422759Y-55456422D01*
X91339061Y-55485866D01*
X91333384Y-55488497D01*
X91260804Y-55529898D01*
X91190828Y-55585278D01*
X91159410Y-55615552D01*
X90985436Y-55447391D01*
X91059260Y-55379210D01*
X91137483Y-55322584D01*
X91220106Y-55277515D01*
X91307128Y-55244002D01*
X91398550Y-55222045D01*
X91494371Y-55211644D01*
X91533932Y-55210720D01*
X91621418Y-55216275D01*
X91710535Y-55235218D01*
X91792194Y-55267604D01*
X91864482Y-55312305D01*
X91930472Y-55373828D01*
X91971151Y-55428707D01*
X92008738Y-55504674D01*
X92030723Y-55589277D01*
X92037170Y-55673682D01*
X92030301Y-55761394D01*
X92009694Y-55844690D01*
X91979040Y-55916582D01*
X91930947Y-55992897D01*
X91873861Y-56053680D01*
X91830809Y-56085573D01*
X91902430Y-56131027D01*
X91964527Y-56193786D01*
X91998970Y-56239617D01*
X92039916Y-56312685D01*
X92065696Y-56391754D01*
X92076312Y-56476824D01*
X92076615Y-56494558D01*
G37*
G36*
X92455289Y-55467737D02*
G01*
X92526298Y-55408884D01*
X92600591Y-55357979D01*
X92678168Y-55315023D01*
X92722686Y-55294593D01*
X92806230Y-55264887D01*
X92894307Y-55244904D01*
X92986916Y-55234642D01*
X93040324Y-55233141D01*
X93131298Y-55239751D01*
X93215297Y-55259579D01*
X93292323Y-55292626D01*
X93306891Y-55300821D01*
X93380213Y-55352846D01*
X93441467Y-55415861D01*
X93486678Y-55482684D01*
X93523556Y-55564473D01*
X93545125Y-55652836D01*
X93551451Y-55738871D01*
X93546747Y-55830128D01*
X93532637Y-55912384D01*
X93506250Y-55992469D01*
X93503286Y-55999209D01*
X93463659Y-56076049D01*
X93417026Y-56145883D01*
X93382044Y-56188546D01*
X93322869Y-56254595D01*
X93263420Y-56319822D01*
X93235889Y-56349649D01*
X92857630Y-56751990D01*
X93604598Y-56751990D01*
X93604598Y-56987001D01*
X92488506Y-56987001D01*
X92488506Y-56759879D01*
X92912854Y-56329303D01*
X92973755Y-56268460D01*
X93034852Y-56208108D01*
X93090565Y-56153668D01*
X93148406Y-56092830D01*
X93203447Y-56023775D01*
X93239211Y-55970144D01*
X93275393Y-55894880D01*
X93295745Y-55807942D01*
X93298586Y-55758801D01*
X93287492Y-55673008D01*
X93250435Y-55591662D01*
X93219696Y-55552855D01*
X93152198Y-55501239D01*
X93067417Y-55473446D01*
X93001294Y-55468152D01*
X92915325Y-55476497D01*
X92833790Y-55499189D01*
X92801992Y-55511749D01*
X92725988Y-55549858D01*
X92650569Y-55599411D01*
X92600614Y-55638804D01*
X92455289Y-55467737D01*
G37*
G36*
X87166308Y-59869574D02*
G01*
X87082042Y-59865808D01*
X86989563Y-59851894D01*
X86903361Y-59827728D01*
X86823439Y-59793310D01*
X86770195Y-59762449D01*
X86701611Y-59710950D01*
X86640459Y-59650549D01*
X86586737Y-59581248D01*
X86540446Y-59503045D01*
X86517330Y-59454361D01*
X86487557Y-59376285D01*
X86463943Y-59292779D01*
X86446489Y-59203842D01*
X86435196Y-59109475D01*
X86430063Y-59009678D01*
X86429720Y-58975206D01*
X86432555Y-58871688D01*
X86441061Y-58773931D01*
X86455236Y-58681936D01*
X86475082Y-58595701D01*
X86500598Y-58515228D01*
X86540467Y-58422737D01*
X86589196Y-58339249D01*
X86611168Y-58308374D01*
X86671508Y-58238757D01*
X86738863Y-58180939D01*
X86813232Y-58134921D01*
X86894616Y-58100703D01*
X86983015Y-58078283D01*
X87078429Y-58067664D01*
X87118558Y-58066720D01*
X87212577Y-58071230D01*
X87298806Y-58084761D01*
X87387818Y-58111269D01*
X87466656Y-58149560D01*
X87484776Y-58160973D01*
X87553183Y-58215418D01*
X87615568Y-58284499D01*
X87665217Y-58356951D01*
X87710256Y-58440609D01*
X87722278Y-58466570D01*
X87505952Y-58574940D01*
X87464536Y-58501107D01*
X87415051Y-58433246D01*
X87350852Y-58371509D01*
X87345265Y-58367334D01*
X87271402Y-58327357D01*
X87184344Y-58305831D01*
X87118974Y-58301730D01*
X87033669Y-58310194D01*
X86946591Y-58340596D01*
X86870620Y-58393107D01*
X86813257Y-58457192D01*
X86798429Y-58478611D01*
X86753291Y-58562851D01*
X86723425Y-58645968D01*
X86701704Y-58739158D01*
X86689825Y-58824509D01*
X86683603Y-58916856D01*
X86682585Y-58975621D01*
X86685697Y-59069691D01*
X86695033Y-59157009D01*
X86714453Y-59252879D01*
X86742835Y-59339028D01*
X86780179Y-59415455D01*
X86810055Y-59461005D01*
X86870615Y-59528632D01*
X86940393Y-59579649D01*
X87019391Y-59614055D01*
X87107607Y-59631852D01*
X87162156Y-59634564D01*
X87245608Y-59630099D01*
X87329708Y-59615044D01*
X87388032Y-59596779D01*
X87464716Y-59560033D01*
X87537883Y-59511576D01*
X87599790Y-59461420D01*
X87751343Y-59659061D01*
X87682158Y-59712883D01*
X87605194Y-59763134D01*
X87529149Y-59802482D01*
X87478963Y-59822655D01*
X87391160Y-59847398D01*
X87304441Y-59861831D01*
X87221236Y-59868429D01*
X87166308Y-59869574D01*
G37*
G36*
X87877983Y-58009421D02*
G01*
X88343436Y-58009421D01*
X88343436Y-58672100D01*
X88415057Y-58627179D01*
X88492724Y-58587416D01*
X88543154Y-58564975D01*
X88625553Y-58536135D01*
X88707756Y-58519266D01*
X88782316Y-58514319D01*
X88866707Y-58522426D01*
X88948482Y-58549102D01*
X88963764Y-58556671D01*
X89032372Y-58608419D01*
X89083235Y-58678447D01*
X89092480Y-58696183D01*
X89121831Y-58778083D01*
X89135941Y-58860607D01*
X89140598Y-58945972D01*
X89140645Y-58956106D01*
X89140645Y-59843001D01*
X88887780Y-59843001D01*
X88887780Y-59023786D01*
X88881591Y-58934606D01*
X88856447Y-58854333D01*
X88843768Y-58835279D01*
X88771106Y-58787821D01*
X88710069Y-58780056D01*
X88623911Y-58789899D01*
X88541078Y-58814934D01*
X88464391Y-58850399D01*
X88389225Y-58895786D01*
X88343436Y-58927871D01*
X88343436Y-59843001D01*
X88090572Y-59843001D01*
X88090572Y-58215366D01*
X87877983Y-58175921D01*
X87877983Y-58009421D01*
G37*
G36*
X89459113Y-59607990D02*
G01*
X89724849Y-59607990D01*
X89724849Y-58675422D01*
X89508939Y-58639298D01*
X89508939Y-58483594D01*
X89946158Y-58483594D01*
X89967334Y-58636392D01*
X90034535Y-58585358D01*
X90107326Y-58538966D01*
X90137986Y-58521378D01*
X90215449Y-58487220D01*
X90297117Y-58468828D01*
X90353897Y-58465324D01*
X90438675Y-58472588D01*
X90518929Y-58494379D01*
X90554445Y-58509337D01*
X90628765Y-58557305D01*
X90687507Y-58624189D01*
X90701430Y-58646772D01*
X90516245Y-58802477D01*
X90454742Y-58745385D01*
X90414103Y-58723587D01*
X90331334Y-58702174D01*
X90297428Y-58700335D01*
X90215227Y-58715686D01*
X90141723Y-58754728D01*
X90071706Y-58807646D01*
X90004271Y-58866321D01*
X89977714Y-58891333D01*
X89977714Y-58895070D01*
X89977714Y-59607990D01*
X90495484Y-59607990D01*
X90495484Y-59843001D01*
X89459113Y-59843001D01*
X89459113Y-59607990D01*
G37*
G36*
X91625382Y-58466726D02*
G01*
X91711228Y-58483386D01*
X91798622Y-58515405D01*
X91859874Y-58550028D01*
X91929890Y-58605428D01*
X91989527Y-58671667D01*
X92038786Y-58748745D01*
X92061667Y-58796249D01*
X92091459Y-58878176D01*
X92112739Y-58967005D01*
X92124376Y-59050394D01*
X92129496Y-59139067D01*
X92129762Y-59165373D01*
X92126504Y-59254665D01*
X92116728Y-59339070D01*
X92097577Y-59429547D01*
X92069913Y-59513641D01*
X92061667Y-59533667D01*
X92023520Y-59608431D01*
X91970801Y-59682181D01*
X91907704Y-59744960D01*
X91859874Y-59780719D01*
X91780041Y-59823671D01*
X91700917Y-59850050D01*
X91614112Y-59865322D01*
X91531856Y-59869574D01*
X91439159Y-59864021D01*
X91353729Y-59847360D01*
X91266306Y-59815341D01*
X91204668Y-59780719D01*
X91134251Y-59725252D01*
X91074343Y-59658816D01*
X91024946Y-59581410D01*
X91002044Y-59533667D01*
X90972253Y-59451169D01*
X90950973Y-59362288D01*
X90939336Y-59279280D01*
X90934215Y-59191384D01*
X90933949Y-59165373D01*
X90933994Y-59164128D01*
X91186814Y-59164128D01*
X91190935Y-59253900D01*
X91203299Y-59337098D01*
X91221692Y-59407027D01*
X91256677Y-59486323D01*
X91309221Y-59554398D01*
X91331723Y-59574358D01*
X91407224Y-59615514D01*
X91494126Y-59633094D01*
X91531856Y-59634564D01*
X91619479Y-59626097D01*
X91697799Y-59597817D01*
X91732819Y-59574358D01*
X91790301Y-59512697D01*
X91830157Y-59439358D01*
X91842020Y-59407027D01*
X91863273Y-59322460D01*
X91874139Y-59238067D01*
X91876898Y-59164128D01*
X91872776Y-59073468D01*
X91860412Y-58990461D01*
X91842020Y-58921643D01*
X91807171Y-58843692D01*
X91755082Y-58776298D01*
X91732819Y-58756388D01*
X91657772Y-58715232D01*
X91570153Y-58697653D01*
X91531856Y-58696183D01*
X91445323Y-58704649D01*
X91367129Y-58732929D01*
X91331723Y-58756388D01*
X91273673Y-58817652D01*
X91231041Y-58896082D01*
X91221692Y-58921643D01*
X91200438Y-59004984D01*
X91189573Y-59089382D01*
X91186814Y-59164128D01*
X90933994Y-59164128D01*
X90937208Y-59075190D01*
X90946983Y-58990291D01*
X90966135Y-58899736D01*
X90993798Y-58816083D01*
X91002044Y-58796249D01*
X91040244Y-58721848D01*
X91093144Y-58648383D01*
X91156555Y-58585757D01*
X91204668Y-58550028D01*
X91284939Y-58507075D01*
X91364011Y-58480696D01*
X91450349Y-58465424D01*
X91531856Y-58461172D01*
X91625382Y-58466726D01*
G37*
G36*
X92355638Y-58487746D02*
G01*
X92587327Y-58487746D01*
X92602274Y-58598608D01*
X92668037Y-58541289D01*
X92725177Y-58504770D01*
X92801680Y-58472072D01*
X92878391Y-58461172D01*
X92961330Y-58472591D01*
X93029113Y-58506846D01*
X93088995Y-58566857D01*
X93109665Y-58605666D01*
X93172375Y-58548576D01*
X93234228Y-58507261D01*
X93312081Y-58472694D01*
X93391179Y-58461172D01*
X93478451Y-58472149D01*
X93557710Y-58508816D01*
X93593803Y-58539232D01*
X93644075Y-58612044D01*
X93667732Y-58695920D01*
X93671448Y-58752236D01*
X93671448Y-58850413D01*
X93671448Y-58949378D01*
X93671448Y-59032451D01*
X93671448Y-59116071D01*
X93671448Y-59200239D01*
X93671448Y-59284954D01*
X93671448Y-59370288D01*
X93671448Y-59456311D01*
X93671448Y-59543023D01*
X93671448Y-59630425D01*
X93671448Y-59718515D01*
X93671448Y-59807295D01*
X93671448Y-59843001D01*
X93418583Y-59843001D01*
X93418583Y-59750849D01*
X93418583Y-59659580D01*
X93418583Y-59569194D01*
X93418583Y-59479689D01*
X93418583Y-59391041D01*
X93418583Y-59303639D01*
X93418583Y-59217482D01*
X93418583Y-59132571D01*
X93418583Y-59040473D01*
X93418583Y-58953827D01*
X93418583Y-58863948D01*
X93418583Y-58829881D01*
X93408378Y-58744690D01*
X93396992Y-58715698D01*
X93322618Y-58673925D01*
X93315195Y-58673761D01*
X93234631Y-58701736D01*
X93223018Y-58710300D01*
X93161484Y-58766946D01*
X93139975Y-58791682D01*
X93139975Y-59843001D01*
X92887110Y-59843001D01*
X92887110Y-58820331D01*
X92875188Y-58736884D01*
X92815281Y-58677340D01*
X92786214Y-58673761D01*
X92703118Y-58701679D01*
X92636379Y-58764213D01*
X92608503Y-58800816D01*
X92608503Y-58890687D01*
X92608503Y-58982485D01*
X92608503Y-59076209D01*
X92608503Y-59171861D01*
X92608503Y-59269439D01*
X92608503Y-59302393D01*
X92608503Y-59401986D01*
X92608503Y-59485604D01*
X92608503Y-59569790D01*
X92608503Y-59654544D01*
X92608503Y-59739866D01*
X92608503Y-59825755D01*
X92608503Y-59843001D01*
X92355638Y-59843001D01*
X92355638Y-59745902D01*
X92355638Y-59647161D01*
X92355638Y-59546778D01*
X92355638Y-59444753D01*
X92355638Y-59341086D01*
X92355638Y-59256969D01*
X92355638Y-59193192D01*
X92355638Y-59107328D01*
X92355638Y-59020801D01*
X92355638Y-58933613D01*
X92355638Y-58845763D01*
X92355638Y-58757251D01*
X92355638Y-58668078D01*
X92355638Y-58578243D01*
X92355638Y-58487746D01*
G37*
G36*
X94552594Y-58465551D02*
G01*
X94611489Y-58472383D01*
X94697110Y-58490884D01*
X94770516Y-58518887D01*
X94840998Y-58564975D01*
X94897156Y-58631825D01*
X94930932Y-58709210D01*
X94944829Y-58791733D01*
X94946566Y-58838601D01*
X94946566Y-59510415D01*
X94965004Y-59592478D01*
X94970648Y-59600516D01*
X95049928Y-59629361D01*
X95079434Y-59630412D01*
X95079434Y-59865422D01*
X94991518Y-59861773D01*
X94906036Y-59847759D01*
X94851482Y-59828053D01*
X94781517Y-59778320D01*
X94747264Y-59729647D01*
X94681765Y-59781505D01*
X94605651Y-59821923D01*
X94599448Y-59824731D01*
X94515640Y-59852057D01*
X94432419Y-59865195D01*
X94347120Y-59869530D01*
X94337034Y-59869574D01*
X94253226Y-59861968D01*
X94168459Y-59839148D01*
X94129012Y-59823485D01*
X94055130Y-59781718D01*
X93991058Y-59726170D01*
X93953792Y-59681483D01*
X93911032Y-59602190D01*
X93889172Y-59516579D01*
X93883621Y-59437338D01*
X93884256Y-59429033D01*
X94122784Y-59429033D01*
X94140949Y-59513425D01*
X94195446Y-59577264D01*
X94273091Y-59617125D01*
X94360701Y-59630412D01*
X94451049Y-59623297D01*
X94531704Y-59599309D01*
X94579933Y-59570206D01*
X94642981Y-59511482D01*
X94691328Y-59443815D01*
X94693702Y-59439414D01*
X94693702Y-59180736D01*
X94606714Y-59179179D01*
X94521404Y-59178668D01*
X94508517Y-59178660D01*
X94421072Y-59183269D01*
X94334084Y-59198439D01*
X94317519Y-59202742D01*
X94238628Y-59234195D01*
X94176346Y-59280387D01*
X94133036Y-59353578D01*
X94122784Y-59429033D01*
X93884256Y-59429033D01*
X93890441Y-59348158D01*
X93913437Y-59263630D01*
X93941336Y-59208970D01*
X93994528Y-59141462D01*
X94059644Y-59086698D01*
X94093719Y-59065722D01*
X94172904Y-59027943D01*
X94257297Y-58999621D01*
X94298004Y-58989738D01*
X94380060Y-58975316D01*
X94467900Y-58967203D01*
X94514745Y-58966071D01*
X94601519Y-58966071D01*
X94689152Y-58966071D01*
X94693702Y-58966071D01*
X94693702Y-58947386D01*
X94688315Y-58861291D01*
X94676678Y-58807044D01*
X94627665Y-58737342D01*
X94605676Y-58724002D01*
X94523143Y-58701507D01*
X94436410Y-58696210D01*
X94428796Y-58696183D01*
X94345181Y-58702862D01*
X94258558Y-58719850D01*
X94176069Y-58742648D01*
X94095423Y-58770626D01*
X94046385Y-58790021D01*
X93918499Y-58595701D01*
X93996270Y-58560157D01*
X94074501Y-58530130D01*
X94161963Y-58503238D01*
X94197107Y-58494389D01*
X94283961Y-58476872D01*
X94368058Y-58465843D01*
X94457380Y-58461205D01*
X94465334Y-58461172D01*
X94552594Y-58465551D01*
G37*
G36*
X96501123Y-59607990D02*
G01*
X96501123Y-59843001D01*
X95438178Y-59843001D01*
X95438178Y-58115715D01*
X95691043Y-58115715D01*
X95691043Y-59607990D01*
X96501123Y-59607990D01*
G37*
G36*
X97524726Y-58466726D02*
G01*
X97610572Y-58483386D01*
X97697966Y-58515405D01*
X97759218Y-58550028D01*
X97829234Y-58605428D01*
X97888871Y-58671667D01*
X97938130Y-58748745D01*
X97961011Y-58796249D01*
X97990803Y-58878176D01*
X98012083Y-58967005D01*
X98023720Y-59050394D01*
X98028840Y-59139067D01*
X98029106Y-59165373D01*
X98025848Y-59254665D01*
X98016072Y-59339070D01*
X97996921Y-59429547D01*
X97969257Y-59513641D01*
X97961011Y-59533667D01*
X97922864Y-59608431D01*
X97870145Y-59682181D01*
X97807048Y-59744960D01*
X97759218Y-59780719D01*
X97679385Y-59823671D01*
X97600261Y-59850050D01*
X97513456Y-59865322D01*
X97431200Y-59869574D01*
X97338504Y-59864021D01*
X97253073Y-59847360D01*
X97165650Y-59815341D01*
X97104012Y-59780719D01*
X97033595Y-59725252D01*
X96973687Y-59658816D01*
X96924290Y-59581410D01*
X96901388Y-59533667D01*
X96871597Y-59451169D01*
X96850317Y-59362288D01*
X96838680Y-59279280D01*
X96833559Y-59191384D01*
X96833293Y-59165373D01*
X96833338Y-59164128D01*
X97086158Y-59164128D01*
X97090279Y-59253900D01*
X97102643Y-59337098D01*
X97121036Y-59407027D01*
X97156021Y-59486323D01*
X97208565Y-59554398D01*
X97231067Y-59574358D01*
X97306568Y-59615514D01*
X97393470Y-59633094D01*
X97431200Y-59634564D01*
X97518823Y-59626097D01*
X97597143Y-59597817D01*
X97632163Y-59574358D01*
X97689645Y-59512697D01*
X97729501Y-59439358D01*
X97741364Y-59407027D01*
X97762617Y-59322460D01*
X97773483Y-59238067D01*
X97776242Y-59164128D01*
X97772120Y-59073468D01*
X97759756Y-58990461D01*
X97741364Y-58921643D01*
X97706515Y-58843692D01*
X97654426Y-58776298D01*
X97632163Y-58756388D01*
X97557116Y-58715232D01*
X97469497Y-58697653D01*
X97431200Y-58696183D01*
X97344667Y-58704649D01*
X97266473Y-58732929D01*
X97231067Y-58756388D01*
X97173017Y-58817652D01*
X97130385Y-58896082D01*
X97121036Y-58921643D01*
X97099782Y-59004984D01*
X97088917Y-59089382D01*
X97086158Y-59164128D01*
X96833338Y-59164128D01*
X96836552Y-59075190D01*
X96846327Y-58990291D01*
X96865479Y-58899736D01*
X96893142Y-58816083D01*
X96901388Y-58796249D01*
X96939588Y-58721848D01*
X96992488Y-58648383D01*
X97055899Y-58585757D01*
X97104012Y-58550028D01*
X97184283Y-58507075D01*
X97263355Y-58480696D01*
X97349693Y-58465424D01*
X97431200Y-58461172D01*
X97524726Y-58466726D01*
G37*
G36*
X98966657Y-59869574D02*
G01*
X98873623Y-59865114D01*
X98787077Y-59851733D01*
X98707019Y-59829431D01*
X98619513Y-59790895D01*
X98541349Y-59739512D01*
X98483349Y-59686880D01*
X98423802Y-59612887D01*
X98376575Y-59528237D01*
X98346630Y-59449555D01*
X98325241Y-59363473D01*
X98312407Y-59269992D01*
X98308129Y-59169110D01*
X98312255Y-59068835D01*
X98324632Y-58975614D01*
X98345261Y-58889450D01*
X98374142Y-58810340D01*
X98419690Y-58724722D01*
X98477121Y-58649264D01*
X98545276Y-58585342D01*
X98622685Y-58534645D01*
X98709350Y-58497174D01*
X98805269Y-58472928D01*
X98892271Y-58462825D01*
X98947557Y-58461172D01*
X99035382Y-58467610D01*
X99118083Y-58486922D01*
X99195661Y-58519109D01*
X99236545Y-58542554D01*
X99304215Y-58594210D01*
X99362885Y-58657625D01*
X99412556Y-58732797D01*
X99436263Y-58779640D01*
X99231978Y-58873479D01*
X99185917Y-58803053D01*
X99121014Y-58744949D01*
X99111981Y-58739365D01*
X99034337Y-58706978D01*
X98947557Y-58696183D01*
X98861582Y-58703942D01*
X98776710Y-58731221D01*
X98704383Y-58778140D01*
X98663136Y-58820331D01*
X98613761Y-58897945D01*
X98583437Y-58980391D01*
X98567378Y-59062919D01*
X98561094Y-59155144D01*
X98560994Y-59169110D01*
X98566060Y-59260577D01*
X98581260Y-59342784D01*
X98611038Y-59425399D01*
X98660359Y-59503885D01*
X98666873Y-59511661D01*
X98733393Y-59571072D01*
X98813839Y-59611039D01*
X98897037Y-59630243D01*
X98966657Y-59634564D01*
X99051688Y-59628054D01*
X99135749Y-59606482D01*
X99163883Y-59595118D01*
X99241666Y-59554007D01*
X99314604Y-59504020D01*
X99342840Y-59481765D01*
X99476538Y-59671518D01*
X99408271Y-59727482D01*
X99335301Y-59774445D01*
X99257627Y-59812406D01*
X99241528Y-59818918D01*
X99159020Y-59845631D01*
X99073431Y-59862451D01*
X98984761Y-59869376D01*
X98966657Y-59869574D01*
G37*
G36*
X100743768Y-59843001D02*
G01*
X100254647Y-59248416D01*
X100115551Y-59397892D01*
X100115551Y-59843001D01*
X99862686Y-59843001D01*
X99862686Y-58009421D01*
X100115551Y-58009421D01*
X100115551Y-59042470D01*
X100634152Y-58487746D01*
X100925631Y-58487746D01*
X100925631Y-58530513D01*
X100418656Y-59071535D01*
X101031926Y-59800649D01*
X101031926Y-59843001D01*
X100743768Y-59843001D01*
G37*
G36*
X86482868Y-62699001D02*
G01*
X86482868Y-62657894D01*
X86954965Y-61837849D01*
X86482868Y-61012821D01*
X86482868Y-60971715D01*
X86754417Y-60971715D01*
X87111085Y-61609067D01*
X87458203Y-60971715D01*
X87731828Y-60971715D01*
X87731828Y-61012406D01*
X87269281Y-61837849D01*
X87731828Y-62658310D01*
X87731828Y-62699001D01*
X87467752Y-62699001D01*
X87113161Y-62061649D01*
X86756493Y-62699001D01*
X86482868Y-62699001D01*
G37*
G36*
X89100369Y-62699001D02*
G01*
X88037424Y-62699001D01*
X88037424Y-62463990D01*
X88448900Y-62463990D01*
X88448900Y-61206726D01*
X88037424Y-61206726D01*
X88037424Y-60971715D01*
X89100369Y-60971715D01*
X89100369Y-61206726D01*
X88701765Y-61206726D01*
X88701765Y-62463990D01*
X89100369Y-62463990D01*
X89100369Y-62699001D01*
G37*
G36*
X90220341Y-61064937D02*
G01*
X90257100Y-61148414D01*
X90293107Y-61235434D01*
X90328361Y-61325995D01*
X90362863Y-61420100D01*
X90396612Y-61517746D01*
X90429608Y-61618935D01*
X90461852Y-61723666D01*
X90485805Y-61804743D01*
X90509707Y-61888221D01*
X90533558Y-61974101D01*
X90557358Y-62062382D01*
X90581106Y-62153064D01*
X90604804Y-62246148D01*
X90628450Y-62341632D01*
X90652046Y-62439518D01*
X90675590Y-62539806D01*
X90699083Y-62642494D01*
X90714717Y-62712287D01*
X90446905Y-62712287D01*
X90427831Y-62626455D01*
X90409224Y-62544593D01*
X90397079Y-62492225D01*
X90378603Y-62410889D01*
X90360392Y-62328508D01*
X90354312Y-62300396D01*
X89747271Y-62300396D01*
X89728270Y-62386800D01*
X89708560Y-62473041D01*
X89704089Y-62492225D01*
X89684517Y-62578220D01*
X89665842Y-62661736D01*
X89654678Y-62712287D01*
X89386866Y-62712287D01*
X89410333Y-62607998D01*
X89433865Y-62506110D01*
X89457463Y-62406623D01*
X89481126Y-62309537D01*
X89504855Y-62214853D01*
X89528650Y-62122570D01*
X89543831Y-62065386D01*
X89805816Y-62065386D01*
X90295352Y-62065386D01*
X90273490Y-61980867D01*
X90251190Y-61897341D01*
X90228452Y-61814808D01*
X90205277Y-61733267D01*
X90181663Y-61652719D01*
X90173695Y-61626091D01*
X90145958Y-61536182D01*
X90118698Y-61452473D01*
X90088128Y-61364396D01*
X90058181Y-61284416D01*
X90050792Y-61265686D01*
X90020974Y-61343642D01*
X89990482Y-61429695D01*
X89963248Y-61511633D01*
X89935497Y-61599770D01*
X89927473Y-61626091D01*
X89903714Y-61706308D01*
X89880392Y-61787517D01*
X89857508Y-61869720D01*
X89835063Y-61952915D01*
X89813055Y-62037103D01*
X89805816Y-62065386D01*
X89543831Y-62065386D01*
X89552511Y-62032688D01*
X89576437Y-61945208D01*
X89600429Y-61860128D01*
X89624486Y-61777450D01*
X89640561Y-61723666D01*
X89673065Y-61618935D01*
X89706217Y-61517746D01*
X89740018Y-61420100D01*
X89774467Y-61325995D01*
X89809566Y-61235434D01*
X89845313Y-61148414D01*
X89881709Y-61064937D01*
X89918754Y-60985002D01*
X90182829Y-60985002D01*
X90220341Y-61064937D01*
G37*
G36*
X91618661Y-60927106D02*
G01*
X91707942Y-60942524D01*
X91788355Y-60969044D01*
X91837037Y-60992891D01*
X91910105Y-61041841D01*
X91973603Y-61101495D01*
X92027532Y-61171854D01*
X92037170Y-61187211D01*
X92076659Y-61260267D01*
X92109645Y-61339300D01*
X92136129Y-61424311D01*
X92148032Y-61474123D01*
X92163291Y-61556880D01*
X92174190Y-61642803D01*
X92180730Y-61731892D01*
X92182909Y-61824147D01*
X92180730Y-61916402D01*
X92174190Y-62005491D01*
X92163291Y-62091414D01*
X92148032Y-62174171D01*
X92125161Y-62262536D01*
X92095788Y-62344989D01*
X92059911Y-62421530D01*
X92037170Y-62461499D01*
X91985155Y-62533999D01*
X91923570Y-62595794D01*
X91852416Y-62646885D01*
X91837037Y-62655818D01*
X91753711Y-62692604D01*
X91669356Y-62714062D01*
X91576134Y-62724484D01*
X91531856Y-62725574D01*
X91446114Y-62721214D01*
X91357596Y-62705887D01*
X91277486Y-62679524D01*
X91228750Y-62655818D01*
X91155561Y-62606869D01*
X91091698Y-62547214D01*
X91037160Y-62476855D01*
X91027372Y-62461499D01*
X90987481Y-62388242D01*
X90954225Y-62309073D01*
X90927603Y-62223993D01*
X90915680Y-62174171D01*
X90900421Y-62091414D01*
X90889521Y-62005491D01*
X90882982Y-61916402D01*
X90880812Y-61824562D01*
X91133667Y-61824562D01*
X91135776Y-61915244D01*
X91142106Y-62002885D01*
X91151521Y-62079918D01*
X91168648Y-62166821D01*
X91195637Y-62251873D01*
X91213803Y-62293753D01*
X91258797Y-62366778D01*
X91320586Y-62428087D01*
X91334630Y-62438247D01*
X91409983Y-62474010D01*
X91495182Y-62489286D01*
X91531856Y-62490564D01*
X91616403Y-62483207D01*
X91699693Y-62456026D01*
X91730327Y-62438247D01*
X91795547Y-62380441D01*
X91842755Y-62310686D01*
X91851154Y-62293753D01*
X91882060Y-62213793D01*
X91903168Y-62131591D01*
X91912191Y-62079918D01*
X91922356Y-61995043D01*
X91928301Y-61907126D01*
X91930045Y-61824562D01*
X91927935Y-61733791D01*
X91921606Y-61646454D01*
X91912191Y-61570037D01*
X91895238Y-61483640D01*
X91868835Y-61398873D01*
X91851154Y-61357033D01*
X91806774Y-61283564D01*
X91744583Y-61221605D01*
X91730327Y-61211293D01*
X91654123Y-61174678D01*
X91568560Y-61159038D01*
X91531856Y-61157730D01*
X91447483Y-61165263D01*
X91364841Y-61193090D01*
X91334630Y-61211293D01*
X91270030Y-61269786D01*
X91222414Y-61340018D01*
X91213803Y-61357033D01*
X91182091Y-61436855D01*
X91160604Y-61518688D01*
X91151521Y-61570037D01*
X91141356Y-61654252D01*
X91135410Y-61741901D01*
X91133667Y-61824562D01*
X90880812Y-61824562D01*
X90880802Y-61824147D01*
X90882982Y-61731892D01*
X90889521Y-61642803D01*
X90900421Y-61556880D01*
X90915680Y-61474123D01*
X90938616Y-61385791D01*
X90968186Y-61303436D01*
X91004391Y-61227059D01*
X91027372Y-61187211D01*
X91080044Y-61114710D01*
X91142042Y-61052915D01*
X91213366Y-61001825D01*
X91228750Y-60992891D01*
X91312052Y-60955887D01*
X91395899Y-60934301D01*
X91488155Y-60923816D01*
X91531856Y-60922720D01*
X91618661Y-60927106D01*
G37*
G36*
X93498304Y-61826223D02*
G01*
X93498304Y-62061234D01*
X92488506Y-62061234D01*
X92488506Y-61826223D01*
X93498304Y-61826223D01*
G37*
G36*
X95039574Y-62463990D02*
G01*
X95039574Y-62699001D01*
X93936769Y-62699001D01*
X93936769Y-60971715D01*
X95026287Y-60971715D01*
X95026287Y-61206726D01*
X94189633Y-61206726D01*
X94189633Y-61689203D01*
X94973140Y-61689203D01*
X94973140Y-61924213D01*
X94189633Y-61924213D01*
X94189633Y-62463990D01*
X95039574Y-62463990D01*
G37*
G36*
X95312784Y-62458592D02*
G01*
X95480945Y-62278805D01*
X95544615Y-62333622D01*
X95618980Y-62385053D01*
X95697157Y-62426509D01*
X95721353Y-62437001D01*
X95802904Y-62465247D01*
X95885103Y-62483031D01*
X95967951Y-62490354D01*
X95984598Y-62490564D01*
X96072237Y-62485407D01*
X96156593Y-62467582D01*
X96233556Y-62433269D01*
X96245767Y-62425375D01*
X96307868Y-62364534D01*
X96339340Y-62282154D01*
X96341681Y-62248495D01*
X96320223Y-62165890D01*
X96291856Y-62129328D01*
X96225161Y-62075567D01*
X96158572Y-62037566D01*
X96082254Y-62001871D01*
X96004841Y-61969864D01*
X95973387Y-61957846D01*
X95890529Y-61925238D01*
X95813679Y-61892948D01*
X95768688Y-61873142D01*
X95693794Y-61836221D01*
X95617930Y-61791610D01*
X95579351Y-61765602D01*
X95514725Y-61711630D01*
X95456777Y-61644462D01*
X95439009Y-61618201D01*
X95404060Y-61542475D01*
X95386929Y-61454961D01*
X95385031Y-61410595D01*
X95392738Y-61324821D01*
X95418483Y-61240729D01*
X95439839Y-61199252D01*
X95489921Y-61129697D01*
X95551105Y-61070148D01*
X95583087Y-61046038D01*
X95657412Y-61000911D01*
X95736671Y-60966063D01*
X95774916Y-60953446D01*
X95858022Y-60933552D01*
X95944763Y-60923470D01*
X95975048Y-60922720D01*
X96065920Y-60927647D01*
X96154493Y-60942426D01*
X96240767Y-60967059D01*
X96287704Y-60985002D01*
X96369025Y-61024929D01*
X96444829Y-61074644D01*
X96515115Y-61134146D01*
X96551779Y-61171432D01*
X96382372Y-61337933D01*
X96317536Y-61279065D01*
X96249307Y-61229391D01*
X96184316Y-61195515D01*
X96099017Y-61169686D01*
X96010845Y-61158653D01*
X95974633Y-61157730D01*
X95888159Y-61166927D01*
X95820174Y-61186795D01*
X95744825Y-61224591D01*
X95690212Y-61269423D01*
X95645253Y-61343674D01*
X95637896Y-61395232D01*
X95657196Y-61477204D01*
X95687306Y-61519381D01*
X95753928Y-61575216D01*
X95821004Y-61614465D01*
X95898174Y-61651568D01*
X95975951Y-61685451D01*
X96007435Y-61698338D01*
X96090289Y-61732559D01*
X96166526Y-61765607D01*
X96210889Y-61785532D01*
X96291144Y-61825040D01*
X96366602Y-61869345D01*
X96399811Y-61891412D01*
X96465106Y-61944172D01*
X96523009Y-62010340D01*
X96540568Y-62036321D01*
X96577467Y-62116556D01*
X96593228Y-62202019D01*
X96594546Y-62237699D01*
X96586936Y-62330006D01*
X96564107Y-62414007D01*
X96526059Y-62489704D01*
X96472791Y-62557095D01*
X96435519Y-62591876D01*
X96359389Y-62643971D01*
X96283697Y-62678440D01*
X96198370Y-62703509D01*
X96103410Y-62719176D01*
X96016917Y-62725052D01*
X95980446Y-62725574D01*
X95897273Y-62722038D01*
X95804506Y-62709335D01*
X95714178Y-62687393D01*
X95626289Y-62656213D01*
X95615474Y-62651666D01*
X95531783Y-62611884D01*
X95453437Y-62566444D01*
X95380438Y-62515347D01*
X95312784Y-62458592D01*
G37*
G36*
X97585575Y-60975344D02*
G01*
X97681879Y-60989280D01*
X97767030Y-61013667D01*
X97852278Y-61055329D01*
X97922345Y-61111216D01*
X97931116Y-61120361D01*
X97984991Y-61190123D01*
X98025634Y-61269342D01*
X98053044Y-61358018D01*
X98066006Y-61441554D01*
X98069382Y-61516474D01*
X98064360Y-61605800D01*
X98049296Y-61688178D01*
X98019028Y-61775503D01*
X97975090Y-61853371D01*
X97926549Y-61912587D01*
X97856966Y-61970507D01*
X97773197Y-62014201D01*
X97690104Y-62040330D01*
X97596589Y-62056008D01*
X97510698Y-62061088D01*
X97492651Y-62061234D01*
X97086158Y-62061234D01*
X97086158Y-62685714D01*
X96833293Y-62685714D01*
X96833293Y-61826223D01*
X97086158Y-61826223D01*
X97494727Y-61826223D01*
X97580786Y-61819227D01*
X97667235Y-61791676D01*
X97738042Y-61737783D01*
X97785863Y-61665205D01*
X97811613Y-61580132D01*
X97816517Y-61516474D01*
X97808854Y-61433618D01*
X97779425Y-61349071D01*
X97738042Y-61291014D01*
X97667235Y-61239651D01*
X97580786Y-61213393D01*
X97494727Y-61206726D01*
X97086158Y-61206726D01*
X97086158Y-61826223D01*
X96833293Y-61826223D01*
X96833293Y-60971715D01*
X97496803Y-60971715D01*
X97585575Y-60975344D01*
G37*
G36*
X99450795Y-62206558D02*
G01*
X99444348Y-62298173D01*
X99425006Y-62383056D01*
X99392771Y-62461208D01*
X99384776Y-62476031D01*
X99333246Y-62550545D01*
X99268862Y-62613087D01*
X99199176Y-62659555D01*
X99119840Y-62694370D01*
X99031826Y-62716290D01*
X98945194Y-62724994D01*
X98914755Y-62725574D01*
X98825043Y-62722720D01*
X98732989Y-62712684D01*
X98650328Y-62695423D01*
X98600439Y-62679901D01*
X98520057Y-62646408D01*
X98446048Y-62607805D01*
X98370463Y-62561189D01*
X98336364Y-62537898D01*
X98470062Y-62338181D01*
X98538903Y-62385184D01*
X98614931Y-62428329D01*
X98656493Y-62448212D01*
X98738535Y-62475633D01*
X98821564Y-62488537D01*
X98873234Y-62490564D01*
X98958486Y-62483863D01*
X99044931Y-62457476D01*
X99116964Y-62405860D01*
X99166303Y-62338226D01*
X99194056Y-62256390D01*
X99197930Y-62208634D01*
X99184442Y-62123503D01*
X99143979Y-62049348D01*
X99102016Y-62006010D01*
X99027382Y-61959440D01*
X98943950Y-61933879D01*
X98856173Y-61924533D01*
X98835034Y-61924213D01*
X98693447Y-61924213D01*
X98693447Y-61689203D01*
X98838771Y-61689203D01*
X98924396Y-61682831D01*
X99010403Y-61657738D01*
X99080840Y-61608652D01*
X99131112Y-61535460D01*
X99154770Y-61454153D01*
X99158485Y-61400630D01*
X99147099Y-61318223D01*
X99105035Y-61243631D01*
X99077519Y-61218767D01*
X99000474Y-61177043D01*
X98917831Y-61159221D01*
X98883199Y-61157730D01*
X98796939Y-61168422D01*
X98713241Y-61197866D01*
X98707564Y-61200497D01*
X98634984Y-61241898D01*
X98565008Y-61297278D01*
X98533590Y-61327552D01*
X98359616Y-61159391D01*
X98433440Y-61091210D01*
X98511663Y-61034584D01*
X98594286Y-60989515D01*
X98681308Y-60956002D01*
X98772730Y-60934045D01*
X98868551Y-60923644D01*
X98908112Y-60922720D01*
X98995598Y-60928275D01*
X99084715Y-60947218D01*
X99166374Y-60979604D01*
X99238662Y-61024305D01*
X99304652Y-61085828D01*
X99345331Y-61140707D01*
X99382918Y-61216674D01*
X99404903Y-61301277D01*
X99411350Y-61385682D01*
X99404481Y-61473394D01*
X99383874Y-61556690D01*
X99353220Y-61628582D01*
X99305127Y-61704897D01*
X99248041Y-61765680D01*
X99204989Y-61797573D01*
X99276610Y-61843027D01*
X99338707Y-61905786D01*
X99373150Y-61951617D01*
X99414096Y-62024685D01*
X99439876Y-62103754D01*
X99450492Y-62188824D01*
X99450795Y-62206558D01*
G37*
G36*
X99829469Y-61179737D02*
G01*
X99900478Y-61120884D01*
X99974771Y-61069979D01*
X100052348Y-61027023D01*
X100096866Y-61006593D01*
X100180410Y-60976887D01*
X100268487Y-60956904D01*
X100361096Y-60946642D01*
X100414504Y-60945141D01*
X100505478Y-60951751D01*
X100589477Y-60971579D01*
X100666503Y-61004626D01*
X100681071Y-61012821D01*
X100754393Y-61064846D01*
X100815647Y-61127861D01*
X100860858Y-61194684D01*
X100897736Y-61276473D01*
X100919306Y-61364836D01*
X100925631Y-61450871D01*
X100920927Y-61542128D01*
X100906817Y-61624384D01*
X100880430Y-61704469D01*
X100877466Y-61711209D01*
X100837839Y-61788049D01*
X100791206Y-61857883D01*
X100756224Y-61900546D01*
X100697049Y-61966595D01*
X100637600Y-62031822D01*
X100610069Y-62061649D01*
X100231810Y-62463990D01*
X100978778Y-62463990D01*
X100978778Y-62699001D01*
X99862686Y-62699001D01*
X99862686Y-62471879D01*
X100287034Y-62041303D01*
X100347935Y-61980460D01*
X100409032Y-61920108D01*
X100464745Y-61865668D01*
X100522586Y-61804830D01*
X100577628Y-61735775D01*
X100613391Y-61682144D01*
X100649573Y-61606880D01*
X100669925Y-61519942D01*
X100672766Y-61470801D01*
X100661672Y-61385008D01*
X100624616Y-61303662D01*
X100593876Y-61264855D01*
X100526378Y-61213239D01*
X100441597Y-61185446D01*
X100375474Y-61180152D01*
X100289506Y-61188497D01*
X100207970Y-61211189D01*
X100176172Y-61223749D01*
X100100168Y-61261858D01*
X100024749Y-61311411D01*
X99974794Y-61350804D01*
X99829469Y-61179737D01*
G37*
G36*
X101914668Y-62725574D02*
G01*
X101830403Y-62721808D01*
X101737923Y-62707894D01*
X101651722Y-62683728D01*
X101571799Y-62649310D01*
X101518555Y-62618449D01*
X101449971Y-62566950D01*
X101388819Y-62506549D01*
X101335097Y-62437248D01*
X101288806Y-62359045D01*
X101265690Y-62310361D01*
X101235917Y-62232285D01*
X101212303Y-62148779D01*
X101194850Y-62059842D01*
X101183556Y-61965475D01*
X101178423Y-61865678D01*
X101178080Y-61831206D01*
X101180916Y-61727688D01*
X101189421Y-61629931D01*
X101203597Y-61537936D01*
X101223442Y-61451701D01*
X101248959Y-61371228D01*
X101288828Y-61278737D01*
X101337556Y-61195249D01*
X101359528Y-61164374D01*
X101419868Y-61094757D01*
X101487223Y-61036939D01*
X101561592Y-60990921D01*
X101642976Y-60956703D01*
X101731375Y-60934283D01*
X101826789Y-60923664D01*
X101866919Y-60922720D01*
X101960937Y-60927230D01*
X102047166Y-60940761D01*
X102136178Y-60967269D01*
X102215016Y-61005560D01*
X102233136Y-61016973D01*
X102301543Y-61071418D01*
X102363928Y-61140499D01*
X102413577Y-61212951D01*
X102458616Y-61296609D01*
X102470638Y-61322570D01*
X102254312Y-61430940D01*
X102212896Y-61357107D01*
X102163411Y-61289246D01*
X102099212Y-61227509D01*
X102093625Y-61223334D01*
X102019762Y-61183357D01*
X101932704Y-61161831D01*
X101867334Y-61157730D01*
X101782029Y-61166194D01*
X101694952Y-61196596D01*
X101618981Y-61249107D01*
X101561617Y-61313192D01*
X101546789Y-61334611D01*
X101501651Y-61418851D01*
X101471785Y-61501968D01*
X101450064Y-61595158D01*
X101438185Y-61680509D01*
X101431963Y-61772856D01*
X101430945Y-61831621D01*
X101434057Y-61925691D01*
X101443393Y-62013009D01*
X101462813Y-62108879D01*
X101491195Y-62195028D01*
X101528540Y-62271455D01*
X101558415Y-62317005D01*
X101618975Y-62384632D01*
X101688753Y-62435649D01*
X101767751Y-62470055D01*
X101855967Y-62487852D01*
X101910516Y-62490564D01*
X101993968Y-62486099D01*
X102078068Y-62471044D01*
X102136392Y-62452779D01*
X102213076Y-62416033D01*
X102286243Y-62367576D01*
X102348150Y-62317420D01*
X102499703Y-62515061D01*
X102430518Y-62568883D01*
X102353554Y-62619134D01*
X102277509Y-62658482D01*
X102227323Y-62678655D01*
X102139520Y-62703398D01*
X102052801Y-62717831D01*
X101969597Y-62724429D01*
X101914668Y-62725574D01*
G37*
G36*
X103875303Y-62206558D02*
G01*
X103868856Y-62298173D01*
X103849514Y-62383056D01*
X103817279Y-62461208D01*
X103809284Y-62476031D01*
X103757754Y-62550545D01*
X103693370Y-62613087D01*
X103623684Y-62659555D01*
X103544348Y-62694370D01*
X103456334Y-62716290D01*
X103369702Y-62724994D01*
X103339263Y-62725574D01*
X103249551Y-62722720D01*
X103157497Y-62712684D01*
X103074836Y-62695423D01*
X103024947Y-62679901D01*
X102944565Y-62646408D01*
X102870556Y-62607805D01*
X102794971Y-62561189D01*
X102760872Y-62537898D01*
X102894570Y-62338181D01*
X102963411Y-62385184D01*
X103039439Y-62428329D01*
X103081001Y-62448212D01*
X103163043Y-62475633D01*
X103246072Y-62488537D01*
X103297742Y-62490564D01*
X103382994Y-62483863D01*
X103469439Y-62457476D01*
X103541472Y-62405860D01*
X103590811Y-62338226D01*
X103618564Y-62256390D01*
X103622438Y-62208634D01*
X103608951Y-62123503D01*
X103568487Y-62049348D01*
X103526524Y-62006010D01*
X103451890Y-61959440D01*
X103368458Y-61933879D01*
X103280681Y-61924533D01*
X103259542Y-61924213D01*
X103117955Y-61924213D01*
X103117955Y-61689203D01*
X103263279Y-61689203D01*
X103348904Y-61682831D01*
X103434911Y-61657738D01*
X103505348Y-61608652D01*
X103555620Y-61535460D01*
X103579278Y-61454153D01*
X103582993Y-61400630D01*
X103571607Y-61318223D01*
X103529543Y-61243631D01*
X103502027Y-61218767D01*
X103424982Y-61177043D01*
X103342339Y-61159221D01*
X103307707Y-61157730D01*
X103221447Y-61168422D01*
X103137749Y-61197866D01*
X103132072Y-61200497D01*
X103059492Y-61241898D01*
X102989516Y-61297278D01*
X102958098Y-61327552D01*
X102784124Y-61159391D01*
X102857948Y-61091210D01*
X102936171Y-61034584D01*
X103018794Y-60989515D01*
X103105816Y-60956002D01*
X103197238Y-60934045D01*
X103293060Y-60923644D01*
X103332620Y-60922720D01*
X103420107Y-60928275D01*
X103509223Y-60947218D01*
X103590882Y-60979604D01*
X103663170Y-61024305D01*
X103729160Y-61085828D01*
X103769839Y-61140707D01*
X103807426Y-61216674D01*
X103829411Y-61301277D01*
X103835858Y-61385682D01*
X103828989Y-61473394D01*
X103808382Y-61556690D01*
X103777728Y-61628582D01*
X103729635Y-61704897D01*
X103672549Y-61765680D01*
X103629497Y-61797573D01*
X103701118Y-61843027D01*
X103763215Y-61905786D01*
X103797658Y-61951617D01*
X103838604Y-62024685D01*
X103864384Y-62103754D01*
X103875000Y-62188824D01*
X103875303Y-62206558D01*
G37*
G36*
X86482868Y-63827715D02*
G01*
X86785973Y-63827715D01*
X87466092Y-65082073D01*
X87466092Y-63827715D01*
X87718956Y-63827715D01*
X87718956Y-65555001D01*
X87425401Y-65555001D01*
X86735732Y-64295245D01*
X86735732Y-65555001D01*
X86482868Y-65555001D01*
X86482868Y-63827715D01*
G37*
G36*
X88653250Y-64177551D02*
G01*
X88712145Y-64184383D01*
X88797766Y-64202884D01*
X88871172Y-64230887D01*
X88941654Y-64276975D01*
X88997812Y-64343825D01*
X89031588Y-64421210D01*
X89045485Y-64503733D01*
X89047222Y-64550601D01*
X89047222Y-65222415D01*
X89065660Y-65304478D01*
X89071304Y-65312516D01*
X89150584Y-65341361D01*
X89180090Y-65342412D01*
X89180090Y-65577422D01*
X89092174Y-65573773D01*
X89006692Y-65559759D01*
X88952138Y-65540053D01*
X88882173Y-65490320D01*
X88847920Y-65441647D01*
X88782421Y-65493505D01*
X88706307Y-65533923D01*
X88700104Y-65536731D01*
X88616296Y-65564057D01*
X88533075Y-65577195D01*
X88447776Y-65581530D01*
X88437690Y-65581574D01*
X88353882Y-65573968D01*
X88269115Y-65551148D01*
X88229668Y-65535485D01*
X88155786Y-65493718D01*
X88091714Y-65438170D01*
X88054448Y-65393483D01*
X88011688Y-65314190D01*
X87989828Y-65228579D01*
X87984277Y-65149338D01*
X87984912Y-65141033D01*
X88223440Y-65141033D01*
X88241605Y-65225425D01*
X88296102Y-65289264D01*
X88373747Y-65329125D01*
X88461357Y-65342412D01*
X88551705Y-65335297D01*
X88632360Y-65311309D01*
X88680589Y-65282206D01*
X88743637Y-65223482D01*
X88791984Y-65155815D01*
X88794357Y-65151414D01*
X88794357Y-64892736D01*
X88707370Y-64891179D01*
X88622060Y-64890668D01*
X88609173Y-64890660D01*
X88521728Y-64895269D01*
X88434740Y-64910439D01*
X88418175Y-64914742D01*
X88339284Y-64946195D01*
X88277002Y-64992387D01*
X88233692Y-65065578D01*
X88223440Y-65141033D01*
X87984912Y-65141033D01*
X87991097Y-65060158D01*
X88014093Y-64975630D01*
X88041992Y-64920970D01*
X88095184Y-64853462D01*
X88160300Y-64798698D01*
X88194375Y-64777722D01*
X88273560Y-64739943D01*
X88357953Y-64711621D01*
X88398660Y-64701738D01*
X88480716Y-64687316D01*
X88568556Y-64679203D01*
X88615401Y-64678071D01*
X88702175Y-64678071D01*
X88789808Y-64678071D01*
X88794357Y-64678071D01*
X88794357Y-64659386D01*
X88788971Y-64573291D01*
X88777334Y-64519044D01*
X88728321Y-64449342D01*
X88706332Y-64436002D01*
X88623799Y-64413507D01*
X88537066Y-64408210D01*
X88529452Y-64408183D01*
X88445837Y-64414862D01*
X88359214Y-64431850D01*
X88276725Y-64454648D01*
X88196079Y-64482626D01*
X88147041Y-64502021D01*
X88019155Y-64307701D01*
X88096926Y-64272157D01*
X88175157Y-64242130D01*
X88262619Y-64215238D01*
X88297763Y-64206389D01*
X88384617Y-64188872D01*
X88468714Y-64177843D01*
X88558036Y-64173205D01*
X88565990Y-64173172D01*
X88653250Y-64177551D01*
G37*
G36*
X89405966Y-64199746D02*
G01*
X89637655Y-64199746D01*
X89652602Y-64310608D01*
X89718365Y-64253289D01*
X89775505Y-64216770D01*
X89852008Y-64184072D01*
X89928719Y-64173172D01*
X90011658Y-64184591D01*
X90079441Y-64218846D01*
X90139323Y-64278857D01*
X90159993Y-64317666D01*
X90222703Y-64260576D01*
X90284556Y-64219261D01*
X90362409Y-64184694D01*
X90441507Y-64173172D01*
X90528779Y-64184149D01*
X90608038Y-64220816D01*
X90644131Y-64251232D01*
X90694403Y-64324044D01*
X90718060Y-64407920D01*
X90721775Y-64464236D01*
X90721775Y-64562413D01*
X90721775Y-64661378D01*
X90721775Y-64744451D01*
X90721775Y-64828071D01*
X90721775Y-64912239D01*
X90721775Y-64996954D01*
X90721775Y-65082288D01*
X90721775Y-65168311D01*
X90721775Y-65255023D01*
X90721775Y-65342425D01*
X90721775Y-65430515D01*
X90721775Y-65519295D01*
X90721775Y-65555001D01*
X90468911Y-65555001D01*
X90468911Y-65462849D01*
X90468911Y-65371580D01*
X90468911Y-65281194D01*
X90468911Y-65191689D01*
X90468911Y-65103041D01*
X90468911Y-65015639D01*
X90468911Y-64929482D01*
X90468911Y-64844571D01*
X90468911Y-64752473D01*
X90468911Y-64665827D01*
X90468911Y-64575948D01*
X90468911Y-64541881D01*
X90458706Y-64456690D01*
X90447320Y-64427698D01*
X90372946Y-64385925D01*
X90365523Y-64385761D01*
X90284959Y-64413736D01*
X90273346Y-64422300D01*
X90211812Y-64478946D01*
X90190303Y-64503682D01*
X90190303Y-65555001D01*
X89937438Y-65555001D01*
X89937438Y-64532331D01*
X89925516Y-64448884D01*
X89865609Y-64389340D01*
X89836542Y-64385761D01*
X89753446Y-64413679D01*
X89686707Y-64476213D01*
X89658831Y-64512816D01*
X89658831Y-64602687D01*
X89658831Y-64694485D01*
X89658831Y-64788209D01*
X89658831Y-64883861D01*
X89658831Y-64981439D01*
X89658831Y-65014393D01*
X89658831Y-65113986D01*
X89658831Y-65197604D01*
X89658831Y-65281790D01*
X89658831Y-65366544D01*
X89658831Y-65451866D01*
X89658831Y-65537755D01*
X89658831Y-65555001D01*
X89405966Y-65555001D01*
X89405966Y-65457902D01*
X89405966Y-65359161D01*
X89405966Y-65258778D01*
X89405966Y-65156753D01*
X89405966Y-65053086D01*
X89405966Y-64968969D01*
X89405966Y-64905192D01*
X89405966Y-64819328D01*
X89405966Y-64732801D01*
X89405966Y-64645613D01*
X89405966Y-64557763D01*
X89405966Y-64469251D01*
X89405966Y-64380078D01*
X89405966Y-64290243D01*
X89405966Y-64199746D01*
G37*
G36*
X91614509Y-64177869D02*
G01*
X91702389Y-64194382D01*
X91781400Y-64222785D01*
X91829148Y-64248326D01*
X91900391Y-64300122D01*
X91961011Y-64361569D01*
X92011006Y-64432666D01*
X92019731Y-64448043D01*
X92057278Y-64528247D01*
X92084283Y-64613155D01*
X92100746Y-64702766D01*
X92102773Y-64721253D01*
X92106317Y-64805093D01*
X92100598Y-64889852D01*
X92085618Y-64975531D01*
X92073293Y-65023528D01*
X91171451Y-65023528D01*
X91190659Y-65106160D01*
X91227899Y-65182274D01*
X91245359Y-65206222D01*
X91307775Y-65266569D01*
X91383693Y-65309036D01*
X91394836Y-65313347D01*
X91476456Y-65336054D01*
X91563639Y-65346045D01*
X91589570Y-65346564D01*
X91674202Y-65340238D01*
X91741953Y-65330370D01*
X91827316Y-65310498D01*
X91907468Y-65283192D01*
X91970321Y-65257293D01*
X92059176Y-65463238D01*
X91976341Y-65500166D01*
X91892085Y-65532219D01*
X91809562Y-65556045D01*
X91772679Y-65563305D01*
X91690292Y-65574438D01*
X91606969Y-65580700D01*
X91564658Y-65581574D01*
X91471442Y-65576514D01*
X91383625Y-65561332D01*
X91301205Y-65536030D01*
X91224183Y-65500608D01*
X91153882Y-65455220D01*
X91084410Y-65392929D01*
X91031204Y-65327579D01*
X90991249Y-65262691D01*
X90954554Y-65180219D01*
X90928344Y-65089339D01*
X90914010Y-65002922D01*
X90907703Y-64910068D01*
X90907376Y-64882356D01*
X90911135Y-64788518D01*
X91160240Y-64788518D01*
X91872745Y-64788518D01*
X91870106Y-64701730D01*
X91847395Y-64617315D01*
X91842850Y-64606239D01*
X91797848Y-64530716D01*
X91733686Y-64469973D01*
X91723684Y-64462991D01*
X91645447Y-64425524D01*
X91559563Y-64409521D01*
X91523136Y-64408183D01*
X91435238Y-64417297D01*
X91352993Y-64447497D01*
X91326741Y-64463406D01*
X91262923Y-64517880D01*
X91213887Y-64585388D01*
X91202592Y-64607070D01*
X91173641Y-64685329D01*
X91160612Y-64771119D01*
X91160240Y-64788518D01*
X90911135Y-64788518D01*
X90911481Y-64779889D01*
X90923798Y-64685024D01*
X90944325Y-64597763D01*
X90973064Y-64518104D01*
X91018388Y-64432549D01*
X91075537Y-64357942D01*
X91142840Y-64295149D01*
X91218318Y-64245348D01*
X91301971Y-64208538D01*
X91393797Y-64184720D01*
X91476564Y-64174796D01*
X91528949Y-64173172D01*
X91614509Y-64177869D01*
G37*
G36*
X92475219Y-63734707D02*
G01*
X93007107Y-63734707D01*
X93007107Y-65124425D01*
X93015973Y-65208372D01*
X93017903Y-65217017D01*
X93063008Y-65288106D01*
X93067728Y-65291756D01*
X93149940Y-65318225D01*
X93188140Y-65319990D01*
X93485017Y-65319990D01*
X93485017Y-65555001D01*
X93075617Y-65555001D01*
X92990309Y-65547445D01*
X92909480Y-65519033D01*
X92870502Y-65491058D01*
X92815324Y-65423265D01*
X92782263Y-65345835D01*
X92777494Y-65327464D01*
X92762440Y-65244921D01*
X92755060Y-65159226D01*
X92754242Y-65118612D01*
X92754242Y-63946466D01*
X92475219Y-63896225D01*
X92475219Y-63734707D01*
G37*
G36*
X94564181Y-64177869D02*
G01*
X94652061Y-64194382D01*
X94731072Y-64222785D01*
X94778820Y-64248326D01*
X94850063Y-64300122D01*
X94910683Y-64361569D01*
X94960679Y-64432666D01*
X94969403Y-64448043D01*
X95006950Y-64528247D01*
X95033955Y-64613155D01*
X95050418Y-64702766D01*
X95052445Y-64721253D01*
X95055989Y-64805093D01*
X95050270Y-64889852D01*
X95035290Y-64975531D01*
X95022965Y-65023528D01*
X94121123Y-65023528D01*
X94140331Y-65106160D01*
X94177571Y-65182274D01*
X94195031Y-65206222D01*
X94257447Y-65266569D01*
X94333365Y-65309036D01*
X94344508Y-65313347D01*
X94426128Y-65336054D01*
X94513311Y-65346045D01*
X94539242Y-65346564D01*
X94623874Y-65340238D01*
X94691625Y-65330370D01*
X94776988Y-65310498D01*
X94857140Y-65283192D01*
X94919993Y-65257293D01*
X95008848Y-65463238D01*
X94926013Y-65500166D01*
X94841757Y-65532219D01*
X94759234Y-65556045D01*
X94722351Y-65563305D01*
X94639964Y-65574438D01*
X94556641Y-65580700D01*
X94514330Y-65581574D01*
X94421114Y-65576514D01*
X94333297Y-65561332D01*
X94250877Y-65536030D01*
X94173855Y-65500608D01*
X94103554Y-65455220D01*
X94034082Y-65392929D01*
X93980876Y-65327579D01*
X93940921Y-65262691D01*
X93904226Y-65180219D01*
X93878016Y-65089339D01*
X93863682Y-65002922D01*
X93857375Y-64910068D01*
X93857048Y-64882356D01*
X93860807Y-64788518D01*
X94109912Y-64788518D01*
X94822418Y-64788518D01*
X94819778Y-64701730D01*
X94797067Y-64617315D01*
X94792522Y-64606239D01*
X94747520Y-64530716D01*
X94683359Y-64469973D01*
X94673356Y-64462991D01*
X94595119Y-64425524D01*
X94509235Y-64409521D01*
X94472808Y-64408183D01*
X94384910Y-64417297D01*
X94302666Y-64447497D01*
X94276413Y-64463406D01*
X94212595Y-64517880D01*
X94163559Y-64585388D01*
X94152264Y-64607070D01*
X94123313Y-64685329D01*
X94110285Y-64771119D01*
X94109912Y-64788518D01*
X93860807Y-64788518D01*
X93861153Y-64779889D01*
X93873470Y-64685024D01*
X93893997Y-64597763D01*
X93922736Y-64518104D01*
X93968060Y-64432549D01*
X94025209Y-64357942D01*
X94092512Y-64295149D01*
X94167990Y-64245348D01*
X94251643Y-64208538D01*
X94343469Y-64184720D01*
X94426236Y-64174796D01*
X94478621Y-64173172D01*
X94564181Y-64177869D01*
G37*
G36*
X95377557Y-65367324D02*
G01*
X95539490Y-65189613D01*
X95611769Y-65234903D01*
X95691402Y-65276924D01*
X95751664Y-65303382D01*
X95831735Y-65329696D01*
X95917161Y-65344497D01*
X95962592Y-65346564D01*
X96049260Y-65341559D01*
X96135297Y-65320714D01*
X96168122Y-65304212D01*
X96225928Y-65242838D01*
X96235387Y-65197917D01*
X96207073Y-65116631D01*
X96180579Y-65089962D01*
X96108220Y-65041806D01*
X96036500Y-65008165D01*
X95955924Y-64976353D01*
X95876692Y-64947097D01*
X95845087Y-64935918D01*
X95763672Y-64904786D01*
X95685410Y-64870091D01*
X95650352Y-64852876D01*
X95575816Y-64806928D01*
X95513520Y-64751920D01*
X95497969Y-64734540D01*
X95455053Y-64660495D01*
X95438704Y-64577887D01*
X95438178Y-64558490D01*
X95449035Y-64474756D01*
X95484549Y-64396501D01*
X95487588Y-64391989D01*
X95544161Y-64325659D01*
X95610208Y-64274222D01*
X95615059Y-64271162D01*
X95691068Y-64230612D01*
X95772734Y-64200828D01*
X95784050Y-64197670D01*
X95868685Y-64180086D01*
X95956749Y-64173196D01*
X95962177Y-64173172D01*
X96052648Y-64178038D01*
X96135658Y-64192635D01*
X96218352Y-64219932D01*
X96225422Y-64222998D01*
X96303566Y-64262953D01*
X96375969Y-64309664D01*
X96442241Y-64360164D01*
X96457110Y-64372474D01*
X96300990Y-64543957D01*
X96229033Y-64494049D01*
X96156597Y-64453176D01*
X96131999Y-64441815D01*
X96049890Y-64416591D01*
X95964052Y-64408215D01*
X95958025Y-64408183D01*
X95871409Y-64416130D01*
X95787955Y-64442284D01*
X95772424Y-64449704D01*
X95706620Y-64502590D01*
X95691043Y-64552261D01*
X95731098Y-64625514D01*
X95743360Y-64634889D01*
X95819153Y-64678625D01*
X95886193Y-64708382D01*
X95967495Y-64741148D01*
X96047402Y-64772997D01*
X96079267Y-64785611D01*
X96161351Y-64820728D01*
X96239597Y-64859957D01*
X96274417Y-64879449D01*
X96344103Y-64926606D01*
X96407501Y-64986280D01*
X96427215Y-65009826D01*
X96468939Y-65082840D01*
X96487298Y-65167458D01*
X96488251Y-65193765D01*
X96479584Y-65277405D01*
X96449112Y-65361015D01*
X96396700Y-65433523D01*
X96349570Y-65475695D01*
X96273119Y-65522017D01*
X96194559Y-65551692D01*
X96105111Y-65571234D01*
X96019775Y-65579920D01*
X95958440Y-65581574D01*
X95867907Y-65576910D01*
X95778951Y-65562919D01*
X95691572Y-65539600D01*
X95643709Y-65522614D01*
X95561215Y-65486325D01*
X95484700Y-65444255D01*
X95414162Y-65396405D01*
X95377557Y-65367324D01*
G37*
G36*
X96852393Y-65367324D02*
G01*
X97014326Y-65189613D01*
X97086605Y-65234903D01*
X97166238Y-65276924D01*
X97226500Y-65303382D01*
X97306571Y-65329696D01*
X97391997Y-65344497D01*
X97437428Y-65346564D01*
X97524096Y-65341559D01*
X97610133Y-65320714D01*
X97642958Y-65304212D01*
X97700764Y-65242838D01*
X97710223Y-65197917D01*
X97681909Y-65116631D01*
X97655415Y-65089962D01*
X97583056Y-65041806D01*
X97511336Y-65008165D01*
X97430760Y-64976353D01*
X97351528Y-64947097D01*
X97319923Y-64935918D01*
X97238508Y-64904786D01*
X97160246Y-64870091D01*
X97125188Y-64852876D01*
X97050652Y-64806928D01*
X96988356Y-64751920D01*
X96972805Y-64734540D01*
X96929889Y-64660495D01*
X96913540Y-64577887D01*
X96913014Y-64558490D01*
X96923871Y-64474756D01*
X96959385Y-64396501D01*
X96962424Y-64391989D01*
X97018997Y-64325659D01*
X97085044Y-64274222D01*
X97089895Y-64271162D01*
X97165904Y-64230612D01*
X97247570Y-64200828D01*
X97258886Y-64197670D01*
X97343521Y-64180086D01*
X97431585Y-64173196D01*
X97437013Y-64173172D01*
X97527484Y-64178038D01*
X97610494Y-64192635D01*
X97693188Y-64219932D01*
X97700258Y-64222998D01*
X97778402Y-64262953D01*
X97850805Y-64309664D01*
X97917077Y-64360164D01*
X97931946Y-64372474D01*
X97775826Y-64543957D01*
X97703869Y-64494049D01*
X97631433Y-64453176D01*
X97606835Y-64441815D01*
X97524726Y-64416591D01*
X97438888Y-64408215D01*
X97432861Y-64408183D01*
X97346245Y-64416130D01*
X97262791Y-64442284D01*
X97247260Y-64449704D01*
X97181456Y-64502590D01*
X97165879Y-64552261D01*
X97205934Y-64625514D01*
X97218196Y-64634889D01*
X97293989Y-64678625D01*
X97361029Y-64708382D01*
X97442331Y-64741148D01*
X97522238Y-64772997D01*
X97554103Y-64785611D01*
X97636187Y-64820728D01*
X97714433Y-64859957D01*
X97749253Y-64879449D01*
X97818939Y-64926606D01*
X97882337Y-64986280D01*
X97902051Y-65009826D01*
X97943775Y-65082840D01*
X97962134Y-65167458D01*
X97963087Y-65193765D01*
X97954420Y-65277405D01*
X97923948Y-65361015D01*
X97871536Y-65433523D01*
X97824406Y-65475695D01*
X97747955Y-65522017D01*
X97669395Y-65551692D01*
X97579947Y-65571234D01*
X97494611Y-65579920D01*
X97433276Y-65581574D01*
X97342743Y-65576910D01*
X97253787Y-65562919D01*
X97166408Y-65539600D01*
X97118545Y-65522614D01*
X97036051Y-65486325D01*
X96959536Y-65444255D01*
X96888998Y-65396405D01*
X96852393Y-65367324D01*
G37*
G36*
X98281556Y-63827715D02*
G01*
X98584661Y-63827715D01*
X99264780Y-65082073D01*
X99264780Y-63827715D01*
X99517644Y-63827715D01*
X99517644Y-65555001D01*
X99224089Y-65555001D01*
X98534420Y-64295245D01*
X98534420Y-65555001D01*
X98281556Y-65555001D01*
X98281556Y-63827715D01*
G37*
G36*
X100451938Y-64177551D02*
G01*
X100510833Y-64184383D01*
X100596454Y-64202884D01*
X100669860Y-64230887D01*
X100740342Y-64276975D01*
X100796500Y-64343825D01*
X100830276Y-64421210D01*
X100844173Y-64503733D01*
X100845910Y-64550601D01*
X100845910Y-65222415D01*
X100864348Y-65304478D01*
X100869993Y-65312516D01*
X100949272Y-65341361D01*
X100978778Y-65342412D01*
X100978778Y-65577422D01*
X100890862Y-65573773D01*
X100805380Y-65559759D01*
X100750826Y-65540053D01*
X100680861Y-65490320D01*
X100646608Y-65441647D01*
X100581109Y-65493505D01*
X100504995Y-65533923D01*
X100498792Y-65536731D01*
X100414984Y-65564057D01*
X100331763Y-65577195D01*
X100246464Y-65581530D01*
X100236378Y-65581574D01*
X100152570Y-65573968D01*
X100067803Y-65551148D01*
X100028356Y-65535485D01*
X99954474Y-65493718D01*
X99890402Y-65438170D01*
X99853136Y-65393483D01*
X99810376Y-65314190D01*
X99788516Y-65228579D01*
X99782965Y-65149338D01*
X99783600Y-65141033D01*
X100022128Y-65141033D01*
X100040293Y-65225425D01*
X100094790Y-65289264D01*
X100172435Y-65329125D01*
X100260045Y-65342412D01*
X100350393Y-65335297D01*
X100431048Y-65311309D01*
X100479277Y-65282206D01*
X100542326Y-65223482D01*
X100590672Y-65155815D01*
X100593046Y-65151414D01*
X100593046Y-64892736D01*
X100506058Y-64891179D01*
X100420748Y-64890668D01*
X100407861Y-64890660D01*
X100320416Y-64895269D01*
X100233428Y-64910439D01*
X100216863Y-64914742D01*
X100137972Y-64946195D01*
X100075690Y-64992387D01*
X100032380Y-65065578D01*
X100022128Y-65141033D01*
X99783600Y-65141033D01*
X99789785Y-65060158D01*
X99812781Y-64975630D01*
X99840680Y-64920970D01*
X99893872Y-64853462D01*
X99958988Y-64798698D01*
X99993063Y-64777722D01*
X100072248Y-64739943D01*
X100156641Y-64711621D01*
X100197348Y-64701738D01*
X100279404Y-64687316D01*
X100367244Y-64679203D01*
X100414089Y-64678071D01*
X100500863Y-64678071D01*
X100588496Y-64678071D01*
X100593046Y-64678071D01*
X100593046Y-64659386D01*
X100587659Y-64573291D01*
X100576022Y-64519044D01*
X100527009Y-64449342D01*
X100505020Y-64436002D01*
X100422487Y-64413507D01*
X100335754Y-64408210D01*
X100328140Y-64408183D01*
X100244525Y-64414862D01*
X100157903Y-64431850D01*
X100075413Y-64454648D01*
X99994767Y-64482626D01*
X99945729Y-64502021D01*
X99817843Y-64307701D01*
X99895614Y-64272157D01*
X99973845Y-64242130D01*
X100061307Y-64215238D01*
X100096451Y-64206389D01*
X100183305Y-64188872D01*
X100267402Y-64177843D01*
X100356724Y-64173205D01*
X100364678Y-64173172D01*
X100451938Y-64177551D01*
G37*
G36*
X101310949Y-64199746D02*
G01*
X101538485Y-64199746D01*
X101558415Y-64357111D01*
X101629864Y-64306605D01*
X101706541Y-64263487D01*
X101777233Y-64230472D01*
X101859164Y-64200255D01*
X101947322Y-64179943D01*
X102033419Y-64173172D01*
X102118059Y-64183299D01*
X102197590Y-64213680D01*
X102207808Y-64219261D01*
X102277285Y-64274968D01*
X102325839Y-64343468D01*
X102338600Y-64368322D01*
X102366495Y-64446583D01*
X102381806Y-64531182D01*
X102387404Y-64618277D01*
X102387595Y-64639041D01*
X102387595Y-65555001D01*
X102134731Y-65555001D01*
X102134731Y-64684714D01*
X102128600Y-64595612D01*
X102103693Y-64514780D01*
X102091133Y-64495377D01*
X102018990Y-64446849D01*
X101958265Y-64438908D01*
X101873147Y-64449081D01*
X101791856Y-64474672D01*
X101779724Y-64479599D01*
X101703623Y-64517416D01*
X101628735Y-64564905D01*
X101563813Y-64612883D01*
X101563813Y-65555001D01*
X101310949Y-65555001D01*
X101310949Y-64199746D01*
G37*
G36*
X103401610Y-64177551D02*
G01*
X103460505Y-64184383D01*
X103546126Y-64202884D01*
X103619532Y-64230887D01*
X103690014Y-64276975D01*
X103746172Y-64343825D01*
X103779948Y-64421210D01*
X103793845Y-64503733D01*
X103795582Y-64550601D01*
X103795582Y-65222415D01*
X103814020Y-65304478D01*
X103819665Y-65312516D01*
X103898944Y-65341361D01*
X103928450Y-65342412D01*
X103928450Y-65577422D01*
X103840534Y-65573773D01*
X103755052Y-65559759D01*
X103700498Y-65540053D01*
X103630533Y-65490320D01*
X103596280Y-65441647D01*
X103530781Y-65493505D01*
X103454667Y-65533923D01*
X103448464Y-65536731D01*
X103364656Y-65564057D01*
X103281435Y-65577195D01*
X103196136Y-65581530D01*
X103186050Y-65581574D01*
X103102242Y-65573968D01*
X103017475Y-65551148D01*
X102978028Y-65535485D01*
X102904146Y-65493718D01*
X102840074Y-65438170D01*
X102802808Y-65393483D01*
X102760048Y-65314190D01*
X102738188Y-65228579D01*
X102732637Y-65149338D01*
X102733272Y-65141033D01*
X102971800Y-65141033D01*
X102989965Y-65225425D01*
X103044462Y-65289264D01*
X103122107Y-65329125D01*
X103209717Y-65342412D01*
X103300065Y-65335297D01*
X103380720Y-65311309D01*
X103428949Y-65282206D01*
X103491998Y-65223482D01*
X103540344Y-65155815D01*
X103542718Y-65151414D01*
X103542718Y-64892736D01*
X103455730Y-64891179D01*
X103370420Y-64890668D01*
X103357533Y-64890660D01*
X103270088Y-64895269D01*
X103183100Y-64910439D01*
X103166535Y-64914742D01*
X103087644Y-64946195D01*
X103025362Y-64992387D01*
X102982052Y-65065578D01*
X102971800Y-65141033D01*
X102733272Y-65141033D01*
X102739457Y-65060158D01*
X102762453Y-64975630D01*
X102790352Y-64920970D01*
X102843544Y-64853462D01*
X102908660Y-64798698D01*
X102942735Y-64777722D01*
X103021920Y-64739943D01*
X103106313Y-64711621D01*
X103147020Y-64701738D01*
X103229076Y-64687316D01*
X103316916Y-64679203D01*
X103363761Y-64678071D01*
X103450535Y-64678071D01*
X103538168Y-64678071D01*
X103542718Y-64678071D01*
X103542718Y-64659386D01*
X103537331Y-64573291D01*
X103525694Y-64519044D01*
X103476681Y-64449342D01*
X103454692Y-64436002D01*
X103372159Y-64413507D01*
X103285426Y-64408210D01*
X103277812Y-64408183D01*
X103194197Y-64414862D01*
X103107575Y-64431850D01*
X103025085Y-64454648D01*
X102944439Y-64482626D01*
X102895401Y-64502021D01*
X102767515Y-64307701D01*
X102845286Y-64272157D01*
X102923517Y-64242130D01*
X103010979Y-64215238D01*
X103046123Y-64206389D01*
X103132977Y-64188872D01*
X103217074Y-64177843D01*
X103306396Y-64173205D01*
X103314351Y-64173172D01*
X103401610Y-64177551D01*
G37*
G36*
X104226573Y-65367324D02*
G01*
X104388506Y-65189613D01*
X104460785Y-65234903D01*
X104540418Y-65276924D01*
X104600680Y-65303382D01*
X104680751Y-65329696D01*
X104766177Y-65344497D01*
X104811608Y-65346564D01*
X104898276Y-65341559D01*
X104984313Y-65320714D01*
X105017138Y-65304212D01*
X105074944Y-65242838D01*
X105084403Y-65197917D01*
X105056089Y-65116631D01*
X105029595Y-65089962D01*
X104957236Y-65041806D01*
X104885516Y-65008165D01*
X104804940Y-64976353D01*
X104725708Y-64947097D01*
X104694103Y-64935918D01*
X104612688Y-64904786D01*
X104534426Y-64870091D01*
X104499368Y-64852876D01*
X104424832Y-64806928D01*
X104362536Y-64751920D01*
X104346985Y-64734540D01*
X104304069Y-64660495D01*
X104287720Y-64577887D01*
X104287194Y-64558490D01*
X104298051Y-64474756D01*
X104333565Y-64396501D01*
X104336605Y-64391989D01*
X104393177Y-64325659D01*
X104459224Y-64274222D01*
X104464075Y-64271162D01*
X104540084Y-64230612D01*
X104621750Y-64200828D01*
X104633066Y-64197670D01*
X104717701Y-64180086D01*
X104805765Y-64173196D01*
X104811193Y-64173172D01*
X104901664Y-64178038D01*
X104984674Y-64192635D01*
X105067368Y-64219932D01*
X105074438Y-64222998D01*
X105152582Y-64262953D01*
X105224985Y-64309664D01*
X105291257Y-64360164D01*
X105306127Y-64372474D01*
X105150006Y-64543957D01*
X105078049Y-64494049D01*
X105005613Y-64453176D01*
X104981015Y-64441815D01*
X104898907Y-64416591D01*
X104813068Y-64408215D01*
X104807041Y-64408183D01*
X104720425Y-64416130D01*
X104636971Y-64442284D01*
X104621441Y-64449704D01*
X104555636Y-64502590D01*
X104540059Y-64552261D01*
X104580114Y-64625514D01*
X104592376Y-64634889D01*
X104668169Y-64678625D01*
X104735209Y-64708382D01*
X104816511Y-64741148D01*
X104896418Y-64772997D01*
X104928283Y-64785611D01*
X105010367Y-64820728D01*
X105088613Y-64859957D01*
X105123433Y-64879449D01*
X105193119Y-64926606D01*
X105256517Y-64986280D01*
X105276231Y-65009826D01*
X105317955Y-65082840D01*
X105336314Y-65167458D01*
X105337267Y-65193765D01*
X105328600Y-65277405D01*
X105298128Y-65361015D01*
X105245716Y-65433523D01*
X105198586Y-65475695D01*
X105122135Y-65522017D01*
X105043575Y-65551692D01*
X104954127Y-65571234D01*
X104868791Y-65579920D01*
X104807456Y-65581574D01*
X104716923Y-65576910D01*
X104627967Y-65562919D01*
X104540588Y-65539600D01*
X104492725Y-65522614D01*
X104410231Y-65486325D01*
X104333716Y-65444255D01*
X104263178Y-65396405D01*
X104226573Y-65367324D01*
G37*
G36*
X105576015Y-63721421D02*
G01*
X106041468Y-63721421D01*
X106041468Y-64384100D01*
X106113089Y-64339179D01*
X106190757Y-64299416D01*
X106241186Y-64276975D01*
X106323585Y-64248135D01*
X106405789Y-64231266D01*
X106480348Y-64226319D01*
X106564739Y-64234426D01*
X106646514Y-64261102D01*
X106661796Y-64268671D01*
X106730404Y-64320419D01*
X106781267Y-64390447D01*
X106790512Y-64408183D01*
X106819863Y-64490083D01*
X106833974Y-64572607D01*
X106838630Y-64657972D01*
X106838677Y-64668106D01*
X106838677Y-65555001D01*
X106585812Y-65555001D01*
X106585812Y-64735786D01*
X106579623Y-64646606D01*
X106554479Y-64566333D01*
X106541800Y-64547279D01*
X106469138Y-64499821D01*
X106408101Y-64492056D01*
X106321944Y-64501899D01*
X106239110Y-64526934D01*
X106162424Y-64562399D01*
X106087257Y-64607786D01*
X106041468Y-64639871D01*
X106041468Y-65555001D01*
X105788604Y-65555001D01*
X105788604Y-63927366D01*
X105576015Y-63887921D01*
X105576015Y-63721421D01*
G37*
G36*
X107755052Y-64093451D02*
G01*
X107671672Y-64075453D01*
X107615540Y-64036567D01*
X107568887Y-63967835D01*
X107555750Y-63894149D01*
X107574668Y-63809149D01*
X107615540Y-63753392D01*
X107689111Y-63706053D01*
X107755052Y-63694847D01*
X107837315Y-63711370D01*
X107897055Y-63753392D01*
X107943387Y-63826744D01*
X107954354Y-63894149D01*
X107938183Y-63976412D01*
X107897055Y-64036152D01*
X107823922Y-64082484D01*
X107755052Y-64093451D01*
G37*
G36*
X107210293Y-65319990D02*
G01*
X107662044Y-65319990D01*
X107662044Y-64545203D01*
X107339009Y-64545203D01*
X107339009Y-64310192D01*
X107914909Y-64310192D01*
X107914909Y-65319990D01*
X108299811Y-65319990D01*
X108299811Y-65555001D01*
X107210293Y-65555001D01*
X107210293Y-65319990D01*
G37*
G36*
X110034570Y-63827715D02*
G01*
X110302383Y-63827715D01*
X110321420Y-63913151D01*
X110340384Y-63996937D01*
X110359276Y-64079074D01*
X110384351Y-64186023D01*
X110409296Y-64290041D01*
X110434111Y-64391126D01*
X110458797Y-64489278D01*
X110483353Y-64584498D01*
X110501685Y-64653989D01*
X110526104Y-64743675D01*
X110550576Y-64829831D01*
X110575100Y-64912459D01*
X110605827Y-65010780D01*
X110636635Y-65103586D01*
X110667525Y-65190878D01*
X110698496Y-65272656D01*
X110729456Y-65190878D01*
X110760315Y-65103586D01*
X110791073Y-65010780D01*
X110821730Y-64912459D01*
X110846182Y-64829831D01*
X110870569Y-64743675D01*
X110894891Y-64653989D01*
X110919356Y-64560968D01*
X110943964Y-64465015D01*
X110968715Y-64366129D01*
X110993608Y-64264311D01*
X111018644Y-64159561D01*
X111043823Y-64051878D01*
X111062801Y-63969192D01*
X111081859Y-63884856D01*
X111094609Y-63827715D01*
X111362421Y-63827715D01*
X111338962Y-63931997D01*
X111315452Y-64033863D01*
X111291890Y-64133314D01*
X111268278Y-64230348D01*
X111244614Y-64324967D01*
X111220900Y-64417170D01*
X111197134Y-64506957D01*
X111173317Y-64594328D01*
X111149450Y-64679283D01*
X111125531Y-64761822D01*
X111109556Y-64815506D01*
X111077313Y-64919978D01*
X111044316Y-65021011D01*
X111010567Y-65118605D01*
X110976065Y-65212761D01*
X110940811Y-65303479D01*
X110904805Y-65390758D01*
X110868045Y-65474598D01*
X110830533Y-65555001D01*
X110566458Y-65555001D01*
X110529413Y-65474598D01*
X110493017Y-65390758D01*
X110457270Y-65303479D01*
X110422172Y-65212761D01*
X110387722Y-65118605D01*
X110353921Y-65021011D01*
X110320769Y-64919978D01*
X110288265Y-64815506D01*
X110264164Y-64734578D01*
X110240128Y-64651233D01*
X110216158Y-64565472D01*
X110192254Y-64477296D01*
X110168415Y-64386704D01*
X110144642Y-64293696D01*
X110120935Y-64198272D01*
X110097293Y-64100432D01*
X110073718Y-64000176D01*
X110050207Y-63897505D01*
X110034570Y-63827715D01*
G37*
G36*
X112262213Y-64177869D02*
G01*
X112350093Y-64194382D01*
X112429104Y-64222785D01*
X112476852Y-64248326D01*
X112548095Y-64300122D01*
X112608715Y-64361569D01*
X112658711Y-64432666D01*
X112667435Y-64448043D01*
X112704983Y-64528247D01*
X112731988Y-64613155D01*
X112748450Y-64702766D01*
X112750478Y-64721253D01*
X112754021Y-64805093D01*
X112748303Y-64889852D01*
X112733322Y-64975531D01*
X112720997Y-65023528D01*
X111819155Y-65023528D01*
X111838364Y-65106160D01*
X111875603Y-65182274D01*
X111893063Y-65206222D01*
X111955479Y-65266569D01*
X112031397Y-65309036D01*
X112042540Y-65313347D01*
X112124160Y-65336054D01*
X112211343Y-65346045D01*
X112237274Y-65346564D01*
X112321907Y-65340238D01*
X112389658Y-65330370D01*
X112475020Y-65310498D01*
X112555172Y-65283192D01*
X112618025Y-65257293D01*
X112706880Y-65463238D01*
X112624045Y-65500166D01*
X112539789Y-65532219D01*
X112457266Y-65556045D01*
X112420383Y-65563305D01*
X112337996Y-65574438D01*
X112254673Y-65580700D01*
X112212362Y-65581574D01*
X112119146Y-65576514D01*
X112031329Y-65561332D01*
X111948909Y-65536030D01*
X111871887Y-65500608D01*
X111801586Y-65455220D01*
X111732114Y-65392929D01*
X111678908Y-65327579D01*
X111638953Y-65262691D01*
X111602258Y-65180219D01*
X111576048Y-65089339D01*
X111561714Y-65002922D01*
X111555407Y-64910068D01*
X111555080Y-64882356D01*
X111558839Y-64788518D01*
X111807944Y-64788518D01*
X112520450Y-64788518D01*
X112517810Y-64701730D01*
X112495099Y-64617315D01*
X112490554Y-64606239D01*
X112445552Y-64530716D01*
X112381391Y-64469973D01*
X112371388Y-64462991D01*
X112293151Y-64425524D01*
X112207267Y-64409521D01*
X112170840Y-64408183D01*
X112082942Y-64417297D01*
X112000698Y-64447497D01*
X111974445Y-64463406D01*
X111910627Y-64517880D01*
X111861591Y-64585388D01*
X111850296Y-64607070D01*
X111821345Y-64685329D01*
X111808317Y-64771119D01*
X111807944Y-64788518D01*
X111558839Y-64788518D01*
X111559185Y-64779889D01*
X111571502Y-64685024D01*
X111592029Y-64597763D01*
X111620768Y-64518104D01*
X111666092Y-64432549D01*
X111723241Y-64357942D01*
X111790544Y-64295149D01*
X111866022Y-64245348D01*
X111949675Y-64208538D01*
X112041502Y-64184720D01*
X112124268Y-64174796D01*
X112176653Y-64173172D01*
X112262213Y-64177869D01*
G37*
G36*
X113056489Y-65319990D02*
G01*
X113322226Y-65319990D01*
X113322226Y-64387422D01*
X113106315Y-64351298D01*
X113106315Y-64195594D01*
X113543534Y-64195594D01*
X113564710Y-64348392D01*
X113631911Y-64297358D01*
X113704702Y-64250966D01*
X113735362Y-64233378D01*
X113812826Y-64199220D01*
X113894493Y-64180828D01*
X113951273Y-64177324D01*
X114036051Y-64184588D01*
X114116306Y-64206379D01*
X114151821Y-64221337D01*
X114226141Y-64269305D01*
X114284884Y-64336189D01*
X114298806Y-64358772D01*
X114113621Y-64514477D01*
X114052118Y-64457385D01*
X114011479Y-64435587D01*
X113928710Y-64414174D01*
X113894804Y-64412335D01*
X113812603Y-64427686D01*
X113739099Y-64466728D01*
X113669082Y-64519646D01*
X113601647Y-64578321D01*
X113575090Y-64603333D01*
X113575090Y-64607070D01*
X113575090Y-65319990D01*
X114092861Y-65319990D01*
X114092861Y-65555001D01*
X113056489Y-65555001D01*
X113056489Y-65319990D01*
G37*
G36*
X114550425Y-65367324D02*
G01*
X114712358Y-65189613D01*
X114784637Y-65234903D01*
X114864271Y-65276924D01*
X114924532Y-65303382D01*
X115004603Y-65329696D01*
X115090029Y-65344497D01*
X115135460Y-65346564D01*
X115222128Y-65341559D01*
X115308165Y-65320714D01*
X115340990Y-65304212D01*
X115398796Y-65242838D01*
X115408255Y-65197917D01*
X115379941Y-65116631D01*
X115353447Y-65089962D01*
X115281088Y-65041806D01*
X115209368Y-65008165D01*
X115128792Y-64976353D01*
X115049560Y-64947097D01*
X115017955Y-64935918D01*
X114936540Y-64904786D01*
X114858278Y-64870091D01*
X114823220Y-64852876D01*
X114748684Y-64806928D01*
X114686388Y-64751920D01*
X114670837Y-64734540D01*
X114627921Y-64660495D01*
X114611572Y-64577887D01*
X114611046Y-64558490D01*
X114621903Y-64474756D01*
X114657417Y-64396501D01*
X114660457Y-64391989D01*
X114717029Y-64325659D01*
X114783076Y-64274222D01*
X114787927Y-64271162D01*
X114863936Y-64230612D01*
X114945602Y-64200828D01*
X114956919Y-64197670D01*
X115041553Y-64180086D01*
X115129617Y-64173196D01*
X115135045Y-64173172D01*
X115225516Y-64178038D01*
X115308526Y-64192635D01*
X115391220Y-64219932D01*
X115398290Y-64222998D01*
X115476434Y-64262953D01*
X115548837Y-64309664D01*
X115615109Y-64360164D01*
X115629979Y-64372474D01*
X115473859Y-64543957D01*
X115401901Y-64494049D01*
X115329465Y-64453176D01*
X115304867Y-64441815D01*
X115222759Y-64416591D01*
X115136920Y-64408215D01*
X115130893Y-64408183D01*
X115044277Y-64416130D01*
X114960823Y-64442284D01*
X114945293Y-64449704D01*
X114879488Y-64502590D01*
X114863911Y-64552261D01*
X114903966Y-64625514D01*
X114916228Y-64634889D01*
X114992021Y-64678625D01*
X115059061Y-64708382D01*
X115140363Y-64741148D01*
X115220270Y-64772997D01*
X115252135Y-64785611D01*
X115334219Y-64820728D01*
X115412465Y-64859957D01*
X115447285Y-64879449D01*
X115516971Y-64926606D01*
X115580369Y-64986280D01*
X115600083Y-65009826D01*
X115641807Y-65082840D01*
X115660166Y-65167458D01*
X115661120Y-65193765D01*
X115652452Y-65277405D01*
X115621980Y-65361015D01*
X115569568Y-65433523D01*
X115522438Y-65475695D01*
X115445987Y-65522017D01*
X115367427Y-65551692D01*
X115277979Y-65571234D01*
X115192643Y-65579920D01*
X115131308Y-65581574D01*
X115040775Y-65576910D01*
X114951819Y-65562919D01*
X114864440Y-65539600D01*
X114816577Y-65522614D01*
X114734083Y-65486325D01*
X114657568Y-65444255D01*
X114587030Y-65396405D01*
X114550425Y-65367324D01*
G37*
G36*
X116604068Y-64093451D02*
G01*
X116520688Y-64075453D01*
X116464556Y-64036567D01*
X116417903Y-63967835D01*
X116404766Y-63894149D01*
X116423684Y-63809149D01*
X116464556Y-63753392D01*
X116538127Y-63706053D01*
X116604068Y-63694847D01*
X116686331Y-63711370D01*
X116746071Y-63753392D01*
X116792403Y-63826744D01*
X116803370Y-63894149D01*
X116787199Y-63976412D01*
X116746071Y-64036152D01*
X116672938Y-64082484D01*
X116604068Y-64093451D01*
G37*
G36*
X116059309Y-65319990D02*
G01*
X116511060Y-65319990D01*
X116511060Y-64545203D01*
X116188025Y-64545203D01*
X116188025Y-64310192D01*
X116763925Y-64310192D01*
X116763925Y-65319990D01*
X117148827Y-65319990D01*
X117148827Y-65555001D01*
X116059309Y-65555001D01*
X116059309Y-65319990D01*
G37*
G36*
X118172431Y-64178726D02*
G01*
X118258276Y-64195386D01*
X118345670Y-64227405D01*
X118406922Y-64262028D01*
X118476938Y-64317428D01*
X118536575Y-64383667D01*
X118585834Y-64460745D01*
X118608715Y-64508249D01*
X118638507Y-64590176D01*
X118659787Y-64679005D01*
X118671424Y-64762394D01*
X118676544Y-64851067D01*
X118676810Y-64877373D01*
X118673552Y-64966665D01*
X118663777Y-65051070D01*
X118644625Y-65141547D01*
X118616961Y-65225641D01*
X118608715Y-65245667D01*
X118570568Y-65320431D01*
X118517850Y-65394181D01*
X118454753Y-65456960D01*
X118406922Y-65492719D01*
X118327089Y-65535671D01*
X118247965Y-65562050D01*
X118161160Y-65577322D01*
X118078904Y-65581574D01*
X117986208Y-65576021D01*
X117900778Y-65559360D01*
X117813354Y-65527341D01*
X117751716Y-65492719D01*
X117681299Y-65437252D01*
X117621391Y-65370816D01*
X117571994Y-65293410D01*
X117549092Y-65245667D01*
X117519301Y-65163169D01*
X117498021Y-65074288D01*
X117486384Y-64991280D01*
X117481263Y-64903384D01*
X117480997Y-64877373D01*
X117481042Y-64876128D01*
X117733862Y-64876128D01*
X117737983Y-64965900D01*
X117750347Y-65049098D01*
X117768740Y-65119027D01*
X117803725Y-65198323D01*
X117856269Y-65266398D01*
X117878771Y-65286358D01*
X117954272Y-65327514D01*
X118041174Y-65345094D01*
X118078904Y-65346564D01*
X118166527Y-65338097D01*
X118244847Y-65309817D01*
X118279867Y-65286358D01*
X118337350Y-65224697D01*
X118377206Y-65151358D01*
X118389068Y-65119027D01*
X118410322Y-65034460D01*
X118421187Y-64950067D01*
X118423946Y-64876128D01*
X118419824Y-64785468D01*
X118407461Y-64702461D01*
X118389068Y-64633643D01*
X118354220Y-64555692D01*
X118302130Y-64488298D01*
X118279867Y-64468388D01*
X118204820Y-64427232D01*
X118117202Y-64409653D01*
X118078904Y-64408183D01*
X117992371Y-64416649D01*
X117914177Y-64444929D01*
X117878771Y-64468388D01*
X117820721Y-64529652D01*
X117778089Y-64608082D01*
X117768740Y-64633643D01*
X117747486Y-64716984D01*
X117736621Y-64801382D01*
X117733862Y-64876128D01*
X117481042Y-64876128D01*
X117484256Y-64787190D01*
X117494031Y-64702291D01*
X117513183Y-64611736D01*
X117540846Y-64528083D01*
X117549092Y-64508249D01*
X117587292Y-64433848D01*
X117640193Y-64360383D01*
X117703603Y-64297757D01*
X117751716Y-64262028D01*
X117831987Y-64219075D01*
X117911059Y-64192696D01*
X117997397Y-64177424D01*
X118078904Y-64173172D01*
X118172431Y-64178726D01*
G37*
G36*
X119008981Y-64199746D02*
G01*
X119236517Y-64199746D01*
X119256448Y-64357111D01*
X119327897Y-64306605D01*
X119404573Y-64263487D01*
X119475265Y-64230472D01*
X119557196Y-64200255D01*
X119645354Y-64179943D01*
X119731451Y-64173172D01*
X119816091Y-64183299D01*
X119895622Y-64213680D01*
X119905840Y-64219261D01*
X119975318Y-64274968D01*
X120023871Y-64343468D01*
X120036632Y-64368322D01*
X120064527Y-64446583D01*
X120079838Y-64531182D01*
X120085436Y-64618277D01*
X120085628Y-64639041D01*
X120085628Y-65555001D01*
X119832763Y-65555001D01*
X119832763Y-64684714D01*
X119826632Y-64595612D01*
X119801725Y-64514780D01*
X119789166Y-64495377D01*
X119717022Y-64446849D01*
X119656297Y-64438908D01*
X119571179Y-64449081D01*
X119489888Y-64474672D01*
X119477756Y-64479599D01*
X119401655Y-64517416D01*
X119326767Y-64564905D01*
X119261845Y-64612883D01*
X119261845Y-65555001D01*
X119008981Y-65555001D01*
X119008981Y-64199746D01*
G37*
G36*
X86555945Y-66891737D02*
G01*
X86626954Y-66832884D01*
X86701247Y-66781979D01*
X86778824Y-66739023D01*
X86823342Y-66718593D01*
X86906886Y-66688887D01*
X86994963Y-66668904D01*
X87087572Y-66658642D01*
X87140980Y-66657141D01*
X87231954Y-66663751D01*
X87315953Y-66683579D01*
X87392978Y-66716626D01*
X87407547Y-66724821D01*
X87480869Y-66776846D01*
X87542123Y-66839861D01*
X87587334Y-66906684D01*
X87624211Y-66988473D01*
X87645781Y-67076836D01*
X87652107Y-67162871D01*
X87647403Y-67254128D01*
X87633293Y-67336384D01*
X87606906Y-67416469D01*
X87603942Y-67423209D01*
X87564315Y-67500049D01*
X87517682Y-67569883D01*
X87482700Y-67612546D01*
X87423525Y-67678595D01*
X87364076Y-67743822D01*
X87336545Y-67773649D01*
X86958286Y-68175990D01*
X87705254Y-68175990D01*
X87705254Y-68411001D01*
X86589162Y-68411001D01*
X86589162Y-68183879D01*
X87013510Y-67753303D01*
X87074410Y-67692460D01*
X87135508Y-67632108D01*
X87191221Y-67577668D01*
X87249062Y-67516830D01*
X87304103Y-67447775D01*
X87339867Y-67394144D01*
X87376049Y-67318880D01*
X87396401Y-67231942D01*
X87399242Y-67182801D01*
X87388148Y-67097008D01*
X87351091Y-67015662D01*
X87320352Y-66976855D01*
X87252854Y-66925239D01*
X87168073Y-66897446D01*
X87101950Y-66892152D01*
X87015981Y-66900497D01*
X86934446Y-66923189D01*
X86902648Y-66935749D01*
X86826644Y-66973858D01*
X86751225Y-67023411D01*
X86701270Y-67062804D01*
X86555945Y-66891737D01*
G37*
G36*
X88666212Y-66639028D02*
G01*
X88754023Y-66654173D01*
X88840342Y-66683789D01*
X88879061Y-66703645D01*
X88948633Y-66751954D01*
X89008393Y-66810725D01*
X89058340Y-66879957D01*
X89067152Y-66895058D01*
X89106297Y-66975368D01*
X89134802Y-67054511D01*
X89156936Y-67140157D01*
X89164727Y-67180310D01*
X89177443Y-67263741D01*
X89186526Y-67350858D01*
X89191976Y-67441660D01*
X89193792Y-67536147D01*
X89191976Y-67629648D01*
X89186526Y-67719983D01*
X89177443Y-67807151D01*
X89164727Y-67891154D01*
X89145426Y-67980293D01*
X89119753Y-68062731D01*
X89083754Y-68146471D01*
X89067152Y-68177651D01*
X89019168Y-68248756D01*
X88961370Y-68309481D01*
X88893760Y-68359826D01*
X88879061Y-68368649D01*
X88798662Y-68404996D01*
X88716180Y-68426199D01*
X88624107Y-68436497D01*
X88580108Y-68437574D01*
X88494288Y-68433292D01*
X88406489Y-68418239D01*
X88319797Y-68388801D01*
X88280739Y-68369064D01*
X88210486Y-68320796D01*
X88149720Y-68262147D01*
X88098443Y-68193118D01*
X88089326Y-68178066D01*
X88063603Y-68126995D01*
X88352571Y-68126995D01*
X88425036Y-68173338D01*
X88442672Y-68180557D01*
X88524320Y-68199469D01*
X88580938Y-68202564D01*
X88666381Y-68195615D01*
X88747468Y-68169945D01*
X88776088Y-68153153D01*
X88838370Y-68093363D01*
X88880167Y-68019208D01*
X88882383Y-68013642D01*
X88908450Y-67928809D01*
X88923709Y-67845974D01*
X88928886Y-67801053D01*
X88935742Y-67713818D01*
X88939505Y-67630257D01*
X88940916Y-67542640D01*
X88940928Y-67533656D01*
X88940928Y-67447026D01*
X88940928Y-67357261D01*
X88940928Y-67310686D01*
X88936731Y-67223242D01*
X88921828Y-67150830D01*
X88352571Y-68126995D01*
X88063603Y-68126995D01*
X88048705Y-68097416D01*
X88019010Y-68017828D01*
X87995819Y-67931605D01*
X87987599Y-67891154D01*
X87974520Y-67807151D01*
X87965177Y-67719983D01*
X87959572Y-67629648D01*
X87957704Y-67536147D01*
X87957753Y-67533656D01*
X88210568Y-67533656D01*
X88211736Y-67623244D01*
X88215239Y-67708279D01*
X88218872Y-67762438D01*
X88228171Y-67845909D01*
X88245031Y-67925201D01*
X88815949Y-66947790D01*
X88746452Y-66900412D01*
X88725432Y-66891737D01*
X88642844Y-66872825D01*
X88584260Y-66869730D01*
X88498914Y-66876562D01*
X88416613Y-66901801D01*
X88387034Y-66918310D01*
X88321741Y-66976959D01*
X88276934Y-67050986D01*
X88274511Y-67056576D01*
X88246139Y-67141455D01*
X88229284Y-67223823D01*
X88223440Y-67268335D01*
X88216112Y-67354575D01*
X88211825Y-67446015D01*
X88210568Y-67533656D01*
X87957753Y-67533656D01*
X87959572Y-67441660D01*
X87965177Y-67350858D01*
X87974520Y-67263741D01*
X87987599Y-67180310D01*
X88007900Y-67091740D01*
X88034705Y-67009609D01*
X88072114Y-66925901D01*
X88089326Y-66894643D01*
X88138706Y-66823360D01*
X88197573Y-66762618D01*
X88265929Y-66712420D01*
X88280739Y-66703645D01*
X88361714Y-66667298D01*
X88444368Y-66646095D01*
X88536283Y-66635797D01*
X88580108Y-66634720D01*
X88666212Y-66639028D01*
G37*
G36*
X89505617Y-66891737D02*
G01*
X89576626Y-66832884D01*
X89650919Y-66781979D01*
X89728496Y-66739023D01*
X89773014Y-66718593D01*
X89856558Y-66688887D01*
X89944635Y-66668904D01*
X90037244Y-66658642D01*
X90090652Y-66657141D01*
X90181626Y-66663751D01*
X90265625Y-66683579D01*
X90342650Y-66716626D01*
X90357219Y-66724821D01*
X90430541Y-66776846D01*
X90491795Y-66839861D01*
X90537006Y-66906684D01*
X90573883Y-66988473D01*
X90595453Y-67076836D01*
X90601779Y-67162871D01*
X90597075Y-67254128D01*
X90582965Y-67336384D01*
X90556578Y-67416469D01*
X90553614Y-67423209D01*
X90513987Y-67500049D01*
X90467354Y-67569883D01*
X90432372Y-67612546D01*
X90373197Y-67678595D01*
X90313748Y-67743822D01*
X90286217Y-67773649D01*
X89907958Y-68175990D01*
X90654926Y-68175990D01*
X90654926Y-68411001D01*
X89538834Y-68411001D01*
X89538834Y-68183879D01*
X89963182Y-67753303D01*
X90024082Y-67692460D01*
X90085180Y-67632108D01*
X90140893Y-67577668D01*
X90198734Y-67516830D01*
X90253775Y-67447775D01*
X90289539Y-67394144D01*
X90325721Y-67318880D01*
X90346073Y-67231942D01*
X90348914Y-67182801D01*
X90337820Y-67097008D01*
X90300763Y-67015662D01*
X90270024Y-66976855D01*
X90202526Y-66925239D01*
X90117745Y-66897446D01*
X90051622Y-66892152D01*
X89965653Y-66900497D01*
X89884118Y-66923189D01*
X89852320Y-66935749D01*
X89776316Y-66973858D01*
X89700897Y-67023411D01*
X89650942Y-67062804D01*
X89505617Y-66891737D01*
G37*
G36*
X92129762Y-67799807D02*
G01*
X92129762Y-68034818D01*
X91917173Y-68034818D01*
X91917173Y-68411001D01*
X91664309Y-68411001D01*
X91664309Y-68034818D01*
X90960523Y-68034818D01*
X90960523Y-67811018D01*
X90991206Y-67716588D01*
X91017980Y-67637071D01*
X91045849Y-67556804D01*
X91074813Y-67475787D01*
X91104871Y-67394019D01*
X91136024Y-67311502D01*
X91142386Y-67294908D01*
X91175905Y-67209810D01*
X91212364Y-67120860D01*
X91251763Y-67028057D01*
X91285398Y-66951042D01*
X91320915Y-66871561D01*
X91358313Y-66789615D01*
X91397593Y-66705203D01*
X91407707Y-66683715D01*
X91669706Y-66683715D01*
X91669706Y-66723160D01*
X91630371Y-66805632D01*
X91592918Y-66885716D01*
X91557346Y-66963413D01*
X91515527Y-67057176D01*
X91476647Y-67147209D01*
X91440707Y-67233512D01*
X91407707Y-67316084D01*
X91377260Y-67395990D01*
X91348718Y-67474295D01*
X91316983Y-67566146D01*
X91287993Y-67655691D01*
X91261747Y-67742930D01*
X91245774Y-67799807D01*
X91664309Y-67799807D01*
X91664309Y-67162040D01*
X91917173Y-67162040D01*
X91917173Y-67799807D01*
X92129762Y-67799807D01*
G37*
D10*
X121404761Y-56200057D02*
X121309523Y-56152438D01*
X121309523Y-56152438D02*
X121214285Y-56057200D01*
X121214285Y-56057200D02*
X121071428Y-55914342D01*
X121071428Y-55914342D02*
X120976190Y-55866723D01*
X120976190Y-55866723D02*
X120880952Y-55866723D01*
X120928571Y-56104819D02*
X120833333Y-56057200D01*
X120833333Y-56057200D02*
X120738095Y-55961961D01*
X120738095Y-55961961D02*
X120690476Y-55771485D01*
X120690476Y-55771485D02*
X120690476Y-55438152D01*
X120690476Y-55438152D02*
X120738095Y-55247676D01*
X120738095Y-55247676D02*
X120833333Y-55152438D01*
X120833333Y-55152438D02*
X120928571Y-55104819D01*
X120928571Y-55104819D02*
X121119047Y-55104819D01*
X121119047Y-55104819D02*
X121214285Y-55152438D01*
X121214285Y-55152438D02*
X121309523Y-55247676D01*
X121309523Y-55247676D02*
X121357142Y-55438152D01*
X121357142Y-55438152D02*
X121357142Y-55771485D01*
X121357142Y-55771485D02*
X121309523Y-55961961D01*
X121309523Y-55961961D02*
X121214285Y-56057200D01*
X121214285Y-56057200D02*
X121119047Y-56104819D01*
X121119047Y-56104819D02*
X120928571Y-56104819D01*
X122309523Y-56104819D02*
X121738095Y-56104819D01*
X122023809Y-56104819D02*
X122023809Y-55104819D01*
X122023809Y-55104819D02*
X121928571Y-55247676D01*
X121928571Y-55247676D02*
X121833333Y-55342914D01*
X121833333Y-55342914D02*
X121738095Y-55390533D01*
X125954819Y-63066666D02*
X125478628Y-63399999D01*
X125954819Y-63638094D02*
X124954819Y-63638094D01*
X124954819Y-63638094D02*
X124954819Y-63257142D01*
X124954819Y-63257142D02*
X125002438Y-63161904D01*
X125002438Y-63161904D02*
X125050057Y-63114285D01*
X125050057Y-63114285D02*
X125145295Y-63066666D01*
X125145295Y-63066666D02*
X125288152Y-63066666D01*
X125288152Y-63066666D02*
X125383390Y-63114285D01*
X125383390Y-63114285D02*
X125431009Y-63161904D01*
X125431009Y-63161904D02*
X125478628Y-63257142D01*
X125478628Y-63257142D02*
X125478628Y-63638094D01*
X125288152Y-62209523D02*
X125954819Y-62209523D01*
X124907200Y-62447618D02*
X125621485Y-62685713D01*
X125621485Y-62685713D02*
X125621485Y-62066666D01*
X119564819Y-56546666D02*
X119088628Y-56879999D01*
X119564819Y-57118094D02*
X118564819Y-57118094D01*
X118564819Y-57118094D02*
X118564819Y-56737142D01*
X118564819Y-56737142D02*
X118612438Y-56641904D01*
X118612438Y-56641904D02*
X118660057Y-56594285D01*
X118660057Y-56594285D02*
X118755295Y-56546666D01*
X118755295Y-56546666D02*
X118898152Y-56546666D01*
X118898152Y-56546666D02*
X118993390Y-56594285D01*
X118993390Y-56594285D02*
X119041009Y-56641904D01*
X119041009Y-56641904D02*
X119088628Y-56737142D01*
X119088628Y-56737142D02*
X119088628Y-57118094D01*
X118660057Y-56165713D02*
X118612438Y-56118094D01*
X118612438Y-56118094D02*
X118564819Y-56022856D01*
X118564819Y-56022856D02*
X118564819Y-55784761D01*
X118564819Y-55784761D02*
X118612438Y-55689523D01*
X118612438Y-55689523D02*
X118660057Y-55641904D01*
X118660057Y-55641904D02*
X118755295Y-55594285D01*
X118755295Y-55594285D02*
X118850533Y-55594285D01*
X118850533Y-55594285D02*
X118993390Y-55641904D01*
X118993390Y-55641904D02*
X119564819Y-56213332D01*
X119564819Y-56213332D02*
X119564819Y-55594285D01*
X154416666Y-72006033D02*
X154416666Y-72572700D01*
X154416666Y-72572700D02*
X154450000Y-72639366D01*
X154450000Y-72639366D02*
X154483333Y-72672700D01*
X154483333Y-72672700D02*
X154550000Y-72706033D01*
X154550000Y-72706033D02*
X154683333Y-72706033D01*
X154683333Y-72706033D02*
X154750000Y-72672700D01*
X154750000Y-72672700D02*
X154783333Y-72639366D01*
X154783333Y-72639366D02*
X154816666Y-72572700D01*
X154816666Y-72572700D02*
X154816666Y-72006033D01*
X155516666Y-72706033D02*
X155116666Y-72706033D01*
X155316666Y-72706033D02*
X155316666Y-72006033D01*
X155316666Y-72006033D02*
X155249999Y-72106033D01*
X155249999Y-72106033D02*
X155183333Y-72172700D01*
X155183333Y-72172700D02*
X155116666Y-72206033D01*
X130954819Y-63116666D02*
X130478628Y-63449999D01*
X130954819Y-63688094D02*
X129954819Y-63688094D01*
X129954819Y-63688094D02*
X129954819Y-63307142D01*
X129954819Y-63307142D02*
X130002438Y-63211904D01*
X130002438Y-63211904D02*
X130050057Y-63164285D01*
X130050057Y-63164285D02*
X130145295Y-63116666D01*
X130145295Y-63116666D02*
X130288152Y-63116666D01*
X130288152Y-63116666D02*
X130383390Y-63164285D01*
X130383390Y-63164285D02*
X130431009Y-63211904D01*
X130431009Y-63211904D02*
X130478628Y-63307142D01*
X130478628Y-63307142D02*
X130478628Y-63688094D01*
X129954819Y-62783332D02*
X129954819Y-62164285D01*
X129954819Y-62164285D02*
X130335771Y-62497618D01*
X130335771Y-62497618D02*
X130335771Y-62354761D01*
X130335771Y-62354761D02*
X130383390Y-62259523D01*
X130383390Y-62259523D02*
X130431009Y-62211904D01*
X130431009Y-62211904D02*
X130526247Y-62164285D01*
X130526247Y-62164285D02*
X130764342Y-62164285D01*
X130764342Y-62164285D02*
X130859580Y-62211904D01*
X130859580Y-62211904D02*
X130907200Y-62259523D01*
X130907200Y-62259523D02*
X130954819Y-62354761D01*
X130954819Y-62354761D02*
X130954819Y-62640475D01*
X130954819Y-62640475D02*
X130907200Y-62735713D01*
X130907200Y-62735713D02*
X130859580Y-62783332D01*
X121404761Y-61700057D02*
X121309523Y-61652438D01*
X121309523Y-61652438D02*
X121214285Y-61557200D01*
X121214285Y-61557200D02*
X121071428Y-61414342D01*
X121071428Y-61414342D02*
X120976190Y-61366723D01*
X120976190Y-61366723D02*
X120880952Y-61366723D01*
X120928571Y-61604819D02*
X120833333Y-61557200D01*
X120833333Y-61557200D02*
X120738095Y-61461961D01*
X120738095Y-61461961D02*
X120690476Y-61271485D01*
X120690476Y-61271485D02*
X120690476Y-60938152D01*
X120690476Y-60938152D02*
X120738095Y-60747676D01*
X120738095Y-60747676D02*
X120833333Y-60652438D01*
X120833333Y-60652438D02*
X120928571Y-60604819D01*
X120928571Y-60604819D02*
X121119047Y-60604819D01*
X121119047Y-60604819D02*
X121214285Y-60652438D01*
X121214285Y-60652438D02*
X121309523Y-60747676D01*
X121309523Y-60747676D02*
X121357142Y-60938152D01*
X121357142Y-60938152D02*
X121357142Y-61271485D01*
X121357142Y-61271485D02*
X121309523Y-61461961D01*
X121309523Y-61461961D02*
X121214285Y-61557200D01*
X121214285Y-61557200D02*
X121119047Y-61604819D01*
X121119047Y-61604819D02*
X120928571Y-61604819D01*
X121738095Y-60700057D02*
X121785714Y-60652438D01*
X121785714Y-60652438D02*
X121880952Y-60604819D01*
X121880952Y-60604819D02*
X122119047Y-60604819D01*
X122119047Y-60604819D02*
X122214285Y-60652438D01*
X122214285Y-60652438D02*
X122261904Y-60700057D01*
X122261904Y-60700057D02*
X122309523Y-60795295D01*
X122309523Y-60795295D02*
X122309523Y-60890533D01*
X122309523Y-60890533D02*
X122261904Y-61033390D01*
X122261904Y-61033390D02*
X121690476Y-61604819D01*
X121690476Y-61604819D02*
X122309523Y-61604819D01*
X108524819Y-56546666D02*
X108048628Y-56879999D01*
X108524819Y-57118094D02*
X107524819Y-57118094D01*
X107524819Y-57118094D02*
X107524819Y-56737142D01*
X107524819Y-56737142D02*
X107572438Y-56641904D01*
X107572438Y-56641904D02*
X107620057Y-56594285D01*
X107620057Y-56594285D02*
X107715295Y-56546666D01*
X107715295Y-56546666D02*
X107858152Y-56546666D01*
X107858152Y-56546666D02*
X107953390Y-56594285D01*
X107953390Y-56594285D02*
X108001009Y-56641904D01*
X108001009Y-56641904D02*
X108048628Y-56737142D01*
X108048628Y-56737142D02*
X108048628Y-57118094D01*
X108524819Y-55594285D02*
X108524819Y-56165713D01*
X108524819Y-55879999D02*
X107524819Y-55879999D01*
X107524819Y-55879999D02*
X107667676Y-55975237D01*
X107667676Y-55975237D02*
X107762914Y-56070475D01*
X107762914Y-56070475D02*
X107810533Y-56165713D01*
%TO.C,Q1*%
X120620000Y-56460000D02*
X120620000Y-57510000D01*
X120620000Y-59540000D02*
X120620000Y-58490000D01*
X122380000Y-56460000D02*
X120620000Y-56460000D01*
X122380000Y-57540000D02*
X122380000Y-58460000D01*
X122380000Y-59540000D02*
X120620000Y-59540000D01*
D12*
%TO.C,J1*%
X92142000Y-70298000D02*
X92142000Y-72958000D01*
X99822000Y-70298000D02*
X92142000Y-70298000D01*
X99822000Y-70298000D02*
X99822000Y-72958000D01*
X99822000Y-72958000D02*
X92142000Y-72958000D01*
X101092000Y-70298000D02*
X102422000Y-70298000D01*
X102422000Y-70298000D02*
X102422000Y-71628000D01*
D10*
%TO.C,R4*%
X123540000Y-53990000D02*
X123540000Y-55430000D01*
X123540000Y-61870000D02*
X123540000Y-60430000D01*
X127460000Y-53990000D02*
X123540000Y-53990000D01*
X127460000Y-55430000D02*
X127460000Y-53990000D01*
X127460000Y-60430000D02*
X127460000Y-61870000D01*
X127460000Y-61870000D02*
X123540000Y-61870000D01*
%TO.C,R2*%
X114390000Y-52440000D02*
X114390000Y-53880000D01*
X114390000Y-60320000D02*
X114390000Y-58880000D01*
X118310000Y-52440000D02*
X114390000Y-52440000D01*
X118310000Y-53880000D02*
X118310000Y-52440000D01*
X118310000Y-58880000D02*
X118310000Y-60320000D01*
X118310000Y-60320000D02*
X114390000Y-60320000D01*
D13*
%TO.C,U1*%
X134280000Y-53866000D02*
X134280000Y-71666000D01*
X134280000Y-71666000D02*
X155280000Y-71666000D01*
X149352000Y-58262000D02*
X156705000Y-58262000D01*
X149352000Y-67261000D02*
X149352000Y-58262000D01*
X154608500Y-53866000D02*
X134280000Y-53866000D01*
X155280000Y-54537541D02*
X154608500Y-53866000D01*
X155280000Y-71666000D02*
X155280000Y-54537541D01*
X156704000Y-58266000D02*
X156704000Y-67261000D01*
X156704000Y-67261000D02*
X149352000Y-67261000D01*
D10*
%TO.C,R3*%
X128540000Y-53990000D02*
X128540000Y-55430000D01*
X128540000Y-61870000D02*
X128540000Y-60430000D01*
X132460000Y-53990000D02*
X128540000Y-53990000D01*
X132460000Y-55430000D02*
X132460000Y-53990000D01*
X132460000Y-60430000D02*
X132460000Y-61870000D01*
X132460000Y-61870000D02*
X128540000Y-61870000D01*
%TO.C,Q2*%
X120620000Y-61960000D02*
X120620000Y-63010000D01*
X120620000Y-65040000D02*
X120620000Y-63990000D01*
X122380000Y-61960000D02*
X120620000Y-61960000D01*
X122380000Y-63040000D02*
X122380000Y-63960000D01*
X122380000Y-65040000D02*
X120620000Y-65040000D01*
%TO.C,R1*%
X109290000Y-52440000D02*
X109290000Y-53880000D01*
X109290000Y-60320000D02*
X109290000Y-58880000D01*
X113210000Y-52440000D02*
X109290000Y-52440000D01*
X113210000Y-53880000D02*
X113210000Y-52440000D01*
X113210000Y-58880000D02*
X113210000Y-60320000D01*
X113210000Y-60320000D02*
X109290000Y-60320000D01*
%TD*%
%LPC*%
D14*
%TO.C,Q1*%
X122740000Y-58950000D03*
X122740000Y-57050000D03*
X120260000Y-58000000D03*
%TD*%
D15*
%TO.C,J1*%
X101092000Y-71628000D03*
D16*
X98552000Y-71628000D03*
X96012000Y-71628000D03*
X93472000Y-71628000D03*
%TD*%
D17*
%TO.C,R4*%
X125500000Y-61000000D03*
X125500000Y-54860000D03*
%TD*%
%TO.C,R2*%
X116350000Y-59450000D03*
X116350000Y-53310000D03*
%TD*%
D18*
%TO.C,U1*%
X152400000Y-54701000D03*
X149860000Y-54701000D03*
X147320000Y-54701000D03*
X144780000Y-54701000D03*
X142240000Y-54701000D03*
X139700000Y-54701000D03*
X137160000Y-54701000D03*
X137160000Y-70866000D03*
X139700000Y-70866000D03*
X142240000Y-70866000D03*
X144780000Y-70866000D03*
X147320000Y-70866000D03*
X149860000Y-70866000D03*
X152400000Y-70866000D03*
%TD*%
D17*
%TO.C,R3*%
X130500000Y-61000000D03*
X130500000Y-54860000D03*
%TD*%
D14*
%TO.C,Q2*%
X122740000Y-64450000D03*
X122740000Y-62550000D03*
X120260000Y-63500000D03*
%TD*%
D17*
%TO.C,R1*%
X111250000Y-59450000D03*
X111250000Y-53310000D03*
%TD*%
%LPD*%
M02*
