%TF.GenerationSoftware,KiCad,Pcbnew,8.0.5-8.0.5-0~ubuntu22.04.1*%
%TF.CreationDate,2024-09-17T07:55:55-05:00*%
%TF.ProjectId,cheating-calc,63686561-7469-46e6-972d-63616c632e6b,rev?*%
%TF.SameCoordinates,Original*%
%TF.FileFunction,Copper,L1,Top*%
%TF.FilePolarity,Positive*%
%FSLAX46Y46*%
G04 Gerber Fmt 4.6, Leading zero omitted, Abs format (unit mm)*
G04 Created by KiCad (PCBNEW 8.0.5-8.0.5-0~ubuntu22.04.1) date 2024-09-17 07:55:55*
%MOMM*%
%LPD*%
G01*
G04 APERTURE LIST*
G04 Aperture macros list*
%AMRoundRect*
0 Rectangle with rounded corners*
0 $1 Rounding radius*
0 $2 $3 $4 $5 $6 $7 $8 $9 X,Y pos of 4 corners*
0 Add a 4 corners polygon primitive as box body*
4,1,4,$2,$3,$4,$5,$6,$7,$8,$9,$2,$3,0*
0 Add four circle primitives for the rounded corners*
1,1,$1+$1,$2,$3*
1,1,$1+$1,$4,$5*
1,1,$1+$1,$6,$7*
1,1,$1+$1,$8,$9*
0 Add four rect primitives between the rounded corners*
20,1,$1+$1,$2,$3,$4,$5,0*
20,1,$1+$1,$4,$5,$6,$7,0*
20,1,$1+$1,$6,$7,$8,$9,0*
20,1,$1+$1,$8,$9,$2,$3,0*%
G04 Aperture macros list end*
%TA.AperFunction,SMDPad,CuDef*%
%ADD10R,1.070000X0.600000*%
%TD*%
%TA.AperFunction,ComponentPad*%
%ADD11R,1.700000X1.700000*%
%TD*%
%TA.AperFunction,ComponentPad*%
%ADD12O,1.700000X1.700000*%
%TD*%
%TA.AperFunction,SMDPad,CuDef*%
%ADD13R,3.460000X1.280000*%
%TD*%
%TA.AperFunction,SMDPad,CuDef*%
%ADD14RoundRect,1.000000X-0.000010X0.375000X-0.000010X-0.375000X0.000010X-0.375000X0.000010X0.375000X0*%
%TD*%
%TA.AperFunction,ViaPad*%
%ADD15C,1.000000*%
%TD*%
%TA.AperFunction,Conductor*%
%ADD16C,0.600000*%
%TD*%
G04 APERTURE END LIST*
D10*
%TO.P,Q1,1,G*%
%TO.N,+3.3V*%
X122740000Y-58950000D03*
%TO.P,Q1,2,S*%
%TO.N,TIP_GPIO*%
X122740000Y-57050000D03*
%TO.P,Q1,3,D*%
%TO.N,TIP*%
X120260000Y-58000000D03*
%TD*%
D11*
%TO.P,J1,1,Pin_1*%
%TO.N,RING*%
X101092000Y-71628000D03*
D12*
%TO.P,J1,2,Pin_2*%
%TO.N,TIP*%
X98552000Y-71628000D03*
%TO.P,J1,3,Pin_3*%
%TO.N,GND*%
X96012000Y-71628000D03*
%TO.P,J1,4,Pin_4*%
%TO.N,+5V*%
X93472000Y-71628000D03*
%TD*%
D13*
%TO.P,R4,1,1*%
%TO.N,RING_GPIO*%
X125500000Y-61000000D03*
%TO.P,R4,2,2*%
%TO.N,+3.3V*%
X125500000Y-54860000D03*
%TD*%
%TO.P,R2,1,1*%
%TO.N,RING*%
X116350000Y-59450000D03*
%TO.P,R2,2,2*%
%TO.N,+5V*%
X116350000Y-53310000D03*
%TD*%
D14*
%TO.P,U1,1,PA02_A0_D0*%
%TO.N,unconnected-(U1-PA02_A0_D0-Pad1)*%
X152400000Y-54701000D03*
%TO.P,U1,2,PA4_A1_D1*%
%TO.N,TIP_GPIO*%
X149860000Y-54701000D03*
%TO.P,U1,3,PA10_A2_D2*%
%TO.N,unconnected-(U1-PA10_A2_D2-Pad3)*%
X147320000Y-54701000D03*
%TO.P,U1,4,PA11_A3_D3*%
%TO.N,unconnected-(U1-PA11_A3_D3-Pad4)*%
X144780000Y-54701000D03*
%TO.P,U1,5,PA8_A4_D4_SDA*%
%TO.N,unconnected-(U1-PA8_A4_D4_SDA-Pad5)*%
X142240000Y-54701000D03*
%TO.P,U1,6,PA9_A5_D5_SCL*%
%TO.N,unconnected-(U1-PA9_A5_D5_SCL-Pad6)*%
X139700000Y-54701000D03*
%TO.P,U1,7,PB08_A6_D6_TX*%
%TO.N,unconnected-(U1-PB08_A6_D6_TX-Pad7)*%
X137160000Y-54701000D03*
%TO.P,U1,8,PB09_A7_D7_RX*%
%TO.N,unconnected-(U1-PB09_A7_D7_RX-Pad8)*%
X137160000Y-70866000D03*
%TO.P,U1,9,PA7_A8_D8_SCK*%
%TO.N,unconnected-(U1-PA7_A8_D8_SCK-Pad9)*%
X139700000Y-70866000D03*
%TO.P,U1,10,PA5_A9_D9_MISO*%
%TO.N,unconnected-(U1-PA5_A9_D9_MISO-Pad10)*%
X142240000Y-70866000D03*
%TO.P,U1,11,PA6_A10_D10_MOSI*%
%TO.N,RING_GPIO*%
X144780000Y-70866000D03*
%TO.P,U1,12,3V3*%
%TO.N,+3.3V*%
X147320000Y-70866000D03*
%TO.P,U1,13,GND*%
%TO.N,GND*%
X149860000Y-70866000D03*
%TO.P,U1,14,5V*%
%TO.N,+5V*%
X152400000Y-70866000D03*
%TD*%
D13*
%TO.P,R3,1,1*%
%TO.N,TIP_GPIO*%
X130500000Y-61000000D03*
%TO.P,R3,2,2*%
%TO.N,+3.3V*%
X130500000Y-54860000D03*
%TD*%
D10*
%TO.P,Q2,1,G*%
%TO.N,+3.3V*%
X122740000Y-64450000D03*
%TO.P,Q2,2,S*%
%TO.N,RING_GPIO*%
X122740000Y-62550000D03*
%TO.P,Q2,3,D*%
%TO.N,RING*%
X120260000Y-63500000D03*
%TD*%
D13*
%TO.P,R1,1,1*%
%TO.N,TIP*%
X111250000Y-59450000D03*
%TO.P,R1,2,2*%
%TO.N,+5V*%
X111250000Y-53310000D03*
%TD*%
D15*
%TO.N,+5V*%
X113800000Y-53310000D03*
X152400000Y-68890000D03*
%TO.N,+3.3V*%
X147320000Y-68890000D03*
X123900000Y-58950000D03*
X128000000Y-54860000D03*
X123900000Y-64450000D03*
%TD*%
D16*
%TO.N,+5V*%
X116350000Y-53310000D02*
X113800000Y-53310000D01*
X111250000Y-53310000D02*
X113800000Y-53310000D01*
%TO.N,RING*%
X101092000Y-69558000D02*
X101092000Y-71628000D01*
X118950000Y-63500000D02*
X116350000Y-60900000D01*
X106350000Y-64300000D02*
X101092000Y-69558000D01*
X116350000Y-60900000D02*
X112950000Y-64300000D01*
X116350000Y-59450000D02*
X116350000Y-60900000D01*
X112950000Y-64300000D02*
X106350000Y-64300000D01*
X120260000Y-63500000D02*
X118950000Y-63500000D01*
%TO.N,TIP*%
X119600000Y-56750000D02*
X112550000Y-56750000D01*
X120260000Y-58000000D02*
X120260000Y-57410000D01*
X111250000Y-58050000D02*
X111250000Y-59450000D01*
X98552000Y-67648000D02*
X106750000Y-59450000D01*
X120260000Y-57410000D02*
X119600000Y-56750000D01*
X98552000Y-67648000D02*
X98552000Y-71628000D01*
X106750000Y-59450000D02*
X111250000Y-59450000D01*
X112550000Y-56750000D02*
X111250000Y-58050000D01*
%TO.N,RING_GPIO*%
X144780000Y-70866000D02*
X144780000Y-69280000D01*
X132500000Y-65500000D02*
X130000000Y-65500000D01*
X143000000Y-67500000D02*
X134500000Y-67500000D01*
X122740000Y-61510000D02*
X123250000Y-61000000D01*
X122740000Y-62550000D02*
X122740000Y-61510000D01*
X134500000Y-67500000D02*
X132500000Y-65500000D01*
X144780000Y-69280000D02*
X143000000Y-67500000D01*
X123250000Y-61000000D02*
X125500000Y-61000000D01*
X130000000Y-65500000D02*
X125500000Y-61000000D01*
%TO.N,TIP_GPIO*%
X130500000Y-61000000D02*
X126550000Y-57050000D01*
X149860000Y-54701000D02*
X149860000Y-55640000D01*
X146739264Y-60500000D02*
X139500000Y-60500000D01*
X132500000Y-61000000D02*
X130500000Y-61000000D01*
X148000000Y-59239264D02*
X146739264Y-60500000D01*
X138500000Y-59500000D02*
X134000000Y-59500000D01*
X134000000Y-59500000D02*
X132500000Y-61000000D01*
X126550000Y-57050000D02*
X122740000Y-57050000D01*
X149860000Y-55640000D02*
X148000000Y-57500000D01*
X148000000Y-57500000D02*
X148000000Y-59239264D01*
X139500000Y-60500000D02*
X138500000Y-59500000D01*
%TO.N,+5V*%
X116340000Y-53000000D02*
X116350000Y-53010000D01*
X152400000Y-68890000D02*
X152400000Y-70866000D01*
X111260000Y-53000000D02*
X111250000Y-53010000D01*
%TO.N,+3.3V*%
X147320000Y-68890000D02*
X147320000Y-70866000D01*
X123900000Y-64450000D02*
X122740000Y-64450000D01*
X122740000Y-58950000D02*
X123900000Y-58950000D01*
X128000000Y-54860000D02*
X130500000Y-54860000D01*
X125500000Y-54860000D02*
X128000000Y-54860000D01*
%TD*%
%TA.AperFunction,Conductor*%
%TO.N,GND*%
G36*
X108962539Y-52590185D02*
G01*
X109008294Y-52642989D01*
X109019500Y-52694500D01*
X109019500Y-53997870D01*
X109019501Y-53997876D01*
X109025908Y-54057483D01*
X109076202Y-54192328D01*
X109076206Y-54192335D01*
X109162452Y-54307544D01*
X109162455Y-54307547D01*
X109277664Y-54393793D01*
X109277671Y-54393797D01*
X109412517Y-54444091D01*
X109412516Y-54444091D01*
X109419444Y-54444835D01*
X109472127Y-54450500D01*
X112998136Y-54450499D01*
X113003968Y-54450636D01*
X113009511Y-54450896D01*
X113024035Y-54451581D01*
X113024036Y-54451580D01*
X113024040Y-54451581D01*
X113028678Y-54451135D01*
X113032949Y-54450725D01*
X113048386Y-54448403D01*
X113053536Y-54447739D01*
X113087483Y-54444091D01*
X113222331Y-54393796D01*
X113222334Y-54393793D01*
X113230123Y-54389539D01*
X113230189Y-54389661D01*
X113231404Y-54388845D01*
X113432803Y-54281851D01*
X113501239Y-54267783D01*
X113526973Y-54272698D01*
X113603868Y-54296024D01*
X113800000Y-54315341D01*
X113996132Y-54296024D01*
X114073025Y-54272697D01*
X114142890Y-54272073D01*
X114167195Y-54281852D01*
X114302853Y-54353920D01*
X114368622Y-54388860D01*
X114369819Y-54389629D01*
X114369868Y-54389541D01*
X114377666Y-54393793D01*
X114377669Y-54393796D01*
X114377672Y-54393797D01*
X114381671Y-54395978D01*
X114385061Y-54397473D01*
X114390516Y-54400277D01*
X114390526Y-54400282D01*
X114391113Y-54400574D01*
X114442378Y-54421800D01*
X114454971Y-54427014D01*
X114467367Y-54429286D01*
X114488328Y-54435069D01*
X114512517Y-54444091D01*
X114528629Y-54445823D01*
X114572115Y-54450499D01*
X114572120Y-54450499D01*
X114572127Y-54450500D01*
X114572133Y-54450499D01*
X114575436Y-54450677D01*
X114575427Y-54450833D01*
X114594173Y-54452536D01*
X114596492Y-54452962D01*
X114605440Y-54453307D01*
X114659537Y-54452495D01*
X114659539Y-54452494D01*
X114665587Y-54451807D01*
X114665635Y-54452234D01*
X114681994Y-54450499D01*
X118127871Y-54450499D01*
X118127872Y-54450499D01*
X118187483Y-54444091D01*
X118322331Y-54393796D01*
X118437546Y-54307546D01*
X118523796Y-54192331D01*
X118531329Y-54172135D01*
X123269500Y-54172135D01*
X123269500Y-55547870D01*
X123269501Y-55547876D01*
X123275908Y-55607483D01*
X123326202Y-55742328D01*
X123326206Y-55742335D01*
X123412452Y-55857544D01*
X123412455Y-55857547D01*
X123527664Y-55943793D01*
X123527671Y-55943797D01*
X123662517Y-55994091D01*
X123662516Y-55994091D01*
X123669444Y-55994835D01*
X123722127Y-56000500D01*
X127248136Y-56000499D01*
X127253968Y-56000636D01*
X127259511Y-56000896D01*
X127274035Y-56001581D01*
X127274036Y-56001580D01*
X127274040Y-56001581D01*
X127278678Y-56001135D01*
X127282949Y-56000725D01*
X127298386Y-55998403D01*
X127303536Y-55997739D01*
X127337483Y-55994091D01*
X127472331Y-55943796D01*
X127472334Y-55943793D01*
X127480123Y-55939539D01*
X127480189Y-55939661D01*
X127481404Y-55938845D01*
X127664632Y-55841505D01*
X127733067Y-55827437D01*
X127758792Y-55832350D01*
X127803868Y-55846024D01*
X128000000Y-55865341D01*
X128196132Y-55846024D01*
X128241197Y-55832352D01*
X128311063Y-55831728D01*
X128335369Y-55841507D01*
X128444299Y-55899376D01*
X128518622Y-55938860D01*
X128519819Y-55939629D01*
X128519868Y-55939541D01*
X128527666Y-55943793D01*
X128527669Y-55943796D01*
X128527672Y-55943797D01*
X128531671Y-55945978D01*
X128535061Y-55947473D01*
X128539004Y-55949500D01*
X128540526Y-55950282D01*
X128541113Y-55950574D01*
X128589705Y-55970693D01*
X128604971Y-55977014D01*
X128617367Y-55979286D01*
X128638328Y-55985069D01*
X128662517Y-55994091D01*
X128678629Y-55995823D01*
X128722115Y-56000499D01*
X128722120Y-56000499D01*
X128722127Y-56000500D01*
X128722133Y-56000499D01*
X128725436Y-56000677D01*
X128725427Y-56000833D01*
X128744173Y-56002536D01*
X128746492Y-56002962D01*
X128755440Y-56003307D01*
X128809537Y-56002495D01*
X128809539Y-56002494D01*
X128815587Y-56001807D01*
X128815635Y-56002234D01*
X128831994Y-56000499D01*
X132277871Y-56000499D01*
X132277872Y-56000499D01*
X132337483Y-55994091D01*
X132472331Y-55943796D01*
X132587546Y-55857546D01*
X132673796Y-55742331D01*
X132724091Y-55607483D01*
X132730500Y-55547873D01*
X132730499Y-54172128D01*
X132724091Y-54112517D01*
X132703564Y-54057482D01*
X132673797Y-53977671D01*
X132673793Y-53977664D01*
X132587547Y-53862455D01*
X132587544Y-53862452D01*
X132472335Y-53776206D01*
X132472328Y-53776202D01*
X132337482Y-53725908D01*
X132337483Y-53725908D01*
X132277883Y-53719501D01*
X132277881Y-53719500D01*
X132277873Y-53719500D01*
X132277865Y-53719500D01*
X128751981Y-53719500D01*
X128746140Y-53719362D01*
X128744803Y-53719299D01*
X128726013Y-53718412D01*
X128717125Y-53719265D01*
X128717078Y-53719270D01*
X128701606Y-53721596D01*
X128696436Y-53722262D01*
X128662516Y-53725908D01*
X128527666Y-53776204D01*
X128519908Y-53780436D01*
X128519868Y-53780363D01*
X128518666Y-53781113D01*
X128335367Y-53878491D01*
X128266929Y-53892560D01*
X128241198Y-53887646D01*
X128196130Y-53873975D01*
X128196131Y-53873975D01*
X128000000Y-53854659D01*
X127803870Y-53873975D01*
X127758798Y-53887647D01*
X127688931Y-53888268D01*
X127664631Y-53878492D01*
X127481414Y-53781158D01*
X127480179Y-53780373D01*
X127480129Y-53780466D01*
X127472334Y-53776206D01*
X127472331Y-53776204D01*
X127472327Y-53776202D01*
X127468443Y-53774080D01*
X127465019Y-53772568D01*
X127459163Y-53769562D01*
X127458583Y-53769275D01*
X127458569Y-53769268D01*
X127395032Y-53742987D01*
X127395029Y-53742986D01*
X127395021Y-53742984D01*
X127382636Y-53740713D01*
X127361671Y-53734930D01*
X127337481Y-53725908D01*
X127337483Y-53725908D01*
X127277883Y-53719501D01*
X127277881Y-53719500D01*
X127277873Y-53719500D01*
X127277864Y-53719500D01*
X127274548Y-53719322D01*
X127274556Y-53719167D01*
X127255859Y-53717467D01*
X127253511Y-53717037D01*
X127251708Y-53716967D01*
X127244551Y-53716691D01*
X127190461Y-53717503D01*
X127184415Y-53718191D01*
X127184366Y-53717765D01*
X127168008Y-53719500D01*
X123722129Y-53719500D01*
X123722123Y-53719501D01*
X123662516Y-53725908D01*
X123527671Y-53776202D01*
X123527664Y-53776206D01*
X123412455Y-53862452D01*
X123412452Y-53862455D01*
X123326206Y-53977664D01*
X123326202Y-53977671D01*
X123275908Y-54112517D01*
X123269501Y-54172116D01*
X123269501Y-54172123D01*
X123269500Y-54172135D01*
X118531329Y-54172135D01*
X118574091Y-54057483D01*
X118580500Y-53997873D01*
X118580499Y-52694499D01*
X118600184Y-52627461D01*
X118652987Y-52581706D01*
X118704499Y-52570500D01*
X132278325Y-52570500D01*
X156719763Y-52570500D01*
X156786802Y-52590185D01*
X156832557Y-52642989D01*
X156843763Y-52694500D01*
X156843763Y-73445704D01*
X156824078Y-73512743D01*
X156771274Y-73558498D01*
X156719763Y-73569704D01*
X132968733Y-73569704D01*
X132901694Y-73550019D01*
X132855939Y-73497215D01*
X132844733Y-73445704D01*
X132844733Y-68004161D01*
X132844733Y-68004159D01*
X132810625Y-67876865D01*
X132744733Y-67762737D01*
X132651547Y-67669551D01*
X132594483Y-67636605D01*
X132537420Y-67603659D01*
X132473772Y-67586605D01*
X132410125Y-67569551D01*
X110409913Y-67569551D01*
X110278129Y-67569551D01*
X110150833Y-67603659D01*
X110036707Y-67669551D01*
X110036704Y-67669553D01*
X109943523Y-67762734D01*
X109943521Y-67762737D01*
X109877629Y-67876863D01*
X109843521Y-68004159D01*
X109843521Y-73445704D01*
X109823836Y-73512743D01*
X109771032Y-73558498D01*
X109719521Y-73569704D01*
X85968500Y-73569704D01*
X85901461Y-73550019D01*
X85855706Y-73497215D01*
X85844500Y-73445704D01*
X85844500Y-71627999D01*
X92116341Y-71627999D01*
X92116341Y-71628000D01*
X92136936Y-71863403D01*
X92136938Y-71863413D01*
X92198094Y-72091655D01*
X92198096Y-72091659D01*
X92198097Y-72091663D01*
X92277801Y-72262588D01*
X92297965Y-72305830D01*
X92297967Y-72305834D01*
X92406281Y-72460521D01*
X92433505Y-72499401D01*
X92600599Y-72666495D01*
X92678723Y-72721198D01*
X92794165Y-72802032D01*
X92794167Y-72802033D01*
X92794170Y-72802035D01*
X93008337Y-72901903D01*
X93236592Y-72963063D01*
X93413034Y-72978500D01*
X93471999Y-72983659D01*
X93472000Y-72983659D01*
X93472001Y-72983659D01*
X93530966Y-72978500D01*
X93707408Y-72963063D01*
X93935663Y-72901903D01*
X94149830Y-72802035D01*
X94343401Y-72666495D01*
X94510495Y-72499401D01*
X94640730Y-72313405D01*
X94695307Y-72269781D01*
X94764805Y-72262587D01*
X94827160Y-72294110D01*
X94843879Y-72313405D01*
X94973890Y-72499078D01*
X95140917Y-72666105D01*
X95334421Y-72801600D01*
X95548507Y-72901429D01*
X95548516Y-72901433D01*
X95762000Y-72958634D01*
X95762000Y-72061012D01*
X95819007Y-72093925D01*
X95946174Y-72128000D01*
X96077826Y-72128000D01*
X96204993Y-72093925D01*
X96262000Y-72061012D01*
X96262000Y-72958633D01*
X96475483Y-72901433D01*
X96475492Y-72901429D01*
X96689578Y-72801600D01*
X96883082Y-72666105D01*
X97050105Y-72499082D01*
X97180119Y-72313405D01*
X97234696Y-72269781D01*
X97304195Y-72262588D01*
X97366549Y-72294110D01*
X97383269Y-72313405D01*
X97513505Y-72499401D01*
X97680599Y-72666495D01*
X97758723Y-72721198D01*
X97874165Y-72802032D01*
X97874167Y-72802033D01*
X97874170Y-72802035D01*
X98088337Y-72901903D01*
X98316592Y-72963063D01*
X98493034Y-72978500D01*
X98551999Y-72983659D01*
X98552000Y-72983659D01*
X98552001Y-72983659D01*
X98610966Y-72978500D01*
X98787408Y-72963063D01*
X99015663Y-72901903D01*
X99229830Y-72802035D01*
X99423401Y-72666495D01*
X99545329Y-72544566D01*
X99606648Y-72511084D01*
X99676340Y-72516068D01*
X99732274Y-72557939D01*
X99749189Y-72588917D01*
X99798202Y-72720328D01*
X99798206Y-72720335D01*
X99884452Y-72835544D01*
X99884455Y-72835547D01*
X99999664Y-72921793D01*
X99999671Y-72921797D01*
X100134517Y-72972091D01*
X100134516Y-72972091D01*
X100141444Y-72972835D01*
X100194127Y-72978500D01*
X101989872Y-72978499D01*
X102049483Y-72972091D01*
X102184331Y-72921796D01*
X102299546Y-72835546D01*
X102385796Y-72720331D01*
X102436091Y-72585483D01*
X102442500Y-72525873D01*
X102442499Y-70730128D01*
X102436091Y-70670517D01*
X102436090Y-70670513D01*
X102427504Y-70647493D01*
X102423097Y-70633045D01*
X102421443Y-70626141D01*
X102421442Y-70626138D01*
X102413361Y-70608589D01*
X102409811Y-70600056D01*
X102385798Y-70535673D01*
X102385795Y-70535668D01*
X102378054Y-70525327D01*
X102364684Y-70502872D01*
X102361266Y-70495448D01*
X101993544Y-69927150D01*
X101973652Y-69860172D01*
X101993128Y-69793072D01*
X102009965Y-69772111D01*
X106645259Y-65136819D01*
X106706582Y-65103334D01*
X106732940Y-65100500D01*
X113028844Y-65100500D01*
X113028845Y-65100499D01*
X113183497Y-65069737D01*
X113329179Y-65009394D01*
X113460289Y-64921789D01*
X116262319Y-62119759D01*
X116323642Y-62086274D01*
X116393334Y-62091258D01*
X116437681Y-62119759D01*
X118328211Y-64010289D01*
X118420049Y-64102127D01*
X118439712Y-64121790D01*
X118570814Y-64209390D01*
X118570816Y-64209391D01*
X118570821Y-64209394D01*
X118678192Y-64253868D01*
X118678195Y-64253869D01*
X118678196Y-64253870D01*
X118716498Y-64269735D01*
X118716503Y-64269737D01*
X118716507Y-64269737D01*
X118716508Y-64269738D01*
X118871154Y-64300500D01*
X118871157Y-64300500D01*
X120353276Y-64300500D01*
X120353284Y-64300499D01*
X120842871Y-64300499D01*
X120842872Y-64300499D01*
X120902483Y-64294091D01*
X121037331Y-64243796D01*
X121152546Y-64157546D01*
X121238796Y-64042331D01*
X121289091Y-63907483D01*
X121295500Y-63847873D01*
X121295499Y-63152128D01*
X121289091Y-63092517D01*
X121238796Y-62957669D01*
X121238795Y-62957668D01*
X121238793Y-62957664D01*
X121152547Y-62842455D01*
X121152544Y-62842452D01*
X121037335Y-62756206D01*
X121037328Y-62756202D01*
X120902482Y-62705908D01*
X120902483Y-62705908D01*
X120842883Y-62699501D01*
X120842881Y-62699500D01*
X120842873Y-62699500D01*
X120842865Y-62699500D01*
X119332940Y-62699500D01*
X119265901Y-62679815D01*
X119245259Y-62663181D01*
X117384258Y-60802180D01*
X117350773Y-60740857D01*
X117355757Y-60671165D01*
X117397629Y-60615232D01*
X117463093Y-60590815D01*
X117471939Y-60590499D01*
X118127871Y-60590499D01*
X118127872Y-60590499D01*
X118187483Y-60584091D01*
X118322331Y-60533796D01*
X118437546Y-60447546D01*
X118523796Y-60332331D01*
X118574091Y-60197483D01*
X118580500Y-60137873D01*
X118580499Y-58762128D01*
X118574091Y-58702517D01*
X118565790Y-58680262D01*
X118523797Y-58567671D01*
X118523793Y-58567664D01*
X118437547Y-58452455D01*
X118437544Y-58452452D01*
X118322335Y-58366206D01*
X118322328Y-58366202D01*
X118187482Y-58315908D01*
X118187483Y-58315908D01*
X118127883Y-58309501D01*
X118127881Y-58309500D01*
X118127873Y-58309500D01*
X118127864Y-58309500D01*
X114572129Y-58309500D01*
X114572123Y-58309501D01*
X114512516Y-58315908D01*
X114377671Y-58366202D01*
X114377664Y-58366206D01*
X114262455Y-58452452D01*
X114262452Y-58452455D01*
X114176206Y-58567664D01*
X114176202Y-58567671D01*
X114125908Y-58702517D01*
X114119501Y-58762116D01*
X114119501Y-58762123D01*
X114119500Y-58762135D01*
X114119500Y-60137870D01*
X114119501Y-60137876D01*
X114125908Y-60197483D01*
X114176202Y-60332328D01*
X114176206Y-60332335D01*
X114262452Y-60447544D01*
X114262455Y-60447547D01*
X114377664Y-60533793D01*
X114377671Y-60533797D01*
X114512517Y-60584091D01*
X114512516Y-60584091D01*
X114519444Y-60584835D01*
X114572127Y-60590500D01*
X115228059Y-60590499D01*
X115295098Y-60610183D01*
X115340853Y-60662987D01*
X115350797Y-60732146D01*
X115321772Y-60795702D01*
X115315740Y-60802180D01*
X112654741Y-63463181D01*
X112593418Y-63496666D01*
X112567060Y-63499500D01*
X106271155Y-63499500D01*
X106116510Y-63530261D01*
X106116498Y-63530264D01*
X105970827Y-63590602D01*
X105970814Y-63590609D01*
X105839711Y-63678210D01*
X105839707Y-63678213D01*
X101848371Y-67669551D01*
X100581711Y-68936211D01*
X100527422Y-68990500D01*
X100470209Y-69047712D01*
X100382609Y-69178814D01*
X100382602Y-69178827D01*
X100322264Y-69324498D01*
X100322261Y-69324510D01*
X100291500Y-69479153D01*
X100291500Y-69734370D01*
X100271815Y-69801409D01*
X100271607Y-69801733D01*
X100103598Y-70061384D01*
X99822731Y-70495452D01*
X99822591Y-70495667D01*
X99822371Y-70496007D01*
X99822366Y-70496017D01*
X99819136Y-70503057D01*
X99805679Y-70525682D01*
X99804240Y-70527603D01*
X99748293Y-70569457D01*
X99678600Y-70574419D01*
X99617288Y-70540914D01*
X99588070Y-70494540D01*
X99359572Y-69847264D01*
X99352500Y-69805988D01*
X99352500Y-68030940D01*
X99372185Y-67963901D01*
X99388819Y-67943259D01*
X107045259Y-60286819D01*
X107106582Y-60253334D01*
X107132940Y-60250500D01*
X108713758Y-60250500D01*
X108771933Y-60264994D01*
X109268617Y-60528858D01*
X109269824Y-60529619D01*
X109269868Y-60529541D01*
X109277666Y-60533793D01*
X109277669Y-60533796D01*
X109277672Y-60533797D01*
X109281671Y-60535978D01*
X109285061Y-60537473D01*
X109290516Y-60540277D01*
X109290526Y-60540282D01*
X109291113Y-60540574D01*
X109342378Y-60561800D01*
X109354971Y-60567014D01*
X109367367Y-60569286D01*
X109388328Y-60575069D01*
X109412517Y-60584091D01*
X109428629Y-60585823D01*
X109472115Y-60590499D01*
X109472120Y-60590499D01*
X109472127Y-60590500D01*
X109472133Y-60590499D01*
X109475436Y-60590677D01*
X109475427Y-60590833D01*
X109494173Y-60592536D01*
X109496492Y-60592962D01*
X109505440Y-60593307D01*
X109559537Y-60592495D01*
X109559539Y-60592494D01*
X109565587Y-60591807D01*
X109565635Y-60592234D01*
X109581994Y-60590499D01*
X113027871Y-60590499D01*
X113027872Y-60590499D01*
X113087483Y-60584091D01*
X113222331Y-60533796D01*
X113337546Y-60447546D01*
X113423796Y-60332331D01*
X113474091Y-60197483D01*
X113480500Y-60137873D01*
X113480499Y-58762128D01*
X113474091Y-58702517D01*
X113465790Y-58680262D01*
X113423797Y-58567671D01*
X113423793Y-58567664D01*
X113337547Y-58452455D01*
X113337544Y-58452452D01*
X113222335Y-58366206D01*
X113222328Y-58366202D01*
X113087482Y-58315908D01*
X113087483Y-58315908D01*
X113027883Y-58309501D01*
X113027881Y-58309500D01*
X113027873Y-58309500D01*
X113027865Y-58309500D01*
X112421939Y-58309500D01*
X112354900Y-58289815D01*
X112309145Y-58237011D01*
X112299201Y-58167853D01*
X112328226Y-58104297D01*
X112334258Y-58097819D01*
X112530999Y-57901079D01*
X112845259Y-57586819D01*
X112906582Y-57553334D01*
X112932940Y-57550500D01*
X119100500Y-57550500D01*
X119167539Y-57570185D01*
X119213294Y-57622989D01*
X119224500Y-57674500D01*
X119224500Y-58347870D01*
X119224501Y-58347876D01*
X119230908Y-58407483D01*
X119281202Y-58542328D01*
X119281206Y-58542335D01*
X119367452Y-58657544D01*
X119367455Y-58657547D01*
X119482664Y-58743793D01*
X119482671Y-58743797D01*
X119509673Y-58753868D01*
X119617517Y-58794091D01*
X119677127Y-58800500D01*
X120171155Y-58800499D01*
X120171169Y-58800500D01*
X120181158Y-58800500D01*
X120353276Y-58800500D01*
X120353284Y-58800499D01*
X120842871Y-58800499D01*
X120842872Y-58800499D01*
X120902483Y-58794091D01*
X121037331Y-58743796D01*
X121152546Y-58657546D01*
X121238796Y-58542331D01*
X121289091Y-58407483D01*
X121295500Y-58347873D01*
X121295499Y-57652128D01*
X121289091Y-57592517D01*
X121272860Y-57549000D01*
X121238797Y-57457671D01*
X121238793Y-57457664D01*
X121152548Y-57342457D01*
X121152546Y-57342454D01*
X121152544Y-57342452D01*
X121152541Y-57342449D01*
X121085072Y-57291943D01*
X121043200Y-57236010D01*
X121037767Y-57216877D01*
X121029737Y-57176503D01*
X120995562Y-57093997D01*
X120969397Y-57030827D01*
X120969390Y-57030814D01*
X120881790Y-56899712D01*
X120832578Y-56850500D01*
X120770289Y-56788211D01*
X120684205Y-56702127D01*
X121704500Y-56702127D01*
X121704500Y-56702134D01*
X121704500Y-56702135D01*
X121704500Y-57397870D01*
X121704501Y-57397876D01*
X121710908Y-57457483D01*
X121761202Y-57592328D01*
X121761206Y-57592335D01*
X121847452Y-57707544D01*
X121847455Y-57707547D01*
X121962664Y-57793793D01*
X121962671Y-57793797D01*
X122007618Y-57810561D01*
X122097517Y-57844091D01*
X122157127Y-57850500D01*
X122651155Y-57850499D01*
X122651169Y-57850500D01*
X122661158Y-57850500D01*
X123067291Y-57850500D01*
X123134330Y-57870185D01*
X123180085Y-57922989D01*
X123190029Y-57992147D01*
X123161004Y-58055703D01*
X123102226Y-58093477D01*
X123091639Y-58096086D01*
X122836966Y-58147086D01*
X122812618Y-58149500D01*
X122157129Y-58149500D01*
X122157123Y-58149501D01*
X122097516Y-58155908D01*
X121962671Y-58206202D01*
X121962664Y-58206206D01*
X121847455Y-58292452D01*
X121847452Y-58292455D01*
X121761206Y-58407664D01*
X121761202Y-58407671D01*
X121710910Y-58542513D01*
X121710909Y-58542517D01*
X121704500Y-58602127D01*
X121704500Y-58602134D01*
X121704500Y-58602135D01*
X121704500Y-59297870D01*
X121704501Y-59297876D01*
X121710908Y-59357483D01*
X121761202Y-59492328D01*
X121761206Y-59492335D01*
X121847452Y-59607544D01*
X121847455Y-59607547D01*
X121962664Y-59693793D01*
X121962671Y-59693797D01*
X121977962Y-59699500D01*
X122097517Y-59744091D01*
X122157127Y-59750500D01*
X122651155Y-59750499D01*
X122651169Y-59750500D01*
X122661158Y-59750500D01*
X122812622Y-59750500D01*
X122836969Y-59752913D01*
X123307198Y-59847080D01*
X123369067Y-59879545D01*
X123403563Y-59940305D01*
X123399733Y-60010070D01*
X123382119Y-60042974D01*
X123377850Y-60048677D01*
X123338453Y-60082957D01*
X123119039Y-60203934D01*
X123083360Y-60216963D01*
X123016506Y-60230261D01*
X123016500Y-60230263D01*
X122870827Y-60290602D01*
X122870814Y-60290609D01*
X122739711Y-60378210D01*
X122739707Y-60378213D01*
X122322220Y-60795702D01*
X122229711Y-60888211D01*
X122183384Y-60934538D01*
X122118209Y-60999712D01*
X122030609Y-61130814D01*
X122030602Y-61130827D01*
X121970264Y-61276498D01*
X121970261Y-61276510D01*
X121939500Y-61431153D01*
X121939500Y-61761478D01*
X121919815Y-61828517D01*
X121889812Y-61860744D01*
X121847457Y-61892450D01*
X121847451Y-61892457D01*
X121761206Y-62007664D01*
X121761202Y-62007671D01*
X121711661Y-62140500D01*
X121710909Y-62142517D01*
X121704500Y-62202127D01*
X121704500Y-62202134D01*
X121704500Y-62202135D01*
X121704500Y-62897870D01*
X121704501Y-62897876D01*
X121710908Y-62957483D01*
X121761202Y-63092328D01*
X121761206Y-63092335D01*
X121847452Y-63207544D01*
X121847455Y-63207547D01*
X121962664Y-63293793D01*
X121962671Y-63293797D01*
X122007618Y-63310561D01*
X122097517Y-63344091D01*
X122157127Y-63350500D01*
X122651155Y-63350499D01*
X122651169Y-63350500D01*
X122661158Y-63350500D01*
X122833276Y-63350500D01*
X122833284Y-63350499D01*
X123067296Y-63350499D01*
X123134335Y-63370184D01*
X123180090Y-63422988D01*
X123190034Y-63492146D01*
X123161009Y-63555702D01*
X123102231Y-63593476D01*
X123091644Y-63596085D01*
X122836966Y-63647086D01*
X122812618Y-63649500D01*
X122157129Y-63649500D01*
X122157123Y-63649501D01*
X122097516Y-63655908D01*
X121962671Y-63706202D01*
X121962664Y-63706206D01*
X121847455Y-63792452D01*
X121847452Y-63792455D01*
X121761206Y-63907664D01*
X121761202Y-63907671D01*
X121710910Y-64042513D01*
X121710909Y-64042517D01*
X121704500Y-64102127D01*
X121704500Y-64102134D01*
X121704500Y-64102135D01*
X121704500Y-64797870D01*
X121704501Y-64797876D01*
X121710908Y-64857483D01*
X121761202Y-64992328D01*
X121761206Y-64992335D01*
X121847452Y-65107544D01*
X121847455Y-65107547D01*
X121962664Y-65193793D01*
X121962671Y-65193797D01*
X122007618Y-65210561D01*
X122097517Y-65244091D01*
X122157127Y-65250500D01*
X122651155Y-65250499D01*
X122651169Y-65250500D01*
X122661158Y-65250500D01*
X122812622Y-65250500D01*
X122836969Y-65252913D01*
X123599989Y-65405714D01*
X123604242Y-65406547D01*
X123604249Y-65406547D01*
X123604998Y-65406694D01*
X123617156Y-65409720D01*
X123703868Y-65436024D01*
X123900000Y-65455341D01*
X124096132Y-65436024D01*
X124284727Y-65378814D01*
X124458538Y-65285910D01*
X124610883Y-65160883D01*
X124735910Y-65008538D01*
X124828814Y-64834727D01*
X124886024Y-64646132D01*
X124905341Y-64450000D01*
X124886024Y-64253868D01*
X124828814Y-64065273D01*
X124828811Y-64065269D01*
X124828811Y-64065266D01*
X124735913Y-63891467D01*
X124735909Y-63891460D01*
X124610883Y-63739116D01*
X124458539Y-63614090D01*
X124458532Y-63614086D01*
X124284733Y-63521188D01*
X124284727Y-63521186D01*
X124096132Y-63463976D01*
X124096129Y-63463975D01*
X123900000Y-63444659D01*
X123703870Y-63463975D01*
X123682934Y-63470326D01*
X123613067Y-63470947D01*
X123553955Y-63433697D01*
X123524366Y-63370402D01*
X123533694Y-63301158D01*
X123572630Y-63252398D01*
X123632546Y-63207546D01*
X123718796Y-63092331D01*
X123769091Y-62957483D01*
X123775500Y-62897873D01*
X123775499Y-62264498D01*
X123795183Y-62197460D01*
X123847987Y-62151705D01*
X123899499Y-62140499D01*
X125056882Y-62140499D01*
X125119114Y-62157246D01*
X126072480Y-62710435D01*
X126097927Y-62730005D01*
X129489707Y-66121786D01*
X129489711Y-66121789D01*
X129620814Y-66209390D01*
X129620827Y-66209397D01*
X129766498Y-66269735D01*
X129766503Y-66269737D01*
X129921153Y-66300499D01*
X129921156Y-66300500D01*
X129921158Y-66300500D01*
X130078842Y-66300500D01*
X132117060Y-66300500D01*
X132184099Y-66320185D01*
X132204741Y-66336819D01*
X133878211Y-68010289D01*
X133983181Y-68115259D01*
X133989712Y-68121790D01*
X134120814Y-68209390D01*
X134120827Y-68209397D01*
X134262817Y-68268210D01*
X134262819Y-68268211D01*
X134266503Y-68269737D01*
X134421153Y-68300499D01*
X134421156Y-68300500D01*
X134421158Y-68300500D01*
X134578842Y-68300500D01*
X142617060Y-68300500D01*
X142684099Y-68320185D01*
X142704741Y-68336819D01*
X143429540Y-69061618D01*
X143463025Y-69122941D01*
X143464528Y-69167420D01*
X143445350Y-69297244D01*
X143416080Y-69360687D01*
X143357156Y-69398234D01*
X143287287Y-69397964D01*
X143242541Y-69373746D01*
X143152216Y-69297244D01*
X143114898Y-69265637D01*
X143114896Y-69265636D01*
X143114894Y-69265634D01*
X142901273Y-69138344D01*
X142901271Y-69138343D01*
X142901269Y-69138342D01*
X142669625Y-69047953D01*
X142669615Y-69047950D01*
X142426238Y-68996919D01*
X142426235Y-68996918D01*
X142322850Y-68990500D01*
X142322842Y-68990500D01*
X142157158Y-68990500D01*
X142157149Y-68990500D01*
X142053764Y-68996918D01*
X142053761Y-68996919D01*
X141810384Y-69047950D01*
X141810374Y-69047953D01*
X141578730Y-69138342D01*
X141365097Y-69265639D01*
X141175350Y-69426348D01*
X141175348Y-69426350D01*
X141064622Y-69557084D01*
X141006273Y-69595519D01*
X140936408Y-69596306D01*
X140877208Y-69559197D01*
X140875378Y-69557084D01*
X140764651Y-69426350D01*
X140764649Y-69426348D01*
X140574902Y-69265639D01*
X140429202Y-69178821D01*
X140361273Y-69138344D01*
X140361271Y-69138343D01*
X140361269Y-69138342D01*
X140129625Y-69047953D01*
X140129615Y-69047950D01*
X139886238Y-68996919D01*
X139886235Y-68996918D01*
X139782850Y-68990500D01*
X139782842Y-68990500D01*
X139617158Y-68990500D01*
X139617149Y-68990500D01*
X139513764Y-68996918D01*
X139513761Y-68996919D01*
X139270384Y-69047950D01*
X139270374Y-69047953D01*
X139038730Y-69138342D01*
X138825097Y-69265639D01*
X138635350Y-69426348D01*
X138635348Y-69426350D01*
X138524622Y-69557084D01*
X138466273Y-69595519D01*
X138396408Y-69596306D01*
X138337208Y-69559197D01*
X138335378Y-69557084D01*
X138224651Y-69426350D01*
X138224649Y-69426348D01*
X138034902Y-69265639D01*
X137889202Y-69178821D01*
X137821273Y-69138344D01*
X137821271Y-69138343D01*
X137821269Y-69138342D01*
X137589625Y-69047953D01*
X137589615Y-69047950D01*
X137346238Y-68996919D01*
X137346235Y-68996918D01*
X137242850Y-68990500D01*
X137242842Y-68990500D01*
X137077158Y-68990500D01*
X137077149Y-68990500D01*
X136973764Y-68996918D01*
X136973761Y-68996919D01*
X136730384Y-69047950D01*
X136730374Y-69047953D01*
X136498730Y-69138342D01*
X136285097Y-69265639D01*
X136095350Y-69426348D01*
X136095348Y-69426350D01*
X135934639Y-69616097D01*
X135807342Y-69829730D01*
X135716953Y-70061374D01*
X135716950Y-70061384D01*
X135665919Y-70304761D01*
X135665918Y-70304764D01*
X135659500Y-70408149D01*
X135659500Y-71323850D01*
X135665918Y-71427235D01*
X135665919Y-71427238D01*
X135716950Y-71670615D01*
X135716953Y-71670625D01*
X135807342Y-71902269D01*
X135807344Y-71902273D01*
X135934634Y-72115894D01*
X135934639Y-72115902D01*
X136095348Y-72305649D01*
X136095350Y-72305651D01*
X136285097Y-72466360D01*
X136285103Y-72466363D01*
X136285106Y-72466366D01*
X136498727Y-72593656D01*
X136498730Y-72593657D01*
X136730374Y-72684046D01*
X136730381Y-72684048D01*
X136730386Y-72684050D01*
X136973763Y-72735081D01*
X137077158Y-72741500D01*
X137077169Y-72741500D01*
X137242831Y-72741500D01*
X137242842Y-72741500D01*
X137346237Y-72735081D01*
X137589614Y-72684050D01*
X137589621Y-72684046D01*
X137589625Y-72684046D01*
X137668980Y-72653080D01*
X137821273Y-72593656D01*
X138034894Y-72466366D01*
X138034898Y-72466361D01*
X138034902Y-72466360D01*
X138224649Y-72305651D01*
X138224650Y-72305650D01*
X138335378Y-72174915D01*
X138393726Y-72136480D01*
X138463591Y-72135693D01*
X138522792Y-72172802D01*
X138524622Y-72174915D01*
X138635349Y-72305650D01*
X138635350Y-72305651D01*
X138825097Y-72466360D01*
X138825103Y-72466363D01*
X138825106Y-72466366D01*
X139038727Y-72593656D01*
X139038730Y-72593657D01*
X139270374Y-72684046D01*
X139270381Y-72684048D01*
X139270386Y-72684050D01*
X139513763Y-72735081D01*
X139617158Y-72741500D01*
X139617169Y-72741500D01*
X139782831Y-72741500D01*
X139782842Y-72741500D01*
X139886237Y-72735081D01*
X140129614Y-72684050D01*
X140129621Y-72684046D01*
X140129625Y-72684046D01*
X140208980Y-72653080D01*
X140361273Y-72593656D01*
X140574894Y-72466366D01*
X140574898Y-72466361D01*
X140574902Y-72466360D01*
X140764649Y-72305651D01*
X140764650Y-72305650D01*
X140875378Y-72174915D01*
X140933726Y-72136480D01*
X141003591Y-72135693D01*
X141062792Y-72172802D01*
X141064622Y-72174915D01*
X141175349Y-72305650D01*
X141175350Y-72305651D01*
X141365097Y-72466360D01*
X141365103Y-72466363D01*
X141365106Y-72466366D01*
X141578727Y-72593656D01*
X141578730Y-72593657D01*
X141810374Y-72684046D01*
X141810381Y-72684048D01*
X141810386Y-72684050D01*
X142053763Y-72735081D01*
X142157158Y-72741500D01*
X142157169Y-72741500D01*
X142322831Y-72741500D01*
X142322842Y-72741500D01*
X142426237Y-72735081D01*
X142669614Y-72684050D01*
X142669621Y-72684046D01*
X142669625Y-72684046D01*
X142748980Y-72653080D01*
X142901273Y-72593656D01*
X143114894Y-72466366D01*
X143114898Y-72466361D01*
X143114902Y-72466360D01*
X143304649Y-72305651D01*
X143304650Y-72305650D01*
X143415378Y-72174915D01*
X143473726Y-72136480D01*
X143543591Y-72135693D01*
X143602792Y-72172802D01*
X143604622Y-72174915D01*
X143715349Y-72305650D01*
X143715350Y-72305651D01*
X143905097Y-72466360D01*
X143905103Y-72466363D01*
X143905106Y-72466366D01*
X144118727Y-72593656D01*
X144118730Y-72593657D01*
X144350374Y-72684046D01*
X144350381Y-72684048D01*
X144350386Y-72684050D01*
X144593763Y-72735081D01*
X144697158Y-72741500D01*
X144697169Y-72741500D01*
X144862831Y-72741500D01*
X144862842Y-72741500D01*
X144966237Y-72735081D01*
X145209614Y-72684050D01*
X145209621Y-72684046D01*
X145209625Y-72684046D01*
X145288980Y-72653080D01*
X145441273Y-72593656D01*
X145654894Y-72466366D01*
X145654898Y-72466361D01*
X145654902Y-72466360D01*
X145844649Y-72305651D01*
X145844650Y-72305650D01*
X145955378Y-72174915D01*
X146013726Y-72136480D01*
X146083591Y-72135693D01*
X146142792Y-72172802D01*
X146144622Y-72174915D01*
X146255349Y-72305650D01*
X146255350Y-72305651D01*
X146445097Y-72466360D01*
X146445103Y-72466363D01*
X146445106Y-72466366D01*
X146658727Y-72593656D01*
X146658730Y-72593657D01*
X146890374Y-72684046D01*
X146890381Y-72684048D01*
X146890386Y-72684050D01*
X147133763Y-72735081D01*
X147237158Y-72741500D01*
X147237169Y-72741500D01*
X147402831Y-72741500D01*
X147402842Y-72741500D01*
X147506237Y-72735081D01*
X147749614Y-72684050D01*
X147749621Y-72684046D01*
X147749625Y-72684046D01*
X147828980Y-72653080D01*
X147981273Y-72593656D01*
X148194894Y-72466366D01*
X148194898Y-72466361D01*
X148194902Y-72466360D01*
X148321398Y-72359222D01*
X148384650Y-72305650D01*
X148495706Y-72174526D01*
X148554053Y-72136093D01*
X148623918Y-72135306D01*
X148683118Y-72172415D01*
X148684949Y-72174527D01*
X148795707Y-72305298D01*
X148985391Y-72465953D01*
X149198950Y-72593206D01*
X149430517Y-72683564D01*
X149430527Y-72683567D01*
X149610000Y-72721198D01*
X149610000Y-69010800D01*
X150110000Y-69010800D01*
X150110000Y-72721198D01*
X150289472Y-72683567D01*
X150289482Y-72683564D01*
X150521049Y-72593206D01*
X150734608Y-72465953D01*
X150924291Y-72305298D01*
X151035048Y-72174528D01*
X151093397Y-72136093D01*
X151163262Y-72135305D01*
X151222462Y-72172415D01*
X151224293Y-72174527D01*
X151335352Y-72305653D01*
X151525097Y-72466360D01*
X151525103Y-72466363D01*
X151525106Y-72466366D01*
X151738727Y-72593656D01*
X151738730Y-72593657D01*
X151970374Y-72684046D01*
X151970381Y-72684048D01*
X151970386Y-72684050D01*
X152213763Y-72735081D01*
X152317158Y-72741500D01*
X152317169Y-72741500D01*
X152482831Y-72741500D01*
X152482842Y-72741500D01*
X152586237Y-72735081D01*
X152829614Y-72684050D01*
X152829621Y-72684046D01*
X152829625Y-72684046D01*
X152908980Y-72653080D01*
X153061273Y-72593656D01*
X153274894Y-72466366D01*
X153274898Y-72466361D01*
X153274902Y-72466360D01*
X153464649Y-72305651D01*
X153464651Y-72305649D01*
X153625360Y-72115902D01*
X153625361Y-72115898D01*
X153625366Y-72115894D01*
X153752656Y-71902273D01*
X153843050Y-71670614D01*
X153894081Y-71427237D01*
X153900500Y-71323842D01*
X153900500Y-70408158D01*
X153894081Y-70304763D01*
X153843050Y-70061386D01*
X153780172Y-69900245D01*
X153778399Y-69895406D01*
X153769521Y-69869525D01*
X153769520Y-69869523D01*
X153769519Y-69869520D01*
X153766767Y-69864146D01*
X153761622Y-69852706D01*
X153759499Y-69847265D01*
X153752656Y-69829727D01*
X153729687Y-69791181D01*
X153725860Y-69784263D01*
X153399776Y-69147484D01*
X153386741Y-69078846D01*
X153405341Y-68890000D01*
X153386024Y-68693868D01*
X153328814Y-68505273D01*
X153328811Y-68505269D01*
X153328811Y-68505266D01*
X153235913Y-68331467D01*
X153235909Y-68331460D01*
X153110881Y-68179114D01*
X153106576Y-68174809D01*
X153108588Y-68172796D01*
X153076106Y-68125119D01*
X153074228Y-68055275D01*
X153110409Y-67995503D01*
X153173162Y-67964781D01*
X153194101Y-67963000D01*
X155362000Y-67963000D01*
X155362000Y-66185000D01*
X152695000Y-66185000D01*
X152695000Y-67776900D01*
X152675315Y-67843939D01*
X152622511Y-67889694D01*
X152558847Y-67900303D01*
X152400001Y-67884659D01*
X152400000Y-67884659D01*
X152203870Y-67903975D01*
X152015266Y-67961188D01*
X151841467Y-68054086D01*
X151841460Y-68054090D01*
X151689116Y-68179116D01*
X151564090Y-68331460D01*
X151564086Y-68331467D01*
X151471188Y-68505266D01*
X151413975Y-68693870D01*
X151394659Y-68890000D01*
X151413254Y-69078812D01*
X151400235Y-69147458D01*
X151400221Y-69147484D01*
X151216564Y-69506129D01*
X151168487Y-69556828D01*
X151100632Y-69573485D01*
X151034543Y-69550813D01*
X151011572Y-69529751D01*
X150924296Y-69426705D01*
X150924294Y-69426703D01*
X150734608Y-69266046D01*
X150521049Y-69138793D01*
X150289480Y-69048434D01*
X150289472Y-69048432D01*
X150110000Y-69010800D01*
X149610000Y-69010800D01*
X149609999Y-69010800D01*
X149430527Y-69048432D01*
X149430519Y-69048434D01*
X149198950Y-69138793D01*
X148985391Y-69266046D01*
X148795707Y-69426702D01*
X148708425Y-69529754D01*
X148650076Y-69568188D01*
X148580210Y-69568975D01*
X148521011Y-69531865D01*
X148503433Y-69506131D01*
X148489618Y-69479153D01*
X148319776Y-69147484D01*
X148306741Y-69078846D01*
X148325341Y-68890000D01*
X148306024Y-68693868D01*
X148248814Y-68505273D01*
X148248811Y-68505269D01*
X148248811Y-68505266D01*
X148155913Y-68331467D01*
X148155909Y-68331460D01*
X148030883Y-68179116D01*
X147878539Y-68054090D01*
X147878532Y-68054086D01*
X147708123Y-67963000D01*
X148631000Y-67963000D01*
X151298000Y-67963000D01*
X151298000Y-66185000D01*
X148631000Y-66185000D01*
X148631000Y-67963000D01*
X147708123Y-67963000D01*
X147704733Y-67961188D01*
X147704727Y-67961186D01*
X147516132Y-67903976D01*
X147516129Y-67903975D01*
X147320000Y-67884659D01*
X147123870Y-67903975D01*
X146935266Y-67961188D01*
X146761467Y-68054086D01*
X146761460Y-68054090D01*
X146609116Y-68179116D01*
X146484090Y-68331460D01*
X146484086Y-68331467D01*
X146391188Y-68505266D01*
X146333975Y-68693870D01*
X146314659Y-68890000D01*
X146333254Y-69078812D01*
X146320235Y-69147458D01*
X146320221Y-69147484D01*
X146136811Y-69505648D01*
X146088734Y-69556346D01*
X146020879Y-69573004D01*
X145954790Y-69550332D01*
X145931821Y-69529271D01*
X145883062Y-69471702D01*
X145871839Y-69456157D01*
X145871272Y-69455227D01*
X145871270Y-69455225D01*
X145847697Y-69426703D01*
X145574824Y-69096540D01*
X145553537Y-69051718D01*
X145551506Y-69052335D01*
X145549735Y-69046498D01*
X145545087Y-69035276D01*
X145489397Y-68900827D01*
X145489390Y-68900814D01*
X145401790Y-68769712D01*
X145401789Y-68769711D01*
X145290289Y-68658211D01*
X144846448Y-68214370D01*
X144838546Y-68205682D01*
X144832064Y-68197839D01*
X144816125Y-68179472D01*
X144815392Y-68178668D01*
X144815387Y-68178662D01*
X144756353Y-68123094D01*
X144747337Y-68115259D01*
X143536760Y-66904681D01*
X143503275Y-66843358D01*
X143508259Y-66773666D01*
X143550131Y-66717733D01*
X143615595Y-66693316D01*
X143624441Y-66693000D01*
X145583000Y-66693000D01*
X145583000Y-63645000D01*
X142535000Y-63645000D01*
X142535000Y-66575500D01*
X142515315Y-66642539D01*
X142462511Y-66688294D01*
X142411000Y-66699500D01*
X134882940Y-66699500D01*
X134815901Y-66679815D01*
X134795259Y-66663181D01*
X133010292Y-64878213D01*
X133010288Y-64878210D01*
X132879185Y-64790609D01*
X132879172Y-64790602D01*
X132733501Y-64730264D01*
X132733489Y-64730261D01*
X132578845Y-64699500D01*
X132578842Y-64699500D01*
X130382940Y-64699500D01*
X130315901Y-64679815D01*
X130295259Y-64663181D01*
X127681536Y-62049458D01*
X127648051Y-61988135D01*
X127653035Y-61918443D01*
X127669954Y-61887462D01*
X127673796Y-61882331D01*
X127724091Y-61747483D01*
X127730500Y-61687873D01*
X127730499Y-60312128D01*
X127724091Y-60252517D01*
X127710830Y-60216963D01*
X127673797Y-60117671D01*
X127673793Y-60117664D01*
X127587547Y-60002455D01*
X127587544Y-60002452D01*
X127472335Y-59916206D01*
X127472328Y-59916202D01*
X127337482Y-59865908D01*
X127337483Y-59865908D01*
X127277883Y-59859501D01*
X127277881Y-59859500D01*
X127277873Y-59859500D01*
X127277865Y-59859500D01*
X124710059Y-59859500D01*
X124643020Y-59839815D01*
X124597265Y-59787011D01*
X124587321Y-59717853D01*
X124614206Y-59656835D01*
X124735909Y-59508539D01*
X124735913Y-59508532D01*
X124828811Y-59334733D01*
X124828811Y-59334732D01*
X124828814Y-59334727D01*
X124886024Y-59146132D01*
X124905341Y-58950000D01*
X124886024Y-58753868D01*
X124828814Y-58565273D01*
X124828811Y-58565269D01*
X124828811Y-58565266D01*
X124735913Y-58391467D01*
X124735909Y-58391460D01*
X124610883Y-58239116D01*
X124458539Y-58114090D01*
X124458532Y-58114086D01*
X124401979Y-58083858D01*
X124352135Y-58034896D01*
X124336674Y-57966759D01*
X124360505Y-57901079D01*
X124416063Y-57858710D01*
X124460432Y-57850500D01*
X126167060Y-57850500D01*
X126234099Y-57870185D01*
X126254741Y-57886819D01*
X128318463Y-59950541D01*
X128351948Y-60011864D01*
X128346964Y-60081556D01*
X128330051Y-60112530D01*
X128326203Y-60117670D01*
X128326202Y-60117671D01*
X128275908Y-60252517D01*
X128270750Y-60300500D01*
X128269501Y-60312123D01*
X128269500Y-60312135D01*
X128269500Y-61687870D01*
X128269501Y-61687876D01*
X128275908Y-61747483D01*
X128326202Y-61882328D01*
X128326206Y-61882335D01*
X128412452Y-61997544D01*
X128412455Y-61997547D01*
X128527664Y-62083793D01*
X128527671Y-62083797D01*
X128662517Y-62134091D01*
X128662516Y-62134091D01*
X128669444Y-62134835D01*
X128722127Y-62140500D01*
X132277872Y-62140499D01*
X132337483Y-62134091D01*
X132472331Y-62083796D01*
X132587546Y-61997546D01*
X132666221Y-61892450D01*
X132673794Y-61882334D01*
X132673794Y-61882333D01*
X132673796Y-61882331D01*
X132693692Y-61828983D01*
X132735561Y-61773051D01*
X132762422Y-61757756D01*
X132879172Y-61709397D01*
X132879172Y-61709396D01*
X132879179Y-61709394D01*
X133010289Y-61621789D01*
X134295259Y-60336819D01*
X134356582Y-60303334D01*
X134382940Y-60300500D01*
X134791000Y-60300500D01*
X134858039Y-60320185D01*
X134903794Y-60372989D01*
X134915000Y-60424500D01*
X134915000Y-65931000D01*
X137455000Y-65931000D01*
X137455000Y-60424500D01*
X137474685Y-60357461D01*
X137527489Y-60311706D01*
X137579000Y-60300500D01*
X138117060Y-60300500D01*
X138184099Y-60320185D01*
X138204741Y-60336819D01*
X138989707Y-61121786D01*
X138989711Y-61121789D01*
X139120814Y-61209390D01*
X139120818Y-61209392D01*
X139120821Y-61209394D01*
X139266503Y-61269738D01*
X139421153Y-61300499D01*
X139421157Y-61300500D01*
X139421158Y-61300500D01*
X146818108Y-61300500D01*
X146818109Y-61300499D01*
X146972761Y-61269737D01*
X147118443Y-61209394D01*
X147249553Y-61121789D01*
X147403320Y-60968021D01*
X147464642Y-60934538D01*
X147534333Y-60939522D01*
X147590267Y-60981393D01*
X147614684Y-61046858D01*
X147615000Y-61055704D01*
X147615000Y-65423000D01*
X154600000Y-65423000D01*
X154600000Y-60216000D01*
X148454704Y-60216000D01*
X148387665Y-60196315D01*
X148341910Y-60143511D01*
X148331966Y-60074353D01*
X148360991Y-60010797D01*
X148367023Y-60004319D01*
X148621786Y-59749556D01*
X148621789Y-59749553D01*
X148709394Y-59618443D01*
X148713909Y-59607544D01*
X148769735Y-59472765D01*
X148769737Y-59472761D01*
X148778878Y-59426809D01*
X148811263Y-59364898D01*
X148871979Y-59330324D01*
X148900495Y-59327000D01*
X151298000Y-59327000D01*
X152695000Y-59327000D01*
X155362000Y-59327000D01*
X155362000Y-57549000D01*
X152695000Y-57549000D01*
X152695000Y-59327000D01*
X151298000Y-59327000D01*
X151298000Y-57549000D01*
X149382439Y-57549000D01*
X149315400Y-57529315D01*
X149269645Y-57476511D01*
X149259701Y-57407353D01*
X149288726Y-57343797D01*
X149294746Y-57337331D01*
X149298467Y-57333609D01*
X149312486Y-57321539D01*
X150518290Y-56431132D01*
X150528449Y-56424379D01*
X150734894Y-56301366D01*
X150924650Y-56140650D01*
X151009381Y-56040609D01*
X151035378Y-56009915D01*
X151093726Y-55971480D01*
X151163591Y-55970693D01*
X151222792Y-56007802D01*
X151224622Y-56009915D01*
X151335349Y-56140650D01*
X151335350Y-56140651D01*
X151525097Y-56301360D01*
X151525103Y-56301363D01*
X151525106Y-56301366D01*
X151738727Y-56428656D01*
X151738730Y-56428657D01*
X151970374Y-56519046D01*
X151970381Y-56519048D01*
X151970386Y-56519050D01*
X152213763Y-56570081D01*
X152317158Y-56576500D01*
X152317169Y-56576500D01*
X152482831Y-56576500D01*
X152482842Y-56576500D01*
X152586237Y-56570081D01*
X152829614Y-56519050D01*
X152829621Y-56519046D01*
X152829625Y-56519046D01*
X152992388Y-56455535D01*
X153061273Y-56428656D01*
X153274894Y-56301366D01*
X153274898Y-56301361D01*
X153274902Y-56301360D01*
X153464649Y-56140651D01*
X153464651Y-56140649D01*
X153625360Y-55950902D01*
X153625361Y-55950898D01*
X153625366Y-55950894D01*
X153752656Y-55737273D01*
X153826559Y-55547876D01*
X153843046Y-55505625D01*
X153843046Y-55505621D01*
X153843050Y-55505614D01*
X153894081Y-55262237D01*
X153900500Y-55158842D01*
X153900500Y-54243158D01*
X153894081Y-54139763D01*
X153843050Y-53896386D01*
X153843048Y-53896381D01*
X153843046Y-53896374D01*
X153752657Y-53664730D01*
X153752656Y-53664727D01*
X153625366Y-53451106D01*
X153625363Y-53451103D01*
X153625360Y-53451097D01*
X153464651Y-53261350D01*
X153464649Y-53261348D01*
X153274902Y-53100639D01*
X153274894Y-53100634D01*
X153061273Y-52973344D01*
X153061271Y-52973343D01*
X153061269Y-52973342D01*
X152829625Y-52882953D01*
X152829615Y-52882950D01*
X152586238Y-52831919D01*
X152586235Y-52831918D01*
X152482850Y-52825500D01*
X152482842Y-52825500D01*
X152317158Y-52825500D01*
X152317149Y-52825500D01*
X152213764Y-52831918D01*
X152213761Y-52831919D01*
X151970384Y-52882950D01*
X151970374Y-52882953D01*
X151738730Y-52973342D01*
X151525097Y-53100639D01*
X151335350Y-53261348D01*
X151335348Y-53261350D01*
X151224622Y-53392084D01*
X151166273Y-53430519D01*
X151096408Y-53431306D01*
X151037208Y-53394197D01*
X151035378Y-53392084D01*
X150924651Y-53261350D01*
X150924649Y-53261348D01*
X150734902Y-53100639D01*
X150734894Y-53100634D01*
X150521273Y-52973344D01*
X150521271Y-52973343D01*
X150521269Y-52973342D01*
X150289625Y-52882953D01*
X150289615Y-52882950D01*
X150046238Y-52831919D01*
X150046235Y-52831918D01*
X149942850Y-52825500D01*
X149942842Y-52825500D01*
X149777158Y-52825500D01*
X149777149Y-52825500D01*
X149673764Y-52831918D01*
X149673761Y-52831919D01*
X149430384Y-52882950D01*
X149430374Y-52882953D01*
X149198730Y-52973342D01*
X148985097Y-53100639D01*
X148795350Y-53261348D01*
X148795348Y-53261350D01*
X148684622Y-53392084D01*
X148626273Y-53430519D01*
X148556408Y-53431306D01*
X148497208Y-53394197D01*
X148495378Y-53392084D01*
X148384651Y-53261350D01*
X148384649Y-53261348D01*
X148194902Y-53100639D01*
X148194894Y-53100634D01*
X147981273Y-52973344D01*
X147981271Y-52973343D01*
X147981269Y-52973342D01*
X147749625Y-52882953D01*
X147749615Y-52882950D01*
X147506238Y-52831919D01*
X147506235Y-52831918D01*
X147402850Y-52825500D01*
X147402842Y-52825500D01*
X147237158Y-52825500D01*
X147237149Y-52825500D01*
X147133764Y-52831918D01*
X147133761Y-52831919D01*
X146890384Y-52882950D01*
X146890374Y-52882953D01*
X146658730Y-52973342D01*
X146445097Y-53100639D01*
X146255350Y-53261348D01*
X146255348Y-53261350D01*
X146144622Y-53392084D01*
X146086273Y-53430519D01*
X146016408Y-53431306D01*
X145957208Y-53394197D01*
X145955378Y-53392084D01*
X145844651Y-53261350D01*
X145844649Y-53261348D01*
X145654902Y-53100639D01*
X145654894Y-53100634D01*
X145441273Y-52973344D01*
X145441271Y-52973343D01*
X145441269Y-52973342D01*
X145209625Y-52882953D01*
X145209615Y-52882950D01*
X144966238Y-52831919D01*
X144966235Y-52831918D01*
X144862850Y-52825500D01*
X144862842Y-52825500D01*
X144697158Y-52825500D01*
X144697149Y-52825500D01*
X144593764Y-52831918D01*
X144593761Y-52831919D01*
X144350384Y-52882950D01*
X144350374Y-52882953D01*
X144118730Y-52973342D01*
X143905097Y-53100639D01*
X143715350Y-53261348D01*
X143715348Y-53261350D01*
X143604622Y-53392084D01*
X143546273Y-53430519D01*
X143476408Y-53431306D01*
X143417208Y-53394197D01*
X143415378Y-53392084D01*
X143304651Y-53261350D01*
X143304649Y-53261348D01*
X143114902Y-53100639D01*
X143114894Y-53100634D01*
X142901273Y-52973344D01*
X142901271Y-52973343D01*
X142901269Y-52973342D01*
X142669625Y-52882953D01*
X142669615Y-52882950D01*
X142426238Y-52831919D01*
X142426235Y-52831918D01*
X142322850Y-52825500D01*
X142322842Y-52825500D01*
X142157158Y-52825500D01*
X142157149Y-52825500D01*
X142053764Y-52831918D01*
X142053761Y-52831919D01*
X141810384Y-52882950D01*
X141810374Y-52882953D01*
X141578730Y-52973342D01*
X141365097Y-53100639D01*
X141175350Y-53261348D01*
X141175348Y-53261350D01*
X141064622Y-53392084D01*
X141006273Y-53430519D01*
X140936408Y-53431306D01*
X140877208Y-53394197D01*
X140875378Y-53392084D01*
X140764651Y-53261350D01*
X140764649Y-53261348D01*
X140574902Y-53100639D01*
X140574894Y-53100634D01*
X140361273Y-52973344D01*
X140361271Y-52973343D01*
X140361269Y-52973342D01*
X140129625Y-52882953D01*
X140129615Y-52882950D01*
X139886238Y-52831919D01*
X139886235Y-52831918D01*
X139782850Y-52825500D01*
X139782842Y-52825500D01*
X139617158Y-52825500D01*
X139617149Y-52825500D01*
X139513764Y-52831918D01*
X139513761Y-52831919D01*
X139270384Y-52882950D01*
X139270374Y-52882953D01*
X139038730Y-52973342D01*
X138825097Y-53100639D01*
X138635350Y-53261348D01*
X138635348Y-53261350D01*
X138524622Y-53392084D01*
X138466273Y-53430519D01*
X138396408Y-53431306D01*
X138337208Y-53394197D01*
X138335378Y-53392084D01*
X138224651Y-53261350D01*
X138224649Y-53261348D01*
X138034902Y-53100639D01*
X138034894Y-53100634D01*
X137821273Y-52973344D01*
X137821271Y-52973343D01*
X137821269Y-52973342D01*
X137589625Y-52882953D01*
X137589615Y-52882950D01*
X137346238Y-52831919D01*
X137346235Y-52831918D01*
X137242850Y-52825500D01*
X137242842Y-52825500D01*
X137077158Y-52825500D01*
X137077149Y-52825500D01*
X136973764Y-52831918D01*
X136973761Y-52831919D01*
X136730384Y-52882950D01*
X136730374Y-52882953D01*
X136498730Y-52973342D01*
X136285097Y-53100639D01*
X136095350Y-53261348D01*
X136095348Y-53261350D01*
X135934639Y-53451097D01*
X135807342Y-53664730D01*
X135716953Y-53896374D01*
X135716950Y-53896384D01*
X135665919Y-54139761D01*
X135665918Y-54139764D01*
X135659500Y-54243149D01*
X135659500Y-55158850D01*
X135665918Y-55262235D01*
X135665919Y-55262238D01*
X135716950Y-55505615D01*
X135716953Y-55505625D01*
X135807342Y-55737269D01*
X135807344Y-55737273D01*
X135934634Y-55950894D01*
X135934639Y-55950902D01*
X136095348Y-56140649D01*
X136095350Y-56140651D01*
X136285097Y-56301360D01*
X136285103Y-56301363D01*
X136285106Y-56301366D01*
X136498727Y-56428656D01*
X136498730Y-56428657D01*
X136730374Y-56519046D01*
X136730381Y-56519048D01*
X136730386Y-56519050D01*
X136973763Y-56570081D01*
X137077158Y-56576500D01*
X137077169Y-56576500D01*
X137242831Y-56576500D01*
X137242842Y-56576500D01*
X137346237Y-56570081D01*
X137589614Y-56519050D01*
X137589621Y-56519046D01*
X137589625Y-56519046D01*
X137752388Y-56455535D01*
X137821273Y-56428656D01*
X138034894Y-56301366D01*
X138034898Y-56301361D01*
X138034902Y-56301360D01*
X138224649Y-56140651D01*
X138224650Y-56140650D01*
X138335378Y-56009915D01*
X138393726Y-55971480D01*
X138463591Y-55970693D01*
X138522792Y-56007802D01*
X138524622Y-56009915D01*
X138635349Y-56140650D01*
X138635350Y-56140651D01*
X138825097Y-56301360D01*
X138825103Y-56301363D01*
X138825106Y-56301366D01*
X139038727Y-56428656D01*
X139038730Y-56428657D01*
X139270374Y-56519046D01*
X139270381Y-56519048D01*
X139270386Y-56519050D01*
X139513763Y-56570081D01*
X139617158Y-56576500D01*
X139617169Y-56576500D01*
X139782831Y-56576500D01*
X139782842Y-56576500D01*
X139886237Y-56570081D01*
X140129614Y-56519050D01*
X140129621Y-56519046D01*
X140129625Y-56519046D01*
X140292388Y-56455535D01*
X140361273Y-56428656D01*
X140574894Y-56301366D01*
X140574898Y-56301361D01*
X140574902Y-56301360D01*
X140764649Y-56140651D01*
X140764650Y-56140650D01*
X140875378Y-56009915D01*
X140933726Y-55971480D01*
X141003591Y-55970693D01*
X141062792Y-56007802D01*
X141064622Y-56009915D01*
X141175349Y-56140650D01*
X141175350Y-56140651D01*
X141365097Y-56301360D01*
X141365103Y-56301363D01*
X141365106Y-56301366D01*
X141578727Y-56428656D01*
X141578730Y-56428657D01*
X141810374Y-56519046D01*
X141810381Y-56519048D01*
X141810386Y-56519050D01*
X142053763Y-56570081D01*
X142157158Y-56576500D01*
X142157169Y-56576500D01*
X142322831Y-56576500D01*
X142322842Y-56576500D01*
X142426237Y-56570081D01*
X142669614Y-56519050D01*
X142669621Y-56519046D01*
X142669625Y-56519046D01*
X142832388Y-56455535D01*
X142901273Y-56428656D01*
X143114894Y-56301366D01*
X143114898Y-56301361D01*
X143114902Y-56301360D01*
X143304649Y-56140651D01*
X143304650Y-56140650D01*
X143415378Y-56009915D01*
X143473726Y-55971480D01*
X143543591Y-55970693D01*
X143602792Y-56007802D01*
X143604622Y-56009915D01*
X143715349Y-56140650D01*
X143715350Y-56140651D01*
X143905097Y-56301360D01*
X143905103Y-56301363D01*
X143905106Y-56301366D01*
X144118727Y-56428656D01*
X144118730Y-56428657D01*
X144350374Y-56519046D01*
X144350381Y-56519048D01*
X144350386Y-56519050D01*
X144593763Y-56570081D01*
X144697158Y-56576500D01*
X144697169Y-56576500D01*
X144862831Y-56576500D01*
X144862842Y-56576500D01*
X144966237Y-56570081D01*
X145209614Y-56519050D01*
X145209621Y-56519046D01*
X145209625Y-56519046D01*
X145372388Y-56455535D01*
X145441273Y-56428656D01*
X145654894Y-56301366D01*
X145654898Y-56301361D01*
X145654902Y-56301360D01*
X145844649Y-56140651D01*
X145844650Y-56140650D01*
X145955378Y-56009915D01*
X146013726Y-55971480D01*
X146083591Y-55970693D01*
X146142792Y-56007802D01*
X146144622Y-56009915D01*
X146255349Y-56140650D01*
X146255350Y-56140651D01*
X146445097Y-56301360D01*
X146445103Y-56301363D01*
X146445106Y-56301366D01*
X146658727Y-56428656D01*
X146658730Y-56428657D01*
X146890374Y-56519046D01*
X146890381Y-56519048D01*
X146890386Y-56519050D01*
X147133763Y-56570081D01*
X147237158Y-56576500D01*
X147237169Y-56576500D01*
X147402831Y-56576500D01*
X147402842Y-56576500D01*
X147490027Y-56571087D01*
X147558157Y-56586580D01*
X147607096Y-56636447D01*
X147621306Y-56704857D01*
X147596275Y-56770089D01*
X147585393Y-56782528D01*
X147489711Y-56878211D01*
X147433960Y-56933962D01*
X147378209Y-56989712D01*
X147290609Y-57120814D01*
X147290604Y-57120823D01*
X147282061Y-57141450D01*
X147238220Y-57195853D01*
X147171926Y-57217918D01*
X147104227Y-57200639D01*
X147056616Y-57149502D01*
X147043500Y-57093997D01*
X147043500Y-56850500D01*
X145011500Y-56850500D01*
X145011500Y-59575500D01*
X144991815Y-59642539D01*
X144939011Y-59688294D01*
X144887500Y-59699500D01*
X139882940Y-59699500D01*
X139815901Y-59679815D01*
X139795259Y-59663181D01*
X139010292Y-58878213D01*
X139010288Y-58878210D01*
X138879185Y-58790609D01*
X138879172Y-58790602D01*
X138733501Y-58730264D01*
X138733489Y-58730261D01*
X138578845Y-58699500D01*
X138578842Y-58699500D01*
X134078842Y-58699500D01*
X133921157Y-58699500D01*
X133921154Y-58699500D01*
X133766509Y-58730261D01*
X133766501Y-58730263D01*
X133737276Y-58742369D01*
X133737275Y-58742369D01*
X133620827Y-58790602D01*
X133620815Y-58790609D01*
X133500267Y-58871158D01*
X133500265Y-58871159D01*
X133489711Y-58878210D01*
X133489706Y-58878214D01*
X132516586Y-59851334D01*
X132455263Y-59884819D01*
X132401451Y-59882902D01*
X132401240Y-59884058D01*
X132382384Y-59880609D01*
X132361361Y-59874815D01*
X132337484Y-59865909D01*
X132337480Y-59865908D01*
X132277883Y-59859501D01*
X132277881Y-59859500D01*
X132277873Y-59859500D01*
X132277864Y-59859500D01*
X132274548Y-59859322D01*
X132274556Y-59859169D01*
X132255907Y-59857478D01*
X132253335Y-59857008D01*
X132244387Y-59856667D01*
X132244384Y-59856667D01*
X132244366Y-59856666D01*
X132190308Y-59857501D01*
X132184248Y-59858192D01*
X132184198Y-59857760D01*
X132167830Y-59859500D01*
X130943118Y-59859500D01*
X130880885Y-59842752D01*
X130875823Y-59839815D01*
X129927518Y-59289563D01*
X129902070Y-59269992D01*
X127060292Y-56428213D01*
X127060288Y-56428210D01*
X126929185Y-56340609D01*
X126929172Y-56340602D01*
X126783501Y-56280264D01*
X126783489Y-56280261D01*
X126628845Y-56249500D01*
X126628842Y-56249500D01*
X122661158Y-56249500D01*
X122661155Y-56249500D01*
X122157129Y-56249500D01*
X122157123Y-56249501D01*
X122097516Y-56255908D01*
X121962671Y-56306202D01*
X121962664Y-56306206D01*
X121847455Y-56392452D01*
X121847452Y-56392455D01*
X121761206Y-56507664D01*
X121761202Y-56507671D01*
X121710910Y-56642513D01*
X121710909Y-56642517D01*
X121704500Y-56702127D01*
X120684205Y-56702127D01*
X120489742Y-56507664D01*
X120110292Y-56128213D01*
X120110288Y-56128210D01*
X119979185Y-56040609D01*
X119979172Y-56040602D01*
X119833501Y-55980264D01*
X119833489Y-55980261D01*
X119678845Y-55949500D01*
X119678842Y-55949500D01*
X112628843Y-55949500D01*
X112471158Y-55949500D01*
X112471153Y-55949500D01*
X112316510Y-55980260D01*
X112316502Y-55980262D01*
X112170824Y-56040604D01*
X112170814Y-56040609D01*
X112039711Y-56128210D01*
X112039707Y-56128213D01*
X111047108Y-57120814D01*
X110739711Y-57428211D01*
X110710439Y-57457483D01*
X110628209Y-57539712D01*
X110540609Y-57670814D01*
X110540602Y-57670827D01*
X110480264Y-57816498D01*
X110480261Y-57816510D01*
X110449500Y-57971153D01*
X110449500Y-58003754D01*
X110435006Y-58061929D01*
X110338454Y-58243675D01*
X110289619Y-58293644D01*
X110228948Y-58309500D01*
X109501981Y-58309500D01*
X109496140Y-58309362D01*
X109494803Y-58309299D01*
X109476013Y-58308412D01*
X109467125Y-58309265D01*
X109467078Y-58309270D01*
X109451606Y-58311596D01*
X109446436Y-58312262D01*
X109412516Y-58315908D01*
X109277666Y-58366204D01*
X109269908Y-58370436D01*
X109269868Y-58370364D01*
X109268667Y-58371113D01*
X109199853Y-58407671D01*
X108771929Y-58635006D01*
X108713756Y-58649500D01*
X106671153Y-58649500D01*
X106516510Y-58680260D01*
X106516502Y-58680262D01*
X106370824Y-58740604D01*
X106370814Y-58740609D01*
X106239711Y-58828210D01*
X106239707Y-58828213D01*
X100075594Y-64992328D01*
X98041711Y-67026211D01*
X97985960Y-67081962D01*
X97930209Y-67137712D01*
X97842609Y-67268814D01*
X97842602Y-67268827D01*
X97782264Y-67414498D01*
X97782261Y-67414510D01*
X97751500Y-67569153D01*
X97751500Y-69805986D01*
X97744428Y-69847264D01*
X97378459Y-70883954D01*
X97337581Y-70940617D01*
X97272557Y-70966185D01*
X97204033Y-70952539D01*
X97159956Y-70913799D01*
X97050113Y-70756926D01*
X97050108Y-70756920D01*
X96883082Y-70589894D01*
X96689578Y-70454399D01*
X96475492Y-70354570D01*
X96475486Y-70354567D01*
X96262000Y-70297364D01*
X96262000Y-71194988D01*
X96204993Y-71162075D01*
X96077826Y-71128000D01*
X95946174Y-71128000D01*
X95819007Y-71162075D01*
X95762000Y-71194988D01*
X95762000Y-70297364D01*
X95761999Y-70297364D01*
X95548513Y-70354567D01*
X95548507Y-70354570D01*
X95334422Y-70454399D01*
X95334420Y-70454400D01*
X95140926Y-70589886D01*
X95140920Y-70589891D01*
X94973891Y-70756920D01*
X94973890Y-70756922D01*
X94843880Y-70942595D01*
X94789303Y-70986219D01*
X94719804Y-70993412D01*
X94657450Y-70961890D01*
X94640730Y-70942594D01*
X94510494Y-70756597D01*
X94343402Y-70589506D01*
X94343395Y-70589501D01*
X94314769Y-70569457D01*
X94266521Y-70535673D01*
X94149834Y-70453967D01*
X94149830Y-70453965D01*
X94051618Y-70408168D01*
X93935663Y-70354097D01*
X93935659Y-70354096D01*
X93935655Y-70354094D01*
X93707413Y-70292938D01*
X93707403Y-70292936D01*
X93472001Y-70272341D01*
X93471999Y-70272341D01*
X93236596Y-70292936D01*
X93236586Y-70292938D01*
X93008344Y-70354094D01*
X93008335Y-70354098D01*
X92794171Y-70453964D01*
X92794169Y-70453965D01*
X92600597Y-70589505D01*
X92433505Y-70756597D01*
X92297965Y-70950169D01*
X92297964Y-70950171D01*
X92198098Y-71164335D01*
X92198094Y-71164344D01*
X92136938Y-71392586D01*
X92136936Y-71392596D01*
X92116341Y-71627999D01*
X85844500Y-71627999D01*
X85844500Y-52694500D01*
X85864185Y-52627461D01*
X85916989Y-52581706D01*
X85968500Y-52570500D01*
X108895500Y-52570500D01*
X108962539Y-52590185D01*
G37*
%TD.AperFunction*%
%TD*%
%TA.AperFunction,Conductor*%
%TO.N,+5V*%
G36*
X114624897Y-52671810D02*
G01*
X115539594Y-53010000D01*
X116321318Y-53299026D01*
X116327890Y-53305109D01*
X116328235Y-53314057D01*
X116322152Y-53320629D01*
X116321318Y-53320974D01*
X114624916Y-53948182D01*
X114615968Y-53947837D01*
X114615370Y-53947540D01*
X113986211Y-53613299D01*
X113980512Y-53606392D01*
X113980000Y-53602967D01*
X113980000Y-53017032D01*
X113983427Y-53008759D01*
X113986209Y-53006701D01*
X114615371Y-52672458D01*
X114624284Y-52671603D01*
X114624897Y-52671810D01*
G37*
%TD.AperFunction*%
%TD*%
%TA.AperFunction,Conductor*%
%TO.N,+5V*%
G36*
X114790599Y-53008117D02*
G01*
X114798037Y-53013100D01*
X114800000Y-53019588D01*
X114800000Y-53600411D01*
X114796573Y-53608684D01*
X114790597Y-53611883D01*
X114000751Y-53770055D01*
X113991966Y-53768320D01*
X113987653Y-53763080D01*
X113800872Y-53314497D01*
X113800855Y-53305544D01*
X113987653Y-52856918D01*
X113993997Y-52850598D01*
X114000750Y-52849944D01*
X114790599Y-53008117D01*
G37*
%TD.AperFunction*%
%TD*%
%TA.AperFunction,Conductor*%
%TO.N,+5V*%
G36*
X112984031Y-52672162D02*
G01*
X112984624Y-52672456D01*
X113613789Y-53006700D01*
X113619488Y-53013607D01*
X113620000Y-53017032D01*
X113620000Y-53602967D01*
X113616573Y-53611240D01*
X113613789Y-53613299D01*
X112984629Y-53947540D01*
X112975715Y-53948396D01*
X112975083Y-53948182D01*
X111278681Y-53320974D01*
X111272109Y-53314891D01*
X111271764Y-53305943D01*
X111277847Y-53299371D01*
X111278681Y-53299026D01*
X112975085Y-52671817D01*
X112984031Y-52672162D01*
G37*
%TD.AperFunction*%
%TD*%
%TA.AperFunction,Conductor*%
%TO.N,+5V*%
G36*
X113608033Y-52851679D02*
G01*
X113612346Y-52856919D01*
X113799127Y-53305503D01*
X113799144Y-53314457D01*
X113799127Y-53314497D01*
X113612346Y-53763080D01*
X113606002Y-53769401D01*
X113599248Y-53770055D01*
X112809403Y-53611883D01*
X112801963Y-53606899D01*
X112800000Y-53600411D01*
X112800000Y-53019588D01*
X112803427Y-53011315D01*
X112809400Y-53008117D01*
X113599249Y-52849944D01*
X113608033Y-52851679D01*
G37*
%TD.AperFunction*%
%TD*%
%TA.AperFunction,Conductor*%
%TO.N,RING*%
G36*
X101393908Y-69931427D02*
G01*
X101395458Y-69933344D01*
X101936864Y-70770063D01*
X101938481Y-70778870D01*
X101935319Y-70784687D01*
X101100278Y-71620712D01*
X101092007Y-71624144D01*
X101083732Y-71620722D01*
X101083722Y-71620712D01*
X100248680Y-70784687D01*
X100245258Y-70776412D01*
X100247134Y-70770065D01*
X100788542Y-69933343D01*
X100795914Y-69928260D01*
X100798365Y-69928000D01*
X101385635Y-69928000D01*
X101393908Y-69931427D01*
G37*
%TD.AperFunction*%
%TD*%
%TA.AperFunction,Conductor*%
%TO.N,RING*%
G36*
X116358265Y-59457278D02*
G01*
X116753402Y-59853032D01*
X116983890Y-60083881D01*
X116987310Y-60092157D01*
X116985942Y-60097637D01*
X116653300Y-60723789D01*
X116646393Y-60729488D01*
X116642968Y-60730000D01*
X116057032Y-60730000D01*
X116048759Y-60726573D01*
X116046700Y-60723789D01*
X115714057Y-60097637D01*
X115713201Y-60088723D01*
X115716109Y-60083881D01*
X116341721Y-59457291D01*
X116349991Y-59453859D01*
X116358265Y-59457278D01*
G37*
%TD.AperFunction*%
%TD*%
%TA.AperFunction,Conductor*%
%TO.N,TIP*%
G36*
X111551241Y-58173427D02*
G01*
X111553300Y-58176211D01*
X111885942Y-58802362D01*
X111886798Y-58811276D01*
X111883890Y-58816118D01*
X111258280Y-59442707D01*
X111250009Y-59446140D01*
X111241733Y-59442720D01*
X111241720Y-59442707D01*
X110616109Y-58816118D01*
X110612689Y-58807842D01*
X110614056Y-58802364D01*
X110946700Y-58176210D01*
X110953607Y-58170512D01*
X110957032Y-58170000D01*
X111542968Y-58170000D01*
X111551241Y-58173427D01*
G37*
%TD.AperFunction*%
%TD*%
%TA.AperFunction,Conductor*%
%TO.N,TIP*%
G36*
X98851995Y-69931427D02*
G01*
X98854755Y-69935805D01*
X99333609Y-71292270D01*
X99333131Y-71301212D01*
X99327065Y-71306970D01*
X98556489Y-71627134D01*
X98547534Y-71627143D01*
X98547511Y-71627134D01*
X97776934Y-71306970D01*
X97770609Y-71300631D01*
X97770390Y-71292271D01*
X98249245Y-69935805D01*
X98255231Y-69929145D01*
X98260278Y-69928000D01*
X98843722Y-69928000D01*
X98851995Y-69931427D01*
G37*
%TD.AperFunction*%
%TD*%
%TA.AperFunction,Conductor*%
%TO.N,TIP*%
G36*
X109524897Y-58811810D02*
G01*
X110439594Y-59150000D01*
X111221318Y-59439026D01*
X111227890Y-59445109D01*
X111228235Y-59454057D01*
X111222152Y-59460629D01*
X111221318Y-59460974D01*
X109524916Y-60088182D01*
X109515968Y-60087837D01*
X109515370Y-60087540D01*
X108886211Y-59753299D01*
X108880512Y-59746392D01*
X108880000Y-59742967D01*
X108880000Y-59157032D01*
X108883427Y-59148759D01*
X108886209Y-59146701D01*
X109515371Y-58812458D01*
X109524284Y-58811603D01*
X109524897Y-58811810D01*
G37*
%TD.AperFunction*%
%TD*%
%TA.AperFunction,Conductor*%
%TO.N,RING_GPIO*%
G36*
X144441674Y-68519057D02*
G01*
X144442420Y-68519876D01*
X145481622Y-69777257D01*
X145484251Y-69785818D01*
X145482402Y-69791104D01*
X144785833Y-70858848D01*
X144778443Y-70863904D01*
X144771922Y-70863408D01*
X143788842Y-70494319D01*
X143782301Y-70488203D01*
X143781380Y-70481656D01*
X143883386Y-69791104D01*
X144009395Y-68938050D01*
X144012694Y-68931491D01*
X144425129Y-68519056D01*
X144433401Y-68515630D01*
X144441674Y-68519057D01*
G37*
%TD.AperFunction*%
%TD*%
%TA.AperFunction,Conductor*%
%TO.N,RING_GPIO*%
G36*
X123774862Y-60423886D02*
G01*
X125469148Y-60988771D01*
X125475912Y-60994638D01*
X125476546Y-61003571D01*
X125470679Y-61010335D01*
X125469509Y-61010842D01*
X123776521Y-61637585D01*
X123767573Y-61637244D01*
X123764762Y-61635425D01*
X123377571Y-61297239D01*
X123376995Y-61296700D01*
X122964020Y-60883725D01*
X122960593Y-60875452D01*
X122964020Y-60867179D01*
X122966638Y-60865209D01*
X123765513Y-60424738D01*
X123774411Y-60423746D01*
X123774862Y-60423886D01*
G37*
%TD.AperFunction*%
%TD*%
%TA.AperFunction,Conductor*%
%TO.N,RING_GPIO*%
G36*
X127022292Y-61630548D02*
G01*
X127028924Y-61633297D01*
X127035254Y-61639630D01*
X127035252Y-61648585D01*
X127032717Y-61652378D01*
X126804680Y-61880416D01*
X126386778Y-62298317D01*
X126378505Y-62301744D01*
X126372633Y-62300164D01*
X125243747Y-61645131D01*
X125238311Y-61638015D01*
X125238804Y-61630548D01*
X125494823Y-61010123D01*
X125501146Y-61003784D01*
X125510099Y-61003772D01*
X127022292Y-61630548D01*
G37*
%TD.AperFunction*%
%TD*%
%TA.AperFunction,Conductor*%
%TO.N,TIP_GPIO*%
G36*
X129627364Y-59699834D02*
G01*
X130756252Y-60354868D01*
X130761688Y-60361984D01*
X130761195Y-60369451D01*
X130505176Y-60989875D01*
X130498853Y-60996215D01*
X130489898Y-60996227D01*
X130133865Y-60848657D01*
X128971075Y-60366702D01*
X128964745Y-60360369D01*
X128964747Y-60351414D01*
X128967279Y-60347624D01*
X129195320Y-60119584D01*
X129613222Y-59701681D01*
X129621494Y-59698255D01*
X129627364Y-59699834D01*
G37*
%TD.AperFunction*%
%TD*%
%TA.AperFunction,Conductor*%
%TO.N,TIP_GPIO*%
G36*
X132234085Y-60362141D02*
G01*
X132234599Y-60362393D01*
X132547898Y-60525407D01*
X132550771Y-60527513D01*
X132963650Y-60940392D01*
X132967077Y-60948665D01*
X132963650Y-60956938D01*
X132961848Y-60958412D01*
X132234336Y-61441426D01*
X132225549Y-61443147D01*
X132224960Y-61443013D01*
X130535580Y-61010007D01*
X130528417Y-61004633D01*
X130527151Y-60995768D01*
X130532525Y-60988605D01*
X130534414Y-60987704D01*
X132225137Y-60361800D01*
X132234085Y-60362141D01*
G37*
%TD.AperFunction*%
%TD*%
%TA.AperFunction,Conductor*%
%TO.N,TIP_GPIO*%
G36*
X148872627Y-54454914D02*
G01*
X149854776Y-54698820D01*
X149861978Y-54704139D01*
X149862886Y-54706001D01*
X150330465Y-55930801D01*
X150330214Y-55939752D01*
X150326484Y-55944386D01*
X149009464Y-56916918D01*
X149000773Y-56919076D01*
X148994241Y-56915779D01*
X148581212Y-56502750D01*
X148577785Y-56494477D01*
X148577895Y-56492875D01*
X148653703Y-55944386D01*
X148858218Y-54464666D01*
X148862745Y-54456942D01*
X148871410Y-54454680D01*
X148872627Y-54454914D01*
G37*
%TD.AperFunction*%
%TD*%
%TA.AperFunction,Conductor*%
%TO.N,+5V*%
G36*
X152701119Y-68893427D02*
G01*
X152703260Y-68896367D01*
X153319582Y-70099925D01*
X153320303Y-70108851D01*
X153316593Y-70114300D01*
X152407425Y-70860902D01*
X152398857Y-70863504D01*
X152392575Y-70860902D01*
X151483406Y-70114300D01*
X151479187Y-70106401D01*
X151480417Y-70099925D01*
X152096740Y-68896367D01*
X152103561Y-68890565D01*
X152107154Y-68890000D01*
X152692846Y-68890000D01*
X152701119Y-68893427D01*
G37*
%TD.AperFunction*%
%TD*%
%TA.AperFunction,Conductor*%
%TO.N,+5V*%
G36*
X152762157Y-69039794D02*
G01*
X152853080Y-69077653D01*
X152859401Y-69083997D01*
X152860055Y-69090751D01*
X152701883Y-69880597D01*
X152696899Y-69888037D01*
X152690411Y-69890000D01*
X152109589Y-69890000D01*
X152101316Y-69886573D01*
X152098117Y-69880597D01*
X151939944Y-69090751D01*
X151941679Y-69081966D01*
X151946918Y-69077653D01*
X152395504Y-68890871D01*
X152404455Y-68890855D01*
X152762157Y-69039794D01*
G37*
%TD.AperFunction*%
%TD*%
%TA.AperFunction,Conductor*%
%TO.N,+3.3V*%
G36*
X147621119Y-68893427D02*
G01*
X147623260Y-68896367D01*
X148239582Y-70099925D01*
X148240303Y-70108851D01*
X148236593Y-70114300D01*
X147327425Y-70860902D01*
X147318857Y-70863504D01*
X147312575Y-70860902D01*
X146403406Y-70114300D01*
X146399187Y-70106401D01*
X146400417Y-70099925D01*
X147016740Y-68896367D01*
X147023561Y-68890565D01*
X147027154Y-68890000D01*
X147612846Y-68890000D01*
X147621119Y-68893427D01*
G37*
%TD.AperFunction*%
%TD*%
%TA.AperFunction,Conductor*%
%TO.N,+3.3V*%
G36*
X147682157Y-69039794D02*
G01*
X147773080Y-69077653D01*
X147779401Y-69083997D01*
X147780055Y-69090751D01*
X147621883Y-69880597D01*
X147616899Y-69888037D01*
X147610411Y-69890000D01*
X147029589Y-69890000D01*
X147021316Y-69886573D01*
X147018117Y-69880597D01*
X146859944Y-69090751D01*
X146861679Y-69081966D01*
X146866918Y-69077653D01*
X147315504Y-68890871D01*
X147324455Y-68890855D01*
X147682157Y-69039794D01*
G37*
%TD.AperFunction*%
%TD*%
%TA.AperFunction,Conductor*%
%TO.N,+3.3V*%
G36*
X123708033Y-63991679D02*
G01*
X123712346Y-63996919D01*
X123899127Y-64445503D01*
X123899144Y-64454457D01*
X123899127Y-64454497D01*
X123712346Y-64903080D01*
X123706002Y-64909401D01*
X123699248Y-64910055D01*
X122909403Y-64751883D01*
X122901963Y-64746899D01*
X122900000Y-64740411D01*
X122900000Y-64159588D01*
X122903427Y-64151315D01*
X122909400Y-64148117D01*
X123699249Y-63989944D01*
X123708033Y-63991679D01*
G37*
%TD.AperFunction*%
%TD*%
%TA.AperFunction,Conductor*%
%TO.N,+3.3V*%
G36*
X123708033Y-58491679D02*
G01*
X123712346Y-58496919D01*
X123899127Y-58945503D01*
X123899144Y-58954457D01*
X123899127Y-58954497D01*
X123712346Y-59403080D01*
X123706002Y-59409401D01*
X123699248Y-59410055D01*
X122909403Y-59251883D01*
X122901963Y-59246899D01*
X122900000Y-59240411D01*
X122900000Y-58659588D01*
X122903427Y-58651315D01*
X122909400Y-58648117D01*
X123699249Y-58489944D01*
X123708033Y-58491679D01*
G37*
%TD.AperFunction*%
%TD*%
%TA.AperFunction,Conductor*%
%TO.N,+3.3V*%
G36*
X128774897Y-54221810D02*
G01*
X129689594Y-54560000D01*
X130471318Y-54849026D01*
X130477890Y-54855109D01*
X130478235Y-54864057D01*
X130472152Y-54870629D01*
X130471318Y-54870974D01*
X128774916Y-55498182D01*
X128765968Y-55497837D01*
X128765370Y-55497540D01*
X128136211Y-55163299D01*
X128130512Y-55156392D01*
X128130000Y-55152967D01*
X128130000Y-54567032D01*
X128133427Y-54558759D01*
X128136209Y-54556701D01*
X128765371Y-54222458D01*
X128774284Y-54221603D01*
X128774897Y-54221810D01*
G37*
%TD.AperFunction*%
%TD*%
%TA.AperFunction,Conductor*%
%TO.N,+3.3V*%
G36*
X128990599Y-54558117D02*
G01*
X128998037Y-54563100D01*
X129000000Y-54569588D01*
X129000000Y-55150411D01*
X128996573Y-55158684D01*
X128990597Y-55161883D01*
X128200751Y-55320055D01*
X128191966Y-55318320D01*
X128187653Y-55313080D01*
X128000872Y-54864497D01*
X128000855Y-54855544D01*
X128187653Y-54406918D01*
X128193997Y-54400598D01*
X128200750Y-54399944D01*
X128990599Y-54558117D01*
G37*
%TD.AperFunction*%
%TD*%
%TA.AperFunction,Conductor*%
%TO.N,+3.3V*%
G36*
X127234031Y-54222162D02*
G01*
X127234624Y-54222456D01*
X127863789Y-54556700D01*
X127869488Y-54563607D01*
X127870000Y-54567032D01*
X127870000Y-55152967D01*
X127866573Y-55161240D01*
X127863789Y-55163299D01*
X127234629Y-55497540D01*
X127225715Y-55498396D01*
X127225083Y-55498182D01*
X125528681Y-54870974D01*
X125522109Y-54864891D01*
X125521764Y-54855943D01*
X125527847Y-54849371D01*
X125528681Y-54849026D01*
X127225085Y-54221817D01*
X127234031Y-54222162D01*
G37*
%TD.AperFunction*%
%TD*%
%TA.AperFunction,Conductor*%
%TO.N,+3.3V*%
G36*
X127808033Y-54401679D02*
G01*
X127812346Y-54406919D01*
X127999127Y-54855503D01*
X127999144Y-54864457D01*
X127999127Y-54864497D01*
X127812346Y-55313080D01*
X127806002Y-55319401D01*
X127799248Y-55320055D01*
X127009403Y-55161883D01*
X127001963Y-55156899D01*
X127000000Y-55150411D01*
X127000000Y-54569588D01*
X127003427Y-54561315D01*
X127009400Y-54558117D01*
X127799249Y-54399944D01*
X127808033Y-54401679D01*
G37*
%TD.AperFunction*%
%TD*%
M02*
