%TF.GenerationSoftware,KiCad,Pcbnew,8.0.5-8.0.5-0~ubuntu22.04.1*%
%TF.CreationDate,2024-09-17T12:21:12-05:00*%
%TF.ProjectId,cheating-calc,63686561-7469-46e6-972d-63616c632e6b,rev?*%
%TF.SameCoordinates,Original*%
%TF.FileFunction,Copper,L2,Bot*%
%TF.FilePolarity,Positive*%
%FSLAX46Y46*%
G04 Gerber Fmt 4.6, Leading zero omitted, Abs format (unit mm)*
G04 Created by KiCad (PCBNEW 8.0.5-8.0.5-0~ubuntu22.04.1) date 2024-09-17 12:21:12*
%MOMM*%
%LPD*%
G01*
G04 APERTURE LIST*
%TA.AperFunction,ComponentPad*%
%ADD10R,1.700000X1.700000*%
%TD*%
%TA.AperFunction,ComponentPad*%
%ADD11O,1.700000X1.700000*%
%TD*%
%TA.AperFunction,ComponentPad*%
%ADD12C,0.600000*%
%TD*%
%TA.AperFunction,ComponentPad*%
%ADD13O,1.200000X2.300000*%
%TD*%
%TA.AperFunction,ComponentPad*%
%ADD14O,1.100000X2.100000*%
%TD*%
%TA.AperFunction,ViaPad*%
%ADD15C,1.000000*%
%TD*%
%TA.AperFunction,ViaPad*%
%ADD16C,0.800000*%
%TD*%
%TA.AperFunction,Conductor*%
%ADD17C,0.500000*%
%TD*%
%TA.AperFunction,Conductor*%
%ADD18C,0.250000*%
%TD*%
G04 APERTURE END LIST*
D10*
%TO.P,J1,1,Pin_1*%
%TO.N,RING*%
X107920000Y-71600000D03*
D11*
%TO.P,J1,2,Pin_2*%
%TO.N,TIP*%
X105380000Y-71600000D03*
%TO.P,J1,3,Pin_3*%
%TO.N,GND*%
X102840000Y-71600000D03*
%TO.P,J1,4,Pin_4*%
%TO.N,+5V*%
X100300000Y-71600000D03*
%TD*%
D12*
%TO.P,U3,*%
%TO.N,*%
X133800000Y-56837500D03*
X129800000Y-56837500D03*
D13*
%TO.P,U3,6,EH*%
%TO.N,GND*%
X135380000Y-58087500D03*
D14*
X135380000Y-54627500D03*
D13*
X128220000Y-58087500D03*
D14*
X128220000Y-54627500D03*
%TD*%
D15*
%TO.N,TIP_GPIO*%
X146900000Y-56700000D03*
X142800000Y-56700000D03*
%TO.N,+5V*%
X102200000Y-54300000D03*
X131800000Y-54500000D03*
%TO.N,+3.3V*%
X94300000Y-58850000D03*
X92100000Y-63000000D03*
%TO.N,GND*%
X88100000Y-59700000D03*
X97850000Y-63750000D03*
X92750000Y-66350000D03*
X142600000Y-62000000D03*
X137900000Y-56700000D03*
D16*
%TO.N,Net-(U3-D+)*%
X143900000Y-70100000D03*
X131800000Y-59950000D03*
%TO.N,Net-(U3-D-)*%
X142400000Y-70100000D03*
X133100000Y-60200000D03*
%TD*%
D17*
%TO.N,GND*%
X97850000Y-63750000D02*
X95350000Y-63750000D01*
X95350000Y-63750000D02*
X92750000Y-66350000D01*
%TO.N,TIP_GPIO*%
X146900000Y-56700000D02*
X142800000Y-56700000D01*
%TO.N,+5V*%
X100300000Y-71600000D02*
X100300000Y-56200000D01*
D18*
X131800000Y-54500000D02*
X130200000Y-52900000D01*
X130200000Y-52900000D02*
X103600000Y-52900000D01*
X103600000Y-52900000D02*
X102200000Y-54300000D01*
D17*
X100300000Y-56200000D02*
X102200000Y-54300000D01*
%TO.N,+3.3V*%
X92100000Y-63000000D02*
X92100000Y-61050000D01*
X92100000Y-61050000D02*
X94300000Y-58850000D01*
%TO.N,GND*%
X137900000Y-56700000D02*
X142600000Y-61400000D01*
X142600000Y-61400000D02*
X142600000Y-62000000D01*
D18*
%TO.N,Net-(U3-D+)*%
X132775000Y-60925000D02*
X134725000Y-60925000D01*
X134725000Y-60925000D02*
X143900000Y-70100000D01*
X131800000Y-59950000D02*
X132775000Y-60925000D01*
%TO.N,Net-(U3-D-)*%
X135500000Y-60200000D02*
X145100000Y-69800000D01*
X143125000Y-70825000D02*
X142400000Y-70100000D01*
X145100000Y-69800000D02*
X145100000Y-70600000D01*
X133100000Y-60200000D02*
X135500000Y-60200000D01*
X144875000Y-70825000D02*
X143125000Y-70825000D01*
X145100000Y-70600000D02*
X144875000Y-70825000D01*
%TD*%
%TA.AperFunction,Conductor*%
%TO.N,GND*%
G36*
X102812587Y-52590185D02*
G01*
X102858342Y-52642989D01*
X102868286Y-52712147D01*
X102839261Y-52775703D01*
X102833247Y-52782161D01*
X102525368Y-53090040D01*
X102522244Y-53093165D01*
X102507352Y-53105871D01*
X102366446Y-53208038D01*
X102322111Y-53228341D01*
X102214029Y-53253822D01*
X102213981Y-53253833D01*
X102213968Y-53253837D01*
X102201779Y-53256871D01*
X102201763Y-53256875D01*
X102201203Y-53257022D01*
X102190040Y-53260087D01*
X102189997Y-53260099D01*
X102189980Y-53260104D01*
X102074797Y-53293165D01*
X101881743Y-53348577D01*
X101854982Y-53357071D01*
X101853738Y-53357504D01*
X101853718Y-53357512D01*
X101846177Y-53360848D01*
X101832025Y-53366103D01*
X101815271Y-53371186D01*
X101783006Y-53388432D01*
X101780259Y-53389774D01*
X101779626Y-53390143D01*
X101775671Y-53392351D01*
X101641460Y-53464090D01*
X101489116Y-53589116D01*
X101364090Y-53741460D01*
X101364086Y-53741467D01*
X101271189Y-53915265D01*
X101270324Y-53917354D01*
X101264670Y-53931945D01*
X101263045Y-53935354D01*
X101164791Y-54186155D01*
X101159344Y-54198143D01*
X101108353Y-54296178D01*
X101091338Y-54320984D01*
X100944276Y-54487711D01*
X100918627Y-54519117D01*
X100910269Y-54528361D01*
X99717050Y-55721580D01*
X99717044Y-55721588D01*
X99667812Y-55795268D01*
X99667813Y-55795269D01*
X99634921Y-55844496D01*
X99634914Y-55844508D01*
X99578342Y-55981086D01*
X99578340Y-55981092D01*
X99549500Y-56126079D01*
X99549500Y-69820266D01*
X99548256Y-69837788D01*
X99490201Y-70244500D01*
X99475510Y-70287789D01*
X99338424Y-70531399D01*
X99335584Y-70536516D01*
X99332940Y-70541406D01*
X99145747Y-70892341D01*
X99137916Y-70905102D01*
X99125965Y-70922170D01*
X99100461Y-70976859D01*
X99097491Y-70982806D01*
X99074748Y-71025445D01*
X99063886Y-71047037D01*
X99063412Y-71048036D01*
X99063406Y-71048052D01*
X99047653Y-71089350D01*
X99044180Y-71097556D01*
X99026095Y-71136341D01*
X98964938Y-71364586D01*
X98964936Y-71364596D01*
X98944341Y-71599999D01*
X98944341Y-71600000D01*
X98964936Y-71835403D01*
X98964938Y-71835413D01*
X99026094Y-72063655D01*
X99026096Y-72063659D01*
X99026097Y-72063663D01*
X99105801Y-72234588D01*
X99125965Y-72277830D01*
X99125967Y-72277834D01*
X99234281Y-72432521D01*
X99261505Y-72471401D01*
X99428599Y-72638495D01*
X99525384Y-72706265D01*
X99622165Y-72774032D01*
X99622167Y-72774033D01*
X99622170Y-72774035D01*
X99836337Y-72873903D01*
X100064592Y-72935063D01*
X100241034Y-72950500D01*
X100299999Y-72955659D01*
X100300000Y-72955659D01*
X100300001Y-72955659D01*
X100358966Y-72950500D01*
X100535408Y-72935063D01*
X100763663Y-72873903D01*
X100977830Y-72774035D01*
X101171401Y-72638495D01*
X101338495Y-72471401D01*
X101468730Y-72285405D01*
X101523307Y-72241781D01*
X101592805Y-72234587D01*
X101655160Y-72266110D01*
X101671879Y-72285405D01*
X101801890Y-72471078D01*
X101968917Y-72638105D01*
X102162421Y-72773600D01*
X102376507Y-72873429D01*
X102376516Y-72873433D01*
X102590000Y-72930634D01*
X102590000Y-72033012D01*
X102647007Y-72065925D01*
X102774174Y-72100000D01*
X102905826Y-72100000D01*
X103032993Y-72065925D01*
X103090000Y-72033012D01*
X103090000Y-72930633D01*
X103303483Y-72873433D01*
X103303492Y-72873429D01*
X103517578Y-72773600D01*
X103711082Y-72638105D01*
X103878105Y-72471082D01*
X104008119Y-72285405D01*
X104062696Y-72241781D01*
X104132195Y-72234588D01*
X104194549Y-72266110D01*
X104211269Y-72285405D01*
X104341505Y-72471401D01*
X104508599Y-72638495D01*
X104605384Y-72706265D01*
X104702165Y-72774032D01*
X104702167Y-72774033D01*
X104702170Y-72774035D01*
X104916337Y-72873903D01*
X105144592Y-72935063D01*
X105321034Y-72950500D01*
X105379999Y-72955659D01*
X105380000Y-72955659D01*
X105380001Y-72955659D01*
X105438966Y-72950500D01*
X105615408Y-72935063D01*
X105843663Y-72873903D01*
X106057830Y-72774035D01*
X106251401Y-72638495D01*
X106373329Y-72516566D01*
X106434648Y-72483084D01*
X106504340Y-72488068D01*
X106560274Y-72529939D01*
X106577189Y-72560917D01*
X106626202Y-72692328D01*
X106626206Y-72692335D01*
X106712452Y-72807544D01*
X106712455Y-72807547D01*
X106827664Y-72893793D01*
X106827671Y-72893797D01*
X106962517Y-72944091D01*
X106962516Y-72944091D01*
X106969444Y-72944835D01*
X107022127Y-72950500D01*
X108817872Y-72950499D01*
X108877483Y-72944091D01*
X109012331Y-72893796D01*
X109127546Y-72807546D01*
X109213796Y-72692331D01*
X109264091Y-72557483D01*
X109270500Y-72497873D01*
X109270499Y-70702128D01*
X109264091Y-70642517D01*
X109262810Y-70639083D01*
X109213797Y-70507671D01*
X109213793Y-70507664D01*
X109127547Y-70392455D01*
X109127544Y-70392452D01*
X109012335Y-70306206D01*
X109012328Y-70306202D01*
X108877482Y-70255908D01*
X108877483Y-70255908D01*
X108817883Y-70249501D01*
X108817881Y-70249500D01*
X108817873Y-70249500D01*
X108817864Y-70249500D01*
X107022129Y-70249500D01*
X107022123Y-70249501D01*
X106962516Y-70255908D01*
X106827671Y-70306202D01*
X106827664Y-70306206D01*
X106712455Y-70392452D01*
X106712452Y-70392455D01*
X106626206Y-70507664D01*
X106626203Y-70507669D01*
X106577189Y-70639083D01*
X106535317Y-70695016D01*
X106469853Y-70719433D01*
X106401580Y-70704581D01*
X106373326Y-70683430D01*
X106251402Y-70561506D01*
X106251395Y-70561501D01*
X106057834Y-70425967D01*
X106057830Y-70425965D01*
X106057828Y-70425964D01*
X105843663Y-70326097D01*
X105843659Y-70326096D01*
X105843655Y-70326094D01*
X105615413Y-70264938D01*
X105615403Y-70264936D01*
X105380001Y-70244341D01*
X105379999Y-70244341D01*
X105144596Y-70264936D01*
X105144586Y-70264938D01*
X104916344Y-70326094D01*
X104916335Y-70326098D01*
X104702171Y-70425964D01*
X104702169Y-70425965D01*
X104508597Y-70561505D01*
X104341508Y-70728594D01*
X104211269Y-70914595D01*
X104156692Y-70958219D01*
X104087193Y-70965412D01*
X104024839Y-70933890D01*
X104008119Y-70914594D01*
X103878113Y-70728926D01*
X103878108Y-70728920D01*
X103711082Y-70561894D01*
X103517578Y-70426399D01*
X103303492Y-70326570D01*
X103303486Y-70326567D01*
X103090000Y-70269364D01*
X103090000Y-71166988D01*
X103032993Y-71134075D01*
X102905826Y-71100000D01*
X102774174Y-71100000D01*
X102647007Y-71134075D01*
X102590000Y-71166988D01*
X102590000Y-70269364D01*
X102589999Y-70269364D01*
X102376513Y-70326567D01*
X102376507Y-70326570D01*
X102162422Y-70426399D01*
X102162420Y-70426400D01*
X101968926Y-70561886D01*
X101968920Y-70561891D01*
X101801891Y-70728920D01*
X101801890Y-70728922D01*
X101671880Y-70914595D01*
X101617303Y-70958219D01*
X101547804Y-70965412D01*
X101485450Y-70933890D01*
X101468727Y-70914590D01*
X101462077Y-70905092D01*
X101454247Y-70892333D01*
X101390533Y-70772888D01*
X101267128Y-70541537D01*
X101267057Y-70541406D01*
X101264101Y-70535947D01*
X101263953Y-70535679D01*
X101261526Y-70531315D01*
X101124485Y-70287785D01*
X101109797Y-70244504D01*
X101051862Y-69838616D01*
X101051859Y-69838602D01*
X101051744Y-69837791D01*
X101050500Y-69820269D01*
X101050500Y-59950000D01*
X130894540Y-59950000D01*
X130914326Y-60138256D01*
X130914327Y-60138259D01*
X130972818Y-60318277D01*
X130972821Y-60318284D01*
X131067467Y-60482216D01*
X131147935Y-60571584D01*
X131194126Y-60622885D01*
X131194129Y-60622888D01*
X131347265Y-60734148D01*
X131347270Y-60734151D01*
X131520191Y-60811142D01*
X131520193Y-60811142D01*
X131520197Y-60811144D01*
X131530829Y-60813404D01*
X131541925Y-60816306D01*
X131747558Y-60880385D01*
X131750189Y-60881196D01*
X131750319Y-60881236D01*
X131750450Y-60881276D01*
X131753334Y-60882148D01*
X131821673Y-60902570D01*
X131861248Y-60922694D01*
X131963055Y-61000163D01*
X131964610Y-61001298D01*
X131979183Y-61013773D01*
X132286016Y-61320606D01*
X132286045Y-61320637D01*
X132376263Y-61410855D01*
X132376267Y-61410858D01*
X132478707Y-61479307D01*
X132478713Y-61479310D01*
X132478714Y-61479311D01*
X132592548Y-61526463D01*
X132618818Y-61531688D01*
X132642515Y-61536402D01*
X132642535Y-61536405D01*
X132642557Y-61536410D01*
X132713391Y-61550499D01*
X132713392Y-61550500D01*
X132713393Y-61550500D01*
X132713394Y-61550500D01*
X134414548Y-61550500D01*
X134481587Y-61570185D01*
X134502229Y-61586819D01*
X142016193Y-69100784D01*
X142049678Y-69162107D01*
X142044694Y-69231799D01*
X142002822Y-69287732D01*
X141978950Y-69301743D01*
X141947272Y-69315847D01*
X141947265Y-69315851D01*
X141794129Y-69427111D01*
X141667466Y-69567785D01*
X141572821Y-69731715D01*
X141572818Y-69731722D01*
X141514327Y-69911740D01*
X141514326Y-69911744D01*
X141494540Y-70100000D01*
X141514326Y-70288256D01*
X141514327Y-70288259D01*
X141572818Y-70468277D01*
X141572821Y-70468284D01*
X141667467Y-70632216D01*
X141782336Y-70759791D01*
X141794129Y-70772888D01*
X141947265Y-70884148D01*
X141947270Y-70884151D01*
X142120191Y-70961142D01*
X142120193Y-70961142D01*
X142120197Y-70961144D01*
X142130829Y-70963404D01*
X142141925Y-70966306D01*
X142347558Y-71030385D01*
X142350189Y-71031196D01*
X142350319Y-71031236D01*
X142350450Y-71031276D01*
X142353334Y-71032148D01*
X142421673Y-71052570D01*
X142461248Y-71072694D01*
X142563055Y-71150163D01*
X142564610Y-71151298D01*
X142579183Y-71163773D01*
X142636016Y-71220606D01*
X142636045Y-71220637D01*
X142726264Y-71310856D01*
X142726267Y-71310858D01*
X142803190Y-71362256D01*
X142828710Y-71379309D01*
X142828712Y-71379310D01*
X142828715Y-71379312D01*
X142895396Y-71406931D01*
X142895398Y-71406933D01*
X142935640Y-71423601D01*
X142942548Y-71426463D01*
X143002971Y-71438481D01*
X143063393Y-71450500D01*
X144936607Y-71450500D01*
X144997029Y-71438481D01*
X145057452Y-71426463D01*
X145057455Y-71426461D01*
X145057458Y-71426461D01*
X145090787Y-71412654D01*
X145090786Y-71412654D01*
X145090792Y-71412652D01*
X145171286Y-71379312D01*
X145222509Y-71345084D01*
X145273733Y-71310858D01*
X145360858Y-71223733D01*
X145360859Y-71223731D01*
X145367925Y-71216665D01*
X145367928Y-71216661D01*
X145498729Y-71085860D01*
X145498733Y-71085858D01*
X145585858Y-70998733D01*
X145633422Y-70927549D01*
X145654312Y-70896286D01*
X145701463Y-70782451D01*
X145705971Y-70759790D01*
X145721695Y-70680734D01*
X145721695Y-70680733D01*
X145721696Y-70680733D01*
X145721696Y-70680728D01*
X145725500Y-70661607D01*
X145725500Y-70538393D01*
X145725500Y-69738394D01*
X145721227Y-69716914D01*
X145708421Y-69652531D01*
X145701463Y-69617548D01*
X145654311Y-69503714D01*
X145654310Y-69503713D01*
X145654307Y-69503707D01*
X145585858Y-69401267D01*
X145585855Y-69401263D01*
X145495637Y-69311045D01*
X145495606Y-69311016D01*
X135990198Y-59805608D01*
X135990178Y-59805586D01*
X135947037Y-59762445D01*
X135913552Y-59701122D01*
X135918536Y-59631430D01*
X135960408Y-59575497D01*
X135961834Y-59574445D01*
X136096598Y-59476536D01*
X136219032Y-59354102D01*
X136320804Y-59214024D01*
X136399408Y-59059757D01*
X136452914Y-58895084D01*
X136480000Y-58724071D01*
X136480000Y-58337500D01*
X135655006Y-58337500D01*
X135655006Y-57837500D01*
X136480000Y-57837500D01*
X136480000Y-57450928D01*
X136452914Y-57279915D01*
X136399408Y-57115242D01*
X136320804Y-56960975D01*
X136219032Y-56820897D01*
X136098135Y-56700000D01*
X141794659Y-56700000D01*
X141813975Y-56896129D01*
X141813976Y-56896132D01*
X141850566Y-57016754D01*
X141871188Y-57084733D01*
X141964086Y-57258532D01*
X141964090Y-57258539D01*
X142089116Y-57410883D01*
X142241460Y-57535909D01*
X142241467Y-57535913D01*
X142415266Y-57628811D01*
X142415269Y-57628811D01*
X142415273Y-57628814D01*
X142603868Y-57686024D01*
X142800000Y-57705341D01*
X142996132Y-57686024D01*
X143184727Y-57628814D01*
X143184735Y-57628809D01*
X143186851Y-57627934D01*
X143201150Y-57621621D01*
X143204682Y-57620369D01*
X143204681Y-57620369D01*
X143204686Y-57620368D01*
X143451521Y-57512490D01*
X143463827Y-57507874D01*
X143569207Y-57474607D01*
X143598777Y-57469099D01*
X143820645Y-57455198D01*
X143820655Y-57455197D01*
X143861027Y-57451126D01*
X143873468Y-57450500D01*
X145844024Y-57450500D01*
X145869311Y-57453106D01*
X145873086Y-57453892D01*
X145879355Y-57455198D01*
X146101217Y-57469099D01*
X146130790Y-57474608D01*
X146236160Y-57507871D01*
X146248491Y-57512496D01*
X146495314Y-57620368D01*
X146498219Y-57621621D01*
X146499843Y-57622321D01*
X146499976Y-57622378D01*
X146499984Y-57622381D01*
X146500005Y-57622390D01*
X146500702Y-57622640D01*
X146501382Y-57622885D01*
X146509616Y-57626540D01*
X146509641Y-57626481D01*
X146515268Y-57628811D01*
X146515273Y-57628814D01*
X146529090Y-57633004D01*
X146534977Y-57634953D01*
X146554600Y-57642004D01*
X146554605Y-57642004D01*
X146554609Y-57642006D01*
X146558152Y-57642891D01*
X146571491Y-57645867D01*
X146703868Y-57686024D01*
X146900000Y-57705341D01*
X147096132Y-57686024D01*
X147284727Y-57628814D01*
X147285115Y-57628607D01*
X147395404Y-57569656D01*
X147458538Y-57535910D01*
X147610883Y-57410883D01*
X147735910Y-57258538D01*
X147810032Y-57119866D01*
X147828811Y-57084733D01*
X147828811Y-57084732D01*
X147828814Y-57084727D01*
X147886024Y-56896132D01*
X147905341Y-56700000D01*
X147886024Y-56503868D01*
X147828814Y-56315273D01*
X147828811Y-56315269D01*
X147828811Y-56315266D01*
X147735913Y-56141467D01*
X147735909Y-56141460D01*
X147610883Y-55989116D01*
X147458539Y-55864090D01*
X147458532Y-55864086D01*
X147284733Y-55771188D01*
X147284727Y-55771186D01*
X147101054Y-55715469D01*
X147096129Y-55713975D01*
X146900000Y-55694659D01*
X146703865Y-55713976D01*
X146515274Y-55771185D01*
X146513174Y-55772055D01*
X146498876Y-55778367D01*
X146495320Y-55779627D01*
X146248494Y-55887498D01*
X146236166Y-55892123D01*
X146146602Y-55920397D01*
X146146601Y-55920396D01*
X146146594Y-55920399D01*
X146146584Y-55920403D01*
X146130790Y-55925389D01*
X146101216Y-55930898D01*
X145879362Y-55944801D01*
X145879352Y-55944801D01*
X145879352Y-55944802D01*
X145841169Y-55948654D01*
X145841167Y-55948654D01*
X145838991Y-55948874D01*
X145826545Y-55949500D01*
X143855978Y-55949500D01*
X143830691Y-55946894D01*
X143820652Y-55944803D01*
X143820644Y-55944801D01*
X143598782Y-55930898D01*
X143569210Y-55925389D01*
X143463841Y-55892127D01*
X143451512Y-55887502D01*
X143204637Y-55779609D01*
X143198029Y-55776777D01*
X143197916Y-55776729D01*
X143196318Y-55776109D01*
X143196351Y-55776023D01*
X143190408Y-55773392D01*
X143190357Y-55773518D01*
X143184729Y-55771187D01*
X143184727Y-55771186D01*
X143184724Y-55771185D01*
X143171869Y-55767285D01*
X143166208Y-55765418D01*
X143155883Y-55761735D01*
X143145399Y-55757995D01*
X143145396Y-55757994D01*
X143141725Y-55757081D01*
X143128495Y-55754128D01*
X142996130Y-55713975D01*
X142800000Y-55694659D01*
X142603870Y-55713975D01*
X142415266Y-55771188D01*
X142241467Y-55864086D01*
X142241460Y-55864090D01*
X142089116Y-55989116D01*
X141964090Y-56141460D01*
X141964086Y-56141467D01*
X141871188Y-56315266D01*
X141813975Y-56503870D01*
X141794659Y-56700000D01*
X136098135Y-56700000D01*
X136096602Y-56698467D01*
X135956524Y-56596695D01*
X135802257Y-56518091D01*
X135637589Y-56464587D01*
X135637581Y-56464585D01*
X135630000Y-56463384D01*
X135630000Y-57397434D01*
X135613139Y-57356728D01*
X135535779Y-57279368D01*
X135434702Y-57237501D01*
X135325298Y-57237501D01*
X135224221Y-57279368D01*
X135146861Y-57356728D01*
X135130000Y-57397434D01*
X135130000Y-56463384D01*
X135129999Y-56463384D01*
X135122418Y-56464585D01*
X135122410Y-56464587D01*
X134957742Y-56518091D01*
X134803472Y-56596697D01*
X134748731Y-56636468D01*
X134682924Y-56659947D01*
X134614870Y-56644121D01*
X134566176Y-56594014D01*
X134561296Y-56583624D01*
X134549471Y-56555076D01*
X134547028Y-56548675D01*
X134525789Y-56487978D01*
X134519289Y-56477634D01*
X134509719Y-56459106D01*
X134509394Y-56458321D01*
X134472790Y-56403540D01*
X134470905Y-56400631D01*
X134429816Y-56335238D01*
X134302262Y-56207684D01*
X134302260Y-56207682D01*
X134302257Y-56207680D01*
X134236900Y-56166614D01*
X134233982Y-56164723D01*
X134179179Y-56128105D01*
X134179173Y-56128103D01*
X134178365Y-56127768D01*
X134159865Y-56118209D01*
X134149524Y-56111712D01*
X134149523Y-56111711D01*
X134149522Y-56111711D01*
X134088867Y-56090486D01*
X134082377Y-56088009D01*
X134033496Y-56067762D01*
X134019860Y-56065050D01*
X134003104Y-56060476D01*
X133979260Y-56052133D01*
X133979256Y-56052132D01*
X133979255Y-56052132D01*
X133958575Y-56049801D01*
X133928303Y-56046390D01*
X133918003Y-56044788D01*
X133878844Y-56037000D01*
X133878842Y-56037000D01*
X133851915Y-56037000D01*
X133838031Y-56036220D01*
X133800002Y-56031935D01*
X133799998Y-56031935D01*
X133761969Y-56036220D01*
X133748085Y-56037000D01*
X133721152Y-56037000D01*
X133681994Y-56044788D01*
X133671696Y-56046390D01*
X133620742Y-56052132D01*
X133620735Y-56052134D01*
X133596898Y-56060475D01*
X133580140Y-56065050D01*
X133566502Y-56067763D01*
X133566496Y-56067764D01*
X133517631Y-56088004D01*
X133511140Y-56090482D01*
X133450477Y-56111710D01*
X133450474Y-56111712D01*
X133440127Y-56118213D01*
X133421639Y-56127766D01*
X133420832Y-56128100D01*
X133420824Y-56128104D01*
X133366047Y-56164704D01*
X133363132Y-56166592D01*
X133297742Y-56207680D01*
X133297735Y-56207686D01*
X133170186Y-56335235D01*
X133170180Y-56335242D01*
X133129092Y-56400632D01*
X133127204Y-56403547D01*
X133090604Y-56458324D01*
X133090600Y-56458332D01*
X133090266Y-56459139D01*
X133080713Y-56477627D01*
X133074212Y-56487974D01*
X133074210Y-56487977D01*
X133052982Y-56548640D01*
X133050504Y-56555131D01*
X133030264Y-56603996D01*
X133030263Y-56604002D01*
X133027550Y-56617640D01*
X133022975Y-56634398D01*
X133014634Y-56658235D01*
X133014632Y-56658242D01*
X133008890Y-56709196D01*
X133007288Y-56719494D01*
X132999500Y-56758652D01*
X132999500Y-56785585D01*
X132998720Y-56799469D01*
X132994435Y-56837498D01*
X132994435Y-56837501D01*
X132998720Y-56875529D01*
X132999500Y-56889414D01*
X132999500Y-56916344D01*
X133007288Y-56955503D01*
X133008890Y-56965803D01*
X133014632Y-57016752D01*
X133014633Y-57016760D01*
X133022976Y-57040604D01*
X133027550Y-57057360D01*
X133030262Y-57070996D01*
X133050509Y-57119877D01*
X133052988Y-57126372D01*
X133074212Y-57187024D01*
X133080709Y-57197365D01*
X133090268Y-57215865D01*
X133090603Y-57216673D01*
X133090605Y-57216679D01*
X133127223Y-57271482D01*
X133129114Y-57274400D01*
X133170180Y-57339757D01*
X133170182Y-57339760D01*
X133170184Y-57339762D01*
X133297738Y-57467316D01*
X133362281Y-57507871D01*
X133363131Y-57508405D01*
X133366040Y-57510290D01*
X133420821Y-57546894D01*
X133421606Y-57547219D01*
X133440134Y-57556789D01*
X133450478Y-57563289D01*
X133511175Y-57584528D01*
X133517607Y-57586984D01*
X133546021Y-57598753D01*
X133566497Y-57607235D01*
X133566498Y-57607235D01*
X133566503Y-57607237D01*
X133580139Y-57609949D01*
X133596898Y-57614523D01*
X133620745Y-57622868D01*
X133671714Y-57628610D01*
X133681992Y-57630209D01*
X133705885Y-57634962D01*
X133721157Y-57638000D01*
X133721158Y-57638000D01*
X133748085Y-57638000D01*
X133761969Y-57638780D01*
X133799998Y-57643065D01*
X133800000Y-57643065D01*
X133800002Y-57643065D01*
X133838031Y-57638780D01*
X133851915Y-57638000D01*
X133878841Y-57638000D01*
X133878842Y-57638000D01*
X133918017Y-57630207D01*
X133928283Y-57628610D01*
X133979255Y-57622868D01*
X134003100Y-57614523D01*
X134019862Y-57609948D01*
X134033497Y-57607237D01*
X134082389Y-57586984D01*
X134088849Y-57584519D01*
X134115047Y-57575351D01*
X134184826Y-57571791D01*
X134245453Y-57606521D01*
X134277679Y-57668515D01*
X134280000Y-57692394D01*
X134280000Y-57837500D01*
X135104994Y-57837500D01*
X135104994Y-58337500D01*
X134280000Y-58337500D01*
X134280000Y-58724071D01*
X134307085Y-58895084D01*
X134360591Y-59059757D01*
X134439195Y-59214024D01*
X134540967Y-59354102D01*
X134549684Y-59362819D01*
X134583169Y-59424142D01*
X134578185Y-59493834D01*
X134536313Y-59549767D01*
X134470849Y-59574184D01*
X134462003Y-59574500D01*
X133979217Y-59574500D01*
X133962340Y-59572750D01*
X133962264Y-59573316D01*
X133957875Y-59572720D01*
X133831113Y-59555510D01*
X133788893Y-59541754D01*
X133726070Y-59507841D01*
X133720855Y-59505065D01*
X133565551Y-59423556D01*
X133558355Y-59419087D01*
X133558351Y-59419095D01*
X133552728Y-59415848D01*
X133544098Y-59412006D01*
X133536908Y-59408523D01*
X133512819Y-59395881D01*
X133499295Y-59388783D01*
X133479096Y-59378750D01*
X133479075Y-59378740D01*
X133478177Y-59378318D01*
X133457158Y-59370327D01*
X133414701Y-59354184D01*
X133408353Y-59351567D01*
X133379801Y-59338855D01*
X133244624Y-59310123D01*
X133194646Y-59299500D01*
X133005354Y-59299500D01*
X132972897Y-59306398D01*
X132820197Y-59338855D01*
X132820192Y-59338857D01*
X132646426Y-59416224D01*
X132577176Y-59425509D01*
X132513899Y-59395881D01*
X132503840Y-59385917D01*
X132405870Y-59277111D01*
X132252734Y-59165851D01*
X132252729Y-59165848D01*
X132079807Y-59088857D01*
X132079802Y-59088855D01*
X131934001Y-59057865D01*
X131894646Y-59049500D01*
X131705354Y-59049500D01*
X131672897Y-59056398D01*
X131520197Y-59088855D01*
X131520192Y-59088857D01*
X131347270Y-59165848D01*
X131347265Y-59165851D01*
X131194129Y-59277111D01*
X131067466Y-59417785D01*
X130972821Y-59581715D01*
X130972818Y-59581722D01*
X130914792Y-59760310D01*
X130914326Y-59761744D01*
X130894540Y-59950000D01*
X101050500Y-59950000D01*
X101050500Y-57450928D01*
X127120000Y-57450928D01*
X127120000Y-57837500D01*
X127944994Y-57837500D01*
X127944994Y-58337500D01*
X127120000Y-58337500D01*
X127120000Y-58724071D01*
X127147085Y-58895084D01*
X127200591Y-59059757D01*
X127279195Y-59214024D01*
X127380967Y-59354102D01*
X127503397Y-59476532D01*
X127643475Y-59578304D01*
X127797744Y-59656908D01*
X127962415Y-59710414D01*
X127962414Y-59710414D01*
X127969999Y-59711615D01*
X127970000Y-59711614D01*
X127970000Y-58777565D01*
X127986861Y-58818272D01*
X128064221Y-58895632D01*
X128165298Y-58937499D01*
X128274702Y-58937499D01*
X128375779Y-58895632D01*
X128453139Y-58818272D01*
X128470000Y-58777565D01*
X128470000Y-59711615D01*
X128477584Y-59710414D01*
X128642255Y-59656908D01*
X128796524Y-59578304D01*
X128936602Y-59476532D01*
X129059032Y-59354102D01*
X129160804Y-59214024D01*
X129239408Y-59059757D01*
X129292914Y-58895084D01*
X129320000Y-58724071D01*
X129320000Y-58337500D01*
X128495006Y-58337500D01*
X128495006Y-57837500D01*
X129320000Y-57837500D01*
X129320000Y-57692394D01*
X129339685Y-57625355D01*
X129392489Y-57579600D01*
X129461647Y-57569656D01*
X129484951Y-57575351D01*
X129511151Y-57584519D01*
X129517607Y-57586984D01*
X129546021Y-57598753D01*
X129566497Y-57607235D01*
X129566498Y-57607235D01*
X129566503Y-57607237D01*
X129580139Y-57609949D01*
X129596898Y-57614523D01*
X129620745Y-57622868D01*
X129671714Y-57628610D01*
X129681992Y-57630209D01*
X129705885Y-57634962D01*
X129721157Y-57638000D01*
X129721158Y-57638000D01*
X129748085Y-57638000D01*
X129761969Y-57638780D01*
X129799998Y-57643065D01*
X129800000Y-57643065D01*
X129800002Y-57643065D01*
X129838031Y-57638780D01*
X129851915Y-57638000D01*
X129878841Y-57638000D01*
X129878842Y-57638000D01*
X129918017Y-57630207D01*
X129928283Y-57628610D01*
X129979255Y-57622868D01*
X130003100Y-57614523D01*
X130019862Y-57609948D01*
X130033497Y-57607237D01*
X130082389Y-57586984D01*
X130088837Y-57584523D01*
X130149522Y-57563289D01*
X130159868Y-57556787D01*
X130178390Y-57547220D01*
X130179179Y-57546894D01*
X130233987Y-57510271D01*
X130236825Y-57508431D01*
X130302262Y-57467316D01*
X130429816Y-57339762D01*
X130470931Y-57274325D01*
X130472777Y-57271479D01*
X130509394Y-57216679D01*
X130509720Y-57215890D01*
X130519287Y-57197368D01*
X130525789Y-57187022D01*
X130547023Y-57126337D01*
X130549490Y-57119877D01*
X130569737Y-57070997D01*
X130572449Y-57057360D01*
X130577023Y-57040600D01*
X130585368Y-57016755D01*
X130591110Y-56965783D01*
X130592707Y-56955517D01*
X130600500Y-56916342D01*
X130600500Y-56889414D01*
X130601280Y-56875529D01*
X130605565Y-56837501D01*
X130605565Y-56837498D01*
X130601280Y-56799469D01*
X130600500Y-56785585D01*
X130600500Y-56758657D01*
X130592711Y-56719503D01*
X130591110Y-56709214D01*
X130585368Y-56658245D01*
X130577023Y-56634398D01*
X130572449Y-56617639D01*
X130569737Y-56604003D01*
X130569734Y-56603996D01*
X130561253Y-56583521D01*
X130549484Y-56555107D01*
X130547028Y-56548675D01*
X130525789Y-56487978D01*
X130519289Y-56477634D01*
X130509719Y-56459106D01*
X130509394Y-56458321D01*
X130472790Y-56403540D01*
X130470905Y-56400631D01*
X130429816Y-56335238D01*
X130302262Y-56207684D01*
X130302260Y-56207682D01*
X130302257Y-56207680D01*
X130236900Y-56166614D01*
X130233982Y-56164723D01*
X130179179Y-56128105D01*
X130179173Y-56128103D01*
X130178365Y-56127768D01*
X130159865Y-56118209D01*
X130149524Y-56111712D01*
X130149523Y-56111711D01*
X130149522Y-56111711D01*
X130088867Y-56090486D01*
X130082377Y-56088009D01*
X130033496Y-56067762D01*
X130019860Y-56065050D01*
X130003104Y-56060476D01*
X129979260Y-56052133D01*
X129979256Y-56052132D01*
X129979255Y-56052132D01*
X129958575Y-56049801D01*
X129928303Y-56046390D01*
X129918003Y-56044788D01*
X129878844Y-56037000D01*
X129878842Y-56037000D01*
X129851915Y-56037000D01*
X129838031Y-56036220D01*
X129800002Y-56031935D01*
X129799998Y-56031935D01*
X129761969Y-56036220D01*
X129748085Y-56037000D01*
X129721152Y-56037000D01*
X129681994Y-56044788D01*
X129671696Y-56046390D01*
X129620742Y-56052132D01*
X129620735Y-56052134D01*
X129596898Y-56060475D01*
X129580140Y-56065050D01*
X129566502Y-56067763D01*
X129566496Y-56067764D01*
X129517631Y-56088004D01*
X129511140Y-56090482D01*
X129450477Y-56111710D01*
X129450474Y-56111712D01*
X129440127Y-56118213D01*
X129421639Y-56127766D01*
X129420832Y-56128100D01*
X129420824Y-56128104D01*
X129366047Y-56164704D01*
X129363132Y-56166592D01*
X129297742Y-56207680D01*
X129297735Y-56207686D01*
X129170186Y-56335235D01*
X129170180Y-56335242D01*
X129129092Y-56400632D01*
X129127204Y-56403547D01*
X129090604Y-56458324D01*
X129090600Y-56458332D01*
X129090266Y-56459139D01*
X129080713Y-56477627D01*
X129074212Y-56487974D01*
X129074210Y-56487977D01*
X129052982Y-56548640D01*
X129050504Y-56555133D01*
X129038713Y-56583600D01*
X128994872Y-56638004D01*
X128928578Y-56660070D01*
X128860879Y-56642792D01*
X128851266Y-56636467D01*
X128796528Y-56596698D01*
X128642257Y-56518091D01*
X128477589Y-56464587D01*
X128477581Y-56464585D01*
X128470000Y-56463384D01*
X128470000Y-57397434D01*
X128453139Y-57356728D01*
X128375779Y-57279368D01*
X128274702Y-57237501D01*
X128165298Y-57237501D01*
X128064221Y-57279368D01*
X127986861Y-57356728D01*
X127970000Y-57397434D01*
X127970000Y-56463384D01*
X127969999Y-56463384D01*
X127962418Y-56464585D01*
X127962410Y-56464587D01*
X127797742Y-56518091D01*
X127643475Y-56596695D01*
X127503397Y-56698467D01*
X127380967Y-56820897D01*
X127279195Y-56960975D01*
X127200591Y-57115242D01*
X127147085Y-57279915D01*
X127120000Y-57450928D01*
X101050500Y-57450928D01*
X101050500Y-56562229D01*
X101070185Y-56495190D01*
X101086815Y-56474552D01*
X101984002Y-55577364D01*
X102003718Y-55561332D01*
X102012302Y-55555709D01*
X102179017Y-55408653D01*
X102203816Y-55391643D01*
X102301859Y-55340649D01*
X102313822Y-55335212D01*
X102564643Y-55236954D01*
X102568849Y-55235284D01*
X102569038Y-55235208D01*
X102570586Y-55234478D01*
X102579112Y-55231197D01*
X102579092Y-55231148D01*
X102584721Y-55228815D01*
X102584727Y-55228814D01*
X102597623Y-55221920D01*
X102603237Y-55219101D01*
X102607932Y-55216889D01*
X102621899Y-55210312D01*
X102621902Y-55210310D01*
X102625059Y-55208415D01*
X102636583Y-55201096D01*
X102758536Y-55135911D01*
X102758539Y-55135909D01*
X102852816Y-55058538D01*
X102910883Y-55010883D01*
X103035910Y-54858538D01*
X103128814Y-54684727D01*
X103141608Y-54642546D01*
X103147164Y-54627719D01*
X103151430Y-54618227D01*
X103239890Y-54310027D01*
X103243062Y-54298461D01*
X103243204Y-54297918D01*
X103246162Y-54286017D01*
X103271653Y-54177885D01*
X103291952Y-54133559D01*
X103394130Y-53992640D01*
X103406825Y-53977763D01*
X103822771Y-53561819D01*
X103884094Y-53528334D01*
X103910452Y-53525500D01*
X127147265Y-53525500D01*
X127214304Y-53545185D01*
X127260059Y-53597989D01*
X127270003Y-53667147D01*
X127261826Y-53696953D01*
X127210350Y-53821225D01*
X127210348Y-53821233D01*
X127170000Y-54024079D01*
X127170000Y-54377500D01*
X127895007Y-54377500D01*
X127895007Y-54877500D01*
X127170000Y-54877500D01*
X127170000Y-55230920D01*
X127210348Y-55433766D01*
X127210350Y-55433774D01*
X127289500Y-55624858D01*
X127289505Y-55624868D01*
X127404410Y-55796835D01*
X127404413Y-55796839D01*
X127550660Y-55943086D01*
X127550664Y-55943089D01*
X127722631Y-56057994D01*
X127722641Y-56057999D01*
X127913723Y-56137148D01*
X127913725Y-56137149D01*
X127970000Y-56148342D01*
X127970000Y-55312115D01*
X128020450Y-55362565D01*
X128094558Y-55405351D01*
X128177214Y-55427499D01*
X128262786Y-55427499D01*
X128345442Y-55405351D01*
X128419550Y-55362565D01*
X128470000Y-55312115D01*
X128470000Y-56148342D01*
X128526274Y-56137149D01*
X128526276Y-56137148D01*
X128717358Y-56057999D01*
X128717368Y-56057994D01*
X128889335Y-55943089D01*
X128889339Y-55943086D01*
X129035586Y-55796839D01*
X129035589Y-55796835D01*
X129150494Y-55624868D01*
X129150499Y-55624858D01*
X129229649Y-55433774D01*
X129229651Y-55433766D01*
X129269999Y-55230920D01*
X129270000Y-55230917D01*
X129270000Y-54877500D01*
X128544993Y-54877500D01*
X128544993Y-54377500D01*
X129270000Y-54377500D01*
X129270000Y-54024083D01*
X129269999Y-54024079D01*
X129229651Y-53821233D01*
X129229649Y-53821225D01*
X129178174Y-53696953D01*
X129170705Y-53627484D01*
X129201980Y-53565004D01*
X129262069Y-53529352D01*
X129292735Y-53525500D01*
X129889548Y-53525500D01*
X129956587Y-53545185D01*
X129977229Y-53561819D01*
X130593172Y-54177763D01*
X130605879Y-54192655D01*
X130690688Y-54309622D01*
X130708041Y-54333554D01*
X130728343Y-54377886D01*
X130753272Y-54483631D01*
X130753843Y-54486050D01*
X130756793Y-54497920D01*
X130756942Y-54498488D01*
X130760090Y-54509967D01*
X130760106Y-54510023D01*
X130760108Y-54510030D01*
X130813524Y-54696132D01*
X130848579Y-54818261D01*
X130857065Y-54845000D01*
X130857500Y-54846249D01*
X130860842Y-54853803D01*
X130866101Y-54867967D01*
X130871185Y-54884725D01*
X130888394Y-54916921D01*
X130889749Y-54919698D01*
X130890102Y-54920303D01*
X130892374Y-54924367D01*
X130964092Y-55058541D01*
X131089116Y-55210883D01*
X131241460Y-55335909D01*
X131241467Y-55335913D01*
X131415266Y-55428811D01*
X131415269Y-55428811D01*
X131415273Y-55428814D01*
X131603868Y-55486024D01*
X131800000Y-55505341D01*
X131996132Y-55486024D01*
X132184727Y-55428814D01*
X132187188Y-55427499D01*
X132308670Y-55362565D01*
X132358538Y-55335910D01*
X132510883Y-55210883D01*
X132635910Y-55058538D01*
X132728814Y-54884727D01*
X132786024Y-54696132D01*
X132805341Y-54500000D01*
X132786024Y-54303868D01*
X132728814Y-54115273D01*
X132728811Y-54115269D01*
X132728811Y-54115266D01*
X132680070Y-54024079D01*
X134330000Y-54024079D01*
X134330000Y-54377500D01*
X135080000Y-54377500D01*
X135080000Y-54877500D01*
X134330000Y-54877500D01*
X134330000Y-55230920D01*
X134370348Y-55433766D01*
X134370350Y-55433774D01*
X134449500Y-55624858D01*
X134449505Y-55624868D01*
X134564410Y-55796835D01*
X134564413Y-55796839D01*
X134710660Y-55943086D01*
X134710664Y-55943089D01*
X134882631Y-56057994D01*
X134882641Y-56057999D01*
X135073723Y-56137148D01*
X135073725Y-56137149D01*
X135130000Y-56148342D01*
X135130000Y-55294487D01*
X135139940Y-55311704D01*
X135195795Y-55367559D01*
X135264204Y-55407055D01*
X135340504Y-55427499D01*
X135419496Y-55427499D01*
X135495796Y-55407055D01*
X135564205Y-55367559D01*
X135620060Y-55311704D01*
X135630000Y-55294487D01*
X135630000Y-56148342D01*
X135686274Y-56137149D01*
X135686276Y-56137148D01*
X135877358Y-56057999D01*
X135877368Y-56057994D01*
X136049335Y-55943089D01*
X136049339Y-55943086D01*
X136195586Y-55796839D01*
X136195589Y-55796835D01*
X136310494Y-55624868D01*
X136310499Y-55624858D01*
X136389649Y-55433774D01*
X136389651Y-55433766D01*
X136429999Y-55230920D01*
X136430000Y-55230917D01*
X136430000Y-54877500D01*
X135680000Y-54877500D01*
X135680000Y-54377500D01*
X136430000Y-54377500D01*
X136430000Y-54024083D01*
X136429999Y-54024079D01*
X136389651Y-53821233D01*
X136389649Y-53821225D01*
X136310499Y-53630141D01*
X136310494Y-53630131D01*
X136195589Y-53458164D01*
X136195586Y-53458160D01*
X136049339Y-53311913D01*
X136049335Y-53311910D01*
X135877368Y-53197005D01*
X135877358Y-53197000D01*
X135686272Y-53117849D01*
X135686267Y-53117847D01*
X135630000Y-53106655D01*
X135630000Y-53960512D01*
X135620060Y-53943296D01*
X135564205Y-53887441D01*
X135495796Y-53847945D01*
X135419496Y-53827501D01*
X135340504Y-53827501D01*
X135264204Y-53847945D01*
X135195795Y-53887441D01*
X135139940Y-53943296D01*
X135130000Y-53960512D01*
X135130000Y-53106656D01*
X135129999Y-53106655D01*
X135073732Y-53117847D01*
X135073727Y-53117849D01*
X134882641Y-53197000D01*
X134882631Y-53197005D01*
X134710664Y-53311910D01*
X134710660Y-53311913D01*
X134564413Y-53458160D01*
X134564410Y-53458164D01*
X134449505Y-53630131D01*
X134449500Y-53630141D01*
X134370350Y-53821225D01*
X134370348Y-53821233D01*
X134330000Y-54024079D01*
X132680070Y-54024079D01*
X132635913Y-53941467D01*
X132635909Y-53941460D01*
X132510883Y-53789116D01*
X132358539Y-53664090D01*
X132358532Y-53664086D01*
X132184730Y-53571187D01*
X132184726Y-53571185D01*
X132142560Y-53558394D01*
X132127736Y-53552841D01*
X132118233Y-53548571D01*
X132106436Y-53545185D01*
X131810030Y-53460108D01*
X131810023Y-53460106D01*
X131809967Y-53460090D01*
X131798488Y-53456942D01*
X131797880Y-53456783D01*
X131786089Y-53453852D01*
X131764175Y-53448686D01*
X131677887Y-53428343D01*
X131633555Y-53408041D01*
X131492647Y-53305872D01*
X131477755Y-53293165D01*
X130966771Y-52782181D01*
X130933286Y-52720858D01*
X130938270Y-52651166D01*
X130980142Y-52595233D01*
X131045606Y-52570816D01*
X131054452Y-52570500D01*
X132278325Y-52570500D01*
X156719763Y-52570500D01*
X156786802Y-52590185D01*
X156832557Y-52642989D01*
X156843763Y-52694500D01*
X156843763Y-73445704D01*
X156824078Y-73512743D01*
X156771274Y-73558498D01*
X156719763Y-73569704D01*
X132968733Y-73569704D01*
X132901694Y-73550019D01*
X132855939Y-73497215D01*
X132844733Y-73445704D01*
X132844733Y-68004161D01*
X132844733Y-68004159D01*
X132810625Y-67876865D01*
X132744733Y-67762737D01*
X132651547Y-67669551D01*
X132594483Y-67636605D01*
X132537420Y-67603659D01*
X132473772Y-67586605D01*
X132410125Y-67569551D01*
X110409913Y-67569551D01*
X110278129Y-67569551D01*
X110150833Y-67603659D01*
X110036707Y-67669551D01*
X110036704Y-67669553D01*
X109943523Y-67762734D01*
X109943521Y-67762737D01*
X109877629Y-67876863D01*
X109843521Y-68004159D01*
X109843521Y-73445704D01*
X109823836Y-73512743D01*
X109771032Y-73558498D01*
X109719521Y-73569704D01*
X85968500Y-73569704D01*
X85901461Y-73550019D01*
X85855706Y-73497215D01*
X85844500Y-73445704D01*
X85844500Y-63000000D01*
X91094659Y-63000000D01*
X91113975Y-63196129D01*
X91171188Y-63384733D01*
X91264086Y-63558532D01*
X91264090Y-63558539D01*
X91389116Y-63710883D01*
X91541460Y-63835909D01*
X91541467Y-63835913D01*
X91715266Y-63928811D01*
X91715269Y-63928811D01*
X91715273Y-63928814D01*
X91903868Y-63986024D01*
X92100000Y-64005341D01*
X92296132Y-63986024D01*
X92484727Y-63928814D01*
X92658538Y-63835910D01*
X92810883Y-63710883D01*
X92935910Y-63558538D01*
X93028814Y-63384727D01*
X93086024Y-63196132D01*
X93105341Y-63000000D01*
X93086024Y-62803868D01*
X93028814Y-62615273D01*
X93028811Y-62615268D01*
X93028810Y-62615263D01*
X93027946Y-62613179D01*
X93021616Y-62598837D01*
X93020370Y-62595322D01*
X93020368Y-62595314D01*
X92912494Y-62348485D01*
X92907871Y-62336160D01*
X92874608Y-62230790D01*
X92869099Y-62201216D01*
X92855198Y-61979357D01*
X92855197Y-61979352D01*
X92851352Y-61941221D01*
X92851126Y-61938976D01*
X92850500Y-61926534D01*
X92850500Y-61412229D01*
X92870185Y-61345190D01*
X92886814Y-61324552D01*
X94084002Y-60127364D01*
X94103718Y-60111332D01*
X94112302Y-60105709D01*
X94279017Y-59958653D01*
X94303816Y-59941643D01*
X94401859Y-59890649D01*
X94413822Y-59885212D01*
X94664643Y-59786954D01*
X94668849Y-59785284D01*
X94669038Y-59785208D01*
X94670586Y-59784478D01*
X94679112Y-59781197D01*
X94679092Y-59781148D01*
X94684721Y-59778815D01*
X94684727Y-59778814D01*
X94697623Y-59771920D01*
X94703237Y-59769101D01*
X94707932Y-59766889D01*
X94721899Y-59760312D01*
X94721902Y-59760310D01*
X94725059Y-59758415D01*
X94736583Y-59751096D01*
X94858536Y-59685911D01*
X94858539Y-59685909D01*
X94880391Y-59667976D01*
X95010883Y-59560883D01*
X95135910Y-59408538D01*
X95228814Y-59234727D01*
X95286024Y-59046132D01*
X95305341Y-58850000D01*
X95286024Y-58653868D01*
X95228814Y-58465273D01*
X95228811Y-58465269D01*
X95228811Y-58465266D01*
X95135913Y-58291467D01*
X95135909Y-58291460D01*
X95010883Y-58139116D01*
X94858539Y-58014090D01*
X94858532Y-58014086D01*
X94684733Y-57921188D01*
X94684727Y-57921186D01*
X94496132Y-57863976D01*
X94496129Y-57863975D01*
X94300000Y-57844659D01*
X94103870Y-57863975D01*
X93915266Y-57921188D01*
X93741467Y-58014086D01*
X93741460Y-58014090D01*
X93589116Y-58139116D01*
X93464090Y-58291460D01*
X93464086Y-58291467D01*
X93371189Y-58465265D01*
X93370324Y-58467354D01*
X93364670Y-58481945D01*
X93363045Y-58485354D01*
X93264791Y-58736155D01*
X93259344Y-58748143D01*
X93208353Y-58846178D01*
X93191338Y-58870984D01*
X93044276Y-59037711D01*
X93018627Y-59069117D01*
X93010269Y-59078361D01*
X91517047Y-60571584D01*
X91517045Y-60571586D01*
X91482771Y-60622885D01*
X91482769Y-60622888D01*
X91434919Y-60694499D01*
X91434912Y-60694511D01*
X91378343Y-60831082D01*
X91378340Y-60831092D01*
X91349500Y-60976079D01*
X91349500Y-61944026D01*
X91346894Y-61969313D01*
X91344804Y-61979346D01*
X91344802Y-61979354D01*
X91330898Y-62201215D01*
X91325389Y-62230788D01*
X91292122Y-62336170D01*
X91287497Y-62348498D01*
X91179602Y-62595379D01*
X91176964Y-62601523D01*
X91176950Y-62601556D01*
X91176938Y-62601589D01*
X91176853Y-62601827D01*
X91176791Y-62601965D01*
X91176315Y-62603190D01*
X91176258Y-62603168D01*
X91173407Y-62609604D01*
X91173516Y-62609649D01*
X91171183Y-62615281D01*
X91167214Y-62628363D01*
X91165326Y-62634083D01*
X91157995Y-62654598D01*
X91157085Y-62658253D01*
X91154127Y-62671504D01*
X91113976Y-62803867D01*
X91094659Y-63000000D01*
X85844500Y-63000000D01*
X85844500Y-55979033D01*
X88124499Y-55979033D01*
X88150458Y-56109530D01*
X88150461Y-56109540D01*
X88201376Y-56232461D01*
X88201386Y-56232479D01*
X88275301Y-56343101D01*
X88275307Y-56343109D01*
X88369390Y-56437192D01*
X88369398Y-56437198D01*
X88480020Y-56511113D01*
X88480023Y-56511114D01*
X88480031Y-56511120D01*
X88480037Y-56511122D01*
X88480038Y-56511123D01*
X88570584Y-56548628D01*
X88602964Y-56562040D01*
X88602968Y-56562040D01*
X88602969Y-56562041D01*
X88733466Y-56588000D01*
X88733469Y-56588000D01*
X88866533Y-56588000D01*
X88954325Y-56570535D01*
X88997036Y-56562040D01*
X89119969Y-56511120D01*
X89230606Y-56437195D01*
X89324695Y-56343106D01*
X89398620Y-56232469D01*
X89449540Y-56109536D01*
X89464124Y-56036220D01*
X89475500Y-55979033D01*
X91124499Y-55979033D01*
X91150458Y-56109530D01*
X91150461Y-56109540D01*
X91201376Y-56232461D01*
X91201386Y-56232479D01*
X91275301Y-56343101D01*
X91275307Y-56343109D01*
X91369390Y-56437192D01*
X91369398Y-56437198D01*
X91480020Y-56511113D01*
X91480023Y-56511114D01*
X91480031Y-56511120D01*
X91480037Y-56511122D01*
X91480038Y-56511123D01*
X91570584Y-56548628D01*
X91602964Y-56562040D01*
X91602968Y-56562040D01*
X91602969Y-56562041D01*
X91733466Y-56588000D01*
X91733469Y-56588000D01*
X91866533Y-56588000D01*
X91954325Y-56570535D01*
X91997036Y-56562040D01*
X92119969Y-56511120D01*
X92230606Y-56437195D01*
X92324695Y-56343106D01*
X92398620Y-56232469D01*
X92449540Y-56109536D01*
X92464124Y-56036220D01*
X92475500Y-55979033D01*
X92475500Y-55845966D01*
X92449541Y-55715469D01*
X92449540Y-55715468D01*
X92449540Y-55715464D01*
X92398620Y-55592531D01*
X92377768Y-55561324D01*
X92324698Y-55481898D01*
X92324692Y-55481890D01*
X92230609Y-55387807D01*
X92230601Y-55387801D01*
X92119979Y-55313886D01*
X92119972Y-55313882D01*
X92119969Y-55313880D01*
X92119965Y-55313878D01*
X92119961Y-55313876D01*
X91997040Y-55262961D01*
X91997030Y-55262958D01*
X91866533Y-55237000D01*
X91866531Y-55237000D01*
X91733469Y-55237000D01*
X91733467Y-55237000D01*
X91602969Y-55262958D01*
X91602959Y-55262961D01*
X91480038Y-55313876D01*
X91480020Y-55313886D01*
X91369398Y-55387801D01*
X91369390Y-55387807D01*
X91275307Y-55481890D01*
X91275301Y-55481898D01*
X91201386Y-55592520D01*
X91201376Y-55592538D01*
X91150461Y-55715459D01*
X91150458Y-55715469D01*
X91124500Y-55845966D01*
X91124500Y-55845969D01*
X91124500Y-55979031D01*
X91124500Y-55979033D01*
X91124499Y-55979033D01*
X89475500Y-55979033D01*
X89475500Y-55845966D01*
X89449541Y-55715469D01*
X89449540Y-55715468D01*
X89449540Y-55715464D01*
X89398620Y-55592531D01*
X89377768Y-55561324D01*
X89324698Y-55481898D01*
X89324692Y-55481890D01*
X89230609Y-55387807D01*
X89230601Y-55387801D01*
X89119979Y-55313886D01*
X89119972Y-55313882D01*
X89119969Y-55313880D01*
X89119965Y-55313878D01*
X89119961Y-55313876D01*
X88997040Y-55262961D01*
X88997030Y-55262958D01*
X88866533Y-55237000D01*
X88866531Y-55237000D01*
X88733469Y-55237000D01*
X88733467Y-55237000D01*
X88602969Y-55262958D01*
X88602959Y-55262961D01*
X88480038Y-55313876D01*
X88480020Y-55313886D01*
X88369398Y-55387801D01*
X88369390Y-55387807D01*
X88275307Y-55481890D01*
X88275301Y-55481898D01*
X88201386Y-55592520D01*
X88201376Y-55592538D01*
X88150461Y-55715459D01*
X88150458Y-55715469D01*
X88124500Y-55845966D01*
X88124500Y-55845969D01*
X88124500Y-55979031D01*
X88124500Y-55979033D01*
X88124499Y-55979033D01*
X85844500Y-55979033D01*
X85844500Y-52694500D01*
X85864185Y-52627461D01*
X85916989Y-52581706D01*
X85968500Y-52570500D01*
X102745548Y-52570500D01*
X102812587Y-52590185D01*
G37*
%TD.AperFunction*%
%TD*%
%TA.AperFunction,Conductor*%
%TO.N,GND*%
G36*
X97851000Y-63750000D02*
G01*
X97658658Y-64211940D01*
X97370261Y-64085900D01*
X97159608Y-64019401D01*
X96850000Y-64000000D01*
X96850000Y-63500000D01*
X97159608Y-63480598D01*
X97370261Y-63414098D01*
X97658658Y-63288060D01*
X97851000Y-63750000D01*
G37*
%TD.AperFunction*%
%TD*%
%TA.AperFunction,Conductor*%
%TO.N,GND*%
G36*
X93633883Y-65819671D02*
G01*
X93428675Y-66052315D01*
X93326743Y-66248291D01*
X93211940Y-66541342D01*
X92749293Y-66350707D01*
X92558658Y-65888060D01*
X92851707Y-65773255D01*
X93047684Y-65671323D01*
X93280329Y-65466117D01*
X93633883Y-65819671D01*
G37*
%TD.AperFunction*%
%TD*%
%TA.AperFunction,Conductor*%
%TO.N,TIP_GPIO*%
G36*
X146713154Y-56248863D02*
G01*
X146713234Y-56249051D01*
X146899127Y-56695503D01*
X146899144Y-56704457D01*
X146899127Y-56704497D01*
X146713234Y-57150948D01*
X146706890Y-57157269D01*
X146697936Y-57157252D01*
X146697748Y-57157172D01*
X146420253Y-57035896D01*
X146209610Y-56969401D01*
X146209606Y-56969400D01*
X145910968Y-56950687D01*
X145902926Y-56946750D01*
X145900000Y-56939010D01*
X145900000Y-56460989D01*
X145903427Y-56452716D01*
X145910966Y-56449312D01*
X146209608Y-56430598D01*
X146301704Y-56401524D01*
X146420253Y-56364101D01*
X146420256Y-56364099D01*
X146420261Y-56364098D01*
X146697750Y-56242826D01*
X146706701Y-56242654D01*
X146713154Y-56248863D01*
G37*
%TD.AperFunction*%
%TD*%
%TA.AperFunction,Conductor*%
%TO.N,TIP_GPIO*%
G36*
X143002063Y-56242747D02*
G01*
X143002201Y-56242805D01*
X143279738Y-56364098D01*
X143279745Y-56364101D01*
X143477160Y-56426421D01*
X143490391Y-56430598D01*
X143789033Y-56449312D01*
X143797074Y-56453249D01*
X143800000Y-56460989D01*
X143800000Y-56939010D01*
X143796573Y-56947283D01*
X143789032Y-56950687D01*
X143490392Y-56969400D01*
X143490388Y-56969401D01*
X143279745Y-57035896D01*
X143002251Y-57157172D01*
X142993298Y-57157345D01*
X142986845Y-57151136D01*
X142986765Y-57150948D01*
X142800871Y-56704495D01*
X142800855Y-56695544D01*
X142986765Y-56249050D01*
X142993109Y-56242730D01*
X143002063Y-56242747D01*
G37*
%TD.AperFunction*%
%TD*%
%TA.AperFunction,Conductor*%
%TO.N,+5V*%
G36*
X100548124Y-69903427D02*
G01*
X100551434Y-69910047D01*
X100626052Y-70432803D01*
X100626053Y-70432805D01*
X100626054Y-70432807D01*
X100820986Y-70779216D01*
X100821113Y-70779447D01*
X101079233Y-71263350D01*
X101080103Y-71272263D01*
X101074417Y-71279180D01*
X101073399Y-71279662D01*
X100304489Y-71599134D01*
X100295534Y-71599143D01*
X100295511Y-71599134D01*
X99526600Y-71279662D01*
X99520275Y-71273323D01*
X99520284Y-71264368D01*
X99520766Y-71263350D01*
X99778922Y-70779378D01*
X99778962Y-70779305D01*
X99973947Y-70432803D01*
X100048566Y-69910047D01*
X100053128Y-69902341D01*
X100060149Y-69900000D01*
X100539851Y-69900000D01*
X100548124Y-69903427D01*
G37*
%TD.AperFunction*%
%TD*%
%TA.AperFunction,Conductor*%
%TO.N,+5V*%
G36*
X131189363Y-53710366D02*
G01*
X131439022Y-53891387D01*
X131439023Y-53891388D01*
X131439025Y-53891389D01*
X131670025Y-53945847D01*
X131670568Y-53945989D01*
X131978768Y-54034451D01*
X131985775Y-54040027D01*
X131986786Y-54048925D01*
X131986358Y-54050154D01*
X131802563Y-54496202D01*
X131796242Y-54502546D01*
X131796202Y-54502563D01*
X131350154Y-54686358D01*
X131341200Y-54686341D01*
X131334879Y-54679997D01*
X131334451Y-54678768D01*
X131245989Y-54370568D01*
X131245847Y-54370025D01*
X131191389Y-54139025D01*
X131115565Y-54034451D01*
X131010366Y-53889363D01*
X131008284Y-53880654D01*
X131011563Y-53874224D01*
X131174223Y-53711564D01*
X131182495Y-53708138D01*
X131189363Y-53710366D01*
G37*
%TD.AperFunction*%
%TD*%
%TA.AperFunction,Conductor*%
%TO.N,+5V*%
G36*
X102825777Y-53511565D02*
G01*
X102988434Y-53674222D01*
X102991861Y-53682495D01*
X102989633Y-53689363D01*
X102808610Y-53939022D01*
X102808609Y-53939023D01*
X102754150Y-54170025D01*
X102754008Y-54170568D01*
X102665548Y-54478768D01*
X102659972Y-54485774D01*
X102651074Y-54486786D01*
X102649845Y-54486358D01*
X102203797Y-54302563D01*
X102197453Y-54296242D01*
X102013641Y-53850153D01*
X102013658Y-53841200D01*
X102020002Y-53834879D01*
X102021228Y-53834452D01*
X102329443Y-53745985D01*
X102329958Y-53745850D01*
X102560974Y-53691389D01*
X102810636Y-53510365D01*
X102819345Y-53508284D01*
X102825777Y-53511565D01*
G37*
%TD.AperFunction*%
%TD*%
%TA.AperFunction,Conductor*%
%TO.N,+5V*%
G36*
X101749020Y-54113174D02*
G01*
X102196203Y-54297437D01*
X102202546Y-54303757D01*
X102242907Y-54401708D01*
X102386806Y-54750931D01*
X102386789Y-54759885D01*
X102380445Y-54766206D01*
X102380256Y-54766282D01*
X102098297Y-54876740D01*
X101902317Y-54978673D01*
X101902315Y-54978675D01*
X101677913Y-55176613D01*
X101669441Y-55179516D01*
X101661900Y-55176112D01*
X101323887Y-54838099D01*
X101320460Y-54829826D01*
X101323384Y-54822089D01*
X101521323Y-54597684D01*
X101623255Y-54401707D01*
X101733718Y-54119740D01*
X101739925Y-54113290D01*
X101748878Y-54113117D01*
X101749020Y-54113174D01*
G37*
%TD.AperFunction*%
%TD*%
%TA.AperFunction,Conductor*%
%TO.N,+3.3V*%
G36*
X92347283Y-62003427D02*
G01*
X92350687Y-62010968D01*
X92369400Y-62309606D01*
X92369401Y-62309610D01*
X92435896Y-62520253D01*
X92557172Y-62797748D01*
X92557345Y-62806701D01*
X92551136Y-62813154D01*
X92550948Y-62813234D01*
X92104497Y-62999127D01*
X92095543Y-62999144D01*
X92095503Y-62999127D01*
X91649051Y-62813234D01*
X91642730Y-62806890D01*
X91642747Y-62797936D01*
X91642790Y-62797834D01*
X91764098Y-62520261D01*
X91830598Y-62309608D01*
X91849313Y-62010968D01*
X91853250Y-62002926D01*
X91860990Y-62000000D01*
X92339010Y-62000000D01*
X92347283Y-62003427D01*
G37*
%TD.AperFunction*%
%TD*%
%TA.AperFunction,Conductor*%
%TO.N,+3.3V*%
G36*
X93849020Y-58663174D02*
G01*
X94296203Y-58847437D01*
X94302546Y-58853757D01*
X94342907Y-58951708D01*
X94486806Y-59300931D01*
X94486789Y-59309885D01*
X94480445Y-59316206D01*
X94480256Y-59316282D01*
X94198297Y-59426740D01*
X94002317Y-59528673D01*
X94002315Y-59528675D01*
X93777913Y-59726613D01*
X93769441Y-59729516D01*
X93761900Y-59726112D01*
X93423887Y-59388099D01*
X93420460Y-59379826D01*
X93423384Y-59372089D01*
X93621323Y-59147684D01*
X93723255Y-58951707D01*
X93833718Y-58669740D01*
X93839925Y-58663290D01*
X93848878Y-58663117D01*
X93849020Y-58663174D01*
G37*
%TD.AperFunction*%
%TD*%
%TA.AperFunction,Conductor*%
%TO.N,GND*%
G36*
X138476743Y-56801707D02*
G01*
X138578675Y-56997684D01*
X138783883Y-57230329D01*
X138430329Y-57583883D01*
X138197684Y-57378675D01*
X138001707Y-57276743D01*
X137708658Y-57161940D01*
X137899293Y-56699293D01*
X138361940Y-56508658D01*
X138476743Y-56801707D01*
G37*
%TD.AperFunction*%
%TD*%
%TA.AperFunction,Conductor*%
%TO.N,GND*%
G36*
X142760113Y-61222017D02*
G01*
X142907962Y-61452048D01*
X143061940Y-61808658D01*
X142600707Y-62000707D01*
X142100000Y-62000000D01*
X142166033Y-61715350D01*
X142241040Y-61509536D01*
X142140381Y-61293934D01*
X142493934Y-60940381D01*
X142760113Y-61222017D01*
G37*
%TD.AperFunction*%
%TD*%
%TA.AperFunction,Conductor*%
%TO.N,Net-(U3-D+)*%
G36*
X143430832Y-69452112D02*
G01*
X143623811Y-69598958D01*
X143801989Y-69652205D01*
X144040870Y-69726645D01*
X144047749Y-69732378D01*
X144048559Y-69741296D01*
X144048209Y-69742267D01*
X143902563Y-70096195D01*
X143896245Y-70102542D01*
X143896195Y-70102563D01*
X143542267Y-70248209D01*
X143533313Y-70248188D01*
X143526995Y-70241841D01*
X143526645Y-70240870D01*
X143483539Y-70102542D01*
X143452205Y-70001989D01*
X143398958Y-69823811D01*
X143252112Y-69630832D01*
X143249830Y-69622176D01*
X143253150Y-69615478D01*
X143415478Y-69453150D01*
X143423750Y-69449724D01*
X143430832Y-69452112D01*
G37*
%TD.AperFunction*%
%TD*%
%TA.AperFunction,Conductor*%
%TO.N,Net-(U3-D+)*%
G36*
X132166686Y-59801811D02*
G01*
X132173004Y-59808158D01*
X132173354Y-59809129D01*
X132247772Y-60047942D01*
X132247812Y-60048073D01*
X132301040Y-60226187D01*
X132352030Y-60293196D01*
X132447885Y-60419165D01*
X132450168Y-60427824D01*
X132446847Y-60434523D01*
X132284523Y-60596847D01*
X132276250Y-60600274D01*
X132269165Y-60597885D01*
X132143196Y-60502030D01*
X132076187Y-60451040D01*
X132076185Y-60451039D01*
X131898073Y-60397812D01*
X131897942Y-60397772D01*
X131659129Y-60323354D01*
X131652250Y-60317621D01*
X131651440Y-60308703D01*
X131651782Y-60307752D01*
X131797437Y-59953802D01*
X131803753Y-59947457D01*
X132157734Y-59801790D01*
X132166686Y-59801811D01*
G37*
%TD.AperFunction*%
%TD*%
%TA.AperFunction,Conductor*%
%TO.N,Net-(U3-D-)*%
G36*
X142766686Y-69951811D02*
G01*
X142773004Y-69958158D01*
X142773354Y-69959129D01*
X142847772Y-70197942D01*
X142847812Y-70198073D01*
X142901040Y-70376187D01*
X142952030Y-70443196D01*
X143047885Y-70569165D01*
X143050168Y-70577824D01*
X143046847Y-70584523D01*
X142884523Y-70746847D01*
X142876250Y-70750274D01*
X142869165Y-70747885D01*
X142743196Y-70652030D01*
X142676187Y-70601040D01*
X142676185Y-70601039D01*
X142498073Y-70547812D01*
X142497942Y-70547772D01*
X142259129Y-70473354D01*
X142252250Y-70467621D01*
X142251440Y-70458703D01*
X142251782Y-70457752D01*
X142397437Y-70103802D01*
X142403753Y-70097457D01*
X142757734Y-69951790D01*
X142766686Y-69951811D01*
G37*
%TD.AperFunction*%
%TD*%
%TA.AperFunction,Conductor*%
%TO.N,Net-(U3-D-)*%
G36*
X133263455Y-59835948D02*
G01*
X133264380Y-59836382D01*
X133485940Y-59952664D01*
X133649583Y-60041004D01*
X133889874Y-60073625D01*
X133897611Y-60078134D01*
X133900000Y-60085219D01*
X133900000Y-60314780D01*
X133896573Y-60323053D01*
X133889874Y-60326374D01*
X133649584Y-60358994D01*
X133649583Y-60358995D01*
X133485972Y-60447316D01*
X133485851Y-60447380D01*
X133264390Y-60563612D01*
X133255472Y-60564422D01*
X133248593Y-60558689D01*
X133248154Y-60557754D01*
X133202118Y-60447334D01*
X133100875Y-60204499D01*
X133100855Y-60195550D01*
X133248155Y-59842243D01*
X133254501Y-59835927D01*
X133263455Y-59835948D01*
G37*
%TD.AperFunction*%
%TD*%
M02*
