%TF.GenerationSoftware,KiCad,Pcbnew,8.0.5-8.0.5-0~ubuntu22.04.1*%
%TF.CreationDate,2024-09-17T12:21:12-05:00*%
%TF.ProjectId,cheating-calc,63686561-7469-46e6-972d-63616c632e6b,rev?*%
%TF.SameCoordinates,Original*%
%TF.FileFunction,Legend,Bot*%
%TF.FilePolarity,Positive*%
%FSLAX46Y46*%
G04 Gerber Fmt 4.6, Leading zero omitted, Abs format (unit mm)*
G04 Created by KiCad (PCBNEW 8.0.5-8.0.5-0~ubuntu22.04.1) date 2024-09-17 12:21:12*
%MOMM*%
%LPD*%
G01*
G04 APERTURE LIST*
%ADD10C,0.200000*%
%ADD11R,1.700000X1.700000*%
%ADD12O,1.700000X1.700000*%
%ADD13C,0.850000*%
%ADD14C,0.600000*%
%ADD15O,1.200000X2.300000*%
%ADD16O,1.100000X2.100000*%
G04 APERTURE END LIST*
D10*
G36*
X155388806Y-58143001D02*
G01*
X155388806Y-56654878D01*
X155893705Y-56654878D01*
X155893705Y-56419867D01*
X154618171Y-56419867D01*
X154618171Y-56654878D01*
X155135942Y-56654878D01*
X155135942Y-58143001D01*
X155388806Y-58143001D01*
G37*
G36*
X153249630Y-58143001D02*
G01*
X154312575Y-58143001D01*
X154312575Y-57907990D01*
X153901099Y-57907990D01*
X153901099Y-56650726D01*
X154312575Y-56650726D01*
X154312575Y-56415715D01*
X153249630Y-56415715D01*
X153249630Y-56650726D01*
X153648234Y-56650726D01*
X153648234Y-57907990D01*
X153249630Y-57907990D01*
X153249630Y-58143001D01*
G37*
G36*
X151801367Y-57270223D02*
G01*
X151801367Y-57505234D01*
X152811165Y-57505234D01*
X152811165Y-57270223D01*
X151801367Y-57270223D01*
G37*
G36*
X150273384Y-57650558D02*
G01*
X150279831Y-57742173D01*
X150299173Y-57827056D01*
X150331408Y-57905208D01*
X150339403Y-57920031D01*
X150390933Y-57994545D01*
X150455317Y-58057087D01*
X150525003Y-58103555D01*
X150604339Y-58138370D01*
X150692353Y-58160290D01*
X150778985Y-58168994D01*
X150809424Y-58169574D01*
X150899136Y-58166720D01*
X150991190Y-58156684D01*
X151073851Y-58139423D01*
X151123740Y-58123901D01*
X151204123Y-58090408D01*
X151278131Y-58051805D01*
X151353716Y-58005189D01*
X151387815Y-57981898D01*
X151254117Y-57782181D01*
X151185276Y-57829184D01*
X151109248Y-57872329D01*
X151067686Y-57892212D01*
X150985644Y-57919633D01*
X150902615Y-57932537D01*
X150850945Y-57934564D01*
X150765693Y-57927863D01*
X150679248Y-57901476D01*
X150607215Y-57849860D01*
X150557876Y-57782226D01*
X150530123Y-57700390D01*
X150526249Y-57652634D01*
X150539737Y-57567503D01*
X150580200Y-57493348D01*
X150622163Y-57450010D01*
X150696797Y-57403440D01*
X150780229Y-57377879D01*
X150868006Y-57368533D01*
X150889145Y-57368213D01*
X151030732Y-57368213D01*
X151030732Y-57133203D01*
X150885408Y-57133203D01*
X150799783Y-57126831D01*
X150713776Y-57101738D01*
X150643339Y-57052652D01*
X150593067Y-56979460D01*
X150569409Y-56898153D01*
X150565694Y-56844630D01*
X150577080Y-56762223D01*
X150619144Y-56687631D01*
X150646660Y-56662767D01*
X150723705Y-56621043D01*
X150806348Y-56603221D01*
X150840980Y-56601730D01*
X150927240Y-56612422D01*
X151010938Y-56641866D01*
X151016615Y-56644497D01*
X151089195Y-56685898D01*
X151159171Y-56741278D01*
X151190589Y-56771552D01*
X151364563Y-56603391D01*
X151290739Y-56535210D01*
X151212516Y-56478584D01*
X151129893Y-56433515D01*
X151042871Y-56400002D01*
X150951449Y-56378045D01*
X150855628Y-56367644D01*
X150816067Y-56366720D01*
X150728581Y-56372275D01*
X150639464Y-56391218D01*
X150557805Y-56423604D01*
X150485517Y-56468305D01*
X150419527Y-56529828D01*
X150378848Y-56584707D01*
X150341261Y-56660674D01*
X150319276Y-56745277D01*
X150312829Y-56829682D01*
X150319698Y-56917394D01*
X150340305Y-57000690D01*
X150370959Y-57072582D01*
X150419052Y-57148897D01*
X150476138Y-57209680D01*
X150519190Y-57241573D01*
X150447569Y-57287027D01*
X150385472Y-57349786D01*
X150351029Y-57395617D01*
X150310083Y-57468685D01*
X150284303Y-57547754D01*
X150273687Y-57632824D01*
X150273384Y-57650558D01*
G37*
G36*
X149894710Y-56623737D02*
G01*
X149823701Y-56564884D01*
X149749408Y-56513979D01*
X149671831Y-56471023D01*
X149627313Y-56450593D01*
X149543769Y-56420887D01*
X149455692Y-56400904D01*
X149363083Y-56390642D01*
X149309675Y-56389141D01*
X149218701Y-56395751D01*
X149134702Y-56415579D01*
X149057676Y-56448626D01*
X149043108Y-56456821D01*
X148969786Y-56508846D01*
X148908532Y-56571861D01*
X148863321Y-56638684D01*
X148826443Y-56720473D01*
X148804874Y-56808836D01*
X148798548Y-56894871D01*
X148803252Y-56986128D01*
X148817362Y-57068384D01*
X148843749Y-57148469D01*
X148846713Y-57155209D01*
X148886340Y-57232049D01*
X148932973Y-57301883D01*
X148967955Y-57344546D01*
X149027130Y-57410595D01*
X149086579Y-57475822D01*
X149114110Y-57505649D01*
X149492369Y-57907990D01*
X148745401Y-57907990D01*
X148745401Y-58143001D01*
X149861493Y-58143001D01*
X149861493Y-57915879D01*
X149437145Y-57485303D01*
X149376244Y-57424460D01*
X149315147Y-57364108D01*
X149259434Y-57309668D01*
X149201593Y-57248830D01*
X149146552Y-57179775D01*
X149110788Y-57126144D01*
X149074606Y-57050880D01*
X149054254Y-56963942D01*
X149051413Y-56914801D01*
X149062507Y-56829008D01*
X149099564Y-56747662D01*
X149130303Y-56708855D01*
X149197801Y-56657239D01*
X149282582Y-56629446D01*
X149348705Y-56624152D01*
X149434674Y-56632497D01*
X149516209Y-56655189D01*
X149548007Y-56667749D01*
X149624011Y-56705858D01*
X149699430Y-56755411D01*
X149749385Y-56794804D01*
X149894710Y-56623737D01*
G37*
G36*
X155183691Y-61025574D02*
G01*
X155267957Y-61021808D01*
X155360436Y-61007894D01*
X155446638Y-60983728D01*
X155526560Y-60949310D01*
X155579804Y-60918449D01*
X155648388Y-60866950D01*
X155709540Y-60806549D01*
X155763262Y-60737248D01*
X155809553Y-60659045D01*
X155832669Y-60610361D01*
X155862442Y-60532285D01*
X155886056Y-60448779D01*
X155903510Y-60359842D01*
X155914803Y-60265475D01*
X155919936Y-60165678D01*
X155920279Y-60131206D01*
X155917444Y-60027688D01*
X155908938Y-59929931D01*
X155894763Y-59837936D01*
X155874917Y-59751701D01*
X155849401Y-59671228D01*
X155809532Y-59578737D01*
X155760803Y-59495249D01*
X155738831Y-59464374D01*
X155678491Y-59394757D01*
X155611136Y-59336939D01*
X155536767Y-59290921D01*
X155455383Y-59256703D01*
X155366984Y-59234283D01*
X155271570Y-59223664D01*
X155231441Y-59222720D01*
X155137422Y-59227230D01*
X155051193Y-59240761D01*
X154962181Y-59267269D01*
X154883343Y-59305560D01*
X154865223Y-59316973D01*
X154796816Y-59371418D01*
X154734431Y-59440499D01*
X154684782Y-59512951D01*
X154639743Y-59596609D01*
X154627721Y-59622570D01*
X154844047Y-59730940D01*
X154885463Y-59657107D01*
X154934948Y-59589246D01*
X154999147Y-59527509D01*
X155004734Y-59523334D01*
X155078597Y-59483357D01*
X155165655Y-59461831D01*
X155231025Y-59457730D01*
X155316330Y-59466194D01*
X155403408Y-59496596D01*
X155479379Y-59549107D01*
X155536742Y-59613192D01*
X155551570Y-59634611D01*
X155596708Y-59718851D01*
X155626574Y-59801968D01*
X155648295Y-59895158D01*
X155660174Y-59980509D01*
X155666396Y-60072856D01*
X155667414Y-60131621D01*
X155664302Y-60225691D01*
X155654966Y-60313009D01*
X155635546Y-60408879D01*
X155607164Y-60495028D01*
X155569820Y-60571455D01*
X155539944Y-60617005D01*
X155479384Y-60684632D01*
X155409606Y-60735649D01*
X155330608Y-60770055D01*
X155242392Y-60787852D01*
X155187843Y-60790564D01*
X155104391Y-60786099D01*
X155020291Y-60771044D01*
X154961967Y-60752779D01*
X154885283Y-60716033D01*
X154812116Y-60667576D01*
X154750209Y-60617420D01*
X154598656Y-60815061D01*
X154667841Y-60868883D01*
X154744805Y-60919134D01*
X154820850Y-60958482D01*
X154871036Y-60978655D01*
X154958839Y-61003398D01*
X155045558Y-61017831D01*
X155128763Y-61024429D01*
X155183691Y-61025574D01*
G37*
G36*
X154472016Y-59165421D02*
G01*
X154006563Y-59165421D01*
X154006563Y-59828100D01*
X153934942Y-59783179D01*
X153857275Y-59743416D01*
X153806845Y-59720975D01*
X153724446Y-59692135D01*
X153642243Y-59675266D01*
X153567683Y-59670319D01*
X153483292Y-59678426D01*
X153401517Y-59705102D01*
X153386235Y-59712671D01*
X153317627Y-59764419D01*
X153266764Y-59834447D01*
X153257519Y-59852183D01*
X153228168Y-59934083D01*
X153214058Y-60016607D01*
X153209401Y-60101972D01*
X153209354Y-60112106D01*
X153209354Y-60999001D01*
X153462219Y-60999001D01*
X153462219Y-60179786D01*
X153468408Y-60090606D01*
X153493552Y-60010333D01*
X153506231Y-59991279D01*
X153578893Y-59943821D01*
X153639930Y-59936056D01*
X153726088Y-59945899D01*
X153808921Y-59970934D01*
X153885608Y-60006399D01*
X153960774Y-60051786D01*
X154006563Y-60083871D01*
X154006563Y-60999001D01*
X154259427Y-60999001D01*
X154259427Y-59371366D01*
X154472016Y-59331921D01*
X154472016Y-59165421D01*
G37*
G36*
X152890886Y-60763990D02*
G01*
X152625150Y-60763990D01*
X152625150Y-59831422D01*
X152841060Y-59795298D01*
X152841060Y-59639594D01*
X152403841Y-59639594D01*
X152382665Y-59792392D01*
X152315464Y-59741358D01*
X152242673Y-59694966D01*
X152212013Y-59677378D01*
X152134550Y-59643220D01*
X152052882Y-59624828D01*
X151996102Y-59621324D01*
X151911324Y-59628588D01*
X151831070Y-59650379D01*
X151795554Y-59665337D01*
X151721234Y-59713305D01*
X151662492Y-59780189D01*
X151648569Y-59802772D01*
X151833754Y-59958477D01*
X151895257Y-59901385D01*
X151935896Y-59879587D01*
X152018665Y-59858174D01*
X152052571Y-59856335D01*
X152134772Y-59871686D01*
X152208276Y-59910728D01*
X152278293Y-59963646D01*
X152345728Y-60022321D01*
X152372285Y-60047333D01*
X152372285Y-60051070D01*
X152372285Y-60763990D01*
X151854515Y-60763990D01*
X151854515Y-60999001D01*
X152890886Y-60999001D01*
X152890886Y-60763990D01*
G37*
G36*
X150899650Y-59621424D02*
G01*
X150985988Y-59636696D01*
X151065060Y-59663075D01*
X151145331Y-59706028D01*
X151193444Y-59741757D01*
X151256855Y-59804383D01*
X151309755Y-59877848D01*
X151347955Y-59952249D01*
X151356201Y-59972083D01*
X151383864Y-60055736D01*
X151403016Y-60146291D01*
X151412791Y-60231190D01*
X151416050Y-60321373D01*
X151415784Y-60347384D01*
X151410663Y-60435280D01*
X151399026Y-60518288D01*
X151377746Y-60607169D01*
X151347955Y-60689667D01*
X151325053Y-60737410D01*
X151275656Y-60814816D01*
X151215748Y-60881252D01*
X151145331Y-60936719D01*
X151083693Y-60971341D01*
X150996270Y-61003360D01*
X150910840Y-61020021D01*
X150818143Y-61025574D01*
X150735887Y-61021322D01*
X150649082Y-61006050D01*
X150569958Y-60979671D01*
X150490125Y-60936719D01*
X150442295Y-60900960D01*
X150379198Y-60838181D01*
X150326479Y-60764431D01*
X150288332Y-60689667D01*
X150280086Y-60669641D01*
X150252422Y-60585547D01*
X150233271Y-60495070D01*
X150223495Y-60410665D01*
X150220237Y-60321373D01*
X150220250Y-60320128D01*
X150473101Y-60320128D01*
X150475860Y-60394067D01*
X150486726Y-60478460D01*
X150507979Y-60563027D01*
X150519842Y-60595358D01*
X150559698Y-60668697D01*
X150617180Y-60730358D01*
X150652200Y-60753817D01*
X150730520Y-60782097D01*
X150818143Y-60790564D01*
X150855873Y-60789094D01*
X150942775Y-60771514D01*
X151018276Y-60730358D01*
X151040778Y-60710398D01*
X151093322Y-60642323D01*
X151128307Y-60563027D01*
X151146700Y-60493098D01*
X151159064Y-60409900D01*
X151163185Y-60320128D01*
X151160426Y-60245382D01*
X151149561Y-60160984D01*
X151128307Y-60077643D01*
X151118958Y-60052082D01*
X151076326Y-59973652D01*
X151018276Y-59912388D01*
X150982870Y-59888929D01*
X150904676Y-59860649D01*
X150818143Y-59852183D01*
X150779846Y-59853653D01*
X150692227Y-59871232D01*
X150617180Y-59912388D01*
X150594917Y-59932298D01*
X150542828Y-59999692D01*
X150507979Y-60077643D01*
X150489587Y-60146461D01*
X150477223Y-60229468D01*
X150473101Y-60320128D01*
X150220250Y-60320128D01*
X150220503Y-60295067D01*
X150225623Y-60206394D01*
X150237260Y-60123005D01*
X150258540Y-60034176D01*
X150288332Y-59952249D01*
X150311213Y-59904745D01*
X150360472Y-59827667D01*
X150420109Y-59761428D01*
X150490125Y-59706028D01*
X150551377Y-59671405D01*
X150638771Y-59639386D01*
X150724617Y-59622726D01*
X150818143Y-59617172D01*
X150899650Y-59621424D01*
G37*
G36*
X149994361Y-59643746D02*
G01*
X149762672Y-59643746D01*
X149747725Y-59754608D01*
X149681962Y-59697289D01*
X149624822Y-59660770D01*
X149548319Y-59628072D01*
X149471608Y-59617172D01*
X149388669Y-59628591D01*
X149320886Y-59662846D01*
X149261004Y-59722857D01*
X149240334Y-59761666D01*
X149177624Y-59704576D01*
X149115771Y-59663261D01*
X149037918Y-59628694D01*
X148958820Y-59617172D01*
X148871548Y-59628149D01*
X148792289Y-59664816D01*
X148756196Y-59695232D01*
X148705924Y-59768044D01*
X148682267Y-59851920D01*
X148678551Y-59908236D01*
X148678551Y-60006413D01*
X148678551Y-60105378D01*
X148678551Y-60188451D01*
X148678551Y-60272071D01*
X148678551Y-60356239D01*
X148678551Y-60440954D01*
X148678551Y-60526288D01*
X148678551Y-60612311D01*
X148678551Y-60699023D01*
X148678551Y-60786425D01*
X148678551Y-60874515D01*
X148678551Y-60963295D01*
X148678551Y-60999001D01*
X148931416Y-60999001D01*
X148931416Y-60906849D01*
X148931416Y-60815580D01*
X148931416Y-60725194D01*
X148931416Y-60635689D01*
X148931416Y-60547041D01*
X148931416Y-60459639D01*
X148931416Y-60373482D01*
X148931416Y-60288571D01*
X148931416Y-60196473D01*
X148931416Y-60109827D01*
X148931416Y-60019948D01*
X148931416Y-59985881D01*
X148941621Y-59900690D01*
X148953007Y-59871698D01*
X149027381Y-59829925D01*
X149034804Y-59829761D01*
X149115368Y-59857736D01*
X149126981Y-59866300D01*
X149188515Y-59922946D01*
X149210024Y-59947682D01*
X149210024Y-60999001D01*
X149462889Y-60999001D01*
X149462889Y-59976331D01*
X149474811Y-59892884D01*
X149534718Y-59833340D01*
X149563785Y-59829761D01*
X149646881Y-59857679D01*
X149713620Y-59920213D01*
X149741496Y-59956816D01*
X149741496Y-60046687D01*
X149741496Y-60138485D01*
X149741496Y-60232209D01*
X149741496Y-60327861D01*
X149741496Y-60425439D01*
X149741496Y-60458393D01*
X149741496Y-60557986D01*
X149741496Y-60641604D01*
X149741496Y-60725790D01*
X149741496Y-60810544D01*
X149741496Y-60895866D01*
X149741496Y-60981755D01*
X149741496Y-60999001D01*
X149994361Y-60999001D01*
X149994361Y-60901902D01*
X149994361Y-60803161D01*
X149994361Y-60702778D01*
X149994361Y-60600753D01*
X149994361Y-60497086D01*
X149994361Y-60412969D01*
X149994361Y-60349192D01*
X149994361Y-60263328D01*
X149994361Y-60176801D01*
X149994361Y-60089613D01*
X149994361Y-60001763D01*
X149994361Y-59913251D01*
X149994361Y-59824078D01*
X149994361Y-59734243D01*
X149994361Y-59643746D01*
G37*
G36*
X147892619Y-59617205D02*
G01*
X147981941Y-59621843D01*
X148066038Y-59632872D01*
X148152892Y-59650389D01*
X148188036Y-59659238D01*
X148275498Y-59686130D01*
X148353729Y-59716157D01*
X148431500Y-59751701D01*
X148303614Y-59946021D01*
X148254576Y-59926626D01*
X148173930Y-59898648D01*
X148091441Y-59875850D01*
X148004818Y-59858862D01*
X147921203Y-59852183D01*
X147913589Y-59852210D01*
X147826856Y-59857507D01*
X147744323Y-59880002D01*
X147722334Y-59893342D01*
X147673321Y-59963044D01*
X147661684Y-60017291D01*
X147656297Y-60103386D01*
X147656297Y-60122071D01*
X147660847Y-60122071D01*
X147748480Y-60122071D01*
X147835254Y-60122071D01*
X147882099Y-60123203D01*
X147969939Y-60131316D01*
X148051995Y-60145738D01*
X148092702Y-60155621D01*
X148177095Y-60183943D01*
X148256280Y-60221722D01*
X148290355Y-60242698D01*
X148355471Y-60297462D01*
X148408663Y-60364970D01*
X148436562Y-60419630D01*
X148459558Y-60504158D01*
X148466378Y-60593338D01*
X148460827Y-60672579D01*
X148438967Y-60758190D01*
X148396207Y-60837483D01*
X148358941Y-60882170D01*
X148294869Y-60937718D01*
X148220987Y-60979485D01*
X148181540Y-60995148D01*
X148096773Y-61017968D01*
X148012965Y-61025574D01*
X148002879Y-61025530D01*
X147917580Y-61021195D01*
X147834359Y-61008057D01*
X147750551Y-60980731D01*
X147744348Y-60977923D01*
X147668234Y-60937505D01*
X147602735Y-60885647D01*
X147568482Y-60934320D01*
X147498517Y-60984053D01*
X147443963Y-61003759D01*
X147358481Y-61017773D01*
X147270565Y-61021422D01*
X147270565Y-60786412D01*
X147300071Y-60785361D01*
X147379351Y-60756516D01*
X147384995Y-60748478D01*
X147403433Y-60666415D01*
X147403433Y-60336736D01*
X147656297Y-60336736D01*
X147656297Y-60595414D01*
X147658671Y-60599815D01*
X147707018Y-60667482D01*
X147770066Y-60726206D01*
X147818295Y-60755309D01*
X147898950Y-60779297D01*
X147989298Y-60786412D01*
X148076908Y-60773125D01*
X148154553Y-60733264D01*
X148209050Y-60669425D01*
X148227215Y-60585033D01*
X148216963Y-60509578D01*
X148173653Y-60436387D01*
X148111371Y-60390195D01*
X148032480Y-60358742D01*
X148015915Y-60354439D01*
X147928927Y-60339269D01*
X147841482Y-60334660D01*
X147828595Y-60334668D01*
X147743285Y-60335179D01*
X147656297Y-60336736D01*
X147403433Y-60336736D01*
X147403433Y-59994601D01*
X147405170Y-59947733D01*
X147419067Y-59865210D01*
X147452843Y-59787825D01*
X147509001Y-59720975D01*
X147579483Y-59674887D01*
X147652889Y-59646884D01*
X147738510Y-59628383D01*
X147797405Y-59621551D01*
X147884665Y-59617172D01*
X147892619Y-59617205D01*
G37*
G36*
X145848876Y-60763990D02*
G01*
X145848876Y-60999001D01*
X146911821Y-60999001D01*
X146911821Y-59271715D01*
X146658956Y-59271715D01*
X146658956Y-60763990D01*
X145848876Y-60763990D01*
G37*
G36*
X145000306Y-59621424D02*
G01*
X145086644Y-59636696D01*
X145165716Y-59663075D01*
X145245987Y-59706028D01*
X145294100Y-59741757D01*
X145357511Y-59804383D01*
X145410411Y-59877848D01*
X145448611Y-59952249D01*
X145456857Y-59972083D01*
X145484520Y-60055736D01*
X145503672Y-60146291D01*
X145513447Y-60231190D01*
X145516706Y-60321373D01*
X145516440Y-60347384D01*
X145511319Y-60435280D01*
X145499682Y-60518288D01*
X145478402Y-60607169D01*
X145448611Y-60689667D01*
X145425709Y-60737410D01*
X145376312Y-60814816D01*
X145316404Y-60881252D01*
X145245987Y-60936719D01*
X145184349Y-60971341D01*
X145096926Y-61003360D01*
X145011495Y-61020021D01*
X144918799Y-61025574D01*
X144836543Y-61021322D01*
X144749738Y-61006050D01*
X144670614Y-60979671D01*
X144590781Y-60936719D01*
X144542951Y-60900960D01*
X144479854Y-60838181D01*
X144427135Y-60764431D01*
X144388988Y-60689667D01*
X144380742Y-60669641D01*
X144353078Y-60585547D01*
X144333927Y-60495070D01*
X144324151Y-60410665D01*
X144320893Y-60321373D01*
X144320906Y-60320128D01*
X144573757Y-60320128D01*
X144576516Y-60394067D01*
X144587382Y-60478460D01*
X144608635Y-60563027D01*
X144620498Y-60595358D01*
X144660354Y-60668697D01*
X144717836Y-60730358D01*
X144752856Y-60753817D01*
X144831176Y-60782097D01*
X144918799Y-60790564D01*
X144956529Y-60789094D01*
X145043431Y-60771514D01*
X145118932Y-60730358D01*
X145141434Y-60710398D01*
X145193978Y-60642323D01*
X145228963Y-60563027D01*
X145247356Y-60493098D01*
X145259720Y-60409900D01*
X145263841Y-60320128D01*
X145261082Y-60245382D01*
X145250217Y-60160984D01*
X145228963Y-60077643D01*
X145219614Y-60052082D01*
X145176982Y-59973652D01*
X145118932Y-59912388D01*
X145083526Y-59888929D01*
X145005332Y-59860649D01*
X144918799Y-59852183D01*
X144880502Y-59853653D01*
X144792883Y-59871232D01*
X144717836Y-59912388D01*
X144695573Y-59932298D01*
X144643484Y-59999692D01*
X144608635Y-60077643D01*
X144590243Y-60146461D01*
X144577879Y-60229468D01*
X144573757Y-60320128D01*
X144320906Y-60320128D01*
X144321159Y-60295067D01*
X144326279Y-60206394D01*
X144337916Y-60123005D01*
X144359196Y-60034176D01*
X144388988Y-59952249D01*
X144411869Y-59904745D01*
X144461128Y-59827667D01*
X144520765Y-59761428D01*
X144590781Y-59706028D01*
X144652033Y-59671405D01*
X144739427Y-59639386D01*
X144825273Y-59622726D01*
X144918799Y-59617172D01*
X145000306Y-59621424D01*
G37*
G36*
X143383342Y-61025574D02*
G01*
X143476376Y-61021114D01*
X143562922Y-61007733D01*
X143642980Y-60985431D01*
X143730486Y-60946895D01*
X143808650Y-60895512D01*
X143866650Y-60842880D01*
X143926197Y-60768887D01*
X143973424Y-60684237D01*
X144003369Y-60605555D01*
X144024758Y-60519473D01*
X144037592Y-60425992D01*
X144041870Y-60325110D01*
X144037744Y-60224835D01*
X144025367Y-60131614D01*
X144004738Y-60045450D01*
X143975857Y-59966340D01*
X143930309Y-59880722D01*
X143872878Y-59805264D01*
X143804723Y-59741342D01*
X143727314Y-59690645D01*
X143640649Y-59653174D01*
X143544730Y-59628928D01*
X143457728Y-59618825D01*
X143402442Y-59617172D01*
X143314617Y-59623610D01*
X143231916Y-59642922D01*
X143154338Y-59675109D01*
X143113454Y-59698554D01*
X143045784Y-59750210D01*
X142987114Y-59813625D01*
X142937443Y-59888797D01*
X142913736Y-59935640D01*
X143118021Y-60029479D01*
X143164082Y-59959053D01*
X143228985Y-59900949D01*
X143238018Y-59895365D01*
X143315662Y-59862978D01*
X143402442Y-59852183D01*
X143488417Y-59859942D01*
X143573289Y-59887221D01*
X143645616Y-59934140D01*
X143686863Y-59976331D01*
X143736238Y-60053945D01*
X143766562Y-60136391D01*
X143782621Y-60218919D01*
X143788905Y-60311144D01*
X143789005Y-60325110D01*
X143783939Y-60416577D01*
X143768739Y-60498784D01*
X143738961Y-60581399D01*
X143689640Y-60659885D01*
X143683126Y-60667661D01*
X143616606Y-60727072D01*
X143536160Y-60767039D01*
X143452962Y-60786243D01*
X143383342Y-60790564D01*
X143298311Y-60784054D01*
X143214250Y-60762482D01*
X143186116Y-60751118D01*
X143108333Y-60710007D01*
X143035395Y-60660020D01*
X143007159Y-60637765D01*
X142873461Y-60827518D01*
X142941728Y-60883482D01*
X143014698Y-60930445D01*
X143092372Y-60968406D01*
X143108471Y-60974918D01*
X143190979Y-61001631D01*
X143276568Y-61018451D01*
X143365238Y-61025376D01*
X143383342Y-61025574D01*
G37*
G36*
X141606231Y-60999001D02*
G01*
X142095352Y-60404416D01*
X142234448Y-60553892D01*
X142234448Y-60999001D01*
X142487313Y-60999001D01*
X142487313Y-59165421D01*
X142234448Y-59165421D01*
X142234448Y-60198470D01*
X141715847Y-59643746D01*
X141424368Y-59643746D01*
X141424368Y-59686513D01*
X141931343Y-60227535D01*
X141318073Y-60956649D01*
X141318073Y-60999001D01*
X141606231Y-60999001D01*
G37*
G36*
X155867131Y-62127715D02*
G01*
X155564026Y-62127715D01*
X154883907Y-63382073D01*
X154883907Y-62127715D01*
X154631043Y-62127715D01*
X154631043Y-63855001D01*
X154924598Y-63855001D01*
X155614267Y-62595245D01*
X155614267Y-63855001D01*
X155867131Y-63855001D01*
X155867131Y-62127715D01*
G37*
G36*
X153791963Y-62473205D02*
G01*
X153881285Y-62477843D01*
X153965382Y-62488872D01*
X154052236Y-62506389D01*
X154087380Y-62515238D01*
X154174842Y-62542130D01*
X154253073Y-62572157D01*
X154330844Y-62607701D01*
X154202958Y-62802021D01*
X154153920Y-62782626D01*
X154073274Y-62754648D01*
X153990785Y-62731850D01*
X153904162Y-62714862D01*
X153820547Y-62708183D01*
X153812933Y-62708210D01*
X153726200Y-62713507D01*
X153643667Y-62736002D01*
X153621678Y-62749342D01*
X153572665Y-62819044D01*
X153561028Y-62873291D01*
X153555642Y-62959386D01*
X153555642Y-62978071D01*
X153560191Y-62978071D01*
X153647824Y-62978071D01*
X153734598Y-62978071D01*
X153781443Y-62979203D01*
X153869283Y-62987316D01*
X153951339Y-63001738D01*
X153992046Y-63011621D01*
X154076439Y-63039943D01*
X154155624Y-63077722D01*
X154189699Y-63098698D01*
X154254815Y-63153462D01*
X154308007Y-63220970D01*
X154335906Y-63275630D01*
X154358902Y-63360158D01*
X154365722Y-63449338D01*
X154360171Y-63528579D01*
X154338311Y-63614190D01*
X154295551Y-63693483D01*
X154258285Y-63738170D01*
X154194213Y-63793718D01*
X154120331Y-63835485D01*
X154080884Y-63851148D01*
X153996117Y-63873968D01*
X153912309Y-63881574D01*
X153902223Y-63881530D01*
X153816924Y-63877195D01*
X153733703Y-63864057D01*
X153649895Y-63836731D01*
X153643692Y-63833923D01*
X153567578Y-63793505D01*
X153502079Y-63741647D01*
X153467826Y-63790320D01*
X153397861Y-63840053D01*
X153343307Y-63859759D01*
X153257825Y-63873773D01*
X153169909Y-63877422D01*
X153169909Y-63642412D01*
X153199415Y-63641361D01*
X153278695Y-63612516D01*
X153284339Y-63604478D01*
X153302777Y-63522415D01*
X153302777Y-63192736D01*
X153555642Y-63192736D01*
X153555642Y-63451414D01*
X153558015Y-63455815D01*
X153606362Y-63523482D01*
X153669410Y-63582206D01*
X153717639Y-63611309D01*
X153798294Y-63635297D01*
X153888642Y-63642412D01*
X153976252Y-63629125D01*
X154053897Y-63589264D01*
X154108394Y-63525425D01*
X154126559Y-63441033D01*
X154116307Y-63365578D01*
X154072997Y-63292387D01*
X154010715Y-63246195D01*
X153931824Y-63214742D01*
X153915259Y-63210439D01*
X153828271Y-63195269D01*
X153740826Y-63190660D01*
X153727939Y-63190668D01*
X153642629Y-63191179D01*
X153555642Y-63192736D01*
X153302777Y-63192736D01*
X153302777Y-62850601D01*
X153304514Y-62803733D01*
X153318411Y-62721210D01*
X153352187Y-62643825D01*
X153408345Y-62576975D01*
X153478827Y-62530887D01*
X153552233Y-62502884D01*
X153637854Y-62484383D01*
X153696749Y-62477551D01*
X153784009Y-62473172D01*
X153791963Y-62473205D01*
G37*
G36*
X152944033Y-62499746D02*
G01*
X152712344Y-62499746D01*
X152697397Y-62610608D01*
X152631634Y-62553289D01*
X152574494Y-62516770D01*
X152497991Y-62484072D01*
X152421280Y-62473172D01*
X152338341Y-62484591D01*
X152270558Y-62518846D01*
X152210676Y-62578857D01*
X152190006Y-62617666D01*
X152127296Y-62560576D01*
X152065443Y-62519261D01*
X151987590Y-62484694D01*
X151908492Y-62473172D01*
X151821220Y-62484149D01*
X151741961Y-62520816D01*
X151705868Y-62551232D01*
X151655596Y-62624044D01*
X151631939Y-62707920D01*
X151628224Y-62764236D01*
X151628224Y-62862413D01*
X151628224Y-62961378D01*
X151628224Y-63044451D01*
X151628224Y-63128071D01*
X151628224Y-63212239D01*
X151628224Y-63296954D01*
X151628224Y-63382288D01*
X151628224Y-63468311D01*
X151628224Y-63555023D01*
X151628224Y-63642425D01*
X151628224Y-63730515D01*
X151628224Y-63819295D01*
X151628224Y-63855001D01*
X151881088Y-63855001D01*
X151881088Y-63762849D01*
X151881088Y-63671580D01*
X151881088Y-63581194D01*
X151881088Y-63491689D01*
X151881088Y-63403041D01*
X151881088Y-63315639D01*
X151881088Y-63229482D01*
X151881088Y-63144571D01*
X151881088Y-63052473D01*
X151881088Y-62965827D01*
X151881088Y-62875948D01*
X151881088Y-62841881D01*
X151891293Y-62756690D01*
X151902679Y-62727698D01*
X151977053Y-62685925D01*
X151984476Y-62685761D01*
X152065040Y-62713736D01*
X152076653Y-62722300D01*
X152138187Y-62778946D01*
X152159696Y-62803682D01*
X152159696Y-63855001D01*
X152412561Y-63855001D01*
X152412561Y-62832331D01*
X152424483Y-62748884D01*
X152484390Y-62689340D01*
X152513457Y-62685761D01*
X152596553Y-62713679D01*
X152663292Y-62776213D01*
X152691168Y-62812816D01*
X152691168Y-62902687D01*
X152691168Y-62994485D01*
X152691168Y-63088209D01*
X152691168Y-63183861D01*
X152691168Y-63281439D01*
X152691168Y-63314393D01*
X152691168Y-63413986D01*
X152691168Y-63497604D01*
X152691168Y-63581790D01*
X152691168Y-63666544D01*
X152691168Y-63751866D01*
X152691168Y-63837755D01*
X152691168Y-63855001D01*
X152944033Y-63855001D01*
X152944033Y-63757902D01*
X152944033Y-63659161D01*
X152944033Y-63558778D01*
X152944033Y-63456753D01*
X152944033Y-63353086D01*
X152944033Y-63268969D01*
X152944033Y-63205192D01*
X152944033Y-63119328D01*
X152944033Y-63032801D01*
X152944033Y-62945613D01*
X152944033Y-62857763D01*
X152944033Y-62769251D01*
X152944033Y-62680078D01*
X152944033Y-62590243D01*
X152944033Y-62499746D01*
G37*
G36*
X150873435Y-62474796D02*
G01*
X150956202Y-62484720D01*
X151048028Y-62508538D01*
X151131681Y-62545348D01*
X151207159Y-62595149D01*
X151274462Y-62657942D01*
X151331611Y-62732549D01*
X151376935Y-62818104D01*
X151405674Y-62897763D01*
X151426201Y-62985024D01*
X151438518Y-63079889D01*
X151442623Y-63182356D01*
X151442296Y-63210068D01*
X151435989Y-63302922D01*
X151421655Y-63389339D01*
X151395445Y-63480219D01*
X151358750Y-63562691D01*
X151318795Y-63627579D01*
X151265589Y-63692929D01*
X151196117Y-63755220D01*
X151125816Y-63800608D01*
X151048794Y-63836030D01*
X150966374Y-63861332D01*
X150878557Y-63876514D01*
X150785341Y-63881574D01*
X150743030Y-63880700D01*
X150659707Y-63874438D01*
X150577320Y-63863305D01*
X150540437Y-63856045D01*
X150457914Y-63832219D01*
X150373658Y-63800166D01*
X150290823Y-63763238D01*
X150379678Y-63557293D01*
X150442531Y-63583192D01*
X150522683Y-63610498D01*
X150608046Y-63630370D01*
X150675797Y-63640238D01*
X150760429Y-63646564D01*
X150786360Y-63646045D01*
X150873543Y-63636054D01*
X150955163Y-63613347D01*
X150966306Y-63609036D01*
X151042224Y-63566569D01*
X151104640Y-63506222D01*
X151122100Y-63482274D01*
X151159340Y-63406160D01*
X151178548Y-63323528D01*
X150276706Y-63323528D01*
X150264381Y-63275531D01*
X150249401Y-63189852D01*
X150243682Y-63105093D01*
X150244383Y-63088518D01*
X150477254Y-63088518D01*
X151189759Y-63088518D01*
X151189387Y-63071119D01*
X151176358Y-62985329D01*
X151147407Y-62907070D01*
X151136112Y-62885388D01*
X151087076Y-62817880D01*
X151023258Y-62763406D01*
X150997006Y-62747497D01*
X150914761Y-62717297D01*
X150826863Y-62708183D01*
X150790436Y-62709521D01*
X150704552Y-62725524D01*
X150626315Y-62762991D01*
X150616313Y-62769973D01*
X150552151Y-62830716D01*
X150507149Y-62906239D01*
X150502604Y-62917315D01*
X150479893Y-63001730D01*
X150477254Y-63088518D01*
X150244383Y-63088518D01*
X150247226Y-63021253D01*
X150249253Y-63002766D01*
X150265716Y-62913155D01*
X150292721Y-62828247D01*
X150330268Y-62748043D01*
X150338993Y-62732666D01*
X150388988Y-62661569D01*
X150449608Y-62600122D01*
X150520851Y-62548326D01*
X150568599Y-62522785D01*
X150647610Y-62494382D01*
X150735490Y-62477869D01*
X150821050Y-62473172D01*
X150873435Y-62474796D01*
G37*
G36*
X149874780Y-62034707D02*
G01*
X149342892Y-62034707D01*
X149342892Y-63424425D01*
X149334026Y-63508372D01*
X149332096Y-63517017D01*
X149286991Y-63588106D01*
X149282271Y-63591756D01*
X149200059Y-63618225D01*
X149161859Y-63619990D01*
X148864982Y-63619990D01*
X148864982Y-63855001D01*
X149274382Y-63855001D01*
X149359690Y-63847445D01*
X149440519Y-63819033D01*
X149479497Y-63791058D01*
X149534675Y-63723265D01*
X149567736Y-63645835D01*
X149572505Y-63627464D01*
X149587559Y-63544921D01*
X149594939Y-63459226D01*
X149595757Y-63418612D01*
X149595757Y-62246466D01*
X149874780Y-62196225D01*
X149874780Y-62034707D01*
G37*
G36*
X147923763Y-62474796D02*
G01*
X148006530Y-62484720D01*
X148098356Y-62508538D01*
X148182009Y-62545348D01*
X148257487Y-62595149D01*
X148324790Y-62657942D01*
X148381939Y-62732549D01*
X148427263Y-62818104D01*
X148456002Y-62897763D01*
X148476529Y-62985024D01*
X148488846Y-63079889D01*
X148492951Y-63182356D01*
X148492624Y-63210068D01*
X148486317Y-63302922D01*
X148471983Y-63389339D01*
X148445773Y-63480219D01*
X148409078Y-63562691D01*
X148369123Y-63627579D01*
X148315917Y-63692929D01*
X148246445Y-63755220D01*
X148176144Y-63800608D01*
X148099122Y-63836030D01*
X148016702Y-63861332D01*
X147928885Y-63876514D01*
X147835669Y-63881574D01*
X147793358Y-63880700D01*
X147710035Y-63874438D01*
X147627648Y-63863305D01*
X147590765Y-63856045D01*
X147508242Y-63832219D01*
X147423986Y-63800166D01*
X147341151Y-63763238D01*
X147430006Y-63557293D01*
X147492859Y-63583192D01*
X147573011Y-63610498D01*
X147658374Y-63630370D01*
X147726125Y-63640238D01*
X147810757Y-63646564D01*
X147836688Y-63646045D01*
X147923871Y-63636054D01*
X148005491Y-63613347D01*
X148016634Y-63609036D01*
X148092552Y-63566569D01*
X148154968Y-63506222D01*
X148172428Y-63482274D01*
X148209668Y-63406160D01*
X148228876Y-63323528D01*
X147327034Y-63323528D01*
X147314709Y-63275531D01*
X147299729Y-63189852D01*
X147294010Y-63105093D01*
X147294711Y-63088518D01*
X147527581Y-63088518D01*
X148240087Y-63088518D01*
X148239714Y-63071119D01*
X148226686Y-62985329D01*
X148197735Y-62907070D01*
X148186440Y-62885388D01*
X148137404Y-62817880D01*
X148073586Y-62763406D01*
X148047333Y-62747497D01*
X147965089Y-62717297D01*
X147877191Y-62708183D01*
X147840764Y-62709521D01*
X147754880Y-62725524D01*
X147676643Y-62762991D01*
X147666640Y-62769973D01*
X147602479Y-62830716D01*
X147557477Y-62906239D01*
X147552932Y-62917315D01*
X147530221Y-63001730D01*
X147527581Y-63088518D01*
X147294711Y-63088518D01*
X147297554Y-63021253D01*
X147299581Y-63002766D01*
X147316044Y-62913155D01*
X147343049Y-62828247D01*
X147380596Y-62748043D01*
X147389320Y-62732666D01*
X147439316Y-62661569D01*
X147499936Y-62600122D01*
X147571179Y-62548326D01*
X147618927Y-62522785D01*
X147697938Y-62494382D01*
X147785818Y-62477869D01*
X147871378Y-62473172D01*
X147923763Y-62474796D01*
G37*
G36*
X146972442Y-63667324D02*
G01*
X146810509Y-63489613D01*
X146738230Y-63534903D01*
X146658597Y-63576924D01*
X146598335Y-63603382D01*
X146518264Y-63629696D01*
X146432838Y-63644497D01*
X146387407Y-63646564D01*
X146300739Y-63641559D01*
X146214702Y-63620714D01*
X146181877Y-63604212D01*
X146124071Y-63542838D01*
X146114612Y-63497917D01*
X146142926Y-63416631D01*
X146169420Y-63389962D01*
X146241779Y-63341806D01*
X146313499Y-63308165D01*
X146394075Y-63276353D01*
X146473307Y-63247097D01*
X146504912Y-63235918D01*
X146586327Y-63204786D01*
X146664589Y-63170091D01*
X146699647Y-63152876D01*
X146774183Y-63106928D01*
X146836479Y-63051920D01*
X146852030Y-63034540D01*
X146894946Y-62960495D01*
X146911295Y-62877887D01*
X146911821Y-62858490D01*
X146900964Y-62774756D01*
X146865450Y-62696501D01*
X146862411Y-62691989D01*
X146805838Y-62625659D01*
X146739791Y-62574222D01*
X146734940Y-62571162D01*
X146658931Y-62530612D01*
X146577265Y-62500828D01*
X146565949Y-62497670D01*
X146481314Y-62480086D01*
X146393250Y-62473196D01*
X146387822Y-62473172D01*
X146297351Y-62478038D01*
X146214341Y-62492635D01*
X146131647Y-62519932D01*
X146124577Y-62522998D01*
X146046433Y-62562953D01*
X145974030Y-62609664D01*
X145907758Y-62660164D01*
X145892889Y-62672474D01*
X146049009Y-62843957D01*
X146120966Y-62794049D01*
X146193402Y-62753176D01*
X146218000Y-62741815D01*
X146300109Y-62716591D01*
X146385947Y-62708215D01*
X146391974Y-62708183D01*
X146478590Y-62716130D01*
X146562044Y-62742284D01*
X146577575Y-62749704D01*
X146643379Y-62802590D01*
X146658956Y-62852261D01*
X146618901Y-62925514D01*
X146606639Y-62934889D01*
X146530846Y-62978625D01*
X146463806Y-63008382D01*
X146382504Y-63041148D01*
X146302597Y-63072997D01*
X146270732Y-63085611D01*
X146188648Y-63120728D01*
X146110402Y-63159957D01*
X146075582Y-63179449D01*
X146005896Y-63226606D01*
X145942498Y-63286280D01*
X145922784Y-63309826D01*
X145881060Y-63382840D01*
X145862701Y-63467458D01*
X145861748Y-63493765D01*
X145870415Y-63577405D01*
X145900887Y-63661015D01*
X145953299Y-63733523D01*
X146000429Y-63775695D01*
X146076880Y-63822017D01*
X146155440Y-63851692D01*
X146244888Y-63871234D01*
X146330224Y-63879920D01*
X146391559Y-63881574D01*
X146482092Y-63876910D01*
X146571048Y-63862919D01*
X146658427Y-63839600D01*
X146706290Y-63822614D01*
X146788784Y-63786325D01*
X146865299Y-63744255D01*
X146935837Y-63696405D01*
X146972442Y-63667324D01*
G37*
G36*
X145497606Y-63667324D02*
G01*
X145335673Y-63489613D01*
X145263394Y-63534903D01*
X145183761Y-63576924D01*
X145123499Y-63603382D01*
X145043428Y-63629696D01*
X144958002Y-63644497D01*
X144912571Y-63646564D01*
X144825903Y-63641559D01*
X144739866Y-63620714D01*
X144707041Y-63604212D01*
X144649235Y-63542838D01*
X144639776Y-63497917D01*
X144668090Y-63416631D01*
X144694584Y-63389962D01*
X144766943Y-63341806D01*
X144838663Y-63308165D01*
X144919239Y-63276353D01*
X144998471Y-63247097D01*
X145030076Y-63235918D01*
X145111491Y-63204786D01*
X145189753Y-63170091D01*
X145224811Y-63152876D01*
X145299347Y-63106928D01*
X145361643Y-63051920D01*
X145377194Y-63034540D01*
X145420110Y-62960495D01*
X145436459Y-62877887D01*
X145436985Y-62858490D01*
X145426128Y-62774756D01*
X145390614Y-62696501D01*
X145387575Y-62691989D01*
X145331002Y-62625659D01*
X145264955Y-62574222D01*
X145260104Y-62571162D01*
X145184095Y-62530612D01*
X145102429Y-62500828D01*
X145091113Y-62497670D01*
X145006478Y-62480086D01*
X144918414Y-62473196D01*
X144912986Y-62473172D01*
X144822515Y-62478038D01*
X144739505Y-62492635D01*
X144656811Y-62519932D01*
X144649741Y-62522998D01*
X144571597Y-62562953D01*
X144499194Y-62609664D01*
X144432922Y-62660164D01*
X144418053Y-62672474D01*
X144574173Y-62843957D01*
X144646130Y-62794049D01*
X144718566Y-62753176D01*
X144743164Y-62741815D01*
X144825273Y-62716591D01*
X144911111Y-62708215D01*
X144917138Y-62708183D01*
X145003754Y-62716130D01*
X145087208Y-62742284D01*
X145102739Y-62749704D01*
X145168543Y-62802590D01*
X145184120Y-62852261D01*
X145144065Y-62925514D01*
X145131803Y-62934889D01*
X145056010Y-62978625D01*
X144988970Y-63008382D01*
X144907668Y-63041148D01*
X144827761Y-63072997D01*
X144795896Y-63085611D01*
X144713812Y-63120728D01*
X144635566Y-63159957D01*
X144600746Y-63179449D01*
X144531060Y-63226606D01*
X144467662Y-63286280D01*
X144447948Y-63309826D01*
X144406224Y-63382840D01*
X144387865Y-63467458D01*
X144386912Y-63493765D01*
X144395579Y-63577405D01*
X144426051Y-63661015D01*
X144478463Y-63733523D01*
X144525593Y-63775695D01*
X144602044Y-63822017D01*
X144680604Y-63851692D01*
X144770052Y-63871234D01*
X144855388Y-63879920D01*
X144916723Y-63881574D01*
X145007256Y-63876910D01*
X145096212Y-63862919D01*
X145183591Y-63839600D01*
X145231454Y-63822614D01*
X145313948Y-63786325D01*
X145390463Y-63744255D01*
X145461001Y-63696405D01*
X145497606Y-63667324D01*
G37*
G36*
X144068443Y-62127715D02*
G01*
X143765338Y-62127715D01*
X143085219Y-63382073D01*
X143085219Y-62127715D01*
X142832355Y-62127715D01*
X142832355Y-63855001D01*
X143125910Y-63855001D01*
X143815579Y-62595245D01*
X143815579Y-63855001D01*
X144068443Y-63855001D01*
X144068443Y-62127715D01*
G37*
G36*
X141993275Y-62473205D02*
G01*
X142082597Y-62477843D01*
X142166694Y-62488872D01*
X142253548Y-62506389D01*
X142288692Y-62515238D01*
X142376154Y-62542130D01*
X142454385Y-62572157D01*
X142532156Y-62607701D01*
X142404270Y-62802021D01*
X142355232Y-62782626D01*
X142274586Y-62754648D01*
X142192096Y-62731850D01*
X142105474Y-62714862D01*
X142021859Y-62708183D01*
X142014245Y-62708210D01*
X141927512Y-62713507D01*
X141844979Y-62736002D01*
X141822990Y-62749342D01*
X141773977Y-62819044D01*
X141762340Y-62873291D01*
X141756953Y-62959386D01*
X141756953Y-62978071D01*
X141761503Y-62978071D01*
X141849136Y-62978071D01*
X141935910Y-62978071D01*
X141982755Y-62979203D01*
X142070595Y-62987316D01*
X142152651Y-63001738D01*
X142193358Y-63011621D01*
X142277751Y-63039943D01*
X142356936Y-63077722D01*
X142391011Y-63098698D01*
X142456127Y-63153462D01*
X142509319Y-63220970D01*
X142537218Y-63275630D01*
X142560214Y-63360158D01*
X142567034Y-63449338D01*
X142561483Y-63528579D01*
X142539623Y-63614190D01*
X142496863Y-63693483D01*
X142459597Y-63738170D01*
X142395525Y-63793718D01*
X142321643Y-63835485D01*
X142282196Y-63851148D01*
X142197429Y-63873968D01*
X142113621Y-63881574D01*
X142103535Y-63881530D01*
X142018236Y-63877195D01*
X141935015Y-63864057D01*
X141851207Y-63836731D01*
X141845004Y-63833923D01*
X141768890Y-63793505D01*
X141703391Y-63741647D01*
X141669138Y-63790320D01*
X141599173Y-63840053D01*
X141544619Y-63859759D01*
X141459137Y-63873773D01*
X141371221Y-63877422D01*
X141371221Y-63642412D01*
X141400727Y-63641361D01*
X141480006Y-63612516D01*
X141485651Y-63604478D01*
X141504089Y-63522415D01*
X141504089Y-63192736D01*
X141756953Y-63192736D01*
X141756953Y-63451414D01*
X141759327Y-63455815D01*
X141807673Y-63523482D01*
X141870722Y-63582206D01*
X141918951Y-63611309D01*
X141999606Y-63635297D01*
X142089954Y-63642412D01*
X142177564Y-63629125D01*
X142255209Y-63589264D01*
X142309706Y-63525425D01*
X142327871Y-63441033D01*
X142317619Y-63365578D01*
X142274309Y-63292387D01*
X142212027Y-63246195D01*
X142133136Y-63214742D01*
X142116571Y-63210439D01*
X142029583Y-63195269D01*
X141942138Y-63190660D01*
X141929251Y-63190668D01*
X141843941Y-63191179D01*
X141756953Y-63192736D01*
X141504089Y-63192736D01*
X141504089Y-62850601D01*
X141505826Y-62803733D01*
X141519723Y-62721210D01*
X141553499Y-62643825D01*
X141609657Y-62576975D01*
X141680139Y-62530887D01*
X141753545Y-62502884D01*
X141839166Y-62484383D01*
X141898061Y-62477551D01*
X141985321Y-62473172D01*
X141993275Y-62473205D01*
G37*
G36*
X141039050Y-62499746D02*
G01*
X140811514Y-62499746D01*
X140791584Y-62657111D01*
X140720135Y-62606605D01*
X140643458Y-62563487D01*
X140572766Y-62530472D01*
X140490835Y-62500255D01*
X140402677Y-62479943D01*
X140316580Y-62473172D01*
X140231940Y-62483299D01*
X140152409Y-62513680D01*
X140142191Y-62519261D01*
X140072714Y-62574968D01*
X140024160Y-62643468D01*
X140011399Y-62668322D01*
X139983504Y-62746583D01*
X139968193Y-62831182D01*
X139962595Y-62918277D01*
X139962404Y-62939041D01*
X139962404Y-63855001D01*
X140215268Y-63855001D01*
X140215268Y-62984714D01*
X140221399Y-62895612D01*
X140246306Y-62814780D01*
X140258866Y-62795377D01*
X140331009Y-62746849D01*
X140391734Y-62738908D01*
X140476852Y-62749081D01*
X140558143Y-62774672D01*
X140570275Y-62779599D01*
X140646376Y-62817416D01*
X140721264Y-62864905D01*
X140786186Y-62912883D01*
X140786186Y-63855001D01*
X141039050Y-63855001D01*
X141039050Y-62499746D01*
G37*
G36*
X139043603Y-62473205D02*
G01*
X139132925Y-62477843D01*
X139217022Y-62488872D01*
X139303876Y-62506389D01*
X139339020Y-62515238D01*
X139426482Y-62542130D01*
X139504713Y-62572157D01*
X139582484Y-62607701D01*
X139454598Y-62802021D01*
X139405560Y-62782626D01*
X139324914Y-62754648D01*
X139242424Y-62731850D01*
X139155802Y-62714862D01*
X139072187Y-62708183D01*
X139064573Y-62708210D01*
X138977840Y-62713507D01*
X138895307Y-62736002D01*
X138873318Y-62749342D01*
X138824305Y-62819044D01*
X138812668Y-62873291D01*
X138807281Y-62959386D01*
X138807281Y-62978071D01*
X138811831Y-62978071D01*
X138899464Y-62978071D01*
X138986238Y-62978071D01*
X139033083Y-62979203D01*
X139120923Y-62987316D01*
X139202979Y-63001738D01*
X139243686Y-63011621D01*
X139328079Y-63039943D01*
X139407264Y-63077722D01*
X139441339Y-63098698D01*
X139506455Y-63153462D01*
X139559647Y-63220970D01*
X139587546Y-63275630D01*
X139610542Y-63360158D01*
X139617362Y-63449338D01*
X139611811Y-63528579D01*
X139589951Y-63614190D01*
X139547191Y-63693483D01*
X139509925Y-63738170D01*
X139445853Y-63793718D01*
X139371971Y-63835485D01*
X139332524Y-63851148D01*
X139247757Y-63873968D01*
X139163949Y-63881574D01*
X139153863Y-63881530D01*
X139068564Y-63877195D01*
X138985343Y-63864057D01*
X138901535Y-63836731D01*
X138895332Y-63833923D01*
X138819218Y-63793505D01*
X138753719Y-63741647D01*
X138719466Y-63790320D01*
X138649501Y-63840053D01*
X138594947Y-63859759D01*
X138509465Y-63873773D01*
X138421549Y-63877422D01*
X138421549Y-63642412D01*
X138451055Y-63641361D01*
X138530334Y-63612516D01*
X138535979Y-63604478D01*
X138554417Y-63522415D01*
X138554417Y-63192736D01*
X138807281Y-63192736D01*
X138807281Y-63451414D01*
X138809655Y-63455815D01*
X138858001Y-63523482D01*
X138921050Y-63582206D01*
X138969279Y-63611309D01*
X139049934Y-63635297D01*
X139140282Y-63642412D01*
X139227892Y-63629125D01*
X139305537Y-63589264D01*
X139360034Y-63525425D01*
X139378199Y-63441033D01*
X139367947Y-63365578D01*
X139324637Y-63292387D01*
X139262355Y-63246195D01*
X139183464Y-63214742D01*
X139166899Y-63210439D01*
X139079911Y-63195269D01*
X138992466Y-63190660D01*
X138979579Y-63190668D01*
X138894269Y-63191179D01*
X138807281Y-63192736D01*
X138554417Y-63192736D01*
X138554417Y-62850601D01*
X138556154Y-62803733D01*
X138570051Y-62721210D01*
X138603827Y-62643825D01*
X138659985Y-62576975D01*
X138730467Y-62530887D01*
X138803873Y-62502884D01*
X138889494Y-62484383D01*
X138948389Y-62477551D01*
X139035648Y-62473172D01*
X139043603Y-62473205D01*
G37*
G36*
X138123426Y-63667324D02*
G01*
X137961493Y-63489613D01*
X137889214Y-63534903D01*
X137809581Y-63576924D01*
X137749319Y-63603382D01*
X137669248Y-63629696D01*
X137583822Y-63644497D01*
X137538391Y-63646564D01*
X137451723Y-63641559D01*
X137365686Y-63620714D01*
X137332861Y-63604212D01*
X137275055Y-63542838D01*
X137265596Y-63497917D01*
X137293910Y-63416631D01*
X137320404Y-63389962D01*
X137392763Y-63341806D01*
X137464483Y-63308165D01*
X137545059Y-63276353D01*
X137624291Y-63247097D01*
X137655896Y-63235918D01*
X137737311Y-63204786D01*
X137815573Y-63170091D01*
X137850631Y-63152876D01*
X137925167Y-63106928D01*
X137987463Y-63051920D01*
X138003014Y-63034540D01*
X138045930Y-62960495D01*
X138062279Y-62877887D01*
X138062805Y-62858490D01*
X138051948Y-62774756D01*
X138016434Y-62696501D01*
X138013394Y-62691989D01*
X137956822Y-62625659D01*
X137890775Y-62574222D01*
X137885924Y-62571162D01*
X137809915Y-62530612D01*
X137728249Y-62500828D01*
X137716933Y-62497670D01*
X137632298Y-62480086D01*
X137544234Y-62473196D01*
X137538806Y-62473172D01*
X137448335Y-62478038D01*
X137365325Y-62492635D01*
X137282631Y-62519932D01*
X137275561Y-62522998D01*
X137197417Y-62562953D01*
X137125014Y-62609664D01*
X137058742Y-62660164D01*
X137043872Y-62672474D01*
X137199993Y-62843957D01*
X137271950Y-62794049D01*
X137344386Y-62753176D01*
X137368984Y-62741815D01*
X137451092Y-62716591D01*
X137536931Y-62708215D01*
X137542958Y-62708183D01*
X137629574Y-62716130D01*
X137713028Y-62742284D01*
X137728558Y-62749704D01*
X137794363Y-62802590D01*
X137809940Y-62852261D01*
X137769885Y-62925514D01*
X137757623Y-62934889D01*
X137681830Y-62978625D01*
X137614790Y-63008382D01*
X137533488Y-63041148D01*
X137453581Y-63072997D01*
X137421716Y-63085611D01*
X137339632Y-63120728D01*
X137261386Y-63159957D01*
X137226566Y-63179449D01*
X137156880Y-63226606D01*
X137093482Y-63286280D01*
X137073768Y-63309826D01*
X137032044Y-63382840D01*
X137013685Y-63467458D01*
X137012732Y-63493765D01*
X137021399Y-63577405D01*
X137051871Y-63661015D01*
X137104283Y-63733523D01*
X137151413Y-63775695D01*
X137227864Y-63822017D01*
X137306424Y-63851692D01*
X137395872Y-63871234D01*
X137481208Y-63879920D01*
X137542543Y-63881574D01*
X137633076Y-63876910D01*
X137722032Y-63862919D01*
X137809411Y-63839600D01*
X137857274Y-63822614D01*
X137939768Y-63786325D01*
X138016283Y-63744255D01*
X138086821Y-63696405D01*
X138123426Y-63667324D01*
G37*
G36*
X136773984Y-62021421D02*
G01*
X136308531Y-62021421D01*
X136308531Y-62684100D01*
X136236910Y-62639179D01*
X136159242Y-62599416D01*
X136108813Y-62576975D01*
X136026414Y-62548135D01*
X135944210Y-62531266D01*
X135869651Y-62526319D01*
X135785260Y-62534426D01*
X135703485Y-62561102D01*
X135688203Y-62568671D01*
X135619595Y-62620419D01*
X135568732Y-62690447D01*
X135559487Y-62708183D01*
X135530136Y-62790083D01*
X135516025Y-62872607D01*
X135511369Y-62957972D01*
X135511322Y-62968106D01*
X135511322Y-63855001D01*
X135764187Y-63855001D01*
X135764187Y-63035786D01*
X135770376Y-62946606D01*
X135795520Y-62866333D01*
X135808199Y-62847279D01*
X135880861Y-62799821D01*
X135941898Y-62792056D01*
X136028055Y-62801899D01*
X136110889Y-62826934D01*
X136187575Y-62862399D01*
X136262742Y-62907786D01*
X136308531Y-62939871D01*
X136308531Y-63855001D01*
X136561395Y-63855001D01*
X136561395Y-62227366D01*
X136773984Y-62187921D01*
X136773984Y-62021421D01*
G37*
G36*
X134594947Y-62393451D02*
G01*
X134678327Y-62375453D01*
X134734459Y-62336567D01*
X134781112Y-62267835D01*
X134794249Y-62194149D01*
X134775331Y-62109149D01*
X134734459Y-62053392D01*
X134660888Y-62006053D01*
X134594947Y-61994847D01*
X134512684Y-62011370D01*
X134452944Y-62053392D01*
X134406612Y-62126744D01*
X134395645Y-62194149D01*
X134411816Y-62276412D01*
X134452944Y-62336152D01*
X134526077Y-62382484D01*
X134594947Y-62393451D01*
G37*
G36*
X135139706Y-63619990D02*
G01*
X134687955Y-63619990D01*
X134687955Y-62845203D01*
X135010990Y-62845203D01*
X135010990Y-62610192D01*
X134435090Y-62610192D01*
X134435090Y-63619990D01*
X134050188Y-63619990D01*
X134050188Y-63855001D01*
X135139706Y-63855001D01*
X135139706Y-63619990D01*
G37*
G36*
X132315429Y-62127715D02*
G01*
X132047616Y-62127715D01*
X132028579Y-62213151D01*
X132009615Y-62296937D01*
X131990723Y-62379074D01*
X131965648Y-62486023D01*
X131940703Y-62590041D01*
X131915888Y-62691126D01*
X131891202Y-62789278D01*
X131866646Y-62884498D01*
X131848314Y-62953989D01*
X131823895Y-63043675D01*
X131799423Y-63129831D01*
X131774899Y-63212459D01*
X131744172Y-63310780D01*
X131713364Y-63403586D01*
X131682474Y-63490878D01*
X131651503Y-63572656D01*
X131620543Y-63490878D01*
X131589684Y-63403586D01*
X131558926Y-63310780D01*
X131528269Y-63212459D01*
X131503817Y-63129831D01*
X131479430Y-63043675D01*
X131455108Y-62953989D01*
X131430643Y-62860968D01*
X131406035Y-62765015D01*
X131381284Y-62666129D01*
X131356391Y-62564311D01*
X131331355Y-62459561D01*
X131306176Y-62351878D01*
X131287198Y-62269192D01*
X131268140Y-62184856D01*
X131255390Y-62127715D01*
X130987578Y-62127715D01*
X131011037Y-62231997D01*
X131034547Y-62333863D01*
X131058109Y-62433314D01*
X131081721Y-62530348D01*
X131105385Y-62624967D01*
X131129099Y-62717170D01*
X131152865Y-62806957D01*
X131176682Y-62894328D01*
X131200549Y-62979283D01*
X131224468Y-63061822D01*
X131240443Y-63115506D01*
X131272686Y-63219978D01*
X131305683Y-63321011D01*
X131339432Y-63418605D01*
X131373934Y-63512761D01*
X131409188Y-63603479D01*
X131445194Y-63690758D01*
X131481954Y-63774598D01*
X131519466Y-63855001D01*
X131783541Y-63855001D01*
X131820586Y-63774598D01*
X131856982Y-63690758D01*
X131892729Y-63603479D01*
X131927827Y-63512761D01*
X131962277Y-63418605D01*
X131996078Y-63321011D01*
X132029230Y-63219978D01*
X132061734Y-63115506D01*
X132085835Y-63034578D01*
X132109871Y-62951233D01*
X132133841Y-62865472D01*
X132157745Y-62777296D01*
X132181584Y-62686704D01*
X132205357Y-62593696D01*
X132229064Y-62498272D01*
X132252706Y-62400432D01*
X132276281Y-62300176D01*
X132299792Y-62197505D01*
X132315429Y-62127715D01*
G37*
G36*
X130225731Y-62474796D02*
G01*
X130308497Y-62484720D01*
X130400324Y-62508538D01*
X130483977Y-62545348D01*
X130559455Y-62595149D01*
X130626758Y-62657942D01*
X130683907Y-62732549D01*
X130729231Y-62818104D01*
X130757970Y-62897763D01*
X130778497Y-62985024D01*
X130790814Y-63079889D01*
X130794919Y-63182356D01*
X130794592Y-63210068D01*
X130788285Y-63302922D01*
X130773951Y-63389339D01*
X130747741Y-63480219D01*
X130711046Y-63562691D01*
X130671091Y-63627579D01*
X130617885Y-63692929D01*
X130548413Y-63755220D01*
X130478112Y-63800608D01*
X130401090Y-63836030D01*
X130318670Y-63861332D01*
X130230853Y-63876514D01*
X130137637Y-63881574D01*
X130095326Y-63880700D01*
X130012003Y-63874438D01*
X129929616Y-63863305D01*
X129892733Y-63856045D01*
X129810210Y-63832219D01*
X129725954Y-63800166D01*
X129643119Y-63763238D01*
X129731974Y-63557293D01*
X129794827Y-63583192D01*
X129874979Y-63610498D01*
X129960341Y-63630370D01*
X130028092Y-63640238D01*
X130112725Y-63646564D01*
X130138656Y-63646045D01*
X130225839Y-63636054D01*
X130307459Y-63613347D01*
X130318602Y-63609036D01*
X130394520Y-63566569D01*
X130456936Y-63506222D01*
X130474396Y-63482274D01*
X130511635Y-63406160D01*
X130530844Y-63323528D01*
X129629002Y-63323528D01*
X129616677Y-63275531D01*
X129601696Y-63189852D01*
X129595978Y-63105093D01*
X129596678Y-63088518D01*
X129829549Y-63088518D01*
X130542055Y-63088518D01*
X130541682Y-63071119D01*
X130528654Y-62985329D01*
X130499703Y-62907070D01*
X130488408Y-62885388D01*
X130439372Y-62817880D01*
X130375554Y-62763406D01*
X130349301Y-62747497D01*
X130267057Y-62717297D01*
X130179159Y-62708183D01*
X130142732Y-62709521D01*
X130056848Y-62725524D01*
X129978611Y-62762991D01*
X129968608Y-62769973D01*
X129904447Y-62830716D01*
X129859445Y-62906239D01*
X129854900Y-62917315D01*
X129832189Y-63001730D01*
X129829549Y-63088518D01*
X129596678Y-63088518D01*
X129599521Y-63021253D01*
X129601549Y-63002766D01*
X129618011Y-62913155D01*
X129645016Y-62828247D01*
X129682564Y-62748043D01*
X129691288Y-62732666D01*
X129741284Y-62661569D01*
X129801904Y-62600122D01*
X129873147Y-62548326D01*
X129920895Y-62522785D01*
X129999906Y-62494382D01*
X130087786Y-62477869D01*
X130173346Y-62473172D01*
X130225731Y-62474796D01*
G37*
G36*
X129293510Y-63619990D02*
G01*
X129027773Y-63619990D01*
X129027773Y-62687422D01*
X129243684Y-62651298D01*
X129243684Y-62495594D01*
X128806465Y-62495594D01*
X128785289Y-62648392D01*
X128718088Y-62597358D01*
X128645297Y-62550966D01*
X128614637Y-62533378D01*
X128537173Y-62499220D01*
X128455506Y-62480828D01*
X128398726Y-62477324D01*
X128313948Y-62484588D01*
X128233693Y-62506379D01*
X128198178Y-62521337D01*
X128123858Y-62569305D01*
X128065115Y-62636189D01*
X128051193Y-62658772D01*
X128236378Y-62814477D01*
X128297881Y-62757385D01*
X128338520Y-62735587D01*
X128421289Y-62714174D01*
X128455195Y-62712335D01*
X128537396Y-62727686D01*
X128610900Y-62766728D01*
X128680917Y-62819646D01*
X128748352Y-62878321D01*
X128774909Y-62903333D01*
X128774909Y-62907070D01*
X128774909Y-63619990D01*
X128257138Y-63619990D01*
X128257138Y-63855001D01*
X129293510Y-63855001D01*
X129293510Y-63619990D01*
G37*
G36*
X127799574Y-63667324D02*
G01*
X127637641Y-63489613D01*
X127565362Y-63534903D01*
X127485728Y-63576924D01*
X127425467Y-63603382D01*
X127345396Y-63629696D01*
X127259970Y-63644497D01*
X127214539Y-63646564D01*
X127127871Y-63641559D01*
X127041834Y-63620714D01*
X127009009Y-63604212D01*
X126951203Y-63542838D01*
X126941744Y-63497917D01*
X126970058Y-63416631D01*
X126996552Y-63389962D01*
X127068911Y-63341806D01*
X127140631Y-63308165D01*
X127221207Y-63276353D01*
X127300439Y-63247097D01*
X127332044Y-63235918D01*
X127413459Y-63204786D01*
X127491721Y-63170091D01*
X127526779Y-63152876D01*
X127601315Y-63106928D01*
X127663611Y-63051920D01*
X127679162Y-63034540D01*
X127722078Y-62960495D01*
X127738427Y-62877887D01*
X127738953Y-62858490D01*
X127728096Y-62774756D01*
X127692582Y-62696501D01*
X127689542Y-62691989D01*
X127632970Y-62625659D01*
X127566923Y-62574222D01*
X127562072Y-62571162D01*
X127486063Y-62530612D01*
X127404397Y-62500828D01*
X127393080Y-62497670D01*
X127308446Y-62480086D01*
X127220382Y-62473196D01*
X127214954Y-62473172D01*
X127124483Y-62478038D01*
X127041473Y-62492635D01*
X126958779Y-62519932D01*
X126951709Y-62522998D01*
X126873565Y-62562953D01*
X126801162Y-62609664D01*
X126734890Y-62660164D01*
X126720020Y-62672474D01*
X126876140Y-62843957D01*
X126948098Y-62794049D01*
X127020534Y-62753176D01*
X127045132Y-62741815D01*
X127127240Y-62716591D01*
X127213079Y-62708215D01*
X127219106Y-62708183D01*
X127305722Y-62716130D01*
X127389176Y-62742284D01*
X127404706Y-62749704D01*
X127470511Y-62802590D01*
X127486088Y-62852261D01*
X127446033Y-62925514D01*
X127433771Y-62934889D01*
X127357978Y-62978625D01*
X127290938Y-63008382D01*
X127209636Y-63041148D01*
X127129729Y-63072997D01*
X127097864Y-63085611D01*
X127015780Y-63120728D01*
X126937534Y-63159957D01*
X126902714Y-63179449D01*
X126833028Y-63226606D01*
X126769630Y-63286280D01*
X126749916Y-63309826D01*
X126708192Y-63382840D01*
X126689833Y-63467458D01*
X126688879Y-63493765D01*
X126697547Y-63577405D01*
X126728019Y-63661015D01*
X126780431Y-63733523D01*
X126827561Y-63775695D01*
X126904012Y-63822017D01*
X126982572Y-63851692D01*
X127072020Y-63871234D01*
X127157356Y-63879920D01*
X127218691Y-63881574D01*
X127309224Y-63876910D01*
X127398180Y-63862919D01*
X127485559Y-63839600D01*
X127533422Y-63822614D01*
X127615916Y-63786325D01*
X127692431Y-63744255D01*
X127762969Y-63696405D01*
X127799574Y-63667324D01*
G37*
G36*
X125745931Y-62393451D02*
G01*
X125829311Y-62375453D01*
X125885443Y-62336567D01*
X125932096Y-62267835D01*
X125945233Y-62194149D01*
X125926315Y-62109149D01*
X125885443Y-62053392D01*
X125811872Y-62006053D01*
X125745931Y-61994847D01*
X125663668Y-62011370D01*
X125603928Y-62053392D01*
X125557596Y-62126744D01*
X125546629Y-62194149D01*
X125562800Y-62276412D01*
X125603928Y-62336152D01*
X125677061Y-62382484D01*
X125745931Y-62393451D01*
G37*
G36*
X126290690Y-63619990D02*
G01*
X125838939Y-63619990D01*
X125838939Y-62845203D01*
X126161974Y-62845203D01*
X126161974Y-62610192D01*
X125586074Y-62610192D01*
X125586074Y-63619990D01*
X125201172Y-63619990D01*
X125201172Y-63855001D01*
X126290690Y-63855001D01*
X126290690Y-63619990D01*
G37*
G36*
X124352602Y-62477424D02*
G01*
X124438940Y-62492696D01*
X124518012Y-62519075D01*
X124598283Y-62562028D01*
X124646396Y-62597757D01*
X124709806Y-62660383D01*
X124762707Y-62733848D01*
X124800907Y-62808249D01*
X124809153Y-62828083D01*
X124836816Y-62911736D01*
X124855968Y-63002291D01*
X124865743Y-63087190D01*
X124869002Y-63177373D01*
X124868736Y-63203384D01*
X124863615Y-63291280D01*
X124851978Y-63374288D01*
X124830698Y-63463169D01*
X124800907Y-63545667D01*
X124778005Y-63593410D01*
X124728608Y-63670816D01*
X124668700Y-63737252D01*
X124598283Y-63792719D01*
X124536645Y-63827341D01*
X124449221Y-63859360D01*
X124363791Y-63876021D01*
X124271095Y-63881574D01*
X124188839Y-63877322D01*
X124102034Y-63862050D01*
X124022910Y-63835671D01*
X123943077Y-63792719D01*
X123895246Y-63756960D01*
X123832149Y-63694181D01*
X123779431Y-63620431D01*
X123741284Y-63545667D01*
X123733038Y-63525641D01*
X123705374Y-63441547D01*
X123686222Y-63351070D01*
X123676447Y-63266665D01*
X123673189Y-63177373D01*
X123673202Y-63176128D01*
X123926053Y-63176128D01*
X123928812Y-63250067D01*
X123939677Y-63334460D01*
X123960931Y-63419027D01*
X123972793Y-63451358D01*
X124012649Y-63524697D01*
X124070132Y-63586358D01*
X124105152Y-63609817D01*
X124183472Y-63638097D01*
X124271095Y-63646564D01*
X124308825Y-63645094D01*
X124395727Y-63627514D01*
X124471228Y-63586358D01*
X124493730Y-63566398D01*
X124546274Y-63498323D01*
X124581259Y-63419027D01*
X124599652Y-63349098D01*
X124612016Y-63265900D01*
X124616137Y-63176128D01*
X124613378Y-63101382D01*
X124602513Y-63016984D01*
X124581259Y-62933643D01*
X124571910Y-62908082D01*
X124529278Y-62829652D01*
X124471228Y-62768388D01*
X124435822Y-62744929D01*
X124357628Y-62716649D01*
X124271095Y-62708183D01*
X124232797Y-62709653D01*
X124145179Y-62727232D01*
X124070132Y-62768388D01*
X124047869Y-62788298D01*
X123995779Y-62855692D01*
X123960931Y-62933643D01*
X123942538Y-63002461D01*
X123930175Y-63085468D01*
X123926053Y-63176128D01*
X123673202Y-63176128D01*
X123673455Y-63151067D01*
X123678575Y-63062394D01*
X123690212Y-62979005D01*
X123711492Y-62890176D01*
X123741284Y-62808249D01*
X123764165Y-62760745D01*
X123813424Y-62683667D01*
X123873061Y-62617428D01*
X123943077Y-62562028D01*
X124004329Y-62527405D01*
X124091723Y-62495386D01*
X124177568Y-62478726D01*
X124271095Y-62473172D01*
X124352602Y-62477424D01*
G37*
G36*
X123341018Y-62499746D02*
G01*
X123113482Y-62499746D01*
X123093551Y-62657111D01*
X123022102Y-62606605D01*
X122945426Y-62563487D01*
X122874734Y-62530472D01*
X122792803Y-62500255D01*
X122704645Y-62479943D01*
X122618548Y-62473172D01*
X122533908Y-62483299D01*
X122454377Y-62513680D01*
X122444159Y-62519261D01*
X122374681Y-62574968D01*
X122326128Y-62643468D01*
X122313367Y-62668322D01*
X122285472Y-62746583D01*
X122270161Y-62831182D01*
X122264563Y-62918277D01*
X122264371Y-62939041D01*
X122264371Y-63855001D01*
X122517236Y-63855001D01*
X122517236Y-62984714D01*
X122523367Y-62895612D01*
X122548274Y-62814780D01*
X122560833Y-62795377D01*
X122632977Y-62746849D01*
X122693702Y-62738908D01*
X122778820Y-62749081D01*
X122860111Y-62774672D01*
X122872243Y-62779599D01*
X122948344Y-62817416D01*
X123023232Y-62864905D01*
X123088154Y-62912883D01*
X123088154Y-63855001D01*
X123341018Y-63855001D01*
X123341018Y-62499746D01*
G37*
G36*
X155794054Y-65191737D02*
G01*
X155723045Y-65132884D01*
X155648752Y-65081979D01*
X155571175Y-65039023D01*
X155526657Y-65018593D01*
X155443113Y-64988887D01*
X155355036Y-64968904D01*
X155262427Y-64958642D01*
X155209019Y-64957141D01*
X155118045Y-64963751D01*
X155034046Y-64983579D01*
X154957021Y-65016626D01*
X154942452Y-65024821D01*
X154869130Y-65076846D01*
X154807876Y-65139861D01*
X154762665Y-65206684D01*
X154725788Y-65288473D01*
X154704218Y-65376836D01*
X154697892Y-65462871D01*
X154702596Y-65554128D01*
X154716706Y-65636384D01*
X154743093Y-65716469D01*
X154746057Y-65723209D01*
X154785684Y-65800049D01*
X154832317Y-65869883D01*
X154867299Y-65912546D01*
X154926474Y-65978595D01*
X154985923Y-66043822D01*
X155013454Y-66073649D01*
X155391713Y-66475990D01*
X154644745Y-66475990D01*
X154644745Y-66711001D01*
X155760837Y-66711001D01*
X155760837Y-66483879D01*
X155336489Y-66053303D01*
X155275589Y-65992460D01*
X155214491Y-65932108D01*
X155158778Y-65877668D01*
X155100937Y-65816830D01*
X155045896Y-65747775D01*
X155010132Y-65694144D01*
X154973950Y-65618880D01*
X154953598Y-65531942D01*
X154950757Y-65482801D01*
X154961851Y-65397008D01*
X154998908Y-65315662D01*
X155029647Y-65276855D01*
X155097145Y-65225239D01*
X155181926Y-65197446D01*
X155248049Y-65192152D01*
X155334018Y-65200497D01*
X155415553Y-65223189D01*
X155447351Y-65235749D01*
X155523355Y-65273858D01*
X155598774Y-65323411D01*
X155648729Y-65362804D01*
X155794054Y-65191737D01*
G37*
G36*
X153813716Y-64935797D02*
G01*
X153905631Y-64946095D01*
X153988285Y-64967298D01*
X154069260Y-65003645D01*
X154084070Y-65012420D01*
X154152426Y-65062618D01*
X154211293Y-65123360D01*
X154260673Y-65194643D01*
X154277885Y-65225901D01*
X154315294Y-65309609D01*
X154342099Y-65391740D01*
X154362400Y-65480310D01*
X154375479Y-65563741D01*
X154384822Y-65650858D01*
X154390427Y-65741660D01*
X154392295Y-65836147D01*
X154390427Y-65929648D01*
X154384822Y-66019983D01*
X154375479Y-66107151D01*
X154362400Y-66191154D01*
X154354180Y-66231605D01*
X154330989Y-66317828D01*
X154301294Y-66397416D01*
X154260673Y-66478066D01*
X154251556Y-66493118D01*
X154200279Y-66562147D01*
X154139513Y-66620796D01*
X154069260Y-66669064D01*
X154030202Y-66688801D01*
X153943510Y-66718239D01*
X153855711Y-66733292D01*
X153769891Y-66737574D01*
X153725892Y-66736497D01*
X153633819Y-66726199D01*
X153551337Y-66704996D01*
X153470938Y-66668649D01*
X153456239Y-66659826D01*
X153388629Y-66609481D01*
X153330831Y-66548756D01*
X153282847Y-66477651D01*
X153266245Y-66446471D01*
X153230246Y-66362731D01*
X153204573Y-66280293D01*
X153185272Y-66191154D01*
X153172556Y-66107151D01*
X153163473Y-66019983D01*
X153158023Y-65929648D01*
X153156207Y-65836147D01*
X153158023Y-65741660D01*
X153163473Y-65650858D01*
X153167661Y-65610686D01*
X153409071Y-65610686D01*
X153409071Y-65657261D01*
X153409071Y-65747026D01*
X153409071Y-65833656D01*
X153409083Y-65842640D01*
X153410494Y-65930257D01*
X153414257Y-66013818D01*
X153421113Y-66101053D01*
X153426290Y-66145974D01*
X153441549Y-66228809D01*
X153467616Y-66313642D01*
X153469832Y-66319208D01*
X153511629Y-66393363D01*
X153573911Y-66453153D01*
X153602531Y-66469945D01*
X153683618Y-66495615D01*
X153769061Y-66502564D01*
X153825679Y-66499469D01*
X153907327Y-66480557D01*
X153924963Y-66473338D01*
X153997428Y-66426995D01*
X153428171Y-65450830D01*
X153413268Y-65523242D01*
X153409071Y-65610686D01*
X153167661Y-65610686D01*
X153172556Y-65563741D01*
X153185272Y-65480310D01*
X153193063Y-65440157D01*
X153215197Y-65354511D01*
X153243702Y-65275368D01*
X153257144Y-65247790D01*
X153534050Y-65247790D01*
X154104968Y-66225201D01*
X154121828Y-66145909D01*
X154131127Y-66062438D01*
X154134760Y-66008279D01*
X154138263Y-65923244D01*
X154139431Y-65833656D01*
X154138174Y-65746015D01*
X154133887Y-65654575D01*
X154126559Y-65568335D01*
X154120715Y-65523823D01*
X154103860Y-65441455D01*
X154075488Y-65356576D01*
X154073065Y-65350986D01*
X154028258Y-65276959D01*
X153962965Y-65218310D01*
X153933386Y-65201801D01*
X153851085Y-65176562D01*
X153765739Y-65169730D01*
X153707155Y-65172825D01*
X153624567Y-65191737D01*
X153603547Y-65200412D01*
X153534050Y-65247790D01*
X153257144Y-65247790D01*
X153282847Y-65195058D01*
X153291659Y-65179957D01*
X153341606Y-65110725D01*
X153401366Y-65051954D01*
X153470938Y-65003645D01*
X153509657Y-64983789D01*
X153595976Y-64954173D01*
X153683787Y-64939028D01*
X153769891Y-64934720D01*
X153813716Y-64935797D01*
G37*
G36*
X152844382Y-65191737D02*
G01*
X152773373Y-65132884D01*
X152699080Y-65081979D01*
X152621503Y-65039023D01*
X152576985Y-65018593D01*
X152493441Y-64988887D01*
X152405364Y-64968904D01*
X152312755Y-64958642D01*
X152259347Y-64957141D01*
X152168373Y-64963751D01*
X152084374Y-64983579D01*
X152007349Y-65016626D01*
X151992780Y-65024821D01*
X151919458Y-65076846D01*
X151858204Y-65139861D01*
X151812993Y-65206684D01*
X151776116Y-65288473D01*
X151754546Y-65376836D01*
X151748220Y-65462871D01*
X151752924Y-65554128D01*
X151767034Y-65636384D01*
X151793421Y-65716469D01*
X151796385Y-65723209D01*
X151836012Y-65800049D01*
X151882645Y-65869883D01*
X151917627Y-65912546D01*
X151976802Y-65978595D01*
X152036251Y-66043822D01*
X152063782Y-66073649D01*
X152442041Y-66475990D01*
X151695073Y-66475990D01*
X151695073Y-66711001D01*
X152811165Y-66711001D01*
X152811165Y-66483879D01*
X152386817Y-66053303D01*
X152325917Y-65992460D01*
X152264819Y-65932108D01*
X152209106Y-65877668D01*
X152151265Y-65816830D01*
X152096224Y-65747775D01*
X152060460Y-65694144D01*
X152024278Y-65618880D01*
X152003926Y-65531942D01*
X152001085Y-65482801D01*
X152012179Y-65397008D01*
X152049236Y-65315662D01*
X152079975Y-65276855D01*
X152147473Y-65225239D01*
X152232254Y-65197446D01*
X152298377Y-65192152D01*
X152384346Y-65200497D01*
X152465881Y-65223189D01*
X152497679Y-65235749D01*
X152573683Y-65273858D01*
X152649102Y-65323411D01*
X152699057Y-65362804D01*
X152844382Y-65191737D01*
G37*
G36*
X150220237Y-66099807D02*
G01*
X150220237Y-66334818D01*
X150432826Y-66334818D01*
X150432826Y-66711001D01*
X150685690Y-66711001D01*
X150685690Y-66334818D01*
X151389476Y-66334818D01*
X151389476Y-66111018D01*
X151358793Y-66016588D01*
X151332019Y-65937071D01*
X151304150Y-65856804D01*
X151275186Y-65775787D01*
X151245128Y-65694019D01*
X151213975Y-65611502D01*
X151207613Y-65594908D01*
X151174094Y-65509810D01*
X151137635Y-65420860D01*
X151098236Y-65328057D01*
X151064601Y-65251042D01*
X151029084Y-65171561D01*
X150991686Y-65089615D01*
X150952406Y-65005203D01*
X150942292Y-64983715D01*
X150680293Y-64983715D01*
X150680293Y-65023160D01*
X150719628Y-65105632D01*
X150757081Y-65185716D01*
X150792653Y-65263413D01*
X150834472Y-65357176D01*
X150873352Y-65447209D01*
X150909292Y-65533512D01*
X150942292Y-65616084D01*
X150972739Y-65695990D01*
X151001281Y-65774295D01*
X151033016Y-65866146D01*
X151062006Y-65955691D01*
X151088252Y-66042930D01*
X151104225Y-66099807D01*
X150685690Y-66099807D01*
X150685690Y-65462040D01*
X150432826Y-65462040D01*
X150432826Y-66099807D01*
X150220237Y-66099807D01*
G37*
%LPC*%
D11*
%TO.C,J1*%
X107920000Y-71600000D03*
D12*
X105380000Y-71600000D03*
X102840000Y-71600000D03*
X100300000Y-71600000D03*
%TD*%
D13*
%TO.C,SW1*%
X91800000Y-55912500D03*
X88800000Y-55912500D03*
%TD*%
D14*
%TO.C,U3*%
X133800000Y-56837500D03*
X129800000Y-56837500D03*
D15*
X135380000Y-58087500D03*
D16*
X135380000Y-54627500D03*
D15*
X128220000Y-58087500D03*
D16*
X128220000Y-54627500D03*
%TD*%
%LPD*%
M02*
