M48
; DRILL file {KiCad 8.0.5-8.0.5-0~ubuntu22.04.1} date 2024-09-17T12:21:12-0500
; FORMAT={-:-/ absolute / inch / decimal}
; #@! TF.CreationDate,2024-09-17T12:21:12-05:00
; #@! TF.GenerationSoftware,Kicad,Pcbnew,8.0.5-8.0.5-0~ubuntu22.04.1
; #@! TF.FileFunction,Plated,1,2,PTH
FMAT,2
INCH
; #@! TA.AperFunction,Plated,PTH,ViaDrill
T1C0.0157
; #@! TA.AperFunction,Plated,PTH,ViaDrill
T2C0.0197
; #@! TA.AperFunction,Plated,PTH,ComponentDrill
T3C0.0217
; #@! TA.AperFunction,Plated,PTH,ComponentDrill
T4C0.0236
; #@! TA.AperFunction,Plated,PTH,ComponentDrill
T5C0.0236
; #@! TA.AperFunction,Plated,PTH,ComponentDrill
T6C0.0256
; #@! TA.AperFunction,Plated,PTH,ComponentDrill
T7C0.0394
%
G90
G05
T1
X5.189Y-2.3602
X5.2402Y-2.3701
X5.6063Y-2.7598
X5.6654Y-2.7598
T2
X3.4685Y-2.3504
X3.626Y-2.4803
X3.6516Y-2.6122
X3.7126Y-2.3169
X3.8524Y-2.5098
X4.0236Y-2.1378
X5.189Y-2.1457
X5.4291Y-2.2323
X5.6142Y-2.4409
X5.622Y-2.2323
X5.7835Y-2.2323
T5
X5.1102Y-2.2377
X5.2677Y-2.2377
T7
X3.9488Y-2.8189
X4.0488Y-2.8189
X4.1488Y-2.8189
X4.2488Y-2.8189
T3
G00X5.048Y-2.2643
M15
G01X5.048Y-2.3095
M16
G05
G00X5.3299Y-2.2643
M15
G01X5.3299Y-2.3095
M16
G05
T4
G00X5.3299Y-2.131
M15
G01X5.3299Y-2.1704
M16
G05
T6
G00X5.048Y-2.132
M15
G01X5.048Y-2.1694
M16
G05
M30
