%TF.GenerationSoftware,KiCad,Pcbnew,8.0.5-8.0.5-0~ubuntu22.04.1*%
%TF.CreationDate,2024-09-17T12:21:12-05:00*%
%TF.ProjectId,cheating-calc,63686561-7469-46e6-972d-63616c632e6b,rev?*%
%TF.SameCoordinates,Original*%
%TF.FileFunction,Legend,Top*%
%TF.FilePolarity,Positive*%
%FSLAX46Y46*%
G04 Gerber Fmt 4.6, Leading zero omitted, Abs format (unit mm)*
G04 Created by KiCad (PCBNEW 8.0.5-8.0.5-0~ubuntu22.04.1) date 2024-09-17 12:21:12*
%MOMM*%
%LPD*%
G01*
G04 APERTURE LIST*
G04 Aperture macros list*
%AMFreePoly0*
4,1,19,0.500000,-0.750000,0.000000,-0.750000,0.000000,-0.744911,-0.071157,-0.744911,-0.207708,-0.704816,-0.327430,-0.627875,-0.420627,-0.520320,-0.479746,-0.390866,-0.500000,-0.250000,-0.500000,0.250000,-0.479746,0.390866,-0.420627,0.520320,-0.327430,0.627875,-0.207708,0.704816,-0.071157,0.744911,0.000000,0.744911,0.000000,0.750000,0.500000,0.750000,0.500000,-0.750000,0.500000,-0.750000,
$1*%
%AMFreePoly1*
4,1,19,0.000000,0.744911,0.071157,0.744911,0.207708,0.704816,0.327430,0.627875,0.420627,0.520320,0.479746,0.390866,0.500000,0.250000,0.500000,-0.250000,0.479746,-0.390866,0.420627,-0.520320,0.327430,-0.627875,0.207708,-0.704816,0.071157,-0.744911,0.000000,-0.744911,0.000000,-0.750000,-0.500000,-0.750000,-0.500000,0.750000,0.000000,0.750000,0.000000,0.744911,0.000000,0.744911,
$1*%
G04 Aperture macros list end*
%ADD10C,0.150000*%
%ADD11C,0.200000*%
%ADD12C,0.100000*%
%ADD13C,0.120000*%
%ADD14C,0.250000*%
%ADD15C,0.300000*%
%ADD16C,0.500000*%
%ADD17R,0.600000X1.100000*%
%ADD18R,0.790000X0.540000*%
%ADD19R,1.070000X0.600000*%
%ADD20FreePoly0,180.000000*%
%ADD21FreePoly1,180.000000*%
%ADD22R,1.700000X1.700000*%
%ADD23O,1.700000X1.700000*%
%ADD24R,1.130000X1.380000*%
%ADD25C,0.850000*%
%ADD26R,0.900000X2.000000*%
%ADD27R,1.100000X0.930000*%
%ADD28R,3.460000X1.280000*%
%ADD29C,0.600000*%
%ADD30R,0.400000X2.000000*%
%ADD31O,1.200000X2.300000*%
%ADD32O,1.100000X2.100000*%
%ADD33R,1.000000X2.000000*%
%ADD34R,0.700000X0.700000*%
G04 APERTURE END LIST*
D10*
G36*
X108519815Y-68904880D02*
G01*
X108121211Y-69167930D01*
X108121211Y-69341098D01*
X108519815Y-69341098D01*
X108519815Y-69474210D01*
X107514023Y-69474210D01*
X107514023Y-69122745D01*
X107636633Y-69122745D01*
X107636633Y-69341098D01*
X107998601Y-69341098D01*
X107998601Y-69122745D01*
X107994582Y-69070669D01*
X107980691Y-69022459D01*
X107953950Y-68981165D01*
X107947799Y-68974978D01*
X107905529Y-68945806D01*
X107855292Y-68930098D01*
X107817373Y-68927106D01*
X107765304Y-68931883D01*
X107714471Y-68950224D01*
X107676346Y-68982321D01*
X107650930Y-69028173D01*
X107639457Y-69076892D01*
X107636633Y-69122745D01*
X107514023Y-69122745D01*
X107514023Y-69121524D01*
X107515967Y-69070631D01*
X107523432Y-69015447D01*
X107536495Y-68966686D01*
X107558811Y-68917917D01*
X107588748Y-68877889D01*
X107593646Y-68872884D01*
X107637412Y-68838370D01*
X107682393Y-68816259D01*
X107733616Y-68801698D01*
X107782488Y-68795227D01*
X107817617Y-68793994D01*
X107866718Y-68796694D01*
X107918253Y-68806391D01*
X107964903Y-68823141D01*
X108011546Y-68850414D01*
X108050652Y-68886748D01*
X108081141Y-68932279D01*
X108101008Y-68980471D01*
X108111441Y-69021384D01*
X108505649Y-68755159D01*
X108519815Y-68755159D01*
X108519815Y-68904880D01*
G37*
G36*
X108512000Y-67965766D02*
G01*
X108512000Y-68575397D01*
X108389390Y-68575397D01*
X108389390Y-68333352D01*
X107634191Y-68333352D01*
X107634191Y-68575397D01*
X107511581Y-68575397D01*
X107511581Y-67965766D01*
X107634191Y-67965766D01*
X107634191Y-68200240D01*
X108389390Y-68200240D01*
X108389390Y-67965766D01*
X108512000Y-67965766D01*
G37*
G36*
X107511581Y-67754741D02*
G01*
X107511581Y-67588900D01*
X108272397Y-67176374D01*
X107511581Y-67176374D01*
X107511581Y-67043261D01*
X108512000Y-67043261D01*
X108512000Y-67203484D01*
X107748252Y-67621628D01*
X108512000Y-67621628D01*
X108512000Y-67754741D01*
X107511581Y-67754741D01*
G37*
G36*
X108027422Y-66511056D02*
G01*
X108027422Y-66152508D01*
X108418699Y-66152508D01*
X108449025Y-66193584D01*
X108476512Y-66239542D01*
X108497463Y-66285833D01*
X108502474Y-66299786D01*
X108515740Y-66348673D01*
X108523479Y-66396913D01*
X108527238Y-66449171D01*
X108527631Y-66473687D01*
X108525459Y-66522797D01*
X108517433Y-66576662D01*
X108503493Y-66626835D01*
X108483639Y-66673314D01*
X108465838Y-66704252D01*
X108436102Y-66744108D01*
X108401176Y-66779686D01*
X108361062Y-66810986D01*
X108315758Y-66838009D01*
X108287540Y-66851531D01*
X108234491Y-66871516D01*
X108185542Y-66884739D01*
X108133380Y-66894357D01*
X108078008Y-66900367D01*
X108019424Y-66902771D01*
X108009348Y-66902822D01*
X107949123Y-66901119D01*
X107892279Y-66896013D01*
X107838817Y-66887503D01*
X107788735Y-66875588D01*
X107742035Y-66860270D01*
X107688415Y-66836335D01*
X107640078Y-66807080D01*
X107622223Y-66793889D01*
X107582046Y-66757337D01*
X107548678Y-66715765D01*
X107522120Y-66669172D01*
X107502372Y-66617557D01*
X107489434Y-66560922D01*
X107483986Y-66511999D01*
X107482760Y-66473198D01*
X107484557Y-66423108D01*
X107490768Y-66370806D01*
X107501415Y-66322034D01*
X107505475Y-66308090D01*
X107522649Y-66260121D01*
X107544940Y-66214045D01*
X107564093Y-66183771D01*
X107663744Y-66244831D01*
X107638920Y-66288242D01*
X107621996Y-66335522D01*
X107616849Y-66358648D01*
X107609417Y-66407355D01*
X107605549Y-66458345D01*
X107605370Y-66471000D01*
X107609174Y-66526705D01*
X107620586Y-66576399D01*
X107643515Y-66626778D01*
X107676799Y-66668976D01*
X107713570Y-66698635D01*
X107756944Y-66722789D01*
X107805916Y-66741946D01*
X107860487Y-66756105D01*
X107910240Y-66764087D01*
X107963880Y-66768599D01*
X108009592Y-66769709D01*
X108065427Y-66767777D01*
X108117374Y-66761981D01*
X108165433Y-66752321D01*
X108217972Y-66735629D01*
X108264912Y-66713372D01*
X108299752Y-66690575D01*
X108340770Y-66653018D01*
X108371713Y-66609805D01*
X108392582Y-66560935D01*
X108403376Y-66506408D01*
X108405021Y-66472710D01*
X108402151Y-66421449D01*
X108393542Y-66373181D01*
X108376995Y-66322455D01*
X108359103Y-66285620D01*
X108150032Y-66285620D01*
X108150032Y-66511056D01*
X108027422Y-66511056D01*
G37*
G36*
X102947422Y-69113708D02*
G01*
X102947422Y-68755159D01*
X103338699Y-68755159D01*
X103369025Y-68796236D01*
X103396512Y-68842193D01*
X103417463Y-68888485D01*
X103422474Y-68902438D01*
X103435740Y-68951324D01*
X103443479Y-68999564D01*
X103447238Y-69051823D01*
X103447631Y-69076339D01*
X103445459Y-69125449D01*
X103437433Y-69179314D01*
X103423493Y-69229487D01*
X103403639Y-69275966D01*
X103385838Y-69306904D01*
X103356102Y-69346760D01*
X103321176Y-69382338D01*
X103281062Y-69413638D01*
X103235758Y-69440661D01*
X103207540Y-69454182D01*
X103154491Y-69474168D01*
X103105542Y-69487391D01*
X103053380Y-69497008D01*
X102998008Y-69503019D01*
X102939424Y-69505423D01*
X102929348Y-69505473D01*
X102869123Y-69503771D01*
X102812279Y-69498665D01*
X102758817Y-69490155D01*
X102708735Y-69478240D01*
X102662035Y-69462922D01*
X102608415Y-69438986D01*
X102560078Y-69409732D01*
X102542223Y-69396541D01*
X102502046Y-69359989D01*
X102468678Y-69318417D01*
X102442120Y-69271823D01*
X102422372Y-69220209D01*
X102409434Y-69163574D01*
X102403986Y-69114651D01*
X102402760Y-69075850D01*
X102404557Y-69025760D01*
X102410768Y-68973458D01*
X102421415Y-68924685D01*
X102425475Y-68910742D01*
X102442649Y-68862773D01*
X102464940Y-68816697D01*
X102484093Y-68786422D01*
X102583744Y-68847483D01*
X102558920Y-68890893D01*
X102541996Y-68938174D01*
X102536849Y-68961300D01*
X102529417Y-69010007D01*
X102525549Y-69060997D01*
X102525370Y-69073652D01*
X102529174Y-69129357D01*
X102540586Y-69179050D01*
X102563515Y-69229430D01*
X102596799Y-69271628D01*
X102633570Y-69301286D01*
X102676944Y-69325441D01*
X102725916Y-69344597D01*
X102780487Y-69358757D01*
X102830240Y-69366739D01*
X102883880Y-69371250D01*
X102929592Y-69372361D01*
X102985427Y-69370429D01*
X103037374Y-69364633D01*
X103085433Y-69354973D01*
X103137972Y-69338281D01*
X103184912Y-69316024D01*
X103219752Y-69293226D01*
X103260770Y-69255670D01*
X103291713Y-69212456D01*
X103312582Y-69163586D01*
X103323376Y-69109060D01*
X103325021Y-69075362D01*
X103322151Y-69024101D01*
X103313542Y-68975833D01*
X103296995Y-68925107D01*
X103279103Y-68888272D01*
X103070032Y-68888272D01*
X103070032Y-69113708D01*
X102947422Y-69113708D01*
G37*
G36*
X102431581Y-68622291D02*
G01*
X102431581Y-68456450D01*
X103192397Y-68043924D01*
X102431581Y-68043924D01*
X102431581Y-67910812D01*
X103432000Y-67910812D01*
X103432000Y-68071035D01*
X102668252Y-68489179D01*
X103432000Y-68489179D01*
X103432000Y-68622291D01*
X102431581Y-68622291D01*
G37*
G36*
X102951598Y-67021340D02*
G01*
X103009553Y-67026263D01*
X103064192Y-67034878D01*
X103115518Y-67047186D01*
X103163529Y-67063186D01*
X103186291Y-67072570D01*
X103235677Y-67097777D01*
X103279757Y-67127448D01*
X103318531Y-67161583D01*
X103351999Y-67200183D01*
X103368741Y-67224245D01*
X103393389Y-67269592D01*
X103411984Y-67318866D01*
X103424525Y-67372067D01*
X103430455Y-67420794D01*
X103432000Y-67463603D01*
X103432000Y-67739109D01*
X102431581Y-67739109D01*
X102431581Y-67456520D01*
X102554191Y-67456520D01*
X102554191Y-67605997D01*
X103309390Y-67605997D01*
X103309390Y-67465069D01*
X103306550Y-67415549D01*
X103296732Y-67366510D01*
X103277834Y-67319839D01*
X103273486Y-67312173D01*
X103243009Y-67270350D01*
X103205800Y-67235740D01*
X103177254Y-67216674D01*
X103130508Y-67193398D01*
X103080397Y-67175961D01*
X103045119Y-67167581D01*
X102995444Y-67159376D01*
X102945827Y-67154578D01*
X102900771Y-67153170D01*
X102850050Y-67155186D01*
X102794317Y-67162925D01*
X102744183Y-67176469D01*
X102692768Y-67199607D01*
X102648974Y-67230646D01*
X102643339Y-67235725D01*
X102608603Y-67274507D01*
X102582398Y-67318618D01*
X102564725Y-67368059D01*
X102555584Y-67422830D01*
X102554191Y-67456520D01*
X102431581Y-67456520D01*
X102431581Y-67455055D01*
X102433990Y-67402519D01*
X102441217Y-67351461D01*
X102453262Y-67301883D01*
X102456249Y-67292145D01*
X102474625Y-67245071D01*
X102498915Y-67201241D01*
X102529121Y-67160654D01*
X102535872Y-67152926D01*
X102573582Y-67116986D01*
X102618018Y-67086103D01*
X102663762Y-67062631D01*
X102680220Y-67055718D01*
X102727527Y-67040117D01*
X102780054Y-67028973D01*
X102830298Y-67022879D01*
X102884540Y-67020197D01*
X102900771Y-67020058D01*
X102951598Y-67021340D01*
G37*
G36*
X105972000Y-69208474D02*
G01*
X105096633Y-69208474D01*
X105096633Y-69505473D01*
X104974023Y-69505473D01*
X104974023Y-68770791D01*
X105096633Y-68770791D01*
X105096633Y-69075362D01*
X105972000Y-69075362D01*
X105972000Y-69208474D01*
G37*
G36*
X105972000Y-67965766D02*
G01*
X105972000Y-68575397D01*
X105849390Y-68575397D01*
X105849390Y-68333352D01*
X105094191Y-68333352D01*
X105094191Y-68575397D01*
X104971581Y-68575397D01*
X104971581Y-67965766D01*
X105094191Y-67965766D01*
X105094191Y-68200240D01*
X105849390Y-68200240D01*
X105849390Y-67965766D01*
X105972000Y-67965766D01*
G37*
G36*
X105335600Y-67030506D02*
G01*
X105390474Y-67041133D01*
X105439878Y-67059591D01*
X105483813Y-67085879D01*
X105511846Y-67109451D01*
X105544965Y-67149362D01*
X105569949Y-67197501D01*
X105584890Y-67245311D01*
X105593854Y-67299167D01*
X105596759Y-67348664D01*
X105596842Y-67359067D01*
X105596842Y-67605997D01*
X105964184Y-67605997D01*
X105964184Y-67739109D01*
X104971581Y-67739109D01*
X104971581Y-67357846D01*
X105094191Y-67357846D01*
X105094191Y-67605997D01*
X105474233Y-67605997D01*
X105474233Y-67357846D01*
X105469924Y-67305396D01*
X105455031Y-67256863D01*
X105426362Y-67215322D01*
X105419766Y-67209102D01*
X105379175Y-67181569D01*
X105332292Y-67165465D01*
X105284212Y-67160742D01*
X105233560Y-67165465D01*
X105185667Y-67181569D01*
X105145970Y-67209102D01*
X105116490Y-67248387D01*
X105100309Y-67294869D01*
X105094393Y-67345473D01*
X105094191Y-67357846D01*
X104971581Y-67357846D01*
X104971581Y-67356625D01*
X104973662Y-67305445D01*
X104981653Y-67249963D01*
X104995638Y-67200956D01*
X105019529Y-67151965D01*
X105051577Y-67111785D01*
X105056822Y-67106764D01*
X105096754Y-67075930D01*
X105142180Y-67052668D01*
X105193098Y-67036981D01*
X105249510Y-67028866D01*
X105284212Y-67027630D01*
X105335600Y-67030506D01*
G37*
G36*
X99760191Y-68864336D02*
G01*
X99760191Y-69286632D01*
X100067692Y-69286632D01*
X100036969Y-69245265D01*
X100016157Y-69202124D01*
X100002483Y-69153656D01*
X99997274Y-69104836D01*
X99997106Y-69093924D01*
X100001839Y-69043539D01*
X100016039Y-68996154D01*
X100037162Y-68955683D01*
X100068481Y-68915501D01*
X100107362Y-68881264D01*
X100149270Y-68855299D01*
X100196487Y-68835464D01*
X100248379Y-68822975D01*
X100299079Y-68818016D01*
X100316820Y-68817685D01*
X100371255Y-68820835D01*
X100421904Y-68830282D01*
X100468765Y-68846028D01*
X100493163Y-68857497D01*
X100537347Y-68885480D01*
X100574947Y-68919664D01*
X100605964Y-68960050D01*
X100611377Y-68968872D01*
X100633659Y-69015912D01*
X100647689Y-69067580D01*
X100653260Y-69118038D01*
X100653631Y-69135690D01*
X100651371Y-69185445D01*
X100643557Y-69237557D01*
X100630162Y-69286329D01*
X100625055Y-69300309D01*
X100603450Y-69346735D01*
X100577602Y-69389333D01*
X100545687Y-69432704D01*
X100529556Y-69452228D01*
X100442117Y-69360637D01*
X100475000Y-69321258D01*
X100501848Y-69277767D01*
X100509284Y-69261963D01*
X100524143Y-69214052D01*
X100530490Y-69163367D01*
X100531021Y-69142284D01*
X100524354Y-69090731D01*
X100504354Y-69044546D01*
X100474601Y-69007218D01*
X100434916Y-68977465D01*
X100386693Y-68958732D01*
X100335991Y-68951294D01*
X100317553Y-68950798D01*
X100265947Y-68955330D01*
X100216564Y-68970783D01*
X100174915Y-68997204D01*
X100141278Y-69036222D01*
X100123166Y-69084032D01*
X100119716Y-69120791D01*
X100124280Y-69171022D01*
X100132661Y-69205787D01*
X100149654Y-69252404D01*
X100166611Y-69286632D01*
X100166611Y-69411684D01*
X99637581Y-69411684D01*
X99637581Y-68864336D01*
X99760191Y-68864336D01*
G37*
G36*
X99637581Y-68647204D02*
G01*
X99637581Y-68505787D01*
X99686792Y-68494807D01*
X99735140Y-68483848D01*
X99798261Y-68469270D01*
X99859848Y-68454730D01*
X99919902Y-68440228D01*
X99978421Y-68425764D01*
X100035406Y-68411339D01*
X100090856Y-68396951D01*
X100118006Y-68389772D01*
X100171118Y-68375236D01*
X100222741Y-68360448D01*
X100272876Y-68345408D01*
X100321522Y-68330116D01*
X100368680Y-68314572D01*
X100425534Y-68294788D01*
X100480063Y-68274611D01*
X100501224Y-68266429D01*
X100447625Y-68246100D01*
X100391701Y-68226177D01*
X100345287Y-68210530D01*
X100297385Y-68195143D01*
X100247994Y-68180015D01*
X100197115Y-68165147D01*
X100144748Y-68150538D01*
X100118006Y-68143331D01*
X100063323Y-68128959D01*
X100007105Y-68114541D01*
X99949353Y-68100077D01*
X99890067Y-68085568D01*
X99829247Y-68071012D01*
X99766892Y-68056411D01*
X99719120Y-68045430D01*
X99670484Y-68034423D01*
X99637581Y-68027071D01*
X99637581Y-67885655D01*
X99697173Y-67899059D01*
X99755507Y-67912528D01*
X99812583Y-67926061D01*
X99868402Y-67939659D01*
X99922962Y-67953321D01*
X99976265Y-67967048D01*
X100028309Y-67980839D01*
X100079096Y-67994694D01*
X100128624Y-68008614D01*
X100176895Y-68022598D01*
X100208376Y-68031956D01*
X100269639Y-68050885D01*
X100328742Y-68070180D01*
X100385685Y-68089842D01*
X100440468Y-68109870D01*
X100493091Y-68130264D01*
X100543554Y-68151025D01*
X100591857Y-68172152D01*
X100638000Y-68193645D01*
X100638000Y-68339214D01*
X100591857Y-68360432D01*
X100543554Y-68381346D01*
X100493091Y-68401954D01*
X100440468Y-68422256D01*
X100385685Y-68442254D01*
X100328742Y-68461946D01*
X100269639Y-68481333D01*
X100208376Y-68500414D01*
X100160944Y-68514528D01*
X100112254Y-68528570D01*
X100062306Y-68542538D01*
X100011101Y-68556433D01*
X99958637Y-68570256D01*
X99904915Y-68584005D01*
X99849935Y-68597682D01*
X99793698Y-68611285D01*
X99736202Y-68624815D01*
X99677449Y-68638273D01*
X99637581Y-68647204D01*
G37*
X98194819Y-69661904D02*
X99004342Y-69661904D01*
X99004342Y-69661904D02*
X99099580Y-69614285D01*
X99099580Y-69614285D02*
X99147200Y-69566666D01*
X99147200Y-69566666D02*
X99194819Y-69471428D01*
X99194819Y-69471428D02*
X99194819Y-69280952D01*
X99194819Y-69280952D02*
X99147200Y-69185714D01*
X99147200Y-69185714D02*
X99099580Y-69138095D01*
X99099580Y-69138095D02*
X99004342Y-69090476D01*
X99004342Y-69090476D02*
X98194819Y-69090476D01*
X98290057Y-68661904D02*
X98242438Y-68614285D01*
X98242438Y-68614285D02*
X98194819Y-68519047D01*
X98194819Y-68519047D02*
X98194819Y-68280952D01*
X98194819Y-68280952D02*
X98242438Y-68185714D01*
X98242438Y-68185714D02*
X98290057Y-68138095D01*
X98290057Y-68138095D02*
X98385295Y-68090476D01*
X98385295Y-68090476D02*
X98480533Y-68090476D01*
X98480533Y-68090476D02*
X98623390Y-68138095D01*
X98623390Y-68138095D02*
X99194819Y-68709523D01*
X99194819Y-68709523D02*
X99194819Y-68090476D01*
X90833333Y-67959580D02*
X90785714Y-68007200D01*
X90785714Y-68007200D02*
X90642857Y-68054819D01*
X90642857Y-68054819D02*
X90547619Y-68054819D01*
X90547619Y-68054819D02*
X90404762Y-68007200D01*
X90404762Y-68007200D02*
X90309524Y-67911961D01*
X90309524Y-67911961D02*
X90261905Y-67816723D01*
X90261905Y-67816723D02*
X90214286Y-67626247D01*
X90214286Y-67626247D02*
X90214286Y-67483390D01*
X90214286Y-67483390D02*
X90261905Y-67292914D01*
X90261905Y-67292914D02*
X90309524Y-67197676D01*
X90309524Y-67197676D02*
X90404762Y-67102438D01*
X90404762Y-67102438D02*
X90547619Y-67054819D01*
X90547619Y-67054819D02*
X90642857Y-67054819D01*
X90642857Y-67054819D02*
X90785714Y-67102438D01*
X90785714Y-67102438D02*
X90833333Y-67150057D01*
X91214286Y-67150057D02*
X91261905Y-67102438D01*
X91261905Y-67102438D02*
X91357143Y-67054819D01*
X91357143Y-67054819D02*
X91595238Y-67054819D01*
X91595238Y-67054819D02*
X91690476Y-67102438D01*
X91690476Y-67102438D02*
X91738095Y-67150057D01*
X91738095Y-67150057D02*
X91785714Y-67245295D01*
X91785714Y-67245295D02*
X91785714Y-67340533D01*
X91785714Y-67340533D02*
X91738095Y-67483390D01*
X91738095Y-67483390D02*
X91166667Y-68054819D01*
X91166667Y-68054819D02*
X91785714Y-68054819D01*
X90933333Y-70559580D02*
X90885714Y-70607200D01*
X90885714Y-70607200D02*
X90742857Y-70654819D01*
X90742857Y-70654819D02*
X90647619Y-70654819D01*
X90647619Y-70654819D02*
X90504762Y-70607200D01*
X90504762Y-70607200D02*
X90409524Y-70511961D01*
X90409524Y-70511961D02*
X90361905Y-70416723D01*
X90361905Y-70416723D02*
X90314286Y-70226247D01*
X90314286Y-70226247D02*
X90314286Y-70083390D01*
X90314286Y-70083390D02*
X90361905Y-69892914D01*
X90361905Y-69892914D02*
X90409524Y-69797676D01*
X90409524Y-69797676D02*
X90504762Y-69702438D01*
X90504762Y-69702438D02*
X90647619Y-69654819D01*
X90647619Y-69654819D02*
X90742857Y-69654819D01*
X90742857Y-69654819D02*
X90885714Y-69702438D01*
X90885714Y-69702438D02*
X90933333Y-69750057D01*
X91885714Y-70654819D02*
X91314286Y-70654819D01*
X91600000Y-70654819D02*
X91600000Y-69654819D01*
X91600000Y-69654819D02*
X91504762Y-69797676D01*
X91504762Y-69797676D02*
X91409524Y-69892914D01*
X91409524Y-69892914D02*
X91314286Y-69940533D01*
X110404761Y-67150057D02*
X110309523Y-67102438D01*
X110309523Y-67102438D02*
X110214285Y-67007200D01*
X110214285Y-67007200D02*
X110071428Y-66864342D01*
X110071428Y-66864342D02*
X109976190Y-66816723D01*
X109976190Y-66816723D02*
X109880952Y-66816723D01*
X109928571Y-67054819D02*
X109833333Y-67007200D01*
X109833333Y-67007200D02*
X109738095Y-66911961D01*
X109738095Y-66911961D02*
X109690476Y-66721485D01*
X109690476Y-66721485D02*
X109690476Y-66388152D01*
X109690476Y-66388152D02*
X109738095Y-66197676D01*
X109738095Y-66197676D02*
X109833333Y-66102438D01*
X109833333Y-66102438D02*
X109928571Y-66054819D01*
X109928571Y-66054819D02*
X110119047Y-66054819D01*
X110119047Y-66054819D02*
X110214285Y-66102438D01*
X110214285Y-66102438D02*
X110309523Y-66197676D01*
X110309523Y-66197676D02*
X110357142Y-66388152D01*
X110357142Y-66388152D02*
X110357142Y-66721485D01*
X110357142Y-66721485D02*
X110309523Y-66911961D01*
X110309523Y-66911961D02*
X110214285Y-67007200D01*
X110214285Y-67007200D02*
X110119047Y-67054819D01*
X110119047Y-67054819D02*
X109928571Y-67054819D01*
X111309523Y-67054819D02*
X110738095Y-67054819D01*
X111023809Y-67054819D02*
X111023809Y-66054819D01*
X111023809Y-66054819D02*
X110928571Y-66197676D01*
X110928571Y-66197676D02*
X110833333Y-66292914D01*
X110833333Y-66292914D02*
X110738095Y-66340533D01*
X134366666Y-67354819D02*
X134366666Y-68069104D01*
X134366666Y-68069104D02*
X134319047Y-68211961D01*
X134319047Y-68211961D02*
X134223809Y-68307200D01*
X134223809Y-68307200D02*
X134080952Y-68354819D01*
X134080952Y-68354819D02*
X133985714Y-68354819D01*
X134842857Y-68354819D02*
X134842857Y-67354819D01*
X134842857Y-67354819D02*
X135223809Y-67354819D01*
X135223809Y-67354819D02*
X135319047Y-67402438D01*
X135319047Y-67402438D02*
X135366666Y-67450057D01*
X135366666Y-67450057D02*
X135414285Y-67545295D01*
X135414285Y-67545295D02*
X135414285Y-67688152D01*
X135414285Y-67688152D02*
X135366666Y-67783390D01*
X135366666Y-67783390D02*
X135319047Y-67831009D01*
X135319047Y-67831009D02*
X135223809Y-67878628D01*
X135223809Y-67878628D02*
X134842857Y-67878628D01*
X136366666Y-68354819D02*
X135795238Y-68354819D01*
X136080952Y-68354819D02*
X136080952Y-67354819D01*
X136080952Y-67354819D02*
X135985714Y-67497676D01*
X135985714Y-67497676D02*
X135890476Y-67592914D01*
X135890476Y-67592914D02*
X135795238Y-67640533D01*
X130433333Y-64954819D02*
X130100000Y-64478628D01*
X129861905Y-64954819D02*
X129861905Y-63954819D01*
X129861905Y-63954819D02*
X130242857Y-63954819D01*
X130242857Y-63954819D02*
X130338095Y-64002438D01*
X130338095Y-64002438D02*
X130385714Y-64050057D01*
X130385714Y-64050057D02*
X130433333Y-64145295D01*
X130433333Y-64145295D02*
X130433333Y-64288152D01*
X130433333Y-64288152D02*
X130385714Y-64383390D01*
X130385714Y-64383390D02*
X130338095Y-64431009D01*
X130338095Y-64431009D02*
X130242857Y-64478628D01*
X130242857Y-64478628D02*
X129861905Y-64478628D01*
X131338095Y-63954819D02*
X130861905Y-63954819D01*
X130861905Y-63954819D02*
X130814286Y-64431009D01*
X130814286Y-64431009D02*
X130861905Y-64383390D01*
X130861905Y-64383390D02*
X130957143Y-64335771D01*
X130957143Y-64335771D02*
X131195238Y-64335771D01*
X131195238Y-64335771D02*
X131290476Y-64383390D01*
X131290476Y-64383390D02*
X131338095Y-64431009D01*
X131338095Y-64431009D02*
X131385714Y-64526247D01*
X131385714Y-64526247D02*
X131385714Y-64764342D01*
X131385714Y-64764342D02*
X131338095Y-64859580D01*
X131338095Y-64859580D02*
X131290476Y-64907200D01*
X131290476Y-64907200D02*
X131195238Y-64954819D01*
X131195238Y-64954819D02*
X130957143Y-64954819D01*
X130957143Y-64954819D02*
X130861905Y-64907200D01*
X130861905Y-64907200D02*
X130814286Y-64859580D01*
X88966667Y-62169700D02*
X89109524Y-62217319D01*
X89109524Y-62217319D02*
X89347619Y-62217319D01*
X89347619Y-62217319D02*
X89442857Y-62169700D01*
X89442857Y-62169700D02*
X89490476Y-62122080D01*
X89490476Y-62122080D02*
X89538095Y-62026842D01*
X89538095Y-62026842D02*
X89538095Y-61931604D01*
X89538095Y-61931604D02*
X89490476Y-61836366D01*
X89490476Y-61836366D02*
X89442857Y-61788747D01*
X89442857Y-61788747D02*
X89347619Y-61741128D01*
X89347619Y-61741128D02*
X89157143Y-61693509D01*
X89157143Y-61693509D02*
X89061905Y-61645890D01*
X89061905Y-61645890D02*
X89014286Y-61598271D01*
X89014286Y-61598271D02*
X88966667Y-61503033D01*
X88966667Y-61503033D02*
X88966667Y-61407795D01*
X88966667Y-61407795D02*
X89014286Y-61312557D01*
X89014286Y-61312557D02*
X89061905Y-61264938D01*
X89061905Y-61264938D02*
X89157143Y-61217319D01*
X89157143Y-61217319D02*
X89395238Y-61217319D01*
X89395238Y-61217319D02*
X89538095Y-61264938D01*
X89871429Y-61217319D02*
X90109524Y-62217319D01*
X90109524Y-62217319D02*
X90300000Y-61503033D01*
X90300000Y-61503033D02*
X90490476Y-62217319D01*
X90490476Y-62217319D02*
X90728572Y-61217319D01*
X91633333Y-62217319D02*
X91061905Y-62217319D01*
X91347619Y-62217319D02*
X91347619Y-61217319D01*
X91347619Y-61217319D02*
X91252381Y-61360176D01*
X91252381Y-61360176D02*
X91157143Y-61455414D01*
X91157143Y-61455414D02*
X91061905Y-61503033D01*
X125454819Y-59166666D02*
X124978628Y-59499999D01*
X125454819Y-59738094D02*
X124454819Y-59738094D01*
X124454819Y-59738094D02*
X124454819Y-59357142D01*
X124454819Y-59357142D02*
X124502438Y-59261904D01*
X124502438Y-59261904D02*
X124550057Y-59214285D01*
X124550057Y-59214285D02*
X124645295Y-59166666D01*
X124645295Y-59166666D02*
X124788152Y-59166666D01*
X124788152Y-59166666D02*
X124883390Y-59214285D01*
X124883390Y-59214285D02*
X124931009Y-59261904D01*
X124931009Y-59261904D02*
X124978628Y-59357142D01*
X124978628Y-59357142D02*
X124978628Y-59738094D01*
X124788152Y-58309523D02*
X125454819Y-58309523D01*
X124407200Y-58547618D02*
X125121485Y-58785713D01*
X125121485Y-58785713D02*
X125121485Y-58166666D01*
X107754819Y-57566666D02*
X107278628Y-57899999D01*
X107754819Y-58138094D02*
X106754819Y-58138094D01*
X106754819Y-58138094D02*
X106754819Y-57757142D01*
X106754819Y-57757142D02*
X106802438Y-57661904D01*
X106802438Y-57661904D02*
X106850057Y-57614285D01*
X106850057Y-57614285D02*
X106945295Y-57566666D01*
X106945295Y-57566666D02*
X107088152Y-57566666D01*
X107088152Y-57566666D02*
X107183390Y-57614285D01*
X107183390Y-57614285D02*
X107231009Y-57661904D01*
X107231009Y-57661904D02*
X107278628Y-57757142D01*
X107278628Y-57757142D02*
X107278628Y-58138094D01*
X106850057Y-57185713D02*
X106802438Y-57138094D01*
X106802438Y-57138094D02*
X106754819Y-57042856D01*
X106754819Y-57042856D02*
X106754819Y-56804761D01*
X106754819Y-56804761D02*
X106802438Y-56709523D01*
X106802438Y-56709523D02*
X106850057Y-56661904D01*
X106850057Y-56661904D02*
X106945295Y-56614285D01*
X106945295Y-56614285D02*
X107040533Y-56614285D01*
X107040533Y-56614285D02*
X107183390Y-56661904D01*
X107183390Y-56661904D02*
X107754819Y-57233332D01*
X107754819Y-57233332D02*
X107754819Y-56614285D01*
X97454819Y-57566666D02*
X96978628Y-57899999D01*
X97454819Y-58138094D02*
X96454819Y-58138094D01*
X96454819Y-58138094D02*
X96454819Y-57757142D01*
X96454819Y-57757142D02*
X96502438Y-57661904D01*
X96502438Y-57661904D02*
X96550057Y-57614285D01*
X96550057Y-57614285D02*
X96645295Y-57566666D01*
X96645295Y-57566666D02*
X96788152Y-57566666D01*
X96788152Y-57566666D02*
X96883390Y-57614285D01*
X96883390Y-57614285D02*
X96931009Y-57661904D01*
X96931009Y-57661904D02*
X96978628Y-57757142D01*
X96978628Y-57757142D02*
X96978628Y-58138094D01*
X96454819Y-57233332D02*
X96454819Y-56614285D01*
X96454819Y-56614285D02*
X96835771Y-56947618D01*
X96835771Y-56947618D02*
X96835771Y-56804761D01*
X96835771Y-56804761D02*
X96883390Y-56709523D01*
X96883390Y-56709523D02*
X96931009Y-56661904D01*
X96931009Y-56661904D02*
X97026247Y-56614285D01*
X97026247Y-56614285D02*
X97264342Y-56614285D01*
X97264342Y-56614285D02*
X97359580Y-56661904D01*
X97359580Y-56661904D02*
X97407200Y-56709523D01*
X97407200Y-56709523D02*
X97454819Y-56804761D01*
X97454819Y-56804761D02*
X97454819Y-57090475D01*
X97454819Y-57090475D02*
X97407200Y-57185713D01*
X97407200Y-57185713D02*
X97359580Y-57233332D01*
X110373261Y-57282057D02*
X110278023Y-57234438D01*
X110278023Y-57234438D02*
X110182785Y-57139200D01*
X110182785Y-57139200D02*
X110039928Y-56996342D01*
X110039928Y-56996342D02*
X109944690Y-56948723D01*
X109944690Y-56948723D02*
X109849452Y-56948723D01*
X109897071Y-57186819D02*
X109801833Y-57139200D01*
X109801833Y-57139200D02*
X109706595Y-57043961D01*
X109706595Y-57043961D02*
X109658976Y-56853485D01*
X109658976Y-56853485D02*
X109658976Y-56520152D01*
X109658976Y-56520152D02*
X109706595Y-56329676D01*
X109706595Y-56329676D02*
X109801833Y-56234438D01*
X109801833Y-56234438D02*
X109897071Y-56186819D01*
X109897071Y-56186819D02*
X110087547Y-56186819D01*
X110087547Y-56186819D02*
X110182785Y-56234438D01*
X110182785Y-56234438D02*
X110278023Y-56329676D01*
X110278023Y-56329676D02*
X110325642Y-56520152D01*
X110325642Y-56520152D02*
X110325642Y-56853485D01*
X110325642Y-56853485D02*
X110278023Y-57043961D01*
X110278023Y-57043961D02*
X110182785Y-57139200D01*
X110182785Y-57139200D02*
X110087547Y-57186819D01*
X110087547Y-57186819D02*
X109897071Y-57186819D01*
X110706595Y-56282057D02*
X110754214Y-56234438D01*
X110754214Y-56234438D02*
X110849452Y-56186819D01*
X110849452Y-56186819D02*
X111087547Y-56186819D01*
X111087547Y-56186819D02*
X111182785Y-56234438D01*
X111182785Y-56234438D02*
X111230404Y-56282057D01*
X111230404Y-56282057D02*
X111278023Y-56377295D01*
X111278023Y-56377295D02*
X111278023Y-56472533D01*
X111278023Y-56472533D02*
X111230404Y-56615390D01*
X111230404Y-56615390D02*
X110658976Y-57186819D01*
X110658976Y-57186819D02*
X111278023Y-57186819D01*
X114862819Y-59166666D02*
X114386628Y-59499999D01*
X114862819Y-59738094D02*
X113862819Y-59738094D01*
X113862819Y-59738094D02*
X113862819Y-59357142D01*
X113862819Y-59357142D02*
X113910438Y-59261904D01*
X113910438Y-59261904D02*
X113958057Y-59214285D01*
X113958057Y-59214285D02*
X114053295Y-59166666D01*
X114053295Y-59166666D02*
X114196152Y-59166666D01*
X114196152Y-59166666D02*
X114291390Y-59214285D01*
X114291390Y-59214285D02*
X114339009Y-59261904D01*
X114339009Y-59261904D02*
X114386628Y-59357142D01*
X114386628Y-59357142D02*
X114386628Y-59738094D01*
X114862819Y-58214285D02*
X114862819Y-58785713D01*
X114862819Y-58499999D02*
X113862819Y-58499999D01*
X113862819Y-58499999D02*
X114005676Y-58595237D01*
X114005676Y-58595237D02*
X114100914Y-58690475D01*
X114100914Y-58690475D02*
X114148533Y-58785713D01*
X131038095Y-61542319D02*
X131038095Y-62351842D01*
X131038095Y-62351842D02*
X131085714Y-62447080D01*
X131085714Y-62447080D02*
X131133333Y-62494700D01*
X131133333Y-62494700D02*
X131228571Y-62542319D01*
X131228571Y-62542319D02*
X131419047Y-62542319D01*
X131419047Y-62542319D02*
X131514285Y-62494700D01*
X131514285Y-62494700D02*
X131561904Y-62447080D01*
X131561904Y-62447080D02*
X131609523Y-62351842D01*
X131609523Y-62351842D02*
X131609523Y-61542319D01*
X131990476Y-61542319D02*
X132609523Y-61542319D01*
X132609523Y-61542319D02*
X132276190Y-61923271D01*
X132276190Y-61923271D02*
X132419047Y-61923271D01*
X132419047Y-61923271D02*
X132514285Y-61970890D01*
X132514285Y-61970890D02*
X132561904Y-62018509D01*
X132561904Y-62018509D02*
X132609523Y-62113747D01*
X132609523Y-62113747D02*
X132609523Y-62351842D01*
X132609523Y-62351842D02*
X132561904Y-62447080D01*
X132561904Y-62447080D02*
X132514285Y-62494700D01*
X132514285Y-62494700D02*
X132419047Y-62542319D01*
X132419047Y-62542319D02*
X132133333Y-62542319D01*
X132133333Y-62542319D02*
X132038095Y-62494700D01*
X132038095Y-62494700D02*
X131990476Y-62447080D01*
X153488095Y-53004819D02*
X153488095Y-53814342D01*
X153488095Y-53814342D02*
X153535714Y-53909580D01*
X153535714Y-53909580D02*
X153583333Y-53957200D01*
X153583333Y-53957200D02*
X153678571Y-54004819D01*
X153678571Y-54004819D02*
X153869047Y-54004819D01*
X153869047Y-54004819D02*
X153964285Y-53957200D01*
X153964285Y-53957200D02*
X154011904Y-53909580D01*
X154011904Y-53909580D02*
X154059523Y-53814342D01*
X154059523Y-53814342D02*
X154059523Y-53004819D01*
X154964285Y-53338152D02*
X154964285Y-54004819D01*
X154726190Y-52957200D02*
X154488095Y-53671485D01*
X154488095Y-53671485D02*
X155107142Y-53671485D01*
D11*
X153348716Y-69853246D02*
X153348716Y-68886579D01*
X153928716Y-70046579D02*
X151898716Y-69369913D01*
X151898716Y-69369913D02*
X153928716Y-68693246D01*
X153928716Y-68016579D02*
X151898716Y-68016579D01*
X151898716Y-68016579D02*
X153928716Y-66856579D01*
X153928716Y-66856579D02*
X151898716Y-66856579D01*
X151898716Y-66179912D02*
X151898716Y-65019912D01*
X153928716Y-65599912D02*
X151898716Y-65599912D01*
X152865383Y-64343245D02*
X152865383Y-63666579D01*
X153928716Y-63376579D02*
X153928716Y-64343245D01*
X153928716Y-64343245D02*
X151898716Y-64343245D01*
X151898716Y-64343245D02*
X151898716Y-63376579D01*
X153928716Y-62506578D02*
X151898716Y-62506578D01*
X151898716Y-62506578D02*
X153928716Y-61346578D01*
X153928716Y-61346578D02*
X151898716Y-61346578D01*
X153928716Y-60379911D02*
X151898716Y-60379911D01*
X151898716Y-60379911D02*
X153928716Y-59219911D01*
X153928716Y-59219911D02*
X151898716Y-59219911D01*
X153348716Y-58349911D02*
X153348716Y-57383244D01*
X153928716Y-58543244D02*
X151898716Y-57866578D01*
X151898716Y-57866578D02*
X153928716Y-57189911D01*
D12*
%TO.C,U2*%
X95040000Y-69800000D02*
X94900000Y-69800000D01*
X95990000Y-69800000D02*
X95950000Y-69800000D01*
X96940000Y-69800000D02*
X96900000Y-69800000D01*
X98000000Y-69800000D02*
X97850000Y-69800000D01*
X95040000Y-68000000D02*
X94900000Y-68000000D01*
X96940000Y-68000000D02*
X95950000Y-68000000D01*
X98000000Y-68000000D02*
X97850000Y-68000000D01*
X98000000Y-68000000D02*
X98000000Y-69800000D01*
X94900000Y-68000000D02*
X94900000Y-69800000D01*
X94930000Y-70420000D02*
G75*
G02*
X94670000Y-70420000I-130000J0D01*
G01*
X94670000Y-70420000D02*
G75*
G02*
X94930000Y-70420000I130000J0D01*
G01*
D10*
%TO.C,C2*%
X94270000Y-67100000D02*
X93480000Y-67100000D01*
X93480000Y-68100000D02*
X94270000Y-68100000D01*
X94420000Y-67950000D02*
X94420000Y-67250000D01*
X92230000Y-67100000D02*
X93020000Y-67100000D01*
X93020000Y-68100000D02*
X92230000Y-68100000D01*
X92080000Y-67950000D02*
X92080000Y-67250000D01*
X94420000Y-67950000D02*
G75*
G02*
X94270000Y-68100000I-150000J0D01*
G01*
X94270000Y-67100000D02*
G75*
G02*
X94420000Y-67250000I0J-150000D01*
G01*
X92230000Y-68100000D02*
G75*
G02*
X92080000Y-67950000I0J150000D01*
G01*
X92080000Y-67250000D02*
G75*
G02*
X92230000Y-67100000I150000J0D01*
G01*
%TO.C,C1*%
X94270000Y-69700000D02*
X93480000Y-69700000D01*
X93480000Y-70700000D02*
X94270000Y-70700000D01*
X94420000Y-70550000D02*
X94420000Y-69850000D01*
X92230000Y-69700000D02*
X93020000Y-69700000D01*
X93020000Y-70700000D02*
X92230000Y-70700000D01*
X92080000Y-70550000D02*
X92080000Y-69850000D01*
X94420000Y-70550000D02*
G75*
G02*
X94270000Y-70700000I-150000J0D01*
G01*
X94270000Y-69700000D02*
G75*
G02*
X94420000Y-69850000I0J-150000D01*
G01*
X92230000Y-70700000D02*
G75*
G02*
X92080000Y-70550000I0J150000D01*
G01*
X92080000Y-69850000D02*
G75*
G02*
X92230000Y-69700000I150000J0D01*
G01*
%TO.C,Q1*%
X109588500Y-62579000D02*
X109588500Y-63629000D01*
X109588500Y-65659000D02*
X109588500Y-64609000D01*
X111348500Y-62579000D02*
X109588500Y-62579000D01*
X111348500Y-63659000D02*
X111348500Y-64579000D01*
X111348500Y-65659000D02*
X109588500Y-65659000D01*
D13*
%TO.C,JP1*%
X133800000Y-66400000D02*
X133800000Y-65800000D01*
X134500000Y-65100000D02*
X135900000Y-65100000D01*
X135900000Y-67100000D02*
X134500000Y-67100000D01*
X136600000Y-65800000D02*
X136600000Y-66400000D01*
X133800000Y-65800000D02*
G75*
G02*
X134500000Y-65100000I700000J0D01*
G01*
X134500000Y-67100000D02*
G75*
G02*
X133800000Y-66400000I0J700000D01*
G01*
X135900000Y-65100000D02*
G75*
G02*
X136600000Y-65800000I1J-699999D01*
G01*
X136600000Y-66400000D02*
G75*
G02*
X135900000Y-67100000I-699999J-1D01*
G01*
%TO.C,J1*%
X98970000Y-70270000D02*
X98970000Y-72930000D01*
X106650000Y-70270000D02*
X98970000Y-70270000D01*
X106650000Y-70270000D02*
X106650000Y-72930000D01*
X106650000Y-72930000D02*
X98970000Y-72930000D01*
X107920000Y-70270000D02*
X109250000Y-70270000D01*
X109250000Y-70270000D02*
X109250000Y-71600000D01*
D10*
%TO.C,R5*%
X128840000Y-65180000D02*
X128840000Y-67020000D01*
X128840000Y-67020000D02*
X130120000Y-67020000D01*
X130120000Y-65180000D02*
X128840000Y-65180000D01*
X131080000Y-65180000D02*
X132360000Y-65180000D01*
X132360000Y-65180000D02*
X132360000Y-67020000D01*
X132360000Y-67020000D02*
X131080000Y-67020000D01*
D14*
%TO.C,SW1*%
X87000000Y-55452500D02*
X87000000Y-56372500D01*
X87200000Y-54562500D02*
X93400000Y-54562500D01*
X88710000Y-57262500D02*
X88890000Y-57262500D01*
X89000000Y-52562500D02*
X90300000Y-52562500D01*
X89000000Y-54562500D02*
X89000000Y-52562500D01*
X90210000Y-57262500D02*
X91890000Y-57262500D01*
X90300000Y-52562500D02*
X90300000Y-54562500D01*
X93600000Y-55452500D02*
X93600000Y-56372500D01*
D10*
%TO.C,R4*%
X120340000Y-55090000D02*
X120340000Y-56530000D01*
X120340000Y-62970000D02*
X120340000Y-61530000D01*
X124260000Y-55090000D02*
X120340000Y-55090000D01*
X124260000Y-56530000D02*
X124260000Y-55090000D01*
X124260000Y-61530000D02*
X124260000Y-62970000D01*
X124260000Y-62970000D02*
X120340000Y-62970000D01*
%TO.C,R2*%
X102740000Y-53460000D02*
X102740000Y-54900000D01*
X102740000Y-61340000D02*
X102740000Y-59900000D01*
X106660000Y-53460000D02*
X102740000Y-53460000D01*
X106660000Y-54900000D02*
X106660000Y-53460000D01*
X106660000Y-59900000D02*
X106660000Y-61340000D01*
X106660000Y-61340000D02*
X102740000Y-61340000D01*
%TO.C,R3*%
X97740000Y-53460000D02*
X97740000Y-54900000D01*
X97740000Y-61340000D02*
X97740000Y-59900000D01*
X101660000Y-53460000D02*
X97740000Y-53460000D01*
X101660000Y-54900000D02*
X101660000Y-53460000D01*
X101660000Y-59900000D02*
X101660000Y-61340000D01*
X101660000Y-61340000D02*
X97740000Y-61340000D01*
%TO.C,Q2*%
X109588500Y-57626000D02*
X109588500Y-58676000D01*
X109588500Y-60706000D02*
X109588500Y-59656000D01*
X111348500Y-57626000D02*
X109588500Y-57626000D01*
X111348500Y-58706000D02*
X111348500Y-59626000D01*
X111348500Y-60706000D02*
X109588500Y-60706000D01*
%TO.C,R1*%
X115140000Y-55060000D02*
X115140000Y-56500000D01*
X115140000Y-62940000D02*
X115140000Y-61500000D01*
X119060000Y-55060000D02*
X115140000Y-55060000D01*
X119060000Y-56500000D02*
X119060000Y-55060000D01*
X119060000Y-61500000D02*
X119060000Y-62940000D01*
X119060000Y-62940000D02*
X115140000Y-62940000D01*
D14*
%TO.C,U3*%
X128100000Y-52487500D02*
X135500000Y-52487500D01*
X128100000Y-53367500D02*
X128100000Y-52487500D01*
X128100000Y-55907500D02*
X128100000Y-56717500D01*
X130070000Y-58637500D02*
X129000000Y-58637500D01*
X134600000Y-58637500D02*
X133530000Y-58637500D01*
X135500000Y-53367500D02*
X135500000Y-52487500D01*
X135500000Y-55907500D02*
X135500000Y-56717500D01*
D15*
X134050000Y-59137500D02*
G75*
G02*
X133750000Y-59137500I-150000J0D01*
G01*
X133750000Y-59137500D02*
G75*
G02*
X134050000Y-59137500I150000J0D01*
G01*
D11*
%TO.C,U4*%
X137000000Y-54365000D02*
X137000000Y-72375000D01*
X137000000Y-72375000D02*
X137250000Y-72375000D01*
X137250000Y-54365000D02*
X137000000Y-54365000D01*
X138560000Y-72375000D02*
X138750000Y-72375000D01*
X138750000Y-54365000D02*
X138560000Y-54365000D01*
X140060000Y-72375000D02*
X140250000Y-72375000D01*
X140250000Y-54365000D02*
X140060000Y-54365000D01*
X141560000Y-72375000D02*
X141750000Y-72375000D01*
X141750000Y-54365000D02*
X141560000Y-54365000D01*
X143060000Y-72375000D02*
X143250000Y-72375000D01*
X143250000Y-54365000D02*
X143060000Y-54365000D01*
X144560000Y-72375000D02*
X144750000Y-72375000D01*
X144750000Y-54365000D02*
X144560000Y-54365000D01*
X146060000Y-72375000D02*
X146250000Y-72375000D01*
X146250000Y-54365000D02*
X146060000Y-54365000D01*
X147560000Y-72375000D02*
X147750000Y-72375000D01*
X147750000Y-54365000D02*
X147560000Y-54365000D01*
X149060000Y-72375000D02*
X149250000Y-72375000D01*
X149250000Y-54365000D02*
X149060000Y-54365000D01*
X150560000Y-72375000D02*
X157000000Y-72375000D01*
X151000000Y-54365000D02*
X151000000Y-72375000D01*
X157000000Y-54365000D02*
X150560000Y-54365000D01*
X157000000Y-72375000D02*
X157000000Y-54365000D01*
D16*
X151500000Y-53665000D02*
G75*
G02*
X151000000Y-53665000I-250000J0D01*
G01*
X151000000Y-53665000D02*
G75*
G02*
X151500000Y-53665000I250000J0D01*
G01*
%TD*%
%LPC*%
D17*
%TO.C,U2*%
X95500000Y-67600000D03*
X97400000Y-67600000D03*
X97400000Y-70200000D03*
X96450000Y-70200000D03*
X95500000Y-70200000D03*
%TD*%
D18*
%TO.C,C2*%
X93800000Y-67600000D03*
X92700000Y-67600000D03*
%TD*%
%TO.C,C1*%
X93800000Y-70200000D03*
X92700000Y-70200000D03*
%TD*%
D19*
%TO.C,Q1*%
X111708500Y-65069000D03*
X111708500Y-63169000D03*
X109228500Y-64119000D03*
%TD*%
D20*
%TO.C,JP1*%
X135850000Y-66100000D03*
D21*
X134550000Y-66100000D03*
%TD*%
D22*
%TO.C,J1*%
X107920000Y-71600000D03*
D23*
X105380000Y-71600000D03*
X102840000Y-71600000D03*
X100300000Y-71600000D03*
%TD*%
D24*
%TO.C,R5*%
X131600000Y-66100000D03*
X129600000Y-66100000D03*
%TD*%
D25*
%TO.C,SW1*%
X91800000Y-55912500D03*
X88800000Y-55912500D03*
D26*
X92550000Y-57762500D03*
X89550000Y-57762500D03*
X88050000Y-57762500D03*
D27*
X86500000Y-57052500D03*
X86500000Y-54782500D03*
X94100000Y-54782500D03*
X94100000Y-57052500D03*
%TD*%
D28*
%TO.C,R4*%
X122300000Y-62100000D03*
X122300000Y-55960000D03*
%TD*%
%TO.C,R2*%
X104700000Y-60470000D03*
X104700000Y-54330000D03*
%TD*%
%TO.C,R3*%
X99700000Y-60470000D03*
X99700000Y-54330000D03*
%TD*%
D19*
%TO.C,Q2*%
X111708500Y-60116000D03*
X111708500Y-58216000D03*
X109228500Y-59166000D03*
%TD*%
D28*
%TO.C,R1*%
X117100000Y-62070000D03*
X117100000Y-55930000D03*
%TD*%
D29*
%TO.C,U3*%
X133800000Y-56837500D03*
X129800000Y-56837500D03*
D30*
X133100000Y-58037500D03*
X132450000Y-58037500D03*
X131800000Y-58037500D03*
X131150000Y-58037500D03*
X130500000Y-58037500D03*
D31*
X135380000Y-58087500D03*
D32*
X135380000Y-54627500D03*
D31*
X128220000Y-58087500D03*
D32*
X128220000Y-54627500D03*
%TD*%
D33*
%TO.C,U4*%
X149900000Y-54615000D03*
X148400000Y-54615000D03*
X146900000Y-54615000D03*
X145400000Y-54615000D03*
X143900000Y-54615000D03*
X142400000Y-54615000D03*
X140900000Y-54615000D03*
X139400000Y-54615000D03*
X137900000Y-54615000D03*
X137900000Y-72115000D03*
X139400000Y-72115000D03*
X140900000Y-72115000D03*
X142400000Y-72115000D03*
X143900000Y-72115000D03*
X145400000Y-72115000D03*
X146900000Y-72115000D03*
X148400000Y-72115000D03*
X149900000Y-72115000D03*
D34*
X144800000Y-63225000D03*
X143700000Y-63225000D03*
X142600000Y-63225000D03*
X144800000Y-64325000D03*
X143700000Y-64325000D03*
X142600000Y-64325000D03*
X144800000Y-65425000D03*
X143700000Y-65425000D03*
X142600000Y-65425000D03*
%TD*%
%LPD*%
M02*
