%TF.GenerationSoftware,KiCad,Pcbnew,8.0.5-8.0.5-0~ubuntu22.04.1*%
%TF.CreationDate,2024-09-17T12:21:12-05:00*%
%TF.ProjectId,cheating-calc,63686561-7469-46e6-972d-63616c632e6b,rev?*%
%TF.SameCoordinates,Original*%
%TF.FileFunction,Copper,L1,Top*%
%TF.FilePolarity,Positive*%
%FSLAX46Y46*%
G04 Gerber Fmt 4.6, Leading zero omitted, Abs format (unit mm)*
G04 Created by KiCad (PCBNEW 8.0.5-8.0.5-0~ubuntu22.04.1) date 2024-09-17 12:21:12*
%MOMM*%
%LPD*%
G01*
G04 APERTURE LIST*
G04 Aperture macros list*
%AMFreePoly0*
4,1,19,0.500000,-0.750000,0.000000,-0.750000,0.000000,-0.744911,-0.071157,-0.744911,-0.207708,-0.704816,-0.327430,-0.627875,-0.420627,-0.520320,-0.479746,-0.390866,-0.500000,-0.250000,-0.500000,0.250000,-0.479746,0.390866,-0.420627,0.520320,-0.327430,0.627875,-0.207708,0.704816,-0.071157,0.744911,0.000000,0.744911,0.000000,0.750000,0.500000,0.750000,0.500000,-0.750000,0.500000,-0.750000,
$1*%
%AMFreePoly1*
4,1,19,0.000000,0.744911,0.071157,0.744911,0.207708,0.704816,0.327430,0.627875,0.420627,0.520320,0.479746,0.390866,0.500000,0.250000,0.500000,-0.250000,0.479746,-0.390866,0.420627,-0.520320,0.327430,-0.627875,0.207708,-0.704816,0.071157,-0.744911,0.000000,-0.744911,0.000000,-0.750000,-0.500000,-0.750000,-0.500000,0.750000,0.000000,0.750000,0.000000,0.744911,0.000000,0.744911,
$1*%
G04 Aperture macros list end*
%TA.AperFunction,SMDPad,CuDef*%
%ADD10R,0.600000X1.100000*%
%TD*%
%TA.AperFunction,SMDPad,CuDef*%
%ADD11R,0.790000X0.540000*%
%TD*%
%TA.AperFunction,SMDPad,CuDef*%
%ADD12R,1.070000X0.600000*%
%TD*%
%TA.AperFunction,SMDPad,CuDef*%
%ADD13FreePoly0,180.000000*%
%TD*%
%TA.AperFunction,SMDPad,CuDef*%
%ADD14FreePoly1,180.000000*%
%TD*%
%TA.AperFunction,ComponentPad*%
%ADD15R,1.700000X1.700000*%
%TD*%
%TA.AperFunction,ComponentPad*%
%ADD16O,1.700000X1.700000*%
%TD*%
%TA.AperFunction,SMDPad,CuDef*%
%ADD17R,1.130000X1.380000*%
%TD*%
%TA.AperFunction,SMDPad,CuDef*%
%ADD18R,0.900000X2.000000*%
%TD*%
%TA.AperFunction,SMDPad,CuDef*%
%ADD19R,1.100000X0.930000*%
%TD*%
%TA.AperFunction,SMDPad,CuDef*%
%ADD20R,3.460000X1.280000*%
%TD*%
%TA.AperFunction,ComponentPad*%
%ADD21C,0.600000*%
%TD*%
%TA.AperFunction,SMDPad,CuDef*%
%ADD22R,0.400000X2.000000*%
%TD*%
%TA.AperFunction,ComponentPad*%
%ADD23O,1.200000X2.300000*%
%TD*%
%TA.AperFunction,ComponentPad*%
%ADD24O,1.100000X2.100000*%
%TD*%
%TA.AperFunction,SMDPad,CuDef*%
%ADD25R,1.000000X2.000000*%
%TD*%
%TA.AperFunction,SMDPad,CuDef*%
%ADD26R,0.700000X0.700000*%
%TD*%
%TA.AperFunction,ViaPad*%
%ADD27C,1.000000*%
%TD*%
%TA.AperFunction,ViaPad*%
%ADD28C,0.800000*%
%TD*%
%TA.AperFunction,Conductor*%
%ADD29C,0.500000*%
%TD*%
%TA.AperFunction,Conductor*%
%ADD30C,0.250000*%
%TD*%
G04 APERTURE END LIST*
D10*
%TO.P,U2,5,VOUT*%
%TO.N,+3.3V*%
X95500000Y-67600000D03*
%TO.P,U2,4,NC*%
%TO.N,unconnected-(U2-NC-Pad4)*%
X97400000Y-67600000D03*
%TO.P,U2,3,ENABLE*%
%TO.N,+5V*%
X97400000Y-70200000D03*
%TO.P,U2,2,GND*%
%TO.N,GND*%
X96450000Y-70200000D03*
%TO.P,U2,1,VIN*%
%TO.N,+5V*%
X95500000Y-70200000D03*
%TD*%
D11*
%TO.P,C2,2,2*%
%TO.N,+3.3V*%
X93800000Y-67600000D03*
%TO.P,C2,1,1*%
%TO.N,GND*%
X92700000Y-67600000D03*
%TD*%
%TO.P,C1,2,2*%
%TO.N,+5V*%
X93800000Y-70200000D03*
%TO.P,C1,1,1*%
%TO.N,GND*%
X92700000Y-70200000D03*
%TD*%
D12*
%TO.P,Q1,1,G*%
%TO.N,+3.3V*%
X111708500Y-65069000D03*
%TO.P,Q1,2,S*%
%TO.N,RING_GPIO*%
X111708500Y-63169000D03*
%TO.P,Q1,3,D*%
%TO.N,RING*%
X109228500Y-64119000D03*
%TD*%
D13*
%TO.P,JP1,1,A*%
%TO.N,GND*%
X135850000Y-66100000D03*
D14*
%TO.P,JP1,2,B*%
%TO.N,Net-(JP1-B)*%
X134550000Y-66100000D03*
%TD*%
D15*
%TO.P,J1,1,Pin_1*%
%TO.N,RING*%
X107920000Y-71600000D03*
D16*
%TO.P,J1,2,Pin_2*%
%TO.N,TIP*%
X105380000Y-71600000D03*
%TO.P,J1,3,Pin_3*%
%TO.N,GND*%
X102840000Y-71600000D03*
%TO.P,J1,4,Pin_4*%
%TO.N,+5V*%
X100300000Y-71600000D03*
%TD*%
D17*
%TO.P,R5,1,1*%
%TO.N,Net-(JP1-B)*%
X131600000Y-66100000D03*
%TO.P,R5,2,2*%
%TO.N,+3.3V*%
X129600000Y-66100000D03*
%TD*%
D18*
%TO.P,SW1,1,1*%
%TO.N,+3.3V*%
X92550000Y-57762500D03*
%TO.P,SW1,2,2*%
%TO.N,Net-(U4-IO9)*%
X89550000Y-57762500D03*
%TO.P,SW1,3,3*%
%TO.N,GND*%
X88050000Y-57762500D03*
D19*
%TO.P,SW1,4,4*%
%TO.N,unconnected-(SW1-Pad4)*%
X86500000Y-57052500D03*
%TO.P,SW1,5,5*%
%TO.N,unconnected-(SW1-Pad5)*%
X86500000Y-54782500D03*
%TO.P,SW1,6,6*%
%TO.N,unconnected-(SW1-Pad6)*%
X94100000Y-54782500D03*
%TO.P,SW1,7,7*%
%TO.N,unconnected-(SW1-Pad7)*%
X94100000Y-57052500D03*
%TD*%
D20*
%TO.P,R4,1,1*%
%TO.N,TIP_GPIO*%
X122300000Y-62100000D03*
%TO.P,R4,2,2*%
%TO.N,+3.3V*%
X122300000Y-55960000D03*
%TD*%
%TO.P,R2,1,1*%
%TO.N,RING*%
X104700000Y-60470000D03*
%TO.P,R2,2,2*%
%TO.N,+5V*%
X104700000Y-54330000D03*
%TD*%
%TO.P,R3,1,1*%
%TO.N,TIP*%
X99700000Y-60470000D03*
%TO.P,R3,2,2*%
%TO.N,+5V*%
X99700000Y-54330000D03*
%TD*%
D12*
%TO.P,Q2,1,G*%
%TO.N,+3.3V*%
X111708500Y-60116000D03*
%TO.P,Q2,2,S*%
%TO.N,TIP_GPIO*%
X111708500Y-58216000D03*
%TO.P,Q2,3,D*%
%TO.N,TIP*%
X109228500Y-59166000D03*
%TD*%
D20*
%TO.P,R1,1,1*%
%TO.N,RING_GPIO*%
X117100000Y-62070000D03*
%TO.P,R1,2,2*%
%TO.N,+3.3V*%
X117100000Y-55930000D03*
%TD*%
D21*
%TO.P,U3,*%
%TO.N,*%
X133800000Y-56837500D03*
X129800000Y-56837500D03*
D22*
%TO.P,U3,1,VBUS*%
%TO.N,+5V*%
X133100000Y-58037500D03*
%TO.P,U3,2,D-*%
%TO.N,Net-(U3-D-)*%
X132450000Y-58037500D03*
%TO.P,U3,3,D+*%
%TO.N,Net-(U3-D+)*%
X131800000Y-58037500D03*
%TO.P,U3,4,ID*%
%TO.N,unconnected-(U3-ID-Pad4)*%
X131150000Y-58037500D03*
%TO.P,U3,5,GND*%
%TO.N,GND*%
X130500000Y-58037500D03*
D23*
%TO.P,U3,6,EH*%
X135380000Y-58087500D03*
D24*
X135380000Y-54627500D03*
D23*
X128220000Y-58087500D03*
D24*
X128220000Y-54627500D03*
%TD*%
D25*
%TO.P,U4,1,3V3*%
%TO.N,+3.3V*%
X149900000Y-54615000D03*
%TO.P,U4,2,EN*%
%TO.N,Net-(JP1-B)*%
X148400000Y-54615000D03*
%TO.P,U4,3,IO4*%
%TO.N,TIP_GPIO*%
X146900000Y-54615000D03*
%TO.P,U4,4,IO5*%
%TO.N,RING_GPIO*%
X145400000Y-54615000D03*
%TO.P,U4,5,IO6*%
%TO.N,unconnected-(U4-IO6-Pad5)*%
X143900000Y-54615000D03*
%TO.P,U4,6,IO7*%
%TO.N,unconnected-(U4-IO7-Pad6)*%
X142400000Y-54615000D03*
%TO.P,U4,7,IO8*%
%TO.N,unconnected-(U4-IO8-Pad7)*%
X140900000Y-54615000D03*
%TO.P,U4,8,IO9*%
%TO.N,Net-(U4-IO9)*%
X139400000Y-54615000D03*
%TO.P,U4,9,GND*%
%TO.N,GND*%
X137900000Y-54615000D03*
%TO.P,U4,10,IO10*%
%TO.N,unconnected-(U4-IO10-Pad10)*%
X137900000Y-72115000D03*
%TO.P,U4,11,RXD*%
%TO.N,unconnected-(U4-RXD-Pad11)*%
X139400000Y-72115000D03*
%TO.P,U4,12,TXD*%
%TO.N,unconnected-(U4-TXD-Pad12)*%
X140900000Y-72115000D03*
%TO.P,U4,13,IO18*%
%TO.N,Net-(U3-D-)*%
X142400000Y-72115000D03*
%TO.P,U4,14,IO19*%
%TO.N,Net-(U3-D+)*%
X143900000Y-72115000D03*
%TO.P,U4,15,IO3*%
%TO.N,unconnected-(U4-IO3-Pad15)*%
X145400000Y-72115000D03*
%TO.P,U4,16,IO2*%
%TO.N,unconnected-(U4-IO2-Pad16)*%
X146900000Y-72115000D03*
%TO.P,U4,17,IO1*%
%TO.N,unconnected-(U4-IO1-Pad17)*%
X148400000Y-72115000D03*
%TO.P,U4,18,IO0*%
%TO.N,unconnected-(U4-IO0-Pad18)*%
X149900000Y-72115000D03*
D26*
%TO.P,U4,19,EP*%
%TO.N,GND*%
X144800000Y-63225000D03*
X143700000Y-63225000D03*
X142600000Y-63225000D03*
X144800000Y-64325000D03*
X143700000Y-64325000D03*
X142600000Y-64325000D03*
X144800000Y-65425000D03*
X143700000Y-65425000D03*
X142600000Y-65425000D03*
%TD*%
D27*
%TO.N,TIP_GPIO*%
X146900000Y-56700000D03*
X142800000Y-56700000D03*
%TO.N,+5V*%
X102200000Y-54300000D03*
X131800000Y-54500000D03*
%TO.N,+3.3V*%
X94300000Y-58850000D03*
X92100000Y-63000000D03*
%TO.N,GND*%
X88100000Y-59700000D03*
X97850000Y-63750000D03*
X92750000Y-66350000D03*
X142600000Y-62000000D03*
X137900000Y-56700000D03*
D28*
%TO.N,Net-(U3-D+)*%
X143900000Y-70100000D03*
X131800000Y-59950000D03*
%TO.N,Net-(U3-D-)*%
X142400000Y-70100000D03*
X133100000Y-60200000D03*
%TD*%
D29*
%TO.N,GND*%
X97850000Y-63750000D02*
X99350000Y-65250000D01*
X99350000Y-65250000D02*
X101060000Y-65250000D01*
X101060000Y-65250000D02*
X101950000Y-66140000D01*
X101950000Y-66140000D02*
X101950000Y-66150000D01*
X101950000Y-66150000D02*
X102840000Y-67040000D01*
X102840000Y-67040000D02*
X102840000Y-71600000D01*
X92700000Y-70200000D02*
X92700000Y-69000000D01*
X96450000Y-70200000D02*
X96450000Y-69150000D01*
X92700000Y-69000000D02*
X92700000Y-67600000D01*
X96450000Y-69150000D02*
X96300000Y-69000000D01*
X96300000Y-69000000D02*
X92700000Y-69000000D01*
%TO.N,+5V*%
X100300000Y-71600000D02*
X95850000Y-71600000D01*
X95850000Y-71600000D02*
X95500000Y-71250000D01*
X95500000Y-71250000D02*
X95500000Y-70200000D01*
%TO.N,+3.3V*%
X93800000Y-67600000D02*
X95500000Y-67600000D01*
%TO.N,GND*%
X92750000Y-66350000D02*
X92750000Y-67550000D01*
X92750000Y-67550000D02*
X92700000Y-67600000D01*
%TO.N,+5V*%
X95500000Y-70200000D02*
X93800000Y-70200000D01*
X97900000Y-71600000D02*
X97400000Y-71100000D01*
X100300000Y-71600000D02*
X97900000Y-71600000D01*
X97400000Y-71100000D02*
X97400000Y-70200000D01*
%TO.N,RING*%
X107920000Y-64548000D02*
X108349000Y-64119000D01*
X109228500Y-64119000D02*
X108349000Y-64119000D01*
X107920000Y-71600000D02*
X107920000Y-64548000D01*
X108349000Y-64119000D02*
X104700000Y-60470000D01*
%TO.N,TIP*%
X99700000Y-60470000D02*
X101570000Y-60470000D01*
X106550000Y-70430000D02*
X105380000Y-71600000D01*
X103100000Y-62000000D02*
X104850000Y-62000000D01*
X104850000Y-62000000D02*
X106550000Y-63700000D01*
X99700000Y-60470000D02*
X101004000Y-59166000D01*
X101004000Y-59166000D02*
X109228500Y-59166000D01*
X106550000Y-63700000D02*
X106550000Y-70430000D01*
X101570000Y-60470000D02*
X103100000Y-62000000D01*
%TO.N,RING_GPIO*%
X118220000Y-63190000D02*
X138325000Y-63190000D01*
X111708500Y-63169000D02*
X116001000Y-63169000D01*
X116001000Y-63169000D02*
X117100000Y-62070000D01*
X145400000Y-56115000D02*
X145400000Y-54615000D01*
X117100000Y-62070000D02*
X118220000Y-63190000D01*
X138325000Y-63190000D02*
X145400000Y-56115000D01*
%TO.N,TIP_GPIO*%
X137400000Y-62100000D02*
X142800000Y-56700000D01*
X146900000Y-54615000D02*
X146900000Y-56700000D01*
X118416000Y-58216000D02*
X122300000Y-62100000D01*
X122300000Y-62100000D02*
X137400000Y-62100000D01*
X111708500Y-58216000D02*
X118416000Y-58216000D01*
D30*
%TO.N,+5V*%
X133100000Y-58037500D02*
X133100000Y-55800000D01*
D29*
X102230000Y-54330000D02*
X102200000Y-54300000D01*
D30*
X133100000Y-55800000D02*
X131800000Y-54500000D01*
D29*
X99700000Y-54330000D02*
X102170000Y-54330000D01*
X102170000Y-54330000D02*
X102200000Y-54300000D01*
X104700000Y-54330000D02*
X102230000Y-54330000D01*
%TO.N,GND*%
X143700000Y-65425000D02*
X144800000Y-65425000D01*
D30*
X141925000Y-66100000D02*
X135850000Y-66100000D01*
D29*
X88050000Y-57762500D02*
X88050000Y-59650000D01*
X143700000Y-65425000D02*
X143700000Y-64325000D01*
X144800000Y-64325000D02*
X143700000Y-64325000D01*
D30*
X128270000Y-58037500D02*
X128220000Y-58087500D01*
D29*
X142600000Y-62000000D02*
X142600000Y-63225000D01*
X144800000Y-63225000D02*
X144800000Y-64325000D01*
X142600000Y-63225000D02*
X142600000Y-64325000D01*
D30*
X130500000Y-58037500D02*
X128270000Y-58037500D01*
D29*
X143700000Y-63225000D02*
X143700000Y-64325000D01*
X142600000Y-64325000D02*
X143700000Y-64325000D01*
X144800000Y-63225000D02*
X143700000Y-63225000D01*
X142600000Y-65425000D02*
X142600000Y-64325000D01*
D30*
X141925000Y-66100000D02*
X142600000Y-65425000D01*
D29*
X137900000Y-54615000D02*
X137900000Y-56700000D01*
X88050000Y-59650000D02*
X88100000Y-59700000D01*
X143700000Y-65425000D02*
X142600000Y-65425000D01*
X144800000Y-64325000D02*
X144800000Y-65425000D01*
X142600000Y-63225000D02*
X143700000Y-63225000D01*
D30*
%TO.N,Net-(U4-IO9)*%
X112100000Y-56500000D02*
X115700000Y-52900000D01*
X139400000Y-54115000D02*
X139400000Y-54615000D01*
X89550000Y-57762500D02*
X89550000Y-58900000D01*
X91200000Y-60550000D02*
X94850000Y-60550000D01*
X89550000Y-58900000D02*
X91200000Y-60550000D01*
X98900000Y-56500000D02*
X112100000Y-56500000D01*
X115700000Y-52900000D02*
X138185000Y-52900000D01*
X138185000Y-52900000D02*
X139400000Y-54115000D01*
X94850000Y-60550000D02*
X98900000Y-56500000D01*
%TO.N,Net-(U3-D+)*%
X131800000Y-58037500D02*
X131800000Y-59950000D01*
X143900000Y-70100000D02*
X143900000Y-72115000D01*
%TO.N,Net-(U3-D-)*%
X132450000Y-59550000D02*
X133100000Y-60200000D01*
X132450000Y-58037500D02*
X132450000Y-59550000D01*
X142400000Y-72115000D02*
X142400000Y-70100000D01*
%TO.N,Net-(JP1-B)*%
X146600000Y-67400000D02*
X148400000Y-65600000D01*
X134550000Y-66855000D02*
X134550000Y-66100000D01*
X146600000Y-67400000D02*
X135095000Y-67400000D01*
X131600000Y-66100000D02*
X134550000Y-66100000D01*
X135095000Y-67400000D02*
X134550000Y-66855000D01*
X148400000Y-65600000D02*
X148400000Y-54615000D01*
%TD*%
%TA.AperFunction,Conductor*%
%TO.N,+3.3V*%
G36*
X156786802Y-52590185D02*
G01*
X156832557Y-52642989D01*
X156843763Y-52694500D01*
X156843763Y-73445704D01*
X156824078Y-73512743D01*
X156771274Y-73558498D01*
X156719763Y-73569704D01*
X150932536Y-73569704D01*
X150865497Y-73550019D01*
X150819742Y-73497215D01*
X150809798Y-73428057D01*
X150833270Y-73371393D01*
X150843793Y-73357335D01*
X150843792Y-73357335D01*
X150843796Y-73357331D01*
X150894091Y-73222483D01*
X150900500Y-73162873D01*
X150900499Y-71067128D01*
X150894091Y-71007517D01*
X150880284Y-70970499D01*
X150843797Y-70872671D01*
X150843793Y-70872664D01*
X150757547Y-70757455D01*
X150757544Y-70757452D01*
X150642335Y-70671206D01*
X150642328Y-70671202D01*
X150507482Y-70620908D01*
X150507483Y-70620908D01*
X150447883Y-70614501D01*
X150447881Y-70614500D01*
X150447873Y-70614500D01*
X150447864Y-70614500D01*
X149352129Y-70614500D01*
X149352123Y-70614501D01*
X149292515Y-70620909D01*
X149193332Y-70657901D01*
X149123640Y-70662885D01*
X149106668Y-70657901D01*
X149007485Y-70620909D01*
X149007483Y-70620908D01*
X148947883Y-70614501D01*
X148947881Y-70614500D01*
X148947873Y-70614500D01*
X148947864Y-70614500D01*
X147852129Y-70614500D01*
X147852123Y-70614501D01*
X147792515Y-70620909D01*
X147693332Y-70657901D01*
X147623640Y-70662885D01*
X147606668Y-70657901D01*
X147507485Y-70620909D01*
X147507483Y-70620908D01*
X147447883Y-70614501D01*
X147447881Y-70614500D01*
X147447873Y-70614500D01*
X147447864Y-70614500D01*
X146352129Y-70614500D01*
X146352123Y-70614501D01*
X146292515Y-70620909D01*
X146193332Y-70657901D01*
X146123640Y-70662885D01*
X146106668Y-70657901D01*
X146007485Y-70620909D01*
X146007483Y-70620908D01*
X145947883Y-70614501D01*
X145947881Y-70614500D01*
X145947873Y-70614500D01*
X145947865Y-70614500D01*
X144850340Y-70614500D01*
X144783301Y-70594815D01*
X144737546Y-70542011D01*
X144727602Y-70472853D01*
X144732403Y-70452202D01*
X144736490Y-70439624D01*
X144738488Y-70433956D01*
X144748739Y-70407008D01*
X144748740Y-70406999D01*
X144749754Y-70403100D01*
X144753334Y-70387785D01*
X144753929Y-70385955D01*
X144785674Y-70288256D01*
X144805460Y-70100000D01*
X144785674Y-69911744D01*
X144727179Y-69731716D01*
X144632533Y-69567784D01*
X144505871Y-69427112D01*
X144479110Y-69407669D01*
X144352734Y-69315851D01*
X144352729Y-69315848D01*
X144179807Y-69238857D01*
X144179802Y-69238855D01*
X144034001Y-69207865D01*
X143994646Y-69199500D01*
X143805354Y-69199500D01*
X143772897Y-69206398D01*
X143620197Y-69238855D01*
X143620192Y-69238857D01*
X143447270Y-69315848D01*
X143447265Y-69315851D01*
X143294132Y-69427109D01*
X143294129Y-69427111D01*
X143294129Y-69427112D01*
X143242148Y-69484841D01*
X143182663Y-69521489D01*
X143112806Y-69520158D01*
X143057851Y-69484841D01*
X143005871Y-69427112D01*
X142979103Y-69407664D01*
X142852734Y-69315851D01*
X142852729Y-69315848D01*
X142679807Y-69238857D01*
X142679802Y-69238855D01*
X142534001Y-69207865D01*
X142494646Y-69199500D01*
X142305354Y-69199500D01*
X142272897Y-69206398D01*
X142120197Y-69238855D01*
X142120192Y-69238857D01*
X141947270Y-69315848D01*
X141947265Y-69315851D01*
X141794129Y-69427111D01*
X141667466Y-69567785D01*
X141572821Y-69731715D01*
X141572818Y-69731722D01*
X141514327Y-69911740D01*
X141514326Y-69911744D01*
X141494540Y-70100000D01*
X141514326Y-70288256D01*
X141514327Y-70288259D01*
X141567588Y-70452182D01*
X141569583Y-70522024D01*
X141533502Y-70581856D01*
X141470801Y-70612684D01*
X141449657Y-70614500D01*
X140352129Y-70614500D01*
X140352123Y-70614501D01*
X140292515Y-70620909D01*
X140193332Y-70657901D01*
X140123640Y-70662885D01*
X140106668Y-70657901D01*
X140007485Y-70620909D01*
X140007483Y-70620908D01*
X139947883Y-70614501D01*
X139947881Y-70614500D01*
X139947873Y-70614500D01*
X139947864Y-70614500D01*
X138852129Y-70614500D01*
X138852123Y-70614501D01*
X138792515Y-70620909D01*
X138693332Y-70657901D01*
X138623640Y-70662885D01*
X138606668Y-70657901D01*
X138507485Y-70620909D01*
X138507483Y-70620908D01*
X138447883Y-70614501D01*
X138447881Y-70614500D01*
X138447873Y-70614500D01*
X138447864Y-70614500D01*
X137352129Y-70614500D01*
X137352123Y-70614501D01*
X137292516Y-70620908D01*
X137157671Y-70671202D01*
X137157664Y-70671206D01*
X137042455Y-70757452D01*
X137042452Y-70757455D01*
X136956206Y-70872664D01*
X136956202Y-70872671D01*
X136905908Y-71007517D01*
X136901551Y-71048048D01*
X136899501Y-71067123D01*
X136899500Y-71067135D01*
X136899500Y-73162870D01*
X136899501Y-73162876D01*
X136905908Y-73222483D01*
X136956202Y-73357328D01*
X136956206Y-73357335D01*
X136966730Y-73371393D01*
X136991148Y-73436857D01*
X136976297Y-73505130D01*
X136926892Y-73554536D01*
X136867464Y-73569704D01*
X132968733Y-73569704D01*
X132901694Y-73550019D01*
X132855939Y-73497215D01*
X132844733Y-73445704D01*
X132844733Y-68004161D01*
X132844733Y-68004159D01*
X132810625Y-67876865D01*
X132744733Y-67762737D01*
X132651547Y-67669551D01*
X132594483Y-67636605D01*
X132537420Y-67603659D01*
X132473772Y-67586605D01*
X132410125Y-67569551D01*
X110409913Y-67569551D01*
X110278129Y-67569551D01*
X110150833Y-67603659D01*
X110036707Y-67669551D01*
X110036704Y-67669553D01*
X109943523Y-67762734D01*
X109943521Y-67762737D01*
X109877629Y-67876863D01*
X109843521Y-68004159D01*
X109843521Y-73445704D01*
X109823836Y-73512743D01*
X109771032Y-73558498D01*
X109719521Y-73569704D01*
X85968500Y-73569704D01*
X85901461Y-73550019D01*
X85855706Y-73497215D01*
X85844500Y-73445704D01*
X85844500Y-66350000D01*
X91744659Y-66350000D01*
X91763976Y-66546134D01*
X91821185Y-66734725D01*
X91822061Y-66736839D01*
X91828371Y-66751133D01*
X91829630Y-66754685D01*
X91904236Y-66925394D01*
X91913045Y-66994706D01*
X91889880Y-67049361D01*
X91861206Y-67087664D01*
X91861202Y-67087671D01*
X91818026Y-67203435D01*
X91810909Y-67222517D01*
X91804500Y-67282127D01*
X91804500Y-67282134D01*
X91804500Y-67282135D01*
X91804500Y-67917870D01*
X91804501Y-67917872D01*
X91810908Y-67977483D01*
X91861202Y-68112328D01*
X91861204Y-68112331D01*
X91924766Y-68197239D01*
X91949184Y-68262702D01*
X91949500Y-68271550D01*
X91949500Y-69528449D01*
X91929815Y-69595488D01*
X91924767Y-69602760D01*
X91861203Y-69687669D01*
X91861202Y-69687671D01*
X91811747Y-69820269D01*
X91810909Y-69822517D01*
X91804500Y-69882127D01*
X91804500Y-69882134D01*
X91804500Y-69882135D01*
X91804500Y-70517870D01*
X91804501Y-70517876D01*
X91810908Y-70577483D01*
X91861202Y-70712328D01*
X91861206Y-70712335D01*
X91947452Y-70827544D01*
X91947455Y-70827547D01*
X92062664Y-70913793D01*
X92062671Y-70913797D01*
X92197517Y-70964091D01*
X92197516Y-70964091D01*
X92204444Y-70964835D01*
X92257127Y-70970500D01*
X93142872Y-70970499D01*
X93202483Y-70964091D01*
X93206663Y-70962531D01*
X93276352Y-70957545D01*
X93293323Y-70962526D01*
X93297517Y-70964091D01*
X93357127Y-70970500D01*
X94242872Y-70970499D01*
X94302483Y-70964091D01*
X94307068Y-70962380D01*
X94317960Y-70958319D01*
X94361294Y-70950500D01*
X94625500Y-70950500D01*
X94692539Y-70970185D01*
X94738294Y-71022989D01*
X94749500Y-71074500D01*
X94749500Y-71323918D01*
X94749500Y-71323920D01*
X94749499Y-71323920D01*
X94778340Y-71468907D01*
X94778343Y-71468917D01*
X94834914Y-71605492D01*
X94867812Y-71654727D01*
X94867813Y-71654730D01*
X94917046Y-71728414D01*
X94917052Y-71728421D01*
X95371584Y-72182952D01*
X95371586Y-72182954D01*
X95401058Y-72202645D01*
X95445270Y-72232186D01*
X95494505Y-72265084D01*
X95494506Y-72265084D01*
X95494507Y-72265085D01*
X95494509Y-72265086D01*
X95546021Y-72286423D01*
X95546022Y-72286423D01*
X95631088Y-72321659D01*
X95747241Y-72344763D01*
X95766468Y-72348587D01*
X95776081Y-72350500D01*
X95776082Y-72350500D01*
X95776083Y-72350500D01*
X95923918Y-72350500D01*
X97826082Y-72350500D01*
X97826083Y-72350500D01*
X97973918Y-72350500D01*
X98520271Y-72350500D01*
X98537791Y-72351744D01*
X98538618Y-72351862D01*
X98631510Y-72365120D01*
X98631511Y-72365121D01*
X98631512Y-72365121D01*
X98677333Y-72371661D01*
X98677333Y-72371662D01*
X98944504Y-72409797D01*
X98987785Y-72424485D01*
X99231315Y-72561526D01*
X99235680Y-72563954D01*
X99235862Y-72564054D01*
X99235947Y-72564101D01*
X99241496Y-72567106D01*
X99592332Y-72754247D01*
X99605094Y-72762079D01*
X99622164Y-72774031D01*
X99622170Y-72774035D01*
X99676896Y-72799554D01*
X99682796Y-72802501D01*
X99725440Y-72825248D01*
X99725450Y-72825253D01*
X99747027Y-72836108D01*
X99748049Y-72836592D01*
X99776875Y-72847586D01*
X99789329Y-72852336D01*
X99797540Y-72855811D01*
X99836339Y-72873904D01*
X99910583Y-72893797D01*
X100064592Y-72935063D01*
X100241034Y-72950500D01*
X100299999Y-72955659D01*
X100300000Y-72955659D01*
X100300001Y-72955659D01*
X100358966Y-72950500D01*
X100535408Y-72935063D01*
X100763663Y-72873903D01*
X100977830Y-72774035D01*
X101171401Y-72638495D01*
X101338495Y-72471401D01*
X101468425Y-72285842D01*
X101523002Y-72242217D01*
X101592500Y-72235023D01*
X101654855Y-72266546D01*
X101671575Y-72285842D01*
X101758368Y-72409796D01*
X101801505Y-72471401D01*
X101968599Y-72638495D01*
X102065384Y-72706265D01*
X102162165Y-72774032D01*
X102162167Y-72774033D01*
X102162170Y-72774035D01*
X102376337Y-72873903D01*
X102604592Y-72935063D01*
X102781034Y-72950500D01*
X102839999Y-72955659D01*
X102840000Y-72955659D01*
X102840001Y-72955659D01*
X102898966Y-72950500D01*
X103075408Y-72935063D01*
X103303663Y-72873903D01*
X103517830Y-72774035D01*
X103711401Y-72638495D01*
X103878495Y-72471401D01*
X104008425Y-72285842D01*
X104063002Y-72242217D01*
X104132500Y-72235023D01*
X104194855Y-72266546D01*
X104211575Y-72285842D01*
X104298368Y-72409796D01*
X104341505Y-72471401D01*
X104508599Y-72638495D01*
X104605384Y-72706265D01*
X104702165Y-72774032D01*
X104702167Y-72774033D01*
X104702170Y-72774035D01*
X104916337Y-72873903D01*
X105144592Y-72935063D01*
X105321034Y-72950500D01*
X105379999Y-72955659D01*
X105380000Y-72955659D01*
X105380001Y-72955659D01*
X105438966Y-72950500D01*
X105615408Y-72935063D01*
X105843663Y-72873903D01*
X106057830Y-72774035D01*
X106251401Y-72638495D01*
X106373329Y-72516566D01*
X106434648Y-72483084D01*
X106504340Y-72488068D01*
X106560274Y-72529939D01*
X106577189Y-72560917D01*
X106626202Y-72692328D01*
X106626206Y-72692335D01*
X106712452Y-72807544D01*
X106712455Y-72807547D01*
X106827664Y-72893793D01*
X106827671Y-72893797D01*
X106962517Y-72944091D01*
X106962516Y-72944091D01*
X106969444Y-72944835D01*
X107022127Y-72950500D01*
X108817872Y-72950499D01*
X108877483Y-72944091D01*
X109012331Y-72893796D01*
X109127546Y-72807546D01*
X109213796Y-72692331D01*
X109264091Y-72557483D01*
X109270500Y-72497873D01*
X109270499Y-70702128D01*
X109264091Y-70642517D01*
X109261530Y-70635651D01*
X109213797Y-70507671D01*
X109213796Y-70507670D01*
X109213796Y-70507669D01*
X109127546Y-70392454D01*
X109127545Y-70392453D01*
X109127543Y-70392450D01*
X109121275Y-70386182D01*
X109121501Y-70385955D01*
X109119450Y-70384062D01*
X109119144Y-70384374D01*
X109098571Y-70364148D01*
X108982432Y-70249965D01*
X108964729Y-70232560D01*
X108950362Y-70215650D01*
X108804620Y-70009182D01*
X108796849Y-69996649D01*
X108685414Y-69790473D01*
X108670500Y-69731514D01*
X108670500Y-66837844D01*
X128535000Y-66837844D01*
X128541401Y-66897372D01*
X128541403Y-66897379D01*
X128591645Y-67032086D01*
X128591649Y-67032093D01*
X128677809Y-67147187D01*
X128677812Y-67147190D01*
X128792906Y-67233350D01*
X128792913Y-67233354D01*
X128927620Y-67283596D01*
X128927627Y-67283598D01*
X128987155Y-67289999D01*
X128987172Y-67290000D01*
X129350000Y-67290000D01*
X129350000Y-66350000D01*
X128535000Y-66350000D01*
X128535000Y-66837844D01*
X108670500Y-66837844D01*
X108670500Y-65416844D01*
X110673500Y-65416844D01*
X110679901Y-65476372D01*
X110679903Y-65476379D01*
X110730145Y-65611086D01*
X110730149Y-65611093D01*
X110816309Y-65726187D01*
X110816312Y-65726190D01*
X110931406Y-65812350D01*
X110931413Y-65812354D01*
X111066120Y-65862596D01*
X111066127Y-65862598D01*
X111125655Y-65868999D01*
X111125672Y-65869000D01*
X111458500Y-65869000D01*
X111958500Y-65869000D01*
X112291328Y-65869000D01*
X112291344Y-65868999D01*
X112350872Y-65862598D01*
X112350879Y-65862596D01*
X112485586Y-65812354D01*
X112485593Y-65812350D01*
X112600687Y-65726190D01*
X112600690Y-65726187D01*
X112686850Y-65611093D01*
X112686854Y-65611086D01*
X112737096Y-65476379D01*
X112737098Y-65476372D01*
X112743499Y-65416844D01*
X112743500Y-65416827D01*
X112743500Y-65362155D01*
X128535000Y-65362155D01*
X128535000Y-65850000D01*
X129350000Y-65850000D01*
X129350000Y-64910000D01*
X128987155Y-64910000D01*
X128927627Y-64916401D01*
X128927620Y-64916403D01*
X128792913Y-64966645D01*
X128792906Y-64966649D01*
X128677812Y-65052809D01*
X128677809Y-65052812D01*
X128591649Y-65167906D01*
X128591645Y-65167913D01*
X128541403Y-65302620D01*
X128541401Y-65302627D01*
X128535000Y-65362155D01*
X112743500Y-65362155D01*
X112743500Y-65319000D01*
X111958500Y-65319000D01*
X111958500Y-65869000D01*
X111458500Y-65869000D01*
X111458500Y-65319000D01*
X110673500Y-65319000D01*
X110673500Y-65416844D01*
X108670500Y-65416844D01*
X108670500Y-65043499D01*
X108690185Y-64976460D01*
X108742989Y-64930705D01*
X108794500Y-64919499D01*
X109811371Y-64919499D01*
X109811372Y-64919499D01*
X109870983Y-64913091D01*
X110005831Y-64862796D01*
X110121046Y-64776546D01*
X110162512Y-64721155D01*
X110673500Y-64721155D01*
X110673500Y-64819000D01*
X111458500Y-64819000D01*
X111958500Y-64819000D01*
X112743500Y-64819000D01*
X112743500Y-64721172D01*
X112743499Y-64721155D01*
X112737098Y-64661627D01*
X112737096Y-64661620D01*
X112686854Y-64526913D01*
X112686850Y-64526906D01*
X112600690Y-64411812D01*
X112600687Y-64411809D01*
X112485593Y-64325649D01*
X112485586Y-64325645D01*
X112350879Y-64275403D01*
X112350872Y-64275401D01*
X112291344Y-64269000D01*
X111958500Y-64269000D01*
X111958500Y-64819000D01*
X111458500Y-64819000D01*
X111458500Y-64269000D01*
X111125655Y-64269000D01*
X111066127Y-64275401D01*
X111066120Y-64275403D01*
X110931413Y-64325645D01*
X110931406Y-64325649D01*
X110816312Y-64411809D01*
X110816309Y-64411812D01*
X110730149Y-64526906D01*
X110730145Y-64526913D01*
X110679903Y-64661620D01*
X110679901Y-64661627D01*
X110673500Y-64721155D01*
X110162512Y-64721155D01*
X110207296Y-64661331D01*
X110257591Y-64526483D01*
X110264000Y-64466873D01*
X110263999Y-63771128D01*
X110257591Y-63711517D01*
X110254744Y-63703885D01*
X110207297Y-63576671D01*
X110207293Y-63576664D01*
X110121047Y-63461455D01*
X110121044Y-63461452D01*
X110005835Y-63375206D01*
X110005828Y-63375202D01*
X109870982Y-63324908D01*
X109870983Y-63324908D01*
X109811383Y-63318501D01*
X109811381Y-63318500D01*
X109811373Y-63318500D01*
X109811365Y-63318500D01*
X108754748Y-63318500D01*
X108744029Y-63318036D01*
X108709523Y-63315041D01*
X108682091Y-63317854D01*
X108669446Y-63318500D01*
X108661230Y-63318500D01*
X108594191Y-63298815D01*
X108573549Y-63282181D01*
X106851265Y-61559897D01*
X106817780Y-61498574D01*
X106822764Y-61428882D01*
X106839680Y-61397905D01*
X106873793Y-61352335D01*
X106873792Y-61352335D01*
X106873796Y-61352331D01*
X106924091Y-61217483D01*
X106930500Y-61157873D01*
X106930499Y-60463844D01*
X110673500Y-60463844D01*
X110679901Y-60523372D01*
X110679903Y-60523379D01*
X110730145Y-60658086D01*
X110730149Y-60658093D01*
X110816309Y-60773187D01*
X110816312Y-60773190D01*
X110931406Y-60859350D01*
X110931413Y-60859354D01*
X111066120Y-60909596D01*
X111066127Y-60909598D01*
X111125655Y-60915999D01*
X111125672Y-60916000D01*
X111458500Y-60916000D01*
X111958500Y-60916000D01*
X112291328Y-60916000D01*
X112291344Y-60915999D01*
X112350872Y-60909598D01*
X112350879Y-60909596D01*
X112485586Y-60859354D01*
X112485593Y-60859350D01*
X112600687Y-60773190D01*
X112600690Y-60773187D01*
X112686850Y-60658093D01*
X112686854Y-60658086D01*
X112737096Y-60523379D01*
X112737098Y-60523372D01*
X112743499Y-60463844D01*
X112743500Y-60463827D01*
X112743500Y-60366000D01*
X111958500Y-60366000D01*
X111958500Y-60916000D01*
X111458500Y-60916000D01*
X111458500Y-60366000D01*
X110673500Y-60366000D01*
X110673500Y-60463844D01*
X106930499Y-60463844D01*
X106930499Y-60040499D01*
X106950184Y-59973461D01*
X107002987Y-59927706D01*
X107054499Y-59916500D01*
X108330139Y-59916500D01*
X108357923Y-59919653D01*
X108362243Y-59920646D01*
X108362245Y-59920646D01*
X108362249Y-59920647D01*
X108425795Y-59925942D01*
X108435878Y-59927201D01*
X108450395Y-59929621D01*
X108485594Y-59935487D01*
X108495283Y-59937502D01*
X108532919Y-59946910D01*
X108545881Y-59950151D01*
X108545881Y-59950152D01*
X108566378Y-59955277D01*
X108566390Y-59955280D01*
X108571395Y-59956289D01*
X108578463Y-59958306D01*
X108586013Y-59960089D01*
X108586017Y-59960091D01*
X108587959Y-59960299D01*
X108589404Y-59960455D01*
X108600669Y-59962191D01*
X108611975Y-59964472D01*
X108622306Y-59964576D01*
X108634288Y-59965280D01*
X108645627Y-59966500D01*
X109811372Y-59966499D01*
X109870983Y-59960091D01*
X110005831Y-59909796D01*
X110121046Y-59823546D01*
X110162512Y-59768155D01*
X110673500Y-59768155D01*
X110673500Y-59866000D01*
X111458500Y-59866000D01*
X111958500Y-59866000D01*
X112743500Y-59866000D01*
X112743500Y-59768172D01*
X112743499Y-59768155D01*
X112737098Y-59708627D01*
X112737096Y-59708620D01*
X112686854Y-59573913D01*
X112686850Y-59573906D01*
X112600690Y-59458812D01*
X112600687Y-59458809D01*
X112485593Y-59372649D01*
X112485586Y-59372645D01*
X112350879Y-59322403D01*
X112350872Y-59322401D01*
X112291344Y-59316000D01*
X111958500Y-59316000D01*
X111958500Y-59866000D01*
X111458500Y-59866000D01*
X111458500Y-59316000D01*
X111125655Y-59316000D01*
X111066127Y-59322401D01*
X111066120Y-59322403D01*
X110931413Y-59372645D01*
X110931406Y-59372649D01*
X110816312Y-59458809D01*
X110816309Y-59458812D01*
X110730149Y-59573906D01*
X110730145Y-59573913D01*
X110679903Y-59708620D01*
X110679901Y-59708627D01*
X110673500Y-59768155D01*
X110162512Y-59768155D01*
X110207296Y-59708331D01*
X110257591Y-59573483D01*
X110264000Y-59513873D01*
X110263999Y-58818128D01*
X110257591Y-58758517D01*
X110244758Y-58724111D01*
X110207297Y-58623671D01*
X110207293Y-58623664D01*
X110121047Y-58508455D01*
X110121044Y-58508452D01*
X110005835Y-58422206D01*
X110005828Y-58422202D01*
X109870982Y-58371908D01*
X109870983Y-58371908D01*
X109811383Y-58365501D01*
X109811381Y-58365500D01*
X109811373Y-58365500D01*
X109811365Y-58365500D01*
X108754748Y-58365500D01*
X108744029Y-58365036D01*
X108709523Y-58362041D01*
X108682091Y-58364854D01*
X108669451Y-58365500D01*
X108645641Y-58365500D01*
X108645627Y-58365501D01*
X108586011Y-58371909D01*
X108578467Y-58373692D01*
X108578442Y-58373587D01*
X108567870Y-58376460D01*
X108566388Y-58376719D01*
X108495293Y-58394492D01*
X108485609Y-58396507D01*
X108435874Y-58404797D01*
X108425786Y-58406056D01*
X108362242Y-58411352D01*
X108357849Y-58411863D01*
X108333782Y-58414667D01*
X108319441Y-58415500D01*
X100930080Y-58415500D01*
X100785092Y-58444340D01*
X100785082Y-58444343D01*
X100648511Y-58500912D01*
X100648498Y-58500919D01*
X100525584Y-58583048D01*
X100525580Y-58583051D01*
X100321021Y-58787610D01*
X100304318Y-58801606D01*
X99963750Y-59039346D01*
X99951091Y-59047099D01*
X99628953Y-59218778D01*
X99613438Y-59225726D01*
X99352015Y-59321878D01*
X99309211Y-59329500D01*
X97922129Y-59329500D01*
X97922123Y-59329501D01*
X97862516Y-59335908D01*
X97727671Y-59386202D01*
X97727664Y-59386206D01*
X97612455Y-59472452D01*
X97612452Y-59472455D01*
X97526206Y-59587664D01*
X97526202Y-59587671D01*
X97475908Y-59722517D01*
X97469501Y-59782116D01*
X97469500Y-59782135D01*
X97469500Y-61157870D01*
X97469501Y-61157876D01*
X97475908Y-61217483D01*
X97526202Y-61352328D01*
X97526206Y-61352335D01*
X97612452Y-61467544D01*
X97612455Y-61467547D01*
X97727664Y-61553793D01*
X97727671Y-61553797D01*
X97862517Y-61604091D01*
X97862516Y-61604091D01*
X97869444Y-61604835D01*
X97922127Y-61610500D01*
X101477872Y-61610499D01*
X101496730Y-61608471D01*
X101499912Y-61608282D01*
X101499905Y-61608196D01*
X101504333Y-61607821D01*
X101504352Y-61607821D01*
X101504781Y-61607753D01*
X101510761Y-61606962D01*
X101537483Y-61604091D01*
X101538564Y-61603687D01*
X101539460Y-61603354D01*
X101541098Y-61603236D01*
X101545038Y-61602306D01*
X101545188Y-61602943D01*
X101609151Y-61598364D01*
X101670474Y-61631842D01*
X101670483Y-61631851D01*
X102621586Y-62582954D01*
X102645962Y-62599240D01*
X102682529Y-62623673D01*
X102744505Y-62665084D01*
X102744507Y-62665085D01*
X102744511Y-62665087D01*
X102787639Y-62682951D01*
X102787640Y-62682951D01*
X102881088Y-62721659D01*
X102996718Y-62744659D01*
X103016294Y-62748553D01*
X103026081Y-62750500D01*
X103026082Y-62750500D01*
X103026083Y-62750500D01*
X103173918Y-62750500D01*
X104487770Y-62750500D01*
X104554809Y-62770185D01*
X104575451Y-62786819D01*
X105763181Y-63974549D01*
X105796666Y-64035872D01*
X105799500Y-64062230D01*
X105799500Y-70067768D01*
X105779815Y-70134807D01*
X105763180Y-70155450D01*
X105722633Y-70195996D01*
X105661310Y-70229481D01*
X105639862Y-70232216D01*
X105613826Y-70233248D01*
X105613818Y-70233248D01*
X105613806Y-70233249D01*
X105612483Y-70233340D01*
X105582186Y-70236355D01*
X105477520Y-70249965D01*
X105450724Y-70250528D01*
X105380001Y-70244341D01*
X105379999Y-70244341D01*
X105144596Y-70264936D01*
X105144586Y-70264938D01*
X104916344Y-70326094D01*
X104916335Y-70326098D01*
X104702171Y-70425964D01*
X104702169Y-70425965D01*
X104508597Y-70561505D01*
X104341505Y-70728597D01*
X104211575Y-70914158D01*
X104156998Y-70957783D01*
X104087500Y-70964977D01*
X104025145Y-70933454D01*
X104008424Y-70914156D01*
X104002079Y-70905094D01*
X103994247Y-70892333D01*
X103983755Y-70872664D01*
X103807128Y-70541537D01*
X103804383Y-70536468D01*
X103804101Y-70535947D01*
X103803953Y-70535679D01*
X103801526Y-70531315D01*
X103664485Y-70287785D01*
X103649797Y-70244504D01*
X103591862Y-69838616D01*
X103591859Y-69838602D01*
X103591744Y-69837791D01*
X103590500Y-69820269D01*
X103590500Y-66966079D01*
X103561659Y-66821092D01*
X103561658Y-66821091D01*
X103561658Y-66821087D01*
X103534404Y-66755289D01*
X103505087Y-66684511D01*
X103505085Y-66684507D01*
X103505084Y-66684505D01*
X103452765Y-66606204D01*
X103439171Y-66585858D01*
X103422954Y-66561586D01*
X102561724Y-65700356D01*
X102546300Y-65681562D01*
X102532952Y-65661584D01*
X101538417Y-64667049D01*
X101530302Y-64661627D01*
X101452826Y-64609860D01*
X101415495Y-64584916D01*
X101415493Y-64584915D01*
X101415490Y-64584913D01*
X101278917Y-64528343D01*
X101278907Y-64528340D01*
X101133920Y-64499500D01*
X101133918Y-64499500D01*
X99712229Y-64499500D01*
X99645190Y-64479815D01*
X99624548Y-64463181D01*
X99127368Y-63966000D01*
X99111330Y-63946277D01*
X99107545Y-63940500D01*
X99105709Y-63937698D01*
X99064217Y-63890659D01*
X99060885Y-63886881D01*
X99060883Y-63886878D01*
X98958779Y-63771123D01*
X98958655Y-63770982D01*
X98941642Y-63746179D01*
X98931472Y-63726625D01*
X98890650Y-63648140D01*
X98885204Y-63636153D01*
X98879995Y-63622857D01*
X98871086Y-63600115D01*
X98856565Y-63563046D01*
X98856565Y-63563045D01*
X98786975Y-63385409D01*
X98785294Y-63381176D01*
X98785216Y-63380981D01*
X98785208Y-63380961D01*
X98784481Y-63379418D01*
X98781197Y-63370883D01*
X98781146Y-63370905D01*
X98778815Y-63365277D01*
X98778814Y-63365273D01*
X98771932Y-63352399D01*
X98769113Y-63346786D01*
X98760312Y-63328099D01*
X98758433Y-63324969D01*
X98751096Y-63313417D01*
X98685910Y-63191462D01*
X98685909Y-63191460D01*
X98560883Y-63039116D01*
X98408539Y-62914090D01*
X98408532Y-62914086D01*
X98234733Y-62821188D01*
X98234727Y-62821186D01*
X98046132Y-62763976D01*
X98046129Y-62763975D01*
X97850000Y-62744659D01*
X97653870Y-62763975D01*
X97465266Y-62821188D01*
X97291467Y-62914086D01*
X97291460Y-62914090D01*
X97139116Y-63039116D01*
X97014090Y-63191460D01*
X97014086Y-63191467D01*
X96921188Y-63365266D01*
X96863975Y-63553870D01*
X96844659Y-63750000D01*
X96863975Y-63946129D01*
X96868579Y-63961306D01*
X96891198Y-64035872D01*
X96921188Y-64134733D01*
X97014086Y-64308532D01*
X97014090Y-64308539D01*
X97139116Y-64460883D01*
X97291460Y-64585909D01*
X97291467Y-64585913D01*
X97432572Y-64661335D01*
X97465273Y-64678814D01*
X97465276Y-64678814D01*
X97467427Y-64679706D01*
X97481980Y-64685344D01*
X97485354Y-64686952D01*
X97485355Y-64686953D01*
X97736163Y-64785207D01*
X97748133Y-64790647D01*
X97826628Y-64831474D01*
X97846179Y-64841643D01*
X97870986Y-64858659D01*
X97986742Y-64960763D01*
X97986881Y-64960885D01*
X97993411Y-64966645D01*
X98035673Y-65003923D01*
X98037704Y-65005714D01*
X98069155Y-65031406D01*
X98078389Y-65039756D01*
X98767048Y-65728415D01*
X98767049Y-65728416D01*
X98821077Y-65782444D01*
X98871585Y-65832952D01*
X98994498Y-65915080D01*
X98994511Y-65915087D01*
X99115655Y-65965266D01*
X99131087Y-65971658D01*
X99131091Y-65971658D01*
X99131092Y-65971659D01*
X99276079Y-66000500D01*
X99276082Y-66000500D01*
X100697770Y-66000500D01*
X100764809Y-66020185D01*
X100785451Y-66036819D01*
X101338274Y-66589642D01*
X101353694Y-66608431D01*
X101367047Y-66628415D01*
X101367052Y-66628421D01*
X102053181Y-67314549D01*
X102086666Y-67375872D01*
X102089500Y-67402230D01*
X102089500Y-69820266D01*
X102088256Y-69837788D01*
X102030201Y-70244500D01*
X102015510Y-70287789D01*
X101878424Y-70531399D01*
X101875584Y-70536516D01*
X101872940Y-70541406D01*
X101685747Y-70892341D01*
X101677912Y-70905107D01*
X101671572Y-70914161D01*
X101616994Y-70957785D01*
X101547496Y-70964976D01*
X101485142Y-70933452D01*
X101468424Y-70914158D01*
X101468168Y-70913793D01*
X101379328Y-70786915D01*
X101338494Y-70728597D01*
X101171402Y-70561506D01*
X101171395Y-70561501D01*
X100977834Y-70425967D01*
X100977830Y-70425965D01*
X100977824Y-70425962D01*
X100763663Y-70326097D01*
X100763659Y-70326096D01*
X100763655Y-70326094D01*
X100535413Y-70264938D01*
X100535403Y-70264936D01*
X100300001Y-70244341D01*
X100299999Y-70244341D01*
X100064596Y-70264936D01*
X100064586Y-70264938D01*
X99836344Y-70326094D01*
X99836339Y-70326096D01*
X99759752Y-70361809D01*
X99749548Y-70366024D01*
X99725448Y-70374746D01*
X99725441Y-70374749D01*
X99682777Y-70397505D01*
X99676830Y-70400474D01*
X99622175Y-70425962D01*
X99622170Y-70425964D01*
X99605106Y-70437912D01*
X99592349Y-70445741D01*
X99241425Y-70632929D01*
X99236574Y-70635552D01*
X99236393Y-70635652D01*
X99231324Y-70638466D01*
X98987787Y-70775510D01*
X98944499Y-70790201D01*
X98538613Y-70848138D01*
X98538577Y-70848143D01*
X98537791Y-70848256D01*
X98520268Y-70849500D01*
X98324500Y-70849500D01*
X98257461Y-70829815D01*
X98211706Y-70777011D01*
X98200500Y-70725500D01*
X98200499Y-69602129D01*
X98200498Y-69602123D01*
X98194091Y-69542516D01*
X98143797Y-69407671D01*
X98143793Y-69407664D01*
X98057547Y-69292455D01*
X98057544Y-69292452D01*
X97942335Y-69206206D01*
X97942328Y-69206202D01*
X97807482Y-69155908D01*
X97807483Y-69155908D01*
X97747883Y-69149501D01*
X97747881Y-69149500D01*
X97747873Y-69149500D01*
X97747865Y-69149500D01*
X97316868Y-69149500D01*
X97249829Y-69129815D01*
X97204074Y-69077011D01*
X97195251Y-69049692D01*
X97171659Y-68931092D01*
X97171658Y-68931091D01*
X97171658Y-68931087D01*
X97169585Y-68926082D01*
X97126453Y-68821951D01*
X97118984Y-68752482D01*
X97150259Y-68690003D01*
X97210348Y-68654351D01*
X97241008Y-68650499D01*
X97747872Y-68650499D01*
X97807483Y-68644091D01*
X97942331Y-68593796D01*
X98057546Y-68507546D01*
X98143796Y-68392331D01*
X98194091Y-68257483D01*
X98200500Y-68197873D01*
X98200499Y-67002128D01*
X98194091Y-66942517D01*
X98178705Y-66901266D01*
X98143797Y-66807671D01*
X98143793Y-66807664D01*
X98057547Y-66692455D01*
X98057544Y-66692452D01*
X97942335Y-66606206D01*
X97942328Y-66606202D01*
X97807486Y-66555910D01*
X97807485Y-66555909D01*
X97807483Y-66555909D01*
X97747873Y-66549500D01*
X97747863Y-66549500D01*
X97052129Y-66549500D01*
X97052123Y-66549501D01*
X96992516Y-66555908D01*
X96857671Y-66606202D01*
X96857664Y-66606206D01*
X96742455Y-66692452D01*
X96742452Y-66692455D01*
X96656206Y-66807664D01*
X96656202Y-66807671D01*
X96605908Y-66942517D01*
X96601705Y-66981616D01*
X96599501Y-67002123D01*
X96599500Y-67002135D01*
X96599500Y-68143276D01*
X96579815Y-68210315D01*
X96527011Y-68256070D01*
X96457853Y-68266014D01*
X96451309Y-68264893D01*
X96399809Y-68254649D01*
X96337898Y-68222264D01*
X96303324Y-68161549D01*
X96300000Y-68133032D01*
X96300000Y-67850000D01*
X93719500Y-67850000D01*
X93652461Y-67830315D01*
X93606706Y-67777511D01*
X93595500Y-67726000D01*
X93595499Y-67282129D01*
X93595498Y-67282123D01*
X93592446Y-67253733D01*
X93589091Y-67222517D01*
X93564660Y-67157015D01*
X93557818Y-67138669D01*
X93550000Y-67095336D01*
X93550000Y-67057876D01*
X93555749Y-67020559D01*
X93557870Y-67013840D01*
X93562485Y-67001533D01*
X93637452Y-66830000D01*
X94050000Y-66830000D01*
X94050000Y-67350000D01*
X95250000Y-67350000D01*
X95750000Y-67350000D01*
X96300000Y-67350000D01*
X96300000Y-67002172D01*
X96299999Y-67002155D01*
X96293598Y-66942627D01*
X96293596Y-66942620D01*
X96243354Y-66807913D01*
X96243350Y-66807906D01*
X96157190Y-66692812D01*
X96157187Y-66692809D01*
X96042093Y-66606649D01*
X96042086Y-66606645D01*
X95907379Y-66556403D01*
X95907372Y-66556401D01*
X95847844Y-66550000D01*
X95750000Y-66550000D01*
X95750000Y-67350000D01*
X95250000Y-67350000D01*
X95250000Y-66550000D01*
X95152155Y-66550000D01*
X95092627Y-66556401D01*
X95092620Y-66556403D01*
X94957913Y-66606645D01*
X94957906Y-66606649D01*
X94842812Y-66692809D01*
X94842809Y-66692812D01*
X94756649Y-66807906D01*
X94756646Y-66807911D01*
X94721827Y-66901266D01*
X94679955Y-66957199D01*
X94614491Y-66981616D01*
X94546218Y-66966764D01*
X94531334Y-66957199D01*
X94437088Y-66886646D01*
X94437086Y-66886645D01*
X94302379Y-66836403D01*
X94302372Y-66836401D01*
X94242844Y-66830000D01*
X94050000Y-66830000D01*
X93637452Y-66830000D01*
X93670368Y-66754686D01*
X93672310Y-66750182D01*
X93672390Y-66749994D01*
X93672874Y-66748645D01*
X93676541Y-66740387D01*
X93676480Y-66740362D01*
X93678813Y-66734728D01*
X93678814Y-66734727D01*
X93683003Y-66720914D01*
X93684968Y-66714980D01*
X93685507Y-66713481D01*
X93692004Y-66695399D01*
X93692005Y-66695389D01*
X93692888Y-66691857D01*
X93695870Y-66678498D01*
X93736024Y-66546132D01*
X93755341Y-66350000D01*
X93736024Y-66153868D01*
X93678814Y-65965273D01*
X93678811Y-65965269D01*
X93678811Y-65965266D01*
X93585913Y-65791467D01*
X93585909Y-65791460D01*
X93460883Y-65639116D01*
X93308539Y-65514090D01*
X93308532Y-65514086D01*
X93134733Y-65421188D01*
X93134727Y-65421186D01*
X92962282Y-65368875D01*
X92946129Y-65363975D01*
X92750000Y-65344659D01*
X92553870Y-65363975D01*
X92365266Y-65421188D01*
X92191467Y-65514086D01*
X92191460Y-65514090D01*
X92039116Y-65639116D01*
X91914090Y-65791460D01*
X91914086Y-65791467D01*
X91821188Y-65965266D01*
X91763975Y-66153870D01*
X91744659Y-66350000D01*
X85844500Y-66350000D01*
X85844500Y-58141999D01*
X85864185Y-58074960D01*
X85916989Y-58029205D01*
X85968495Y-58017999D01*
X86975500Y-58017999D01*
X87042539Y-58037684D01*
X87088294Y-58090488D01*
X87099500Y-58141999D01*
X87099500Y-58810370D01*
X87099501Y-58810376D01*
X87105908Y-58869983D01*
X87156202Y-59004828D01*
X87156204Y-59004831D01*
X87204355Y-59069153D01*
X87228772Y-59134618D01*
X87220532Y-59188726D01*
X87171623Y-59313470D01*
X87171613Y-59313498D01*
X87156012Y-59359744D01*
X87156011Y-59359748D01*
X87155993Y-59359885D01*
X87151772Y-59379267D01*
X87113975Y-59503868D01*
X87094659Y-59700000D01*
X87113975Y-59896129D01*
X87171188Y-60084733D01*
X87264086Y-60258532D01*
X87264090Y-60258539D01*
X87389116Y-60410883D01*
X87541460Y-60535909D01*
X87541467Y-60535913D01*
X87715266Y-60628811D01*
X87715269Y-60628811D01*
X87715273Y-60628814D01*
X87903868Y-60686024D01*
X88100000Y-60705341D01*
X88296132Y-60686024D01*
X88484727Y-60628814D01*
X88658538Y-60535910D01*
X88810883Y-60410883D01*
X88935910Y-60258538D01*
X89028814Y-60084727D01*
X89086024Y-59896132D01*
X89105341Y-59700000D01*
X89099971Y-59645479D01*
X89112990Y-59576834D01*
X89161054Y-59526124D01*
X89228905Y-59509449D01*
X89295000Y-59532105D01*
X89311054Y-59545644D01*
X90714141Y-60948732D01*
X90714142Y-60948733D01*
X90759647Y-60994238D01*
X90801268Y-61035859D01*
X90903707Y-61104307D01*
X90903716Y-61104312D01*
X90924739Y-61113020D01*
X91017548Y-61151463D01*
X91077971Y-61163481D01*
X91138393Y-61175500D01*
X94911607Y-61175500D01*
X94972029Y-61163481D01*
X95032452Y-61151463D01*
X95071994Y-61135084D01*
X95146286Y-61104312D01*
X95197509Y-61070084D01*
X95248733Y-61035858D01*
X95335858Y-60948733D01*
X95335859Y-60948731D01*
X95342925Y-60941665D01*
X95342927Y-60941661D01*
X99122771Y-57161819D01*
X99184094Y-57128334D01*
X99210452Y-57125500D01*
X112161608Y-57125500D01*
X112161608Y-57125499D01*
X112222796Y-57113329D01*
X112282452Y-57101463D01*
X112322856Y-57084727D01*
X112396286Y-57054312D01*
X112452492Y-57016755D01*
X112498733Y-56985858D01*
X112585858Y-56898733D01*
X112585859Y-56898731D01*
X112592925Y-56891665D01*
X112592927Y-56891661D01*
X112866744Y-56617844D01*
X114870000Y-56617844D01*
X114876401Y-56677372D01*
X114876403Y-56677379D01*
X114926645Y-56812086D01*
X114926649Y-56812093D01*
X115012809Y-56927187D01*
X115012812Y-56927190D01*
X115127906Y-57013350D01*
X115127913Y-57013354D01*
X115262620Y-57063596D01*
X115262627Y-57063598D01*
X115322155Y-57069999D01*
X115322172Y-57070000D01*
X116850000Y-57070000D01*
X117350000Y-57070000D01*
X118877828Y-57070000D01*
X118877844Y-57069999D01*
X118937372Y-57063598D01*
X118937379Y-57063596D01*
X119072086Y-57013354D01*
X119072093Y-57013350D01*
X119187187Y-56927190D01*
X119187190Y-56927187D01*
X119273350Y-56812093D01*
X119273354Y-56812086D01*
X119323596Y-56677379D01*
X119323598Y-56677372D01*
X119326773Y-56647844D01*
X120070000Y-56647844D01*
X120076401Y-56707372D01*
X120076403Y-56707379D01*
X120126645Y-56842086D01*
X120126649Y-56842093D01*
X120212809Y-56957187D01*
X120212812Y-56957190D01*
X120327906Y-57043350D01*
X120327913Y-57043354D01*
X120462620Y-57093596D01*
X120462627Y-57093598D01*
X120522155Y-57099999D01*
X120522172Y-57100000D01*
X122050000Y-57100000D01*
X122550000Y-57100000D01*
X124077828Y-57100000D01*
X124077844Y-57099999D01*
X124137372Y-57093598D01*
X124137379Y-57093596D01*
X124272086Y-57043354D01*
X124272093Y-57043350D01*
X124387187Y-56957190D01*
X124387190Y-56957187D01*
X124473350Y-56842093D01*
X124473354Y-56842086D01*
X124523596Y-56707379D01*
X124523598Y-56707372D01*
X124529999Y-56647844D01*
X124530000Y-56647827D01*
X124530000Y-56210000D01*
X122550000Y-56210000D01*
X122550000Y-57100000D01*
X122050000Y-57100000D01*
X122050000Y-56210000D01*
X120070000Y-56210000D01*
X120070000Y-56647844D01*
X119326773Y-56647844D01*
X119329999Y-56617844D01*
X119330000Y-56617827D01*
X119330000Y-56180000D01*
X117350000Y-56180000D01*
X117350000Y-57070000D01*
X116850000Y-57070000D01*
X116850000Y-56180000D01*
X114870000Y-56180000D01*
X114870000Y-56617844D01*
X112866744Y-56617844D01*
X114242434Y-55242155D01*
X114870000Y-55242155D01*
X114870000Y-55680000D01*
X116850000Y-55680000D01*
X117350000Y-55680000D01*
X119330000Y-55680000D01*
X119330000Y-55272155D01*
X120070000Y-55272155D01*
X120070000Y-55710000D01*
X122050000Y-55710000D01*
X122550000Y-55710000D01*
X124530000Y-55710000D01*
X124530000Y-55272172D01*
X124529999Y-55272155D01*
X124523598Y-55212627D01*
X124523596Y-55212620D01*
X124473354Y-55077913D01*
X124473350Y-55077906D01*
X124387190Y-54962812D01*
X124387187Y-54962809D01*
X124272093Y-54876649D01*
X124272086Y-54876645D01*
X124137379Y-54826403D01*
X124137372Y-54826401D01*
X124077844Y-54820000D01*
X122550000Y-54820000D01*
X122550000Y-55710000D01*
X122050000Y-55710000D01*
X122050000Y-54820000D01*
X120522155Y-54820000D01*
X120462627Y-54826401D01*
X120462620Y-54826403D01*
X120327913Y-54876645D01*
X120327906Y-54876649D01*
X120212812Y-54962809D01*
X120212809Y-54962812D01*
X120126649Y-55077906D01*
X120126645Y-55077913D01*
X120076403Y-55212620D01*
X120076401Y-55212627D01*
X120070000Y-55272155D01*
X119330000Y-55272155D01*
X119330000Y-55242172D01*
X119329999Y-55242155D01*
X119323598Y-55182627D01*
X119323596Y-55182620D01*
X119273354Y-55047913D01*
X119273350Y-55047906D01*
X119187190Y-54932812D01*
X119187187Y-54932809D01*
X119072093Y-54846649D01*
X119072086Y-54846645D01*
X118937379Y-54796403D01*
X118937372Y-54796401D01*
X118877844Y-54790000D01*
X117350000Y-54790000D01*
X117350000Y-55680000D01*
X116850000Y-55680000D01*
X116850000Y-54790000D01*
X115322155Y-54790000D01*
X115262627Y-54796401D01*
X115262620Y-54796403D01*
X115127913Y-54846645D01*
X115127906Y-54846649D01*
X115012812Y-54932809D01*
X115012809Y-54932812D01*
X114926649Y-55047906D01*
X114926645Y-55047913D01*
X114876403Y-55182620D01*
X114876401Y-55182627D01*
X114870000Y-55242155D01*
X114242434Y-55242155D01*
X115922771Y-53561819D01*
X115984094Y-53528334D01*
X116010452Y-53525500D01*
X127146724Y-53525500D01*
X127213763Y-53545185D01*
X127259518Y-53597989D01*
X127269462Y-53667147D01*
X127261285Y-53696953D01*
X127209870Y-53821079D01*
X127209868Y-53821087D01*
X127169500Y-54024030D01*
X127169500Y-55230969D01*
X127209868Y-55433912D01*
X127209870Y-55433920D01*
X127280753Y-55605047D01*
X127289059Y-55625098D01*
X127335179Y-55694122D01*
X127404024Y-55797157D01*
X127550342Y-55943475D01*
X127550345Y-55943477D01*
X127722402Y-56058441D01*
X127913580Y-56137630D01*
X128067242Y-56168195D01*
X128116530Y-56177999D01*
X128116534Y-56178000D01*
X128116535Y-56178000D01*
X128323466Y-56178000D01*
X128323467Y-56177999D01*
X128526420Y-56137630D01*
X128717598Y-56058441D01*
X128889655Y-55943477D01*
X129035977Y-55797155D01*
X129150941Y-55625098D01*
X129230130Y-55433920D01*
X129270500Y-55230965D01*
X129270500Y-54024035D01*
X129230130Y-53821080D01*
X129198414Y-53744511D01*
X129178715Y-53696953D01*
X129171246Y-53627483D01*
X129202521Y-53565004D01*
X129262610Y-53529352D01*
X129293276Y-53525500D01*
X131063778Y-53525500D01*
X131130817Y-53545185D01*
X131176572Y-53597989D01*
X131186516Y-53667147D01*
X131157491Y-53730703D01*
X131142443Y-53745353D01*
X131089116Y-53789116D01*
X130964090Y-53941460D01*
X130964086Y-53941467D01*
X130871188Y-54115266D01*
X130813975Y-54303870D01*
X130794659Y-54500000D01*
X130813975Y-54696129D01*
X130813976Y-54696132D01*
X130868734Y-54876645D01*
X130871188Y-54884733D01*
X130964086Y-55058532D01*
X130964090Y-55058539D01*
X131089116Y-55210883D01*
X131241460Y-55335909D01*
X131241467Y-55335913D01*
X131328367Y-55382362D01*
X131415273Y-55428814D01*
X131457455Y-55441610D01*
X131472264Y-55447157D01*
X131481772Y-55451430D01*
X131789970Y-55539890D01*
X131801536Y-55543062D01*
X131802079Y-55543204D01*
X131813980Y-55546162D01*
X131922111Y-55571653D01*
X131966440Y-55591954D01*
X132107350Y-55694124D01*
X132122239Y-55706829D01*
X132438181Y-56022771D01*
X132471666Y-56084094D01*
X132474500Y-56110452D01*
X132474500Y-56413000D01*
X132454815Y-56480039D01*
X132402011Y-56525794D01*
X132350501Y-56537000D01*
X132202130Y-56537000D01*
X132202120Y-56537001D01*
X132138248Y-56543867D01*
X132111742Y-56543867D01*
X132107483Y-56543409D01*
X132047873Y-56537000D01*
X132047864Y-56537000D01*
X131552129Y-56537000D01*
X131552120Y-56537001D01*
X131488248Y-56543867D01*
X131461742Y-56543867D01*
X131457483Y-56543409D01*
X131397873Y-56537000D01*
X131397864Y-56537000D01*
X130902129Y-56537000D01*
X130902120Y-56537001D01*
X130838248Y-56543867D01*
X130811742Y-56543867D01*
X130807483Y-56543409D01*
X130747873Y-56537000D01*
X130747867Y-56537000D01*
X130625124Y-56537000D01*
X130558085Y-56517315D01*
X130520149Y-56479002D01*
X130519309Y-56477666D01*
X130509719Y-56459106D01*
X130509394Y-56458321D01*
X130472790Y-56403540D01*
X130470905Y-56400631D01*
X130441982Y-56354600D01*
X130429816Y-56335238D01*
X130302262Y-56207684D01*
X130302260Y-56207682D01*
X130302257Y-56207680D01*
X130236900Y-56166614D01*
X130233982Y-56164723D01*
X130179179Y-56128105D01*
X130179173Y-56128103D01*
X130178365Y-56127768D01*
X130159865Y-56118209D01*
X130149524Y-56111712D01*
X130149523Y-56111711D01*
X130149522Y-56111711D01*
X130088867Y-56090486D01*
X130082377Y-56088009D01*
X130079943Y-56087001D01*
X130072330Y-56083847D01*
X130033496Y-56067762D01*
X130019860Y-56065050D01*
X130003104Y-56060476D01*
X129979260Y-56052133D01*
X129979256Y-56052132D01*
X129979255Y-56052132D01*
X129958575Y-56049801D01*
X129928303Y-56046390D01*
X129918003Y-56044788D01*
X129878844Y-56037000D01*
X129878842Y-56037000D01*
X129851915Y-56037000D01*
X129838031Y-56036220D01*
X129800002Y-56031935D01*
X129799998Y-56031935D01*
X129761969Y-56036220D01*
X129748085Y-56037000D01*
X129721152Y-56037000D01*
X129681994Y-56044788D01*
X129671696Y-56046390D01*
X129620742Y-56052132D01*
X129620735Y-56052134D01*
X129596898Y-56060475D01*
X129580140Y-56065050D01*
X129566502Y-56067763D01*
X129566496Y-56067764D01*
X129517631Y-56088004D01*
X129511140Y-56090482D01*
X129450477Y-56111710D01*
X129450474Y-56111712D01*
X129440127Y-56118213D01*
X129421639Y-56127766D01*
X129420832Y-56128100D01*
X129420824Y-56128104D01*
X129420821Y-56128105D01*
X129420821Y-56128106D01*
X129406566Y-56137631D01*
X129366047Y-56164704D01*
X129363132Y-56166592D01*
X129297742Y-56207680D01*
X129297735Y-56207686D01*
X129170186Y-56335235D01*
X129170180Y-56335242D01*
X129129092Y-56400632D01*
X129127204Y-56403547D01*
X129090604Y-56458324D01*
X129090600Y-56458332D01*
X129090266Y-56459139D01*
X129080713Y-56477627D01*
X129074212Y-56487974D01*
X129074210Y-56487977D01*
X129052982Y-56548640D01*
X129050503Y-56555134D01*
X129038909Y-56583125D01*
X128995069Y-56637529D01*
X128928775Y-56659594D01*
X128861075Y-56642315D01*
X128851463Y-56635991D01*
X128796791Y-56596270D01*
X128796790Y-56596269D01*
X128796788Y-56596268D01*
X128642445Y-56517627D01*
X128477701Y-56464098D01*
X128477699Y-56464097D01*
X128477698Y-56464097D01*
X128346271Y-56443281D01*
X128306611Y-56437000D01*
X128133389Y-56437000D01*
X128093728Y-56443281D01*
X127962302Y-56464097D01*
X127797552Y-56517628D01*
X127643211Y-56596268D01*
X127586421Y-56637529D01*
X127503072Y-56698086D01*
X127503070Y-56698088D01*
X127503069Y-56698088D01*
X127380588Y-56820569D01*
X127380588Y-56820570D01*
X127380586Y-56820572D01*
X127364955Y-56842086D01*
X127278768Y-56960711D01*
X127200128Y-57115052D01*
X127146597Y-57279802D01*
X127119500Y-57450889D01*
X127119500Y-58724110D01*
X127144737Y-58883456D01*
X127146598Y-58895201D01*
X127186010Y-59016499D01*
X127200128Y-59059947D01*
X127213083Y-59085372D01*
X127278768Y-59214288D01*
X127380586Y-59354428D01*
X127503072Y-59476914D01*
X127643212Y-59578732D01*
X127797555Y-59657373D01*
X127962299Y-59710902D01*
X128133389Y-59738000D01*
X128133390Y-59738000D01*
X128306610Y-59738000D01*
X128306611Y-59738000D01*
X128477701Y-59710902D01*
X128642445Y-59657373D01*
X128796788Y-59578732D01*
X128936928Y-59476914D01*
X129059414Y-59354428D01*
X129161232Y-59214288D01*
X129239873Y-59059945D01*
X129290647Y-58903678D01*
X129314796Y-58860876D01*
X129366702Y-58800878D01*
X129381207Y-58786659D01*
X129487513Y-58698336D01*
X129510783Y-58683065D01*
X129520860Y-58677968D01*
X129524071Y-58676345D01*
X129580031Y-58663000D01*
X129675501Y-58663000D01*
X129742540Y-58682685D01*
X129788295Y-58735489D01*
X129799501Y-58787000D01*
X129799501Y-59085376D01*
X129805908Y-59144983D01*
X129856202Y-59279828D01*
X129856206Y-59279835D01*
X129942452Y-59395044D01*
X129942455Y-59395047D01*
X130057664Y-59481293D01*
X130057671Y-59481297D01*
X130102618Y-59498061D01*
X130192517Y-59531591D01*
X130252127Y-59538000D01*
X130747872Y-59537999D01*
X130747875Y-59537998D01*
X130747885Y-59537998D01*
X130764097Y-59536254D01*
X130805337Y-59531821D01*
X130874094Y-59544225D01*
X130925232Y-59591835D01*
X130942512Y-59659534D01*
X130936523Y-59693426D01*
X130914326Y-59761742D01*
X130914326Y-59761743D01*
X130898765Y-59909797D01*
X130894540Y-59950000D01*
X130914326Y-60138256D01*
X130914327Y-60138259D01*
X130972818Y-60318277D01*
X130972821Y-60318284D01*
X131067467Y-60482216D01*
X131194129Y-60622888D01*
X131347265Y-60734148D01*
X131347270Y-60734151D01*
X131520192Y-60811142D01*
X131520197Y-60811144D01*
X131705354Y-60850500D01*
X131705355Y-60850500D01*
X131894644Y-60850500D01*
X131894646Y-60850500D01*
X132079803Y-60811144D01*
X132252730Y-60734151D01*
X132252733Y-60734148D01*
X132253572Y-60733775D01*
X132322822Y-60724489D01*
X132386099Y-60754117D01*
X132396153Y-60764076D01*
X132494129Y-60872888D01*
X132494132Y-60872890D01*
X132647265Y-60984148D01*
X132647270Y-60984151D01*
X132820192Y-61061142D01*
X132820197Y-61061144D01*
X133005354Y-61100500D01*
X133005355Y-61100500D01*
X133194644Y-61100500D01*
X133194646Y-61100500D01*
X133379803Y-61061144D01*
X133552730Y-60984151D01*
X133705871Y-60872888D01*
X133832533Y-60732216D01*
X133927179Y-60568284D01*
X133985674Y-60388256D01*
X134005460Y-60200000D01*
X133985674Y-60011744D01*
X133927179Y-59831716D01*
X133832533Y-59667784D01*
X133760397Y-59587669D01*
X133705873Y-59527113D01*
X133702125Y-59523739D01*
X133665472Y-59464255D01*
X133666797Y-59394398D01*
X133685824Y-59357272D01*
X133743793Y-59279835D01*
X133743792Y-59279835D01*
X133743796Y-59279831D01*
X133794091Y-59144983D01*
X133800500Y-59085373D01*
X133800499Y-57755346D01*
X133820184Y-57688308D01*
X133872987Y-57642553D01*
X133900300Y-57633731D01*
X133918014Y-57630207D01*
X133928283Y-57628610D01*
X133979255Y-57622868D01*
X134003100Y-57614523D01*
X134019862Y-57609948D01*
X134033497Y-57607237D01*
X134082389Y-57586984D01*
X134088849Y-57584519D01*
X134114547Y-57575526D01*
X134184326Y-57571966D01*
X134244953Y-57606696D01*
X134277179Y-57668690D01*
X134279500Y-57692569D01*
X134279500Y-58724110D01*
X134304737Y-58883456D01*
X134306598Y-58895201D01*
X134346010Y-59016499D01*
X134360128Y-59059947D01*
X134373083Y-59085372D01*
X134438768Y-59214288D01*
X134540586Y-59354428D01*
X134663072Y-59476914D01*
X134803212Y-59578732D01*
X134957555Y-59657373D01*
X135122299Y-59710902D01*
X135293389Y-59738000D01*
X135293390Y-59738000D01*
X135466610Y-59738000D01*
X135466611Y-59738000D01*
X135637701Y-59710902D01*
X135802445Y-59657373D01*
X135956788Y-59578732D01*
X136096928Y-59476914D01*
X136219414Y-59354428D01*
X136321232Y-59214288D01*
X136399873Y-59059945D01*
X136453402Y-58895201D01*
X136480500Y-58724111D01*
X136480500Y-57450889D01*
X136453402Y-57279799D01*
X136399873Y-57115055D01*
X136321232Y-56960712D01*
X136219414Y-56820572D01*
X136096928Y-56698086D01*
X135956788Y-56596268D01*
X135840467Y-56537000D01*
X135802447Y-56517628D01*
X135802446Y-56517627D01*
X135802445Y-56517627D01*
X135637701Y-56464098D01*
X135637699Y-56464097D01*
X135637698Y-56464097D01*
X135506271Y-56443281D01*
X135466611Y-56437000D01*
X135293389Y-56437000D01*
X135253728Y-56443281D01*
X135122302Y-56464097D01*
X134957552Y-56517628D01*
X134803207Y-56596270D01*
X134748535Y-56635992D01*
X134682728Y-56659472D01*
X134614675Y-56643646D01*
X134565980Y-56593540D01*
X134561097Y-56583145D01*
X134549476Y-56555088D01*
X134547028Y-56548675D01*
X134525789Y-56487978D01*
X134519289Y-56477634D01*
X134509719Y-56459106D01*
X134509394Y-56458321D01*
X134472790Y-56403540D01*
X134470905Y-56400631D01*
X134441982Y-56354600D01*
X134429816Y-56335238D01*
X134302262Y-56207684D01*
X134302260Y-56207682D01*
X134302257Y-56207680D01*
X134236900Y-56166614D01*
X134233982Y-56164723D01*
X134179179Y-56128105D01*
X134179173Y-56128103D01*
X134178365Y-56127768D01*
X134159865Y-56118209D01*
X134149524Y-56111712D01*
X134149523Y-56111711D01*
X134149522Y-56111711D01*
X134088867Y-56090486D01*
X134082377Y-56088009D01*
X134079943Y-56087001D01*
X134072330Y-56083847D01*
X134033496Y-56067762D01*
X134019860Y-56065050D01*
X134003104Y-56060476D01*
X133979260Y-56052133D01*
X133979256Y-56052132D01*
X133979255Y-56052132D01*
X133958575Y-56049801D01*
X133928303Y-56046390D01*
X133918003Y-56044788D01*
X133878844Y-56037000D01*
X133878842Y-56037000D01*
X133851915Y-56037000D01*
X133837987Y-56036215D01*
X133837745Y-56036187D01*
X133835571Y-56035942D01*
X133771167Y-56008852D01*
X133731633Y-55951242D01*
X133725500Y-55912727D01*
X133725500Y-55867741D01*
X133725501Y-55867720D01*
X133725501Y-55738392D01*
X133705249Y-55636585D01*
X133705249Y-55636584D01*
X133701463Y-55617548D01*
X133671894Y-55546162D01*
X133670669Y-55543204D01*
X133654315Y-55503721D01*
X133654308Y-55503708D01*
X133585858Y-55401267D01*
X133585855Y-55401263D01*
X133006829Y-54822238D01*
X132994122Y-54807346D01*
X132913481Y-54696129D01*
X132891954Y-54666440D01*
X132871653Y-54622111D01*
X132846162Y-54513980D01*
X132843204Y-54502079D01*
X132843062Y-54501536D01*
X132839890Y-54489970D01*
X132751430Y-54181772D01*
X132742928Y-54154983D01*
X132742803Y-54154626D01*
X132742507Y-54153772D01*
X132742502Y-54153761D01*
X132742500Y-54153754D01*
X132739162Y-54146210D01*
X132733898Y-54132034D01*
X132728813Y-54115271D01*
X132711613Y-54083093D01*
X132710259Y-54080315D01*
X132709933Y-54079757D01*
X132707630Y-54075643D01*
X132635910Y-53941462D01*
X132580304Y-53873706D01*
X132510883Y-53789116D01*
X132457557Y-53745353D01*
X132418223Y-53687608D01*
X132416352Y-53617763D01*
X132452539Y-53557995D01*
X132515295Y-53527279D01*
X132536222Y-53525500D01*
X134306724Y-53525500D01*
X134373763Y-53545185D01*
X134419518Y-53597989D01*
X134429462Y-53667147D01*
X134421285Y-53696953D01*
X134369870Y-53821079D01*
X134369868Y-53821087D01*
X134329500Y-54024030D01*
X134329500Y-55230969D01*
X134369868Y-55433912D01*
X134369870Y-55433920D01*
X134440753Y-55605047D01*
X134449059Y-55625098D01*
X134495179Y-55694122D01*
X134564024Y-55797157D01*
X134710342Y-55943475D01*
X134710345Y-55943477D01*
X134882402Y-56058441D01*
X135073580Y-56137630D01*
X135227242Y-56168195D01*
X135276530Y-56177999D01*
X135276534Y-56178000D01*
X135276535Y-56178000D01*
X135483466Y-56178000D01*
X135483467Y-56177999D01*
X135686420Y-56137630D01*
X135877598Y-56058441D01*
X136049655Y-55943477D01*
X136195977Y-55797155D01*
X136310941Y-55625098D01*
X136390130Y-55433920D01*
X136430500Y-55230965D01*
X136430500Y-54024035D01*
X136390130Y-53821080D01*
X136358414Y-53744511D01*
X136338715Y-53696953D01*
X136331246Y-53627483D01*
X136362521Y-53565004D01*
X136422610Y-53529352D01*
X136453276Y-53525500D01*
X136775500Y-53525500D01*
X136842539Y-53545185D01*
X136888294Y-53597989D01*
X136899500Y-53649500D01*
X136899500Y-55549802D01*
X136899116Y-55559559D01*
X136898584Y-55566288D01*
X136899329Y-55580452D01*
X136899500Y-55586956D01*
X136899500Y-55662868D01*
X136899501Y-55662877D01*
X136905908Y-55722483D01*
X136912711Y-55740721D01*
X136916709Y-55753512D01*
X136921200Y-55771184D01*
X136921204Y-55771197D01*
X136932008Y-55793840D01*
X136936276Y-55803903D01*
X136956202Y-55857328D01*
X136956203Y-55857330D01*
X136965666Y-55869971D01*
X136978309Y-55890877D01*
X136981966Y-55898540D01*
X136983162Y-55901046D01*
X137010216Y-55941627D01*
X137040993Y-55987794D01*
X137048727Y-56001122D01*
X137054502Y-56012672D01*
X137066877Y-56081437D01*
X137057216Y-56117782D01*
X136979627Y-56295322D01*
X136976964Y-56301523D01*
X136976950Y-56301556D01*
X136976938Y-56301589D01*
X136976853Y-56301827D01*
X136976791Y-56301965D01*
X136976315Y-56303190D01*
X136976258Y-56303168D01*
X136973407Y-56309604D01*
X136973516Y-56309649D01*
X136971183Y-56315281D01*
X136967214Y-56328363D01*
X136965326Y-56334083D01*
X136957995Y-56354598D01*
X136957085Y-56358253D01*
X136954127Y-56371504D01*
X136913976Y-56503867D01*
X136894659Y-56700000D01*
X136913975Y-56896129D01*
X136913976Y-56896132D01*
X136971185Y-57084725D01*
X136971188Y-57084733D01*
X137064086Y-57258532D01*
X137064090Y-57258539D01*
X137189116Y-57410883D01*
X137341460Y-57535909D01*
X137341467Y-57535913D01*
X137515266Y-57628811D01*
X137515269Y-57628811D01*
X137515273Y-57628814D01*
X137703868Y-57686024D01*
X137900000Y-57705341D01*
X138096132Y-57686024D01*
X138284727Y-57628814D01*
X138285115Y-57628607D01*
X138403417Y-57565373D01*
X138458538Y-57535910D01*
X138610883Y-57410883D01*
X138735910Y-57258538D01*
X138813526Y-57113329D01*
X138828811Y-57084733D01*
X138828811Y-57084732D01*
X138828814Y-57084727D01*
X138886024Y-56896132D01*
X138905341Y-56700000D01*
X138886024Y-56503868D01*
X138828814Y-56315273D01*
X138828811Y-56315268D01*
X138828810Y-56315263D01*
X138827946Y-56313179D01*
X138821616Y-56298837D01*
X138820370Y-56295322D01*
X138820368Y-56295314D01*
X138817677Y-56289158D01*
X138808867Y-56219847D01*
X138838928Y-56156774D01*
X138898316Y-56119966D01*
X138931293Y-56115499D01*
X139947872Y-56115499D01*
X140007483Y-56109091D01*
X140106669Y-56072096D01*
X140176358Y-56067113D01*
X140193319Y-56072092D01*
X140292517Y-56109091D01*
X140352127Y-56115500D01*
X141447872Y-56115499D01*
X141507483Y-56109091D01*
X141606669Y-56072096D01*
X141676358Y-56067113D01*
X141693319Y-56072092D01*
X141792517Y-56109091D01*
X141792518Y-56109091D01*
X141792521Y-56109092D01*
X141800062Y-56110874D01*
X141799499Y-56113255D01*
X141852913Y-56135367D01*
X141892774Y-56192750D01*
X141895283Y-56262575D01*
X141884487Y-56290386D01*
X141871189Y-56315264D01*
X141870324Y-56317354D01*
X141864670Y-56331945D01*
X141863045Y-56335354D01*
X141764791Y-56586155D01*
X141759344Y-56598143D01*
X141708353Y-56696178D01*
X141691338Y-56720984D01*
X141544284Y-56887702D01*
X141518616Y-56919130D01*
X141510259Y-56928372D01*
X137125451Y-61313181D01*
X137064128Y-61346666D01*
X137037770Y-61349500D01*
X124783071Y-61349500D01*
X124745642Y-61343716D01*
X124720226Y-61335669D01*
X124681809Y-61323505D01*
X124654715Y-61311178D01*
X124556712Y-61251459D01*
X124538177Y-61237641D01*
X124516038Y-61217669D01*
X124424492Y-61135082D01*
X124373866Y-61089410D01*
X124373863Y-61089408D01*
X124373859Y-61089404D01*
X124337323Y-61061142D01*
X124313468Y-61042689D01*
X124310527Y-61040751D01*
X124310524Y-61040749D01*
X124310516Y-61040745D01*
X124305599Y-61038348D01*
X124285621Y-61026152D01*
X124272335Y-61016206D01*
X124272330Y-61016203D01*
X124226076Y-60998951D01*
X124215090Y-60994238D01*
X124193305Y-60983621D01*
X124187649Y-60982584D01*
X124166689Y-60976802D01*
X124137480Y-60965908D01*
X124077883Y-60959501D01*
X124077881Y-60959500D01*
X124077873Y-60959500D01*
X124077865Y-60959500D01*
X124073019Y-60959500D01*
X124056210Y-60957971D01*
X124056190Y-60958160D01*
X124051792Y-60957674D01*
X124042826Y-60957328D01*
X123988739Y-60958140D01*
X123983767Y-60958706D01*
X123969760Y-60959500D01*
X122690785Y-60959500D01*
X122647980Y-60951877D01*
X122590711Y-60930812D01*
X122590669Y-60930798D01*
X122386559Y-60855726D01*
X122371044Y-60848778D01*
X122048908Y-60677100D01*
X122036250Y-60669347D01*
X121845102Y-60535913D01*
X121830046Y-60525403D01*
X121814437Y-60514507D01*
X121814430Y-60514503D01*
X121695691Y-60431616D01*
X121678987Y-60417620D01*
X118894421Y-57633052D01*
X118894420Y-57633051D01*
X118888079Y-57628814D01*
X118793131Y-57565373D01*
X118793130Y-57565372D01*
X118793129Y-57565370D01*
X118771495Y-57550916D01*
X118771490Y-57550913D01*
X118634917Y-57494343D01*
X118634907Y-57494340D01*
X118489920Y-57465500D01*
X118489918Y-57465500D01*
X112606868Y-57465500D01*
X112579095Y-57462349D01*
X112574756Y-57461352D01*
X112574753Y-57461351D01*
X112574751Y-57461351D01*
X112511212Y-57456056D01*
X112501126Y-57454797D01*
X112451396Y-57446509D01*
X112441712Y-57444495D01*
X112408557Y-57436206D01*
X112370615Y-57426721D01*
X112370584Y-57426714D01*
X112365581Y-57425705D01*
X112358525Y-57423691D01*
X112350984Y-57421908D01*
X112347584Y-57421543D01*
X112336338Y-57419808D01*
X112325056Y-57417533D01*
X112325051Y-57417532D01*
X112325044Y-57417532D01*
X112314730Y-57417426D01*
X112302763Y-57416723D01*
X112291391Y-57415501D01*
X112291376Y-57415500D01*
X112291373Y-57415500D01*
X112291368Y-57415500D01*
X111125629Y-57415500D01*
X111125623Y-57415501D01*
X111066016Y-57421908D01*
X110931171Y-57472202D01*
X110931164Y-57472206D01*
X110815955Y-57558452D01*
X110815952Y-57558455D01*
X110729706Y-57673664D01*
X110729702Y-57673671D01*
X110679410Y-57808513D01*
X110679409Y-57808517D01*
X110673000Y-57868127D01*
X110673000Y-57868134D01*
X110673000Y-57868135D01*
X110673000Y-58563870D01*
X110673001Y-58563876D01*
X110679408Y-58623483D01*
X110729702Y-58758328D01*
X110729706Y-58758335D01*
X110815952Y-58873544D01*
X110815955Y-58873547D01*
X110931164Y-58959793D01*
X110931171Y-58959797D01*
X111066017Y-59010091D01*
X111066016Y-59010091D01*
X111072944Y-59010835D01*
X111125627Y-59016500D01*
X112182284Y-59016499D01*
X112193012Y-59016964D01*
X112227479Y-59019957D01*
X112254893Y-59017145D01*
X112267541Y-59016499D01*
X112291371Y-59016499D01*
X112291372Y-59016499D01*
X112350983Y-59010091D01*
X112350987Y-59010089D01*
X112350990Y-59010089D01*
X112358538Y-59008306D01*
X112358563Y-59008412D01*
X112369156Y-59005534D01*
X112370592Y-59005281D01*
X112370609Y-59005280D01*
X112416107Y-58993905D01*
X112416106Y-58993904D01*
X112433549Y-58989543D01*
X112441707Y-58987503D01*
X112451394Y-58985489D01*
X112466599Y-58982954D01*
X112466600Y-58982955D01*
X112492966Y-58978560D01*
X112501134Y-58977199D01*
X112511217Y-58975940D01*
X112574751Y-58970647D01*
X112598331Y-58967900D01*
X112603205Y-58967333D01*
X112617552Y-58966500D01*
X118053770Y-58966500D01*
X118120809Y-58986185D01*
X118141451Y-59002819D01*
X119150376Y-60011744D01*
X120148735Y-61010102D01*
X120182220Y-61071425D01*
X120177236Y-61141117D01*
X120160321Y-61172093D01*
X120126206Y-61217665D01*
X120126202Y-61217671D01*
X120075908Y-61352517D01*
X120069501Y-61412116D01*
X120069500Y-61412135D01*
X120069501Y-62315500D01*
X120049817Y-62382539D01*
X119997013Y-62428294D01*
X119945501Y-62439500D01*
X119454500Y-62439500D01*
X119387461Y-62419815D01*
X119341706Y-62367011D01*
X119330500Y-62315500D01*
X119330499Y-61382129D01*
X119330498Y-61382123D01*
X119330497Y-61382116D01*
X119324091Y-61322517D01*
X119322772Y-61318981D01*
X119273797Y-61187671D01*
X119273793Y-61187664D01*
X119187547Y-61072455D01*
X119187544Y-61072452D01*
X119072335Y-60986206D01*
X119072328Y-60986202D01*
X118937482Y-60935908D01*
X118937483Y-60935908D01*
X118877883Y-60929501D01*
X118877881Y-60929500D01*
X118877873Y-60929500D01*
X118877864Y-60929500D01*
X115322129Y-60929500D01*
X115322123Y-60929501D01*
X115262516Y-60935908D01*
X115127671Y-60986202D01*
X115127664Y-60986206D01*
X115012455Y-61072452D01*
X115012452Y-61072455D01*
X114926206Y-61187664D01*
X114926202Y-61187671D01*
X114875908Y-61322517D01*
X114869501Y-61382116D01*
X114869501Y-61382123D01*
X114869500Y-61382135D01*
X114869501Y-62294500D01*
X114849817Y-62361539D01*
X114797013Y-62407294D01*
X114745501Y-62418500D01*
X112606868Y-62418500D01*
X112579095Y-62415349D01*
X112574756Y-62414352D01*
X112574753Y-62414351D01*
X112574751Y-62414351D01*
X112511212Y-62409056D01*
X112501126Y-62407797D01*
X112451396Y-62399509D01*
X112441712Y-62397495D01*
X112390631Y-62384725D01*
X112370615Y-62379721D01*
X112370584Y-62379714D01*
X112365581Y-62378705D01*
X112358525Y-62376691D01*
X112350984Y-62374908D01*
X112347584Y-62374543D01*
X112336338Y-62372808D01*
X112335024Y-62372543D01*
X112325056Y-62370533D01*
X112325051Y-62370532D01*
X112325044Y-62370532D01*
X112314730Y-62370426D01*
X112302763Y-62369723D01*
X112291391Y-62368501D01*
X112291376Y-62368500D01*
X112291373Y-62368500D01*
X112291368Y-62368500D01*
X111125629Y-62368500D01*
X111125623Y-62368501D01*
X111066016Y-62374908D01*
X110931171Y-62425202D01*
X110931164Y-62425206D01*
X110815955Y-62511452D01*
X110815952Y-62511455D01*
X110729706Y-62626664D01*
X110729702Y-62626671D01*
X110683518Y-62750500D01*
X110679409Y-62761517D01*
X110673000Y-62821127D01*
X110673000Y-62821134D01*
X110673000Y-62821135D01*
X110673000Y-63516870D01*
X110673001Y-63516876D01*
X110679408Y-63576483D01*
X110729702Y-63711328D01*
X110729706Y-63711335D01*
X110815952Y-63826544D01*
X110815955Y-63826547D01*
X110931164Y-63912793D01*
X110931171Y-63912797D01*
X111066017Y-63963091D01*
X111066016Y-63963091D01*
X111072944Y-63963835D01*
X111125627Y-63969500D01*
X112182284Y-63969499D01*
X112193012Y-63969964D01*
X112227479Y-63972957D01*
X112254893Y-63970145D01*
X112267541Y-63969499D01*
X112291371Y-63969499D01*
X112291372Y-63969499D01*
X112350983Y-63963091D01*
X112350987Y-63963089D01*
X112350990Y-63963089D01*
X112358538Y-63961306D01*
X112358563Y-63961412D01*
X112369156Y-63958534D01*
X112370592Y-63958281D01*
X112370609Y-63958280D01*
X112416107Y-63946905D01*
X112416106Y-63946904D01*
X112433549Y-63942543D01*
X112441707Y-63940503D01*
X112451394Y-63938489D01*
X112466599Y-63935954D01*
X112466600Y-63935955D01*
X112492966Y-63931560D01*
X112501134Y-63930199D01*
X112511217Y-63928940D01*
X112574751Y-63923647D01*
X112598331Y-63920900D01*
X112603205Y-63920333D01*
X112617552Y-63919500D01*
X116074920Y-63919500D01*
X116202443Y-63894133D01*
X116219913Y-63890658D01*
X116356495Y-63834084D01*
X116421994Y-63790319D01*
X116479416Y-63751952D01*
X116479420Y-63751947D01*
X116483380Y-63748698D01*
X116495702Y-63738374D01*
X116512533Y-63726625D01*
X116836246Y-63500653D01*
X116848890Y-63492908D01*
X117041681Y-63390162D01*
X117110100Y-63376005D01*
X117158316Y-63390162D01*
X117292084Y-63461452D01*
X117351093Y-63492900D01*
X117363751Y-63500653D01*
X117398411Y-63524848D01*
X117496909Y-63593606D01*
X117496910Y-63593606D01*
X117704308Y-63738383D01*
X117721012Y-63752379D01*
X117741581Y-63772949D01*
X117741584Y-63772951D01*
X117864498Y-63855080D01*
X117864511Y-63855087D01*
X117970646Y-63899049D01*
X118001087Y-63911658D01*
X118001091Y-63911658D01*
X118001092Y-63911659D01*
X118146079Y-63940500D01*
X118146082Y-63940500D01*
X138398920Y-63940500D01*
X138502931Y-63919810D01*
X138543913Y-63911658D01*
X138650486Y-63867514D01*
X138680493Y-63855085D01*
X138680493Y-63855084D01*
X138680495Y-63855084D01*
X138731097Y-63821273D01*
X138731097Y-63821272D01*
X138731099Y-63821272D01*
X138800352Y-63774999D01*
X138803416Y-63772952D01*
X145713288Y-56863078D01*
X145774609Y-56829595D01*
X145844301Y-56834579D01*
X145900234Y-56876451D01*
X145919627Y-56914765D01*
X145971186Y-57084728D01*
X146064086Y-57258532D01*
X146064090Y-57258539D01*
X146189116Y-57410883D01*
X146341460Y-57535909D01*
X146341467Y-57535913D01*
X146515266Y-57628811D01*
X146515269Y-57628811D01*
X146515273Y-57628814D01*
X146703868Y-57686024D01*
X146900000Y-57705341D01*
X147096132Y-57686024D01*
X147284727Y-57628814D01*
X147285115Y-57628607D01*
X147403417Y-57565373D01*
X147458538Y-57535910D01*
X147571835Y-57442928D01*
X147636145Y-57415616D01*
X147705012Y-57427407D01*
X147756572Y-57474559D01*
X147774500Y-57538782D01*
X147774500Y-65289547D01*
X147754815Y-65356586D01*
X147738181Y-65377228D01*
X146377229Y-66738181D01*
X146315906Y-66771666D01*
X146289548Y-66774500D01*
X142434453Y-66774500D01*
X142367414Y-66754815D01*
X142321659Y-66702011D01*
X142311715Y-66632853D01*
X142340740Y-66569297D01*
X142346771Y-66562820D01*
X142384696Y-66524894D01*
X142402259Y-66510303D01*
X142561856Y-66400896D01*
X142575299Y-66392881D01*
X142717116Y-66320055D01*
X142733669Y-66313023D01*
X142783020Y-66296170D01*
X142824067Y-66282153D01*
X142864140Y-66275499D01*
X142931461Y-66275499D01*
X142947608Y-66276555D01*
X142949140Y-66276756D01*
X142954468Y-66277456D01*
X142954470Y-66277455D01*
X142954471Y-66277456D01*
X142956706Y-66277428D01*
X142963422Y-66277347D01*
X142987424Y-66275767D01*
X142995569Y-66275499D01*
X142997864Y-66275499D01*
X142997872Y-66275499D01*
X143005390Y-66274690D01*
X143010490Y-66274249D01*
X143013864Y-66274026D01*
X143017428Y-66273792D01*
X143017442Y-66273788D01*
X143020760Y-66273240D01*
X143027750Y-66272286D01*
X143057483Y-66269091D01*
X143104410Y-66251587D01*
X143174100Y-66246604D01*
X143184863Y-66249456D01*
X143213314Y-66258383D01*
X143219476Y-66260497D01*
X143242517Y-66269091D01*
X143302127Y-66275500D01*
X143397876Y-66275499D01*
X143402879Y-66275600D01*
X143404904Y-66275681D01*
X143408018Y-66275499D01*
X144031461Y-66275499D01*
X144047608Y-66276555D01*
X144049140Y-66276756D01*
X144054468Y-66277456D01*
X144054470Y-66277455D01*
X144054471Y-66277456D01*
X144056706Y-66277428D01*
X144063422Y-66277347D01*
X144087424Y-66275767D01*
X144095569Y-66275499D01*
X144097864Y-66275499D01*
X144097872Y-66275499D01*
X144105390Y-66274690D01*
X144110490Y-66274249D01*
X144113864Y-66274026D01*
X144117428Y-66273792D01*
X144117442Y-66273788D01*
X144120760Y-66273240D01*
X144127750Y-66272286D01*
X144157483Y-66269091D01*
X144204410Y-66251587D01*
X144274100Y-66246604D01*
X144284863Y-66249456D01*
X144313314Y-66258383D01*
X144319476Y-66260497D01*
X144342517Y-66269091D01*
X144402127Y-66275500D01*
X144497876Y-66275499D01*
X144502879Y-66275600D01*
X144504904Y-66275681D01*
X144508018Y-66275499D01*
X145197871Y-66275499D01*
X145197872Y-66275499D01*
X145257483Y-66269091D01*
X145392331Y-66218796D01*
X145507546Y-66132546D01*
X145593796Y-66017331D01*
X145644091Y-65882483D01*
X145650500Y-65822873D01*
X145650499Y-65127424D01*
X145651217Y-65117364D01*
X145650995Y-65117349D01*
X145651309Y-65112930D01*
X145651944Y-65103998D01*
X145652887Y-65049881D01*
X145652477Y-65047617D01*
X145650935Y-65030422D01*
X145650900Y-65030423D01*
X145650854Y-65030429D01*
X145650853Y-65030426D01*
X145650676Y-65030436D01*
X145650499Y-65027141D01*
X145650499Y-65027128D01*
X145644091Y-64967517D01*
X145636106Y-64946111D01*
X145630269Y-64924851D01*
X145627276Y-64908298D01*
X145627275Y-64908294D01*
X145626607Y-64905682D01*
X145626622Y-64904686D01*
X145626487Y-64903936D01*
X145626635Y-64903909D01*
X145627580Y-64844341D01*
X145626681Y-64844120D01*
X145635828Y-64806996D01*
X145640045Y-64793327D01*
X145644091Y-64782483D01*
X145645024Y-64773802D01*
X145646301Y-64765598D01*
X145646239Y-64765588D01*
X145646640Y-64763128D01*
X145647240Y-64759445D01*
X145647338Y-64755925D01*
X145648001Y-64746107D01*
X145650500Y-64722873D01*
X145650499Y-64644404D01*
X145650547Y-64640939D01*
X145651040Y-64623295D01*
X145650499Y-64613500D01*
X145650499Y-64027426D01*
X145651216Y-64017364D01*
X145650995Y-64017349D01*
X145651309Y-64012930D01*
X145651944Y-64003998D01*
X145652887Y-63949881D01*
X145652477Y-63947617D01*
X145650935Y-63930422D01*
X145650900Y-63930423D01*
X145650854Y-63930429D01*
X145650853Y-63930426D01*
X145650676Y-63930436D01*
X145650499Y-63927141D01*
X145650499Y-63927128D01*
X145644091Y-63867517D01*
X145636106Y-63846111D01*
X145630269Y-63824851D01*
X145627276Y-63808298D01*
X145627275Y-63808294D01*
X145626607Y-63805682D01*
X145626622Y-63804686D01*
X145626487Y-63803936D01*
X145626635Y-63803909D01*
X145627580Y-63744341D01*
X145626681Y-63744120D01*
X145634714Y-63711517D01*
X145635830Y-63706988D01*
X145640045Y-63693327D01*
X145644091Y-63682483D01*
X145645024Y-63673802D01*
X145646301Y-63665598D01*
X145646239Y-63665588D01*
X145646640Y-63663128D01*
X145647240Y-63659445D01*
X145647338Y-63655925D01*
X145648001Y-63646107D01*
X145648411Y-63642294D01*
X145650500Y-63622873D01*
X145650499Y-63544404D01*
X145650547Y-63540939D01*
X145651040Y-63523295D01*
X145650499Y-63513500D01*
X145650499Y-62827129D01*
X145650498Y-62827123D01*
X145649854Y-62821135D01*
X145644091Y-62767517D01*
X145642770Y-62763976D01*
X145593797Y-62632671D01*
X145593793Y-62632664D01*
X145507547Y-62517455D01*
X145507544Y-62517452D01*
X145392335Y-62431206D01*
X145392328Y-62431202D01*
X145257482Y-62380908D01*
X145257483Y-62380908D01*
X145197883Y-62374501D01*
X145197881Y-62374500D01*
X145197873Y-62374500D01*
X145197865Y-62374500D01*
X144468593Y-62374500D01*
X144452436Y-62373443D01*
X144445587Y-62372543D01*
X144436628Y-62372651D01*
X144412551Y-62374233D01*
X144404465Y-62374500D01*
X144402135Y-62374500D01*
X144402114Y-62374501D01*
X144394598Y-62375309D01*
X144389505Y-62375750D01*
X144382568Y-62376206D01*
X144379183Y-62376766D01*
X144372227Y-62377714D01*
X144342516Y-62380909D01*
X144295585Y-62398412D01*
X144225893Y-62403394D01*
X144215142Y-62400545D01*
X144186756Y-62391641D01*
X144180538Y-62389508D01*
X144157480Y-62380908D01*
X144097883Y-62374501D01*
X144097881Y-62374500D01*
X144097873Y-62374500D01*
X144097865Y-62374500D01*
X144002080Y-62374500D01*
X143997491Y-62374415D01*
X143995697Y-62374348D01*
X143992788Y-62374500D01*
X143699111Y-62374500D01*
X143632072Y-62354815D01*
X143586317Y-62302011D01*
X143576373Y-62232853D01*
X143580451Y-62214503D01*
X143586024Y-62196131D01*
X143605341Y-62000000D01*
X143586024Y-61803868D01*
X143528814Y-61615273D01*
X143528811Y-61615269D01*
X143528811Y-61615266D01*
X143435913Y-61441467D01*
X143435909Y-61441460D01*
X143310883Y-61289116D01*
X143158539Y-61164090D01*
X143158532Y-61164086D01*
X142984733Y-61071188D01*
X142984727Y-61071186D01*
X142836271Y-61026152D01*
X142796129Y-61013975D01*
X142600000Y-60994659D01*
X142403870Y-61013975D01*
X142215266Y-61071188D01*
X142041467Y-61164086D01*
X142041460Y-61164090D01*
X141889116Y-61289116D01*
X141764090Y-61441460D01*
X141764086Y-61441467D01*
X141671188Y-61615266D01*
X141613975Y-61803870D01*
X141594659Y-62000000D01*
X141613976Y-62196134D01*
X141671185Y-62384725D01*
X141672061Y-62386839D01*
X141678371Y-62401133D01*
X141679630Y-62404685D01*
X141770773Y-62613235D01*
X141779582Y-62682547D01*
X141774792Y-62702088D01*
X141772720Y-62708304D01*
X141772718Y-62708311D01*
X141764169Y-62743008D01*
X141759954Y-62756669D01*
X141755909Y-62767514D01*
X141755908Y-62767517D01*
X141754973Y-62776218D01*
X141753693Y-62784443D01*
X141753752Y-62784453D01*
X141752755Y-62790571D01*
X141752656Y-62794133D01*
X141751994Y-62803923D01*
X141749500Y-62827120D01*
X141749500Y-62905555D01*
X141749452Y-62909010D01*
X141748958Y-62926697D01*
X141749500Y-62936492D01*
X141749500Y-63522572D01*
X141748783Y-63532634D01*
X141749004Y-63532650D01*
X141748054Y-63546000D01*
X141747112Y-63600115D01*
X141747523Y-63602389D01*
X141749067Y-63619561D01*
X141749322Y-63619548D01*
X141749499Y-63622857D01*
X141755908Y-63682479D01*
X141755910Y-63682486D01*
X141763890Y-63703885D01*
X141769725Y-63725133D01*
X141772725Y-63741714D01*
X141773394Y-63744330D01*
X141773378Y-63745325D01*
X141773510Y-63746051D01*
X141773367Y-63746076D01*
X141772456Y-63805680D01*
X141773315Y-63805892D01*
X141764169Y-63843008D01*
X141759954Y-63856669D01*
X141755909Y-63867514D01*
X141755908Y-63867517D01*
X141754973Y-63876218D01*
X141753693Y-63884443D01*
X141753752Y-63884453D01*
X141752755Y-63890571D01*
X141752656Y-63894133D01*
X141751994Y-63903923D01*
X141749500Y-63927120D01*
X141749500Y-64005555D01*
X141749452Y-64009010D01*
X141748958Y-64026697D01*
X141749500Y-64036492D01*
X141749500Y-64622572D01*
X141748783Y-64632634D01*
X141749004Y-64632650D01*
X141748054Y-64646000D01*
X141747112Y-64700115D01*
X141747523Y-64702389D01*
X141749067Y-64719561D01*
X141749322Y-64719548D01*
X141749499Y-64722857D01*
X141755908Y-64782479D01*
X141755910Y-64782486D01*
X141763890Y-64803885D01*
X141769725Y-64825133D01*
X141772725Y-64841714D01*
X141773394Y-64844330D01*
X141773378Y-64845325D01*
X141773510Y-64846051D01*
X141773367Y-64846076D01*
X141772456Y-64905680D01*
X141773315Y-64905892D01*
X141764169Y-64943008D01*
X141759954Y-64956669D01*
X141755909Y-64967514D01*
X141755908Y-64967517D01*
X141754973Y-64976218D01*
X141753693Y-64984443D01*
X141753752Y-64984453D01*
X141752755Y-64990571D01*
X141752656Y-64994133D01*
X141751994Y-65003923D01*
X141749500Y-65027120D01*
X141749500Y-65105555D01*
X141749452Y-65109010D01*
X141748958Y-65126697D01*
X141749500Y-65136492D01*
X141749500Y-65136753D01*
X141739076Y-65186518D01*
X141682788Y-65314982D01*
X141679519Y-65321860D01*
X141635724Y-65407144D01*
X141587592Y-65457787D01*
X141525419Y-65474500D01*
X136863597Y-65474500D01*
X136796558Y-65454815D01*
X136750803Y-65402012D01*
X136734776Y-65366918D01*
X136734773Y-65366914D01*
X136734770Y-65366906D01*
X136656986Y-65245870D01*
X136656985Y-65245869D01*
X136656984Y-65245867D01*
X136656981Y-65245863D01*
X136562847Y-65137226D01*
X136562830Y-65137207D01*
X136562829Y-65137206D01*
X136454091Y-65042985D01*
X136396096Y-65005714D01*
X136333142Y-64965255D01*
X136333136Y-64965252D01*
X136244656Y-64924845D01*
X136202259Y-64905483D01*
X136115730Y-64880076D01*
X136064308Y-64864977D01*
X136064296Y-64864974D01*
X135921889Y-64844500D01*
X135350000Y-64844500D01*
X135349997Y-64844500D01*
X135278061Y-64849644D01*
X135278056Y-64849645D01*
X135240735Y-64860603D01*
X135188158Y-64864363D01*
X135050001Y-64844500D01*
X135050000Y-64844500D01*
X134478111Y-64844500D01*
X134478110Y-64844500D01*
X134335703Y-64864974D01*
X134335691Y-64864977D01*
X134197741Y-64905483D01*
X134066863Y-64965252D01*
X134066861Y-64965254D01*
X133951523Y-65039376D01*
X133950083Y-65040196D01*
X133945901Y-65042988D01*
X133837169Y-65137207D01*
X133837166Y-65137210D01*
X133743018Y-65245864D01*
X133743015Y-65245867D01*
X133702104Y-65309528D01*
X133668284Y-65362155D01*
X133665231Y-65366905D01*
X133665223Y-65366918D01*
X133649197Y-65402012D01*
X133603442Y-65454816D01*
X133536403Y-65474500D01*
X132879184Y-65474500D01*
X132827185Y-65463070D01*
X132819342Y-65459447D01*
X132795155Y-65444711D01*
X132706076Y-65375340D01*
X132690669Y-65361091D01*
X132688412Y-65358618D01*
X132662491Y-65309528D01*
X132661802Y-65309786D01*
X132659818Y-65304467D01*
X132659336Y-65303554D01*
X132659091Y-65302517D01*
X132608797Y-65167671D01*
X132608793Y-65167664D01*
X132522547Y-65052455D01*
X132522544Y-65052452D01*
X132407335Y-64966206D01*
X132407328Y-64966202D01*
X132272482Y-64915908D01*
X132272483Y-64915908D01*
X132212883Y-64909501D01*
X132212881Y-64909500D01*
X132212873Y-64909500D01*
X132212864Y-64909500D01*
X130987129Y-64909500D01*
X130987123Y-64909501D01*
X130927516Y-64915908D01*
X130792671Y-64966202D01*
X130792669Y-64966204D01*
X130673894Y-65055119D01*
X130608430Y-65079536D01*
X130540157Y-65064685D01*
X130525272Y-65055119D01*
X130407088Y-64966646D01*
X130407086Y-64966645D01*
X130272379Y-64916403D01*
X130272372Y-64916401D01*
X130212844Y-64910000D01*
X129850000Y-64910000D01*
X129850000Y-67290000D01*
X130212828Y-67290000D01*
X130212844Y-67289999D01*
X130272372Y-67283598D01*
X130272379Y-67283596D01*
X130407086Y-67233354D01*
X130407089Y-67233352D01*
X130525271Y-67144881D01*
X130590735Y-67120463D01*
X130659009Y-67135314D01*
X130673895Y-67144881D01*
X130677452Y-67147544D01*
X130677454Y-67147546D01*
X130792076Y-67233352D01*
X130792668Y-67233795D01*
X130792671Y-67233797D01*
X130927517Y-67284091D01*
X130927516Y-67284091D01*
X130934444Y-67284835D01*
X130987127Y-67290500D01*
X132212872Y-67290499D01*
X132272483Y-67284091D01*
X132407331Y-67233796D01*
X132522546Y-67147546D01*
X132608796Y-67032331D01*
X132659091Y-66897483D01*
X132659091Y-66897476D01*
X132659335Y-66896448D01*
X132659819Y-66895531D01*
X132661802Y-66890215D01*
X132662491Y-66890471D01*
X132688426Y-66841363D01*
X132690685Y-66838887D01*
X132706071Y-66824659D01*
X132795150Y-66755289D01*
X132819344Y-66740549D01*
X132827192Y-66736924D01*
X132879181Y-66725500D01*
X133536403Y-66725500D01*
X133603442Y-66745185D01*
X133649197Y-66797988D01*
X133665223Y-66833081D01*
X133665227Y-66833087D01*
X133665230Y-66833094D01*
X133706543Y-66897379D01*
X133743015Y-66954132D01*
X133743018Y-66954136D01*
X133837152Y-67062773D01*
X133837169Y-67062792D01*
X133837188Y-67062809D01*
X133934978Y-67147544D01*
X133945909Y-67157015D01*
X134018141Y-67203435D01*
X134054202Y-67238857D01*
X134064142Y-67253733D01*
X134151267Y-67340858D01*
X134151268Y-67340858D01*
X134158335Y-67347925D01*
X134158334Y-67347925D01*
X134158337Y-67347927D01*
X134609141Y-67798732D01*
X134609142Y-67798733D01*
X134696267Y-67885858D01*
X134744181Y-67917873D01*
X134798714Y-67954311D01*
X134798715Y-67954311D01*
X134798716Y-67954312D01*
X134824502Y-67964993D01*
X134912548Y-68001463D01*
X135033388Y-68025499D01*
X135033392Y-68025500D01*
X135033393Y-68025500D01*
X146661607Y-68025500D01*
X146722029Y-68013481D01*
X146782452Y-68001463D01*
X146782455Y-68001461D01*
X146782458Y-68001461D01*
X146815787Y-67987654D01*
X146815786Y-67987654D01*
X146815792Y-67987652D01*
X146896286Y-67954312D01*
X146969344Y-67905495D01*
X146998733Y-67885858D01*
X147085858Y-67798733D01*
X147085858Y-67798731D01*
X147096066Y-67788524D01*
X147096067Y-67788521D01*
X148885857Y-65998734D01*
X148925844Y-65938888D01*
X148941753Y-65915082D01*
X148948010Y-65905715D01*
X148954311Y-65896286D01*
X149001463Y-65782452D01*
X149009702Y-65741027D01*
X149020865Y-65684915D01*
X149023510Y-65671610D01*
X149025500Y-65661607D01*
X149025500Y-65538394D01*
X149025500Y-56290920D01*
X149041837Y-56229401D01*
X149054245Y-56207686D01*
X149069457Y-56181063D01*
X149077904Y-56168208D01*
X149104133Y-56133236D01*
X149160103Y-56091417D01*
X149229799Y-56086496D01*
X149246665Y-56091456D01*
X149292623Y-56108597D01*
X149292627Y-56108598D01*
X149352155Y-56114999D01*
X149352172Y-56115000D01*
X149650000Y-56115000D01*
X150150000Y-56115000D01*
X150447828Y-56115000D01*
X150447844Y-56114999D01*
X150507372Y-56108598D01*
X150507379Y-56108596D01*
X150642086Y-56058354D01*
X150642093Y-56058350D01*
X150757187Y-55972190D01*
X150757190Y-55972187D01*
X150843350Y-55857093D01*
X150843354Y-55857086D01*
X150893596Y-55722379D01*
X150893598Y-55722372D01*
X150899999Y-55662841D01*
X150900000Y-55662827D01*
X150900000Y-54865000D01*
X150150000Y-54865000D01*
X150150000Y-56115000D01*
X149650000Y-56115000D01*
X149650000Y-54365000D01*
X150150000Y-54365000D01*
X150900000Y-54365000D01*
X150900000Y-53567172D01*
X150899999Y-53567155D01*
X150893598Y-53507627D01*
X150893596Y-53507620D01*
X150843354Y-53372913D01*
X150843350Y-53372906D01*
X150757190Y-53257812D01*
X150757187Y-53257809D01*
X150642093Y-53171649D01*
X150642086Y-53171645D01*
X150507379Y-53121403D01*
X150507372Y-53121401D01*
X150447844Y-53115000D01*
X150150000Y-53115000D01*
X150150000Y-54365000D01*
X149650000Y-54365000D01*
X149650000Y-53115000D01*
X149352155Y-53115000D01*
X149292627Y-53121401D01*
X149292617Y-53121403D01*
X149194046Y-53158168D01*
X149124355Y-53163152D01*
X149107381Y-53158168D01*
X149007482Y-53120908D01*
X149007483Y-53120908D01*
X148947883Y-53114501D01*
X148947881Y-53114500D01*
X148947873Y-53114500D01*
X148947864Y-53114500D01*
X147852129Y-53114500D01*
X147852123Y-53114501D01*
X147792515Y-53120909D01*
X147693332Y-53157901D01*
X147623640Y-53162885D01*
X147606668Y-53157901D01*
X147507485Y-53120909D01*
X147507483Y-53120908D01*
X147447883Y-53114501D01*
X147447881Y-53114500D01*
X147447873Y-53114500D01*
X147447864Y-53114500D01*
X146352129Y-53114500D01*
X146352123Y-53114501D01*
X146292515Y-53120909D01*
X146193332Y-53157901D01*
X146123640Y-53162885D01*
X146106668Y-53157901D01*
X146007485Y-53120909D01*
X146007483Y-53120908D01*
X145947883Y-53114501D01*
X145947881Y-53114500D01*
X145947873Y-53114500D01*
X145947864Y-53114500D01*
X144852129Y-53114500D01*
X144852123Y-53114501D01*
X144792515Y-53120909D01*
X144693332Y-53157901D01*
X144623640Y-53162885D01*
X144606668Y-53157901D01*
X144507485Y-53120909D01*
X144507483Y-53120908D01*
X144447883Y-53114501D01*
X144447881Y-53114500D01*
X144447873Y-53114500D01*
X144447864Y-53114500D01*
X143352129Y-53114500D01*
X143352123Y-53114501D01*
X143292515Y-53120909D01*
X143193332Y-53157901D01*
X143123640Y-53162885D01*
X143106668Y-53157901D01*
X143007485Y-53120909D01*
X143007483Y-53120908D01*
X142947883Y-53114501D01*
X142947881Y-53114500D01*
X142947873Y-53114500D01*
X142947864Y-53114500D01*
X141852129Y-53114500D01*
X141852123Y-53114501D01*
X141792515Y-53120909D01*
X141693332Y-53157901D01*
X141623640Y-53162885D01*
X141606668Y-53157901D01*
X141507485Y-53120909D01*
X141507483Y-53120908D01*
X141447883Y-53114501D01*
X141447881Y-53114500D01*
X141447873Y-53114500D01*
X141447864Y-53114500D01*
X140352129Y-53114500D01*
X140352123Y-53114501D01*
X140292515Y-53120909D01*
X140193332Y-53157901D01*
X140123640Y-53162885D01*
X140106668Y-53157901D01*
X140007485Y-53120909D01*
X140007483Y-53120908D01*
X139947883Y-53114501D01*
X139947881Y-53114500D01*
X139947873Y-53114500D01*
X139947865Y-53114500D01*
X139482043Y-53114500D01*
X139441019Y-53107517D01*
X139348463Y-53075069D01*
X139325000Y-53063964D01*
X139283489Y-53038689D01*
X139283489Y-53038688D01*
X139283485Y-53038687D01*
X139184796Y-52978594D01*
X139168044Y-52966363D01*
X138974262Y-52798308D01*
X138974259Y-52798305D01*
X138965236Y-52791029D01*
X138925404Y-52733628D01*
X138922929Y-52663802D01*
X138958597Y-52603723D01*
X139021085Y-52572464D01*
X139043069Y-52570500D01*
X156719763Y-52570500D01*
X156786802Y-52590185D01*
G37*
%TD.AperFunction*%
%TA.AperFunction,Conductor*%
G36*
X114912587Y-52590185D02*
G01*
X114958342Y-52642989D01*
X114968286Y-52712147D01*
X114939261Y-52775703D01*
X114933229Y-52782181D01*
X111877229Y-55838181D01*
X111815906Y-55871666D01*
X111789548Y-55874500D01*
X98838392Y-55874500D01*
X98830555Y-55876059D01*
X98799355Y-55882265D01*
X98754792Y-55891129D01*
X98717550Y-55898536D01*
X98717537Y-55898540D01*
X98711479Y-55901049D01*
X98711480Y-55901050D01*
X98603715Y-55945686D01*
X98593627Y-55952428D01*
X98593626Y-55952429D01*
X98501268Y-56014140D01*
X98479467Y-56035942D01*
X98414142Y-56101267D01*
X98414139Y-56101270D01*
X96502910Y-58012500D01*
X94627229Y-59888181D01*
X94565906Y-59921666D01*
X94539548Y-59924500D01*
X91510453Y-59924500D01*
X91443414Y-59904815D01*
X91422772Y-59888181D01*
X90525879Y-58991288D01*
X90492394Y-58929965D01*
X90492884Y-58875088D01*
X90494086Y-58869995D01*
X90494091Y-58869983D01*
X90500500Y-58810373D01*
X90500500Y-58810344D01*
X91600000Y-58810344D01*
X91606401Y-58869872D01*
X91606403Y-58869879D01*
X91656645Y-59004586D01*
X91656649Y-59004593D01*
X91742809Y-59119687D01*
X91742812Y-59119690D01*
X91857906Y-59205850D01*
X91857913Y-59205854D01*
X91992620Y-59256096D01*
X91992627Y-59256098D01*
X92052155Y-59262499D01*
X92052172Y-59262500D01*
X92300000Y-59262500D01*
X92300000Y-58012500D01*
X91600000Y-58012500D01*
X91600000Y-58810344D01*
X90500500Y-58810344D01*
X90500499Y-56714628D01*
X90494091Y-56655017D01*
X90493311Y-56652927D01*
X90443797Y-56520171D01*
X90443793Y-56520164D01*
X90357547Y-56404955D01*
X90357544Y-56404952D01*
X90242335Y-56318706D01*
X90242328Y-56318702D01*
X90107482Y-56268408D01*
X90107483Y-56268408D01*
X90047883Y-56262001D01*
X90047881Y-56262000D01*
X90047873Y-56262000D01*
X90047865Y-56262000D01*
X89570308Y-56262000D01*
X89503269Y-56242315D01*
X89457514Y-56189511D01*
X89447570Y-56120353D01*
X89448691Y-56113808D01*
X89475500Y-55979033D01*
X91124499Y-55979033D01*
X91150458Y-56109530D01*
X91150461Y-56109540D01*
X91201376Y-56232461D01*
X91201386Y-56232479D01*
X91275301Y-56343101D01*
X91275307Y-56343109D01*
X91369390Y-56437192D01*
X91369398Y-56437198D01*
X91480020Y-56511113D01*
X91480024Y-56511115D01*
X91480031Y-56511120D01*
X91480034Y-56511121D01*
X91480037Y-56511123D01*
X91530076Y-56531849D01*
X91584480Y-56575689D01*
X91606545Y-56641983D01*
X91605913Y-56659665D01*
X91600001Y-56714653D01*
X91600000Y-56714672D01*
X91600000Y-57512500D01*
X92300000Y-57512500D01*
X92300000Y-56417565D01*
X92319685Y-56350526D01*
X92321370Y-56348211D01*
X92321311Y-56348172D01*
X92378554Y-56262500D01*
X92800000Y-56262500D01*
X92800000Y-59262500D01*
X93047828Y-59262500D01*
X93047844Y-59262499D01*
X93107372Y-59256098D01*
X93107379Y-59256096D01*
X93242086Y-59205854D01*
X93242093Y-59205850D01*
X93357187Y-59119690D01*
X93357190Y-59119687D01*
X93443350Y-59004593D01*
X93443354Y-59004586D01*
X93493596Y-58869879D01*
X93493598Y-58869872D01*
X93499999Y-58810344D01*
X93500000Y-58810327D01*
X93500000Y-58141999D01*
X93519685Y-58074960D01*
X93572489Y-58029205D01*
X93623995Y-58017999D01*
X94697872Y-58017999D01*
X94757483Y-58011591D01*
X94892331Y-57961296D01*
X95007546Y-57875046D01*
X95093796Y-57759831D01*
X95144091Y-57624983D01*
X95150500Y-57565373D01*
X95150499Y-56539628D01*
X95144091Y-56480017D01*
X95143712Y-56479002D01*
X95093797Y-56345171D01*
X95093793Y-56345164D01*
X95007547Y-56229955D01*
X95007544Y-56229952D01*
X94892335Y-56143706D01*
X94892328Y-56143702D01*
X94757482Y-56093408D01*
X94757483Y-56093408D01*
X94697883Y-56087001D01*
X94697881Y-56087000D01*
X94697873Y-56087000D01*
X94697864Y-56087000D01*
X93502129Y-56087000D01*
X93502123Y-56087001D01*
X93442516Y-56093408D01*
X93307671Y-56143702D01*
X93307664Y-56143706D01*
X93192456Y-56229952D01*
X93190973Y-56231435D01*
X93189134Y-56232438D01*
X93185355Y-56235268D01*
X93184948Y-56234724D01*
X93129647Y-56264916D01*
X93090043Y-56267038D01*
X93047830Y-56262500D01*
X92800000Y-56262500D01*
X92378554Y-56262500D01*
X92394539Y-56238577D01*
X92398620Y-56232469D01*
X92449540Y-56109536D01*
X92464179Y-56035942D01*
X92475500Y-55979033D01*
X92475500Y-55845966D01*
X92449541Y-55715469D01*
X92449540Y-55715468D01*
X92449540Y-55715464D01*
X92439528Y-55691293D01*
X92398623Y-55592538D01*
X92398622Y-55592537D01*
X92398620Y-55592531D01*
X92390526Y-55580418D01*
X92324698Y-55481898D01*
X92324692Y-55481890D01*
X92230609Y-55387807D01*
X92230601Y-55387801D01*
X92119979Y-55313886D01*
X92119972Y-55313882D01*
X92119969Y-55313880D01*
X92119965Y-55313878D01*
X92119961Y-55313876D01*
X91997040Y-55262961D01*
X91997030Y-55262958D01*
X91866533Y-55237000D01*
X91866531Y-55237000D01*
X91733469Y-55237000D01*
X91733467Y-55237000D01*
X91602969Y-55262958D01*
X91602959Y-55262961D01*
X91480038Y-55313876D01*
X91480020Y-55313886D01*
X91369398Y-55387801D01*
X91369390Y-55387807D01*
X91275307Y-55481890D01*
X91275301Y-55481898D01*
X91201386Y-55592520D01*
X91201376Y-55592538D01*
X91150461Y-55715459D01*
X91150458Y-55715469D01*
X91124500Y-55845966D01*
X91124500Y-55845969D01*
X91124500Y-55979031D01*
X91124500Y-55979033D01*
X91124499Y-55979033D01*
X89475500Y-55979033D01*
X89475500Y-55845966D01*
X89449541Y-55715469D01*
X89449540Y-55715468D01*
X89449540Y-55715464D01*
X89439528Y-55691293D01*
X89398623Y-55592538D01*
X89398622Y-55592537D01*
X89398620Y-55592531D01*
X89390526Y-55580418D01*
X89324698Y-55481898D01*
X89324692Y-55481890D01*
X89230609Y-55387807D01*
X89230601Y-55387801D01*
X89119979Y-55313886D01*
X89119972Y-55313882D01*
X89119969Y-55313880D01*
X89119965Y-55313878D01*
X89119961Y-55313876D01*
X88997040Y-55262961D01*
X88997030Y-55262958D01*
X88866533Y-55237000D01*
X88866531Y-55237000D01*
X88733469Y-55237000D01*
X88733467Y-55237000D01*
X88602969Y-55262958D01*
X88602959Y-55262961D01*
X88480038Y-55313876D01*
X88480020Y-55313886D01*
X88369398Y-55387801D01*
X88369390Y-55387807D01*
X88275307Y-55481890D01*
X88275301Y-55481898D01*
X88201386Y-55592520D01*
X88201376Y-55592538D01*
X88150461Y-55715459D01*
X88150458Y-55715469D01*
X88124500Y-55845966D01*
X88124500Y-55845969D01*
X88124500Y-55979031D01*
X88124500Y-55979033D01*
X88124499Y-55979033D01*
X88151309Y-56113808D01*
X88145082Y-56183400D01*
X88102219Y-56238577D01*
X88036330Y-56261822D01*
X88029692Y-56262000D01*
X87552129Y-56262000D01*
X87552123Y-56262001D01*
X87509500Y-56266583D01*
X87440740Y-56254176D01*
X87408560Y-56230968D01*
X87407546Y-56229954D01*
X87377792Y-56207680D01*
X87292331Y-56143704D01*
X87292329Y-56143703D01*
X87292328Y-56143702D01*
X87157482Y-56093408D01*
X87157483Y-56093408D01*
X87097883Y-56087001D01*
X87097881Y-56087000D01*
X87097873Y-56087000D01*
X87097865Y-56087000D01*
X85968500Y-56087000D01*
X85901461Y-56067315D01*
X85855706Y-56014511D01*
X85844500Y-55963000D01*
X85844500Y-55871999D01*
X85864185Y-55804960D01*
X85916989Y-55759205D01*
X85968495Y-55747999D01*
X87097872Y-55747999D01*
X87157483Y-55741591D01*
X87292331Y-55691296D01*
X87407546Y-55605046D01*
X87493796Y-55489831D01*
X87544091Y-55354983D01*
X87550500Y-55295373D01*
X87550499Y-54269635D01*
X93049500Y-54269635D01*
X93049500Y-55295370D01*
X93049501Y-55295376D01*
X93055908Y-55354983D01*
X93106202Y-55489828D01*
X93106206Y-55489835D01*
X93192452Y-55605044D01*
X93192455Y-55605047D01*
X93307664Y-55691293D01*
X93307671Y-55691297D01*
X93442517Y-55741591D01*
X93442516Y-55741591D01*
X93449444Y-55742335D01*
X93502127Y-55748000D01*
X94697872Y-55747999D01*
X94757483Y-55741591D01*
X94892331Y-55691296D01*
X95007546Y-55605046D01*
X95093796Y-55489831D01*
X95144091Y-55354983D01*
X95150500Y-55295373D01*
X95150499Y-54269628D01*
X95144091Y-54210017D01*
X95133556Y-54181772D01*
X95093797Y-54075171D01*
X95093793Y-54075164D01*
X95007547Y-53959955D01*
X95007544Y-53959952D01*
X94892335Y-53873706D01*
X94892328Y-53873702D01*
X94757482Y-53823408D01*
X94757483Y-53823408D01*
X94697883Y-53817001D01*
X94697881Y-53817000D01*
X94697873Y-53817000D01*
X94697864Y-53817000D01*
X93502129Y-53817000D01*
X93502123Y-53817001D01*
X93442516Y-53823408D01*
X93307671Y-53873702D01*
X93307664Y-53873706D01*
X93192455Y-53959952D01*
X93192452Y-53959955D01*
X93106206Y-54075164D01*
X93106202Y-54075171D01*
X93055908Y-54210017D01*
X93049501Y-54269616D01*
X93049501Y-54269623D01*
X93049500Y-54269635D01*
X87550499Y-54269635D01*
X87550499Y-54269628D01*
X87544091Y-54210017D01*
X87533556Y-54181772D01*
X87493797Y-54075171D01*
X87493793Y-54075164D01*
X87407547Y-53959955D01*
X87407544Y-53959952D01*
X87292335Y-53873706D01*
X87292328Y-53873702D01*
X87157482Y-53823408D01*
X87157483Y-53823408D01*
X87097883Y-53817001D01*
X87097881Y-53817000D01*
X87097873Y-53817000D01*
X87097865Y-53817000D01*
X85968500Y-53817000D01*
X85901461Y-53797315D01*
X85855706Y-53744511D01*
X85844500Y-53693000D01*
X85844500Y-53642135D01*
X97469500Y-53642135D01*
X97469500Y-55017870D01*
X97469501Y-55017876D01*
X97475908Y-55077483D01*
X97526202Y-55212328D01*
X97526206Y-55212335D01*
X97612452Y-55327544D01*
X97612455Y-55327547D01*
X97727664Y-55413793D01*
X97727671Y-55413797D01*
X97862517Y-55464091D01*
X97862516Y-55464091D01*
X97869444Y-55464835D01*
X97922127Y-55470500D01*
X101416903Y-55470499D01*
X101426015Y-55470834D01*
X101455003Y-55472970D01*
X101455172Y-55472935D01*
X101474581Y-55471002D01*
X101474576Y-55470900D01*
X101474571Y-55470854D01*
X101474573Y-55470853D01*
X101474564Y-55470676D01*
X101477857Y-55470499D01*
X101477872Y-55470499D01*
X101537483Y-55464091D01*
X101573210Y-55450764D01*
X101592095Y-55445380D01*
X101596055Y-55444584D01*
X101604493Y-55441586D01*
X101654400Y-55420786D01*
X101654401Y-55420785D01*
X101659143Y-55418809D01*
X101663489Y-55417093D01*
X101672331Y-55413796D01*
X101735072Y-55366826D01*
X101740243Y-55363159D01*
X101773860Y-55340594D01*
X101824989Y-55294467D01*
X101887950Y-55264177D01*
X101944046Y-55267877D01*
X102003865Y-55286023D01*
X102003867Y-55286024D01*
X102021452Y-55287755D01*
X102200000Y-55305341D01*
X102396132Y-55286024D01*
X102455953Y-55267876D01*
X102525816Y-55267252D01*
X102575007Y-55294466D01*
X102596522Y-55313876D01*
X102620945Y-55335909D01*
X102626140Y-55340595D01*
X102655292Y-55363145D01*
X102686530Y-55387309D01*
X102687277Y-55387801D01*
X102689475Y-55389250D01*
X102689480Y-55389252D01*
X102689481Y-55389253D01*
X102694385Y-55391643D01*
X102714373Y-55403843D01*
X102727669Y-55413796D01*
X102773928Y-55431049D01*
X102784893Y-55435752D01*
X102806693Y-55446377D01*
X102812338Y-55447412D01*
X102833300Y-55453194D01*
X102862517Y-55464091D01*
X102922117Y-55470499D01*
X102922118Y-55470499D01*
X102922127Y-55470500D01*
X102926977Y-55470499D01*
X102943791Y-55472029D01*
X102943813Y-55471839D01*
X102948208Y-55472324D01*
X102948214Y-55472325D01*
X102957162Y-55472670D01*
X103011259Y-55471858D01*
X103011260Y-55471857D01*
X103016209Y-55471295D01*
X103030233Y-55470499D01*
X106477871Y-55470499D01*
X106477872Y-55470499D01*
X106537483Y-55464091D01*
X106672331Y-55413796D01*
X106787546Y-55327546D01*
X106873796Y-55212331D01*
X106924091Y-55077483D01*
X106930500Y-55017873D01*
X106930499Y-53642128D01*
X106924091Y-53582517D01*
X106918361Y-53567155D01*
X106873797Y-53447671D01*
X106873793Y-53447664D01*
X106787547Y-53332455D01*
X106787544Y-53332452D01*
X106672335Y-53246206D01*
X106672328Y-53246202D01*
X106537482Y-53195908D01*
X106537483Y-53195908D01*
X106477883Y-53189501D01*
X106477881Y-53189500D01*
X106477873Y-53189500D01*
X106477865Y-53189500D01*
X102983178Y-53189500D01*
X102974074Y-53189165D01*
X102945031Y-53187026D01*
X102945025Y-53187027D01*
X102944813Y-53187070D01*
X102925434Y-53189003D01*
X102925452Y-53189322D01*
X102922142Y-53189499D01*
X102862517Y-53195908D01*
X102826813Y-53209224D01*
X102807958Y-53214601D01*
X102803985Y-53215400D01*
X102803973Y-53215404D01*
X102795538Y-53218400D01*
X102740813Y-53241207D01*
X102736460Y-53242924D01*
X102733176Y-53244149D01*
X102727668Y-53246204D01*
X102664969Y-53293140D01*
X102659774Y-53296824D01*
X102626143Y-53319401D01*
X102626135Y-53319407D01*
X102624770Y-53320639D01*
X102624214Y-53320905D01*
X102622650Y-53322127D01*
X102622384Y-53321786D01*
X102561804Y-53350922D01*
X102505726Y-53347220D01*
X102396132Y-53313976D01*
X102200000Y-53294659D01*
X102003869Y-53313975D01*
X101894273Y-53347221D01*
X101824406Y-53347844D01*
X101775667Y-53320877D01*
X101775648Y-53320900D01*
X101775530Y-53320801D01*
X101775214Y-53320626D01*
X101773859Y-53319404D01*
X101729755Y-53285288D01*
X101713468Y-53272689D01*
X101710527Y-53270751D01*
X101710524Y-53270749D01*
X101710516Y-53270745D01*
X101705599Y-53268348D01*
X101685621Y-53256152D01*
X101672335Y-53246206D01*
X101672330Y-53246203D01*
X101626076Y-53228951D01*
X101615090Y-53224238D01*
X101593305Y-53213621D01*
X101587649Y-53212584D01*
X101566689Y-53206802D01*
X101537480Y-53195908D01*
X101477883Y-53189501D01*
X101477881Y-53189500D01*
X101477873Y-53189500D01*
X101477865Y-53189500D01*
X101473019Y-53189500D01*
X101456210Y-53187971D01*
X101456190Y-53188160D01*
X101451792Y-53187674D01*
X101442826Y-53187328D01*
X101388739Y-53188140D01*
X101383767Y-53188706D01*
X101369760Y-53189500D01*
X97922129Y-53189500D01*
X97922123Y-53189501D01*
X97862516Y-53195908D01*
X97727671Y-53246202D01*
X97727664Y-53246206D01*
X97612455Y-53332452D01*
X97612452Y-53332455D01*
X97526206Y-53447664D01*
X97526202Y-53447671D01*
X97475908Y-53582517D01*
X97471074Y-53627483D01*
X97469501Y-53642123D01*
X97469500Y-53642135D01*
X85844500Y-53642135D01*
X85844500Y-52694500D01*
X85864185Y-52627461D01*
X85916989Y-52581706D01*
X85968500Y-52570500D01*
X110278121Y-52570500D01*
X114845548Y-52570500D01*
X114912587Y-52590185D01*
G37*
%TD.AperFunction*%
%TD*%
%TA.AperFunction,Conductor*%
%TO.N,GND*%
G36*
X98309885Y-63563210D02*
G01*
X98316206Y-63569554D01*
X98316282Y-63569743D01*
X98385894Y-63747436D01*
X98426743Y-63851707D01*
X98483007Y-63959883D01*
X98528675Y-64047685D01*
X98628818Y-64161217D01*
X98726613Y-64272087D01*
X98729516Y-64280558D01*
X98726112Y-64288099D01*
X98388099Y-64626112D01*
X98379826Y-64629539D01*
X98372087Y-64626613D01*
X98261217Y-64528818D01*
X98147685Y-64428675D01*
X98059883Y-64383007D01*
X97951707Y-64326743D01*
X97951702Y-64326741D01*
X97951700Y-64326740D01*
X97669743Y-64216282D01*
X97663290Y-64210073D01*
X97663117Y-64201120D01*
X97663140Y-64201060D01*
X97847437Y-63753795D01*
X97853755Y-63747454D01*
X98300934Y-63563193D01*
X98309885Y-63563210D01*
G37*
%TD.AperFunction*%
%TD*%
%TA.AperFunction,Conductor*%
%TO.N,GND*%
G36*
X103088124Y-69903427D02*
G01*
X103091434Y-69910047D01*
X103166052Y-70432803D01*
X103166053Y-70432805D01*
X103166054Y-70432807D01*
X103360986Y-70779216D01*
X103361113Y-70779447D01*
X103619233Y-71263350D01*
X103620103Y-71272263D01*
X103614417Y-71279180D01*
X103613399Y-71279662D01*
X102844489Y-71599134D01*
X102835534Y-71599143D01*
X102835511Y-71599134D01*
X102066600Y-71279662D01*
X102060275Y-71273323D01*
X102060284Y-71264368D01*
X102060766Y-71263350D01*
X102318922Y-70779378D01*
X102318962Y-70779305D01*
X102513947Y-70432803D01*
X102588566Y-69910047D01*
X102593128Y-69902341D01*
X102600149Y-69900000D01*
X103079851Y-69900000D01*
X103088124Y-69903427D01*
G37*
%TD.AperFunction*%
%TD*%
%TA.AperFunction,Conductor*%
%TO.N,+5V*%
G36*
X99979180Y-70825582D02*
G01*
X99979662Y-70826600D01*
X100299134Y-71595511D01*
X100299143Y-71604466D01*
X100299134Y-71604489D01*
X99979662Y-72373399D01*
X99973323Y-72379724D01*
X99964368Y-72379715D01*
X99963350Y-72379233D01*
X99479447Y-72121113D01*
X99479216Y-72120986D01*
X99132807Y-71926054D01*
X99132805Y-71926053D01*
X99132803Y-71926052D01*
X98748765Y-71871234D01*
X98610047Y-71851434D01*
X98602341Y-71846872D01*
X98600000Y-71839851D01*
X98600000Y-71360148D01*
X98603427Y-71351875D01*
X98610044Y-71348566D01*
X99132803Y-71273947D01*
X99479305Y-71078962D01*
X99479378Y-71078922D01*
X99963350Y-70820765D01*
X99972263Y-70819896D01*
X99979180Y-70825582D01*
G37*
%TD.AperFunction*%
%TD*%
%TA.AperFunction,Conductor*%
%TO.N,GND*%
G36*
X93200948Y-66536765D02*
G01*
X93207269Y-66543109D01*
X93207252Y-66552063D01*
X93207172Y-66552251D01*
X93085896Y-66829745D01*
X93019401Y-67040388D01*
X93019400Y-67040392D01*
X93000687Y-67339032D01*
X92996750Y-67347074D01*
X92989010Y-67350000D01*
X92510990Y-67350000D01*
X92502717Y-67346573D01*
X92499313Y-67339032D01*
X92480598Y-67040392D01*
X92480597Y-67040388D01*
X92414101Y-66829745D01*
X92414098Y-66829738D01*
X92292826Y-66552249D01*
X92292654Y-66543298D01*
X92298863Y-66536845D01*
X92298987Y-66536792D01*
X92745504Y-66350871D01*
X92754455Y-66350855D01*
X93200948Y-66536765D01*
G37*
%TD.AperFunction*%
%TD*%
%TA.AperFunction,Conductor*%
%TO.N,+5V*%
G36*
X99979180Y-70825582D02*
G01*
X99979662Y-70826600D01*
X100299134Y-71595511D01*
X100299143Y-71604466D01*
X100299134Y-71604489D01*
X99979662Y-72373399D01*
X99973323Y-72379724D01*
X99964368Y-72379715D01*
X99963350Y-72379233D01*
X99479447Y-72121113D01*
X99479216Y-72120986D01*
X99132807Y-71926054D01*
X99132805Y-71926053D01*
X99132803Y-71926052D01*
X98748765Y-71871234D01*
X98610047Y-71851434D01*
X98602341Y-71846872D01*
X98600000Y-71839851D01*
X98600000Y-71360148D01*
X98603427Y-71351875D01*
X98610044Y-71348566D01*
X99132803Y-71273947D01*
X99479305Y-71078962D01*
X99479378Y-71078922D01*
X99963350Y-70820765D01*
X99972263Y-70819896D01*
X99979180Y-70825582D01*
G37*
%TD.AperFunction*%
%TD*%
%TA.AperFunction,Conductor*%
%TO.N,RING*%
G36*
X108697548Y-63821265D02*
G01*
X108787286Y-63871492D01*
X109211258Y-64108790D01*
X109216804Y-64115821D01*
X109215754Y-64124714D01*
X109211258Y-64129210D01*
X108697549Y-64416733D01*
X108688997Y-64417874D01*
X108668500Y-64412749D01*
X108593500Y-64393999D01*
X108533499Y-64383999D01*
X108493496Y-64377332D01*
X108404228Y-64369893D01*
X108396268Y-64365790D01*
X108393500Y-64358233D01*
X108393500Y-63879765D01*
X108396927Y-63871492D01*
X108404225Y-63868106D01*
X108493500Y-63860666D01*
X108593500Y-63844000D01*
X108688998Y-63820125D01*
X108697548Y-63821265D01*
G37*
%TD.AperFunction*%
%TD*%
%TA.AperFunction,Conductor*%
%TO.N,RING*%
G36*
X108171297Y-69903427D02*
G01*
X108173316Y-69906136D01*
X108370000Y-70270035D01*
X108570000Y-70553369D01*
X108761591Y-70741733D01*
X108765088Y-70749976D01*
X108761731Y-70758278D01*
X108761666Y-70758343D01*
X107928278Y-71592712D01*
X107920007Y-71596144D01*
X107911732Y-71592722D01*
X107911722Y-71592712D01*
X107078333Y-70758343D01*
X107074911Y-70750068D01*
X107078342Y-70741797D01*
X107270000Y-70553369D01*
X107470000Y-70270035D01*
X107666683Y-69906136D01*
X107673632Y-69900488D01*
X107676976Y-69900000D01*
X108163024Y-69900000D01*
X108171297Y-69903427D01*
G37*
%TD.AperFunction*%
%TD*%
%TA.AperFunction,Conductor*%
%TO.N,RING*%
G36*
X106224507Y-61101466D02*
G01*
X106230836Y-61107798D01*
X106230834Y-61116753D01*
X106226378Y-61122099D01*
X106153172Y-61169423D01*
X106061251Y-61261342D01*
X106061248Y-61261346D01*
X105969845Y-61385066D01*
X105968708Y-61386387D01*
X105622703Y-61732392D01*
X105614430Y-61735819D01*
X105607733Y-61733713D01*
X105386256Y-61579108D01*
X105222148Y-61464550D01*
X104828526Y-61254775D01*
X104446320Y-61114198D01*
X104439739Y-61108126D01*
X104439378Y-61099178D01*
X104439531Y-61098786D01*
X104694823Y-60480123D01*
X104701146Y-60473784D01*
X104710099Y-60473772D01*
X106224507Y-61101466D01*
G37*
%TD.AperFunction*%
%TD*%
%TA.AperFunction,Conductor*%
%TO.N,TIP*%
G36*
X101432184Y-60099912D02*
G01*
X101434532Y-60101913D01*
X101653443Y-60345176D01*
X101876886Y-60528476D01*
X102040570Y-60615137D01*
X102086330Y-60639364D01*
X102092038Y-60646263D01*
X102091195Y-60655179D01*
X102089128Y-60657977D01*
X101749814Y-60997291D01*
X101742493Y-61000679D01*
X101641185Y-61008951D01*
X101641184Y-61008952D01*
X101535591Y-61045508D01*
X101434840Y-61107043D01*
X101425994Y-61108431D01*
X101424680Y-61108030D01*
X99736987Y-60483247D01*
X99730418Y-60477161D01*
X99730077Y-60468213D01*
X99736163Y-60461644D01*
X99738584Y-60460838D01*
X101423376Y-60098302D01*
X101432184Y-60099912D01*
G37*
%TD.AperFunction*%
%TD*%
%TA.AperFunction,Conductor*%
%TO.N,TIP*%
G36*
X106794600Y-70388056D02*
G01*
X106798027Y-70396329D01*
X106797886Y-70398138D01*
X106706656Y-70980995D01*
X106705091Y-70985270D01*
X106471549Y-71368897D01*
X106170343Y-71916115D01*
X106163351Y-71921710D01*
X106155627Y-71921287D01*
X105384488Y-71602853D01*
X105378150Y-71596529D01*
X105060554Y-70828806D01*
X105060558Y-70819853D01*
X105066892Y-70813524D01*
X105069851Y-70812734D01*
X105647375Y-70737635D01*
X105648733Y-70737541D01*
X106112390Y-70732878D01*
X106296686Y-70390779D01*
X106303626Y-70385122D01*
X106306986Y-70384629D01*
X106786327Y-70384629D01*
X106794600Y-70388056D01*
G37*
%TD.AperFunction*%
%TD*%
%TA.AperFunction,Conductor*%
%TO.N,TIP*%
G36*
X100622703Y-59207607D02*
G01*
X100968708Y-59553612D01*
X100969845Y-59554933D01*
X101061248Y-59678652D01*
X101061251Y-59678656D01*
X101153164Y-59770567D01*
X101153172Y-59770575D01*
X101226378Y-59817900D01*
X101231465Y-59825269D01*
X101229852Y-59834077D01*
X101224506Y-59838533D01*
X99710118Y-60466220D01*
X99701163Y-60466222D01*
X99694830Y-60459892D01*
X99694823Y-60459875D01*
X99439544Y-59841245D01*
X99439556Y-59832290D01*
X99445896Y-59825967D01*
X99446320Y-59825801D01*
X99828526Y-59685225D01*
X100222148Y-59475450D01*
X100607733Y-59206285D01*
X100616478Y-59204361D01*
X100622703Y-59207607D01*
G37*
%TD.AperFunction*%
%TD*%
%TA.AperFunction,Conductor*%
%TO.N,TIP*%
G36*
X108697548Y-58868265D02*
G01*
X108787286Y-58918492D01*
X109211258Y-59155790D01*
X109216804Y-59162821D01*
X109215754Y-59171714D01*
X109211258Y-59176210D01*
X108697549Y-59463733D01*
X108688997Y-59464874D01*
X108668500Y-59459749D01*
X108593500Y-59440999D01*
X108533499Y-59430999D01*
X108493496Y-59424332D01*
X108404228Y-59416893D01*
X108396268Y-59412790D01*
X108393500Y-59405233D01*
X108393500Y-58926765D01*
X108396927Y-58918492D01*
X108404225Y-58915106D01*
X108493500Y-58907666D01*
X108593500Y-58891000D01*
X108688998Y-58867125D01*
X108697548Y-58868265D01*
G37*
%TD.AperFunction*%
%TD*%
%TA.AperFunction,Conductor*%
%TO.N,RING_GPIO*%
G36*
X112343500Y-62894000D02*
G01*
X112443500Y-62910666D01*
X112532774Y-62918106D01*
X112540732Y-62922207D01*
X112543500Y-62929765D01*
X112543500Y-63408233D01*
X112540073Y-63416506D01*
X112532772Y-63419893D01*
X112443503Y-63427332D01*
X112383500Y-63437332D01*
X112343500Y-63443999D01*
X112293500Y-63456499D01*
X112248002Y-63467874D01*
X112239450Y-63466733D01*
X112084784Y-63380166D01*
X111725740Y-63179209D01*
X111720195Y-63172179D01*
X111721245Y-63163286D01*
X111725739Y-63158791D01*
X112239451Y-62871265D01*
X112248000Y-62870125D01*
X112343500Y-62894000D01*
G37*
%TD.AperFunction*%
%TD*%
%TA.AperFunction,Conductor*%
%TO.N,RING_GPIO*%
G36*
X117105169Y-62080107D02*
G01*
X117105176Y-62080124D01*
X117360455Y-62698754D01*
X117360443Y-62707709D01*
X117354103Y-62714032D01*
X117353679Y-62714198D01*
X116971472Y-62854775D01*
X116577851Y-63064550D01*
X116192266Y-63333713D01*
X116183521Y-63335638D01*
X116177296Y-63332392D01*
X115831291Y-62986387D01*
X115830154Y-62985066D01*
X115738750Y-62861346D01*
X115738747Y-62861342D01*
X115646830Y-62769427D01*
X115646828Y-62769425D01*
X115646827Y-62769424D01*
X115573620Y-62722099D01*
X115568534Y-62714730D01*
X115570147Y-62705922D01*
X115575492Y-62701466D01*
X117089883Y-62073778D01*
X117098836Y-62073777D01*
X117105169Y-62080107D01*
G37*
%TD.AperFunction*%
%TD*%
%TA.AperFunction,Conductor*%
%TO.N,RING_GPIO*%
G36*
X145405228Y-54629715D02*
G01*
X145410467Y-54634954D01*
X145896967Y-55608928D01*
X145897598Y-55617860D01*
X145896235Y-55620646D01*
X145816667Y-55739997D01*
X145816664Y-55740002D01*
X145733336Y-55906658D01*
X145733330Y-55906672D01*
X145652942Y-56107645D01*
X145646688Y-56114054D01*
X145642079Y-56115000D01*
X145157921Y-56115000D01*
X145149648Y-56111573D01*
X145147058Y-56107645D01*
X145066669Y-55906672D01*
X144983334Y-55740002D01*
X144983331Y-55739997D01*
X144903764Y-55620646D01*
X144902026Y-55611861D01*
X144903029Y-55608934D01*
X145389533Y-54634953D01*
X145396296Y-54629084D01*
X145405228Y-54629715D01*
G37*
%TD.AperFunction*%
%TD*%
%TA.AperFunction,Conductor*%
%TO.N,RING_GPIO*%
G36*
X118624507Y-62701466D02*
G01*
X118630836Y-62707798D01*
X118630834Y-62716753D01*
X118626378Y-62722099D01*
X118553172Y-62769423D01*
X118461251Y-62861342D01*
X118461248Y-62861346D01*
X118369845Y-62985066D01*
X118368708Y-62986387D01*
X118022703Y-63332392D01*
X118014430Y-63335819D01*
X118007733Y-63333713D01*
X117786256Y-63179108D01*
X117622148Y-63064550D01*
X117228526Y-62854775D01*
X116846320Y-62714198D01*
X116839739Y-62708126D01*
X116839378Y-62699178D01*
X116839531Y-62698786D01*
X117094823Y-62080123D01*
X117101146Y-62073784D01*
X117110099Y-62073772D01*
X118624507Y-62701466D01*
G37*
%TD.AperFunction*%
%TD*%
%TA.AperFunction,Conductor*%
%TO.N,TIP_GPIO*%
G36*
X142349020Y-56513174D02*
G01*
X142796203Y-56697437D01*
X142802546Y-56703757D01*
X142842907Y-56801708D01*
X142986806Y-57150931D01*
X142986789Y-57159885D01*
X142980445Y-57166206D01*
X142980256Y-57166282D01*
X142698297Y-57276740D01*
X142502317Y-57378673D01*
X142502315Y-57378675D01*
X142277913Y-57576613D01*
X142269441Y-57579516D01*
X142261900Y-57576112D01*
X141923887Y-57238099D01*
X141920460Y-57229826D01*
X141923384Y-57222089D01*
X142121323Y-56997684D01*
X142223255Y-56801707D01*
X142333718Y-56519740D01*
X142339925Y-56513290D01*
X142348878Y-56513117D01*
X142349020Y-56513174D01*
G37*
%TD.AperFunction*%
%TD*%
%TA.AperFunction,Conductor*%
%TO.N,TIP_GPIO*%
G36*
X146905228Y-54629715D02*
G01*
X146910467Y-54634954D01*
X147396967Y-55608928D01*
X147397598Y-55617860D01*
X147396235Y-55620646D01*
X147316667Y-55739997D01*
X147316664Y-55740002D01*
X147233336Y-55906658D01*
X147233330Y-55906672D01*
X147152942Y-56107645D01*
X147146688Y-56114054D01*
X147142079Y-56115000D01*
X146657921Y-56115000D01*
X146649648Y-56111573D01*
X146647058Y-56107645D01*
X146566669Y-55906672D01*
X146483334Y-55740002D01*
X146483331Y-55739997D01*
X146403764Y-55620646D01*
X146402026Y-55611861D01*
X146403029Y-55608934D01*
X146889533Y-54634953D01*
X146896296Y-54629084D01*
X146905228Y-54629715D01*
G37*
%TD.AperFunction*%
%TD*%
%TA.AperFunction,Conductor*%
%TO.N,TIP_GPIO*%
G36*
X147147283Y-55703427D02*
G01*
X147150687Y-55710968D01*
X147169400Y-56009606D01*
X147169401Y-56009610D01*
X147235896Y-56220253D01*
X147357172Y-56497748D01*
X147357345Y-56506701D01*
X147351136Y-56513154D01*
X147350948Y-56513234D01*
X146904497Y-56699127D01*
X146895543Y-56699144D01*
X146895503Y-56699127D01*
X146449051Y-56513234D01*
X146442730Y-56506890D01*
X146442747Y-56497936D01*
X146442790Y-56497834D01*
X146564098Y-56220261D01*
X146630598Y-56009608D01*
X146649313Y-55710968D01*
X146653250Y-55702926D01*
X146660990Y-55700000D01*
X147139010Y-55700000D01*
X147147283Y-55703427D01*
G37*
%TD.AperFunction*%
%TD*%
%TA.AperFunction,Conductor*%
%TO.N,TIP_GPIO*%
G36*
X121392266Y-60836286D02*
G01*
X121540698Y-60939901D01*
X121777851Y-61105450D01*
X122171473Y-61315225D01*
X122403528Y-61400575D01*
X122553679Y-61455801D01*
X122560260Y-61461873D01*
X122560621Y-61470821D01*
X122560455Y-61471245D01*
X122305176Y-62089875D01*
X122298853Y-62096215D01*
X122289898Y-62096227D01*
X122002765Y-61977215D01*
X120775493Y-61468533D01*
X120769163Y-61462200D01*
X120769165Y-61453245D01*
X120773618Y-61447901D01*
X120846827Y-61400575D01*
X120938751Y-61308652D01*
X121030160Y-61184925D01*
X121031284Y-61183619D01*
X121377297Y-60837606D01*
X121385569Y-60834180D01*
X121392266Y-60836286D01*
G37*
%TD.AperFunction*%
%TD*%
%TA.AperFunction,Conductor*%
%TO.N,TIP_GPIO*%
G36*
X124032309Y-61462799D02*
G01*
X124035255Y-61464741D01*
X124243335Y-61652457D01*
X124418194Y-61759011D01*
X124456666Y-61782455D01*
X124661833Y-61847414D01*
X124668684Y-61853177D01*
X124670000Y-61858567D01*
X124670000Y-62341432D01*
X124666573Y-62349705D01*
X124661832Y-62352586D01*
X124456670Y-62417542D01*
X124456664Y-62417545D01*
X124243335Y-62547541D01*
X124035255Y-62735258D01*
X124026817Y-62738256D01*
X124023361Y-62737545D01*
X122328681Y-62110973D01*
X122322109Y-62104890D01*
X122321764Y-62095942D01*
X122327847Y-62089370D01*
X122328656Y-62089035D01*
X124023362Y-61462454D01*
X124032309Y-61462799D01*
G37*
%TD.AperFunction*%
%TD*%
%TA.AperFunction,Conductor*%
%TO.N,TIP_GPIO*%
G36*
X112343500Y-57941000D02*
G01*
X112443500Y-57957666D01*
X112532774Y-57965106D01*
X112540732Y-57969207D01*
X112543500Y-57976765D01*
X112543500Y-58455233D01*
X112540073Y-58463506D01*
X112532772Y-58466893D01*
X112443503Y-58474332D01*
X112383500Y-58484332D01*
X112343500Y-58490999D01*
X112293500Y-58503499D01*
X112248002Y-58514874D01*
X112239450Y-58513733D01*
X112084784Y-58427166D01*
X111725740Y-58226209D01*
X111720195Y-58219179D01*
X111721245Y-58210286D01*
X111725739Y-58205791D01*
X112239451Y-57918265D01*
X112248000Y-57917125D01*
X112343500Y-57941000D01*
G37*
%TD.AperFunction*%
%TD*%
%TA.AperFunction,Conductor*%
%TO.N,+5V*%
G36*
X133224698Y-56840927D02*
G01*
X133227582Y-56845677D01*
X133249999Y-56916664D01*
X133250000Y-56916665D01*
X133250003Y-56916675D01*
X133254330Y-56928215D01*
X133254676Y-56929294D01*
X133287014Y-57049982D01*
X133292604Y-57059664D01*
X133293944Y-57067806D01*
X133111472Y-57981077D01*
X133106491Y-57988519D01*
X133097707Y-57990258D01*
X133090265Y-57985277D01*
X133088527Y-57981081D01*
X132900746Y-57041234D01*
X132901595Y-57034042D01*
X132925000Y-56983333D01*
X132950000Y-56916666D01*
X132972418Y-56845677D01*
X132978177Y-56838820D01*
X132983575Y-56837500D01*
X133216425Y-56837500D01*
X133224698Y-56840927D01*
G37*
%TD.AperFunction*%
%TD*%
%TA.AperFunction,Conductor*%
%TO.N,+5V*%
G36*
X132258799Y-54313658D02*
G01*
X132265120Y-54320002D01*
X132265548Y-54321231D01*
X132354008Y-54629429D01*
X132354150Y-54629972D01*
X132408609Y-54860975D01*
X132408610Y-54860976D01*
X132589633Y-55110636D01*
X132591715Y-55119345D01*
X132588434Y-55125777D01*
X132425777Y-55288434D01*
X132417504Y-55291861D01*
X132410636Y-55289633D01*
X132160976Y-55108610D01*
X132160975Y-55108609D01*
X131929972Y-55054150D01*
X131929429Y-55054008D01*
X131621231Y-54965548D01*
X131614224Y-54959972D01*
X131613213Y-54951074D01*
X131613636Y-54949857D01*
X131797437Y-54503795D01*
X131803755Y-54497454D01*
X132249846Y-54313641D01*
X132258799Y-54313658D01*
G37*
%TD.AperFunction*%
%TD*%
%TA.AperFunction,Conductor*%
%TO.N,+5V*%
G36*
X101432309Y-53692799D02*
G01*
X101435255Y-53694741D01*
X101643335Y-53882457D01*
X101818194Y-53989011D01*
X101856666Y-54012455D01*
X102061833Y-54077414D01*
X102068684Y-54083177D01*
X102070000Y-54088567D01*
X102070000Y-54571432D01*
X102066573Y-54579705D01*
X102061832Y-54582586D01*
X101856670Y-54647542D01*
X101856664Y-54647545D01*
X101643335Y-54777541D01*
X101435255Y-54965258D01*
X101426817Y-54968256D01*
X101423361Y-54967545D01*
X99728681Y-54340974D01*
X99722109Y-54334891D01*
X99721764Y-54325943D01*
X99727847Y-54319371D01*
X99728681Y-54319026D01*
X101423362Y-53692454D01*
X101432309Y-53692799D01*
G37*
%TD.AperFunction*%
%TD*%
%TA.AperFunction,Conductor*%
%TO.N,+5V*%
G36*
X102013150Y-53848875D02*
G01*
X102013349Y-53849327D01*
X102199127Y-54295503D01*
X102199144Y-54304457D01*
X102199127Y-54304497D01*
X102013131Y-54751195D01*
X102006787Y-54757516D01*
X101997890Y-54757523D01*
X101723024Y-54644777D01*
X101723020Y-54644776D01*
X101723016Y-54644774D01*
X101512485Y-54592172D01*
X101217203Y-54580446D01*
X101209072Y-54576693D01*
X101205967Y-54568755D01*
X101205967Y-54090717D01*
X101209394Y-54082444D01*
X101216641Y-54079062D01*
X101514313Y-54052922D01*
X101721582Y-53972079D01*
X101997600Y-53843221D01*
X102006545Y-53842828D01*
X102013150Y-53848875D01*
G37*
%TD.AperFunction*%
%TD*%
%TA.AperFunction,Conductor*%
%TO.N,+5V*%
G36*
X102976636Y-53692453D02*
G01*
X103490531Y-53882455D01*
X104671318Y-54319026D01*
X104677890Y-54325109D01*
X104678235Y-54334057D01*
X104672152Y-54340629D01*
X104671318Y-54340974D01*
X102976638Y-54967545D01*
X102967690Y-54967200D01*
X102964744Y-54965258D01*
X102756663Y-54777541D01*
X102543335Y-54647544D01*
X102543333Y-54647543D01*
X102338168Y-54582586D01*
X102331316Y-54576822D01*
X102330000Y-54571432D01*
X102330000Y-54088567D01*
X102333427Y-54080294D01*
X102338165Y-54077414D01*
X102543333Y-54012455D01*
X102756666Y-53882455D01*
X102964745Y-53694740D01*
X102973182Y-53691743D01*
X102976636Y-53692453D01*
G37*
%TD.AperFunction*%
%TD*%
%TA.AperFunction,Conductor*%
%TO.N,+5V*%
G36*
X102401948Y-53843023D02*
G01*
X102402386Y-53843215D01*
X102678416Y-53972079D01*
X102885686Y-54052922D01*
X103183358Y-54079062D01*
X103191298Y-54083199D01*
X103194033Y-54090717D01*
X103194033Y-54568755D01*
X103190606Y-54577028D01*
X103182797Y-54580446D01*
X102887513Y-54592172D01*
X102676981Y-54644774D01*
X102676977Y-54644776D01*
X102676975Y-54644776D01*
X102676974Y-54644777D01*
X102590106Y-54680408D01*
X102402109Y-54757523D01*
X102393154Y-54757492D01*
X102386868Y-54751195D01*
X102342557Y-54644776D01*
X102200871Y-54304495D01*
X102200855Y-54295544D01*
X102386651Y-53849325D01*
X102392994Y-53843006D01*
X102401948Y-53843023D01*
G37*
%TD.AperFunction*%
%TD*%
%TA.AperFunction,Conductor*%
%TO.N,GND*%
G36*
X144455600Y-65080584D02*
G01*
X144792691Y-65416715D01*
X144796130Y-65424983D01*
X144792715Y-65433261D01*
X144792691Y-65433285D01*
X144455600Y-65769415D01*
X144447322Y-65772830D01*
X144442730Y-65771884D01*
X144333335Y-65725001D01*
X144333336Y-65725001D01*
X144333333Y-65725000D01*
X144216666Y-65691666D01*
X144216663Y-65691665D01*
X144216661Y-65691665D01*
X144216653Y-65691663D01*
X144110045Y-65676434D01*
X144102340Y-65671872D01*
X144100000Y-65664852D01*
X144100000Y-65185147D01*
X144103427Y-65176874D01*
X144110045Y-65173565D01*
X144216659Y-65158334D01*
X144216658Y-65158334D01*
X144216666Y-65158333D01*
X144333333Y-65124999D01*
X144442731Y-65078114D01*
X144451684Y-65078006D01*
X144455600Y-65080584D01*
G37*
%TD.AperFunction*%
%TD*%
%TA.AperFunction,Conductor*%
%TO.N,GND*%
G36*
X144057267Y-65078114D02*
G01*
X144166666Y-65124999D01*
X144283333Y-65158333D01*
X144283338Y-65158333D01*
X144283339Y-65158334D01*
X144389955Y-65173565D01*
X144397660Y-65178127D01*
X144400000Y-65185147D01*
X144400000Y-65664852D01*
X144396573Y-65673125D01*
X144389955Y-65676434D01*
X144283345Y-65691663D01*
X144283337Y-65691665D01*
X144283334Y-65691665D01*
X144283333Y-65691666D01*
X144166666Y-65725000D01*
X144166663Y-65725001D01*
X144057269Y-65771884D01*
X144048315Y-65771993D01*
X144044399Y-65769415D01*
X143939537Y-65664852D01*
X143707307Y-65433283D01*
X143703869Y-65425017D01*
X143707283Y-65416740D01*
X144044400Y-65080583D01*
X144052677Y-65077169D01*
X144057267Y-65078114D01*
G37*
%TD.AperFunction*%
%TD*%
%TA.AperFunction,Conductor*%
%TO.N,GND*%
G36*
X88297732Y-58713373D02*
G01*
X88301096Y-58720429D01*
X88332169Y-59017523D01*
X88332168Y-59017523D01*
X88422550Y-59222416D01*
X88556508Y-59497504D01*
X88557049Y-59506442D01*
X88551111Y-59513145D01*
X88550486Y-59513427D01*
X88104497Y-59699127D01*
X88095543Y-59699144D01*
X88095503Y-59699127D01*
X87648638Y-59513062D01*
X87642317Y-59506718D01*
X87642242Y-59497991D01*
X87749349Y-59224818D01*
X87792668Y-59014463D01*
X87799725Y-58721363D01*
X87803350Y-58713176D01*
X87811422Y-58709946D01*
X88289459Y-58709946D01*
X88297732Y-58713373D01*
G37*
%TD.AperFunction*%
%TD*%
%TA.AperFunction,Conductor*%
%TO.N,GND*%
G36*
X143949138Y-64728427D02*
G01*
X143952215Y-64733860D01*
X143983333Y-64858333D01*
X143983336Y-64858342D01*
X144016664Y-64974992D01*
X144047717Y-65068151D01*
X144047082Y-65077083D01*
X144044902Y-65080112D01*
X143708285Y-65417691D01*
X143700017Y-65421130D01*
X143691739Y-65417715D01*
X143691715Y-65417691D01*
X143355097Y-65080112D01*
X143351682Y-65071834D01*
X143352281Y-65068156D01*
X143383333Y-64974999D01*
X143416666Y-64858333D01*
X143447784Y-64733861D01*
X143453115Y-64726667D01*
X143459135Y-64725000D01*
X143940865Y-64725000D01*
X143949138Y-64728427D01*
G37*
%TD.AperFunction*%
%TD*%
%TA.AperFunction,Conductor*%
%TO.N,GND*%
G36*
X143708259Y-64332283D02*
G01*
X144044902Y-64669887D01*
X144048317Y-64678165D01*
X144047717Y-64681848D01*
X144016666Y-64775000D01*
X143983333Y-64891666D01*
X143952215Y-65016139D01*
X143946885Y-65023333D01*
X143940865Y-65025000D01*
X143459135Y-65025000D01*
X143450862Y-65021573D01*
X143447784Y-65016138D01*
X143416666Y-64891666D01*
X143383333Y-64775000D01*
X143352282Y-64681846D01*
X143352917Y-64672916D01*
X143355093Y-64669892D01*
X143691716Y-64332307D01*
X143699983Y-64328869D01*
X143708259Y-64332283D01*
G37*
%TD.AperFunction*%
%TD*%
%TA.AperFunction,Conductor*%
%TO.N,GND*%
G36*
X144455600Y-63980584D02*
G01*
X144792691Y-64316715D01*
X144796130Y-64324983D01*
X144792715Y-64333261D01*
X144792691Y-64333285D01*
X144455600Y-64669415D01*
X144447322Y-64672830D01*
X144442730Y-64671884D01*
X144333335Y-64625001D01*
X144333336Y-64625001D01*
X144333333Y-64625000D01*
X144216666Y-64591666D01*
X144216663Y-64591665D01*
X144216661Y-64591665D01*
X144216653Y-64591663D01*
X144110045Y-64576434D01*
X144102340Y-64571872D01*
X144100000Y-64564852D01*
X144100000Y-64085147D01*
X144103427Y-64076874D01*
X144110045Y-64073565D01*
X144216659Y-64058334D01*
X144216658Y-64058334D01*
X144216666Y-64058333D01*
X144333333Y-64024999D01*
X144442731Y-63978114D01*
X144451684Y-63978006D01*
X144455600Y-63980584D01*
G37*
%TD.AperFunction*%
%TD*%
%TA.AperFunction,Conductor*%
%TO.N,GND*%
G36*
X144057267Y-63978114D02*
G01*
X144166666Y-64024999D01*
X144283333Y-64058333D01*
X144283338Y-64058333D01*
X144283339Y-64058334D01*
X144389955Y-64073565D01*
X144397660Y-64078127D01*
X144400000Y-64085147D01*
X144400000Y-64564852D01*
X144396573Y-64573125D01*
X144389955Y-64576434D01*
X144283345Y-64591663D01*
X144283337Y-64591665D01*
X144283334Y-64591665D01*
X144283333Y-64591666D01*
X144166666Y-64625000D01*
X144166663Y-64625001D01*
X144057269Y-64671884D01*
X144048315Y-64671993D01*
X144044399Y-64669415D01*
X143939537Y-64564852D01*
X143707307Y-64333283D01*
X143703869Y-64325017D01*
X143707283Y-64316740D01*
X144044400Y-63980583D01*
X144052677Y-63977169D01*
X144057267Y-63978114D01*
G37*
%TD.AperFunction*%
%TD*%
%TA.AperFunction,Conductor*%
%TO.N,GND*%
G36*
X142849138Y-62528427D02*
G01*
X142852215Y-62533860D01*
X142883333Y-62658333D01*
X142883336Y-62658342D01*
X142916664Y-62774992D01*
X142947717Y-62868151D01*
X142947082Y-62877083D01*
X142944902Y-62880112D01*
X142608285Y-63217691D01*
X142600017Y-63221130D01*
X142591739Y-63217715D01*
X142591715Y-63217691D01*
X142255097Y-62880112D01*
X142251682Y-62871834D01*
X142252281Y-62868156D01*
X142283333Y-62774999D01*
X142316666Y-62658333D01*
X142347784Y-62533861D01*
X142353115Y-62526667D01*
X142359135Y-62525000D01*
X142840865Y-62525000D01*
X142849138Y-62528427D01*
G37*
%TD.AperFunction*%
%TD*%
%TA.AperFunction,Conductor*%
%TO.N,GND*%
G36*
X143050948Y-62186765D02*
G01*
X143057269Y-62193109D01*
X143057252Y-62202063D01*
X143057172Y-62202251D01*
X142935896Y-62479745D01*
X142869401Y-62690388D01*
X142869400Y-62690392D01*
X142850687Y-62989032D01*
X142846750Y-62997074D01*
X142839010Y-63000000D01*
X142360990Y-63000000D01*
X142352717Y-62996573D01*
X142349313Y-62989032D01*
X142330598Y-62690392D01*
X142330597Y-62690388D01*
X142264101Y-62479745D01*
X142264098Y-62479738D01*
X142142826Y-62202249D01*
X142142654Y-62193298D01*
X142148863Y-62186845D01*
X142148987Y-62186792D01*
X142595504Y-62000871D01*
X142604455Y-62000855D01*
X143050948Y-62186765D01*
G37*
%TD.AperFunction*%
%TD*%
%TA.AperFunction,Conductor*%
%TO.N,GND*%
G36*
X145049138Y-63628427D02*
G01*
X145052215Y-63633860D01*
X145083333Y-63758333D01*
X145083336Y-63758342D01*
X145116664Y-63874992D01*
X145147717Y-63968151D01*
X145147082Y-63977083D01*
X145144902Y-63980112D01*
X144808285Y-64317691D01*
X144800017Y-64321130D01*
X144791739Y-64317715D01*
X144791715Y-64317691D01*
X144455097Y-63980112D01*
X144451682Y-63971834D01*
X144452281Y-63968156D01*
X144483333Y-63874999D01*
X144516666Y-63758333D01*
X144547784Y-63633861D01*
X144553115Y-63626667D01*
X144559135Y-63625000D01*
X145040865Y-63625000D01*
X145049138Y-63628427D01*
G37*
%TD.AperFunction*%
%TD*%
%TA.AperFunction,Conductor*%
%TO.N,GND*%
G36*
X144808259Y-63232283D02*
G01*
X145144902Y-63569887D01*
X145148317Y-63578165D01*
X145147717Y-63581848D01*
X145116666Y-63675000D01*
X145083333Y-63791666D01*
X145052215Y-63916139D01*
X145046885Y-63923333D01*
X145040865Y-63925000D01*
X144559135Y-63925000D01*
X144550862Y-63921573D01*
X144547784Y-63916138D01*
X144516666Y-63791666D01*
X144483333Y-63675000D01*
X144452282Y-63581846D01*
X144452917Y-63572916D01*
X144455093Y-63569892D01*
X144791716Y-63232307D01*
X144799983Y-63228869D01*
X144808259Y-63232283D01*
G37*
%TD.AperFunction*%
%TD*%
%TA.AperFunction,Conductor*%
%TO.N,GND*%
G36*
X142849138Y-63628427D02*
G01*
X142852215Y-63633860D01*
X142883333Y-63758333D01*
X142883336Y-63758342D01*
X142916664Y-63874992D01*
X142947717Y-63968151D01*
X142947082Y-63977083D01*
X142944902Y-63980112D01*
X142608285Y-64317691D01*
X142600017Y-64321130D01*
X142591739Y-64317715D01*
X142591715Y-64317691D01*
X142255097Y-63980112D01*
X142251682Y-63971834D01*
X142252281Y-63968156D01*
X142283333Y-63874999D01*
X142316666Y-63758333D01*
X142347784Y-63633861D01*
X142353115Y-63626667D01*
X142359135Y-63625000D01*
X142840865Y-63625000D01*
X142849138Y-63628427D01*
G37*
%TD.AperFunction*%
%TD*%
%TA.AperFunction,Conductor*%
%TO.N,GND*%
G36*
X142608259Y-63232283D02*
G01*
X142944902Y-63569887D01*
X142948317Y-63578165D01*
X142947717Y-63581848D01*
X142916666Y-63675000D01*
X142883333Y-63791666D01*
X142852215Y-63916139D01*
X142846885Y-63923333D01*
X142840865Y-63925000D01*
X142359135Y-63925000D01*
X142350862Y-63921573D01*
X142347784Y-63916138D01*
X142316666Y-63791666D01*
X142283333Y-63675000D01*
X142252282Y-63581846D01*
X142252917Y-63572916D01*
X142255093Y-63569892D01*
X142591716Y-63232307D01*
X142599983Y-63228869D01*
X142608259Y-63232283D01*
G37*
%TD.AperFunction*%
%TD*%
%TA.AperFunction,Conductor*%
%TO.N,GND*%
G36*
X130306273Y-57843742D02*
G01*
X130492664Y-58029206D01*
X130496112Y-58037471D01*
X130492706Y-58045752D01*
X130492664Y-58045794D01*
X130306273Y-58231257D01*
X130297992Y-58234663D01*
X130292285Y-58233160D01*
X130233341Y-58200004D01*
X130233336Y-58200001D01*
X130233333Y-58200000D01*
X130216664Y-58193749D01*
X130166667Y-58175000D01*
X130109544Y-58164289D01*
X130102044Y-58159396D01*
X130100000Y-58152789D01*
X130100000Y-57922210D01*
X130103427Y-57913937D01*
X130109542Y-57910710D01*
X130166666Y-57900000D01*
X130233333Y-57875000D01*
X130292286Y-57841838D01*
X130301176Y-57840769D01*
X130306273Y-57843742D01*
G37*
%TD.AperFunction*%
%TD*%
%TA.AperFunction,Conductor*%
%TO.N,GND*%
G36*
X128820649Y-57470771D02*
G01*
X128821075Y-57471197D01*
X129015060Y-57675350D01*
X129015066Y-57675355D01*
X129119613Y-57752848D01*
X129217530Y-57825428D01*
X129217531Y-57825428D01*
X129217533Y-57825430D01*
X129412922Y-57909456D01*
X129419169Y-57915872D01*
X129420000Y-57920204D01*
X129420000Y-58155306D01*
X129416573Y-58163579D01*
X129413581Y-58165746D01*
X129219162Y-58264086D01*
X129219159Y-58264088D01*
X129018321Y-58430954D01*
X129018311Y-58430963D01*
X128825547Y-58653776D01*
X128817543Y-58657791D01*
X128809044Y-58654969D01*
X128808589Y-58654554D01*
X128296980Y-58162500D01*
X128227377Y-58095557D01*
X128223790Y-58087353D01*
X128227002Y-58079071D01*
X128804109Y-57471199D01*
X128812289Y-57467560D01*
X128820649Y-57470771D01*
G37*
%TD.AperFunction*%
%TD*%
%TA.AperFunction,Conductor*%
%TO.N,GND*%
G36*
X143708259Y-63232283D02*
G01*
X144044902Y-63569887D01*
X144048317Y-63578165D01*
X144047717Y-63581848D01*
X144016666Y-63675000D01*
X143983333Y-63791666D01*
X143952215Y-63916139D01*
X143946885Y-63923333D01*
X143940865Y-63925000D01*
X143459135Y-63925000D01*
X143450862Y-63921573D01*
X143447784Y-63916138D01*
X143416666Y-63791666D01*
X143383333Y-63675000D01*
X143352282Y-63581846D01*
X143352917Y-63572916D01*
X143355093Y-63569892D01*
X143691716Y-63232307D01*
X143699983Y-63228869D01*
X143708259Y-63232283D01*
G37*
%TD.AperFunction*%
%TD*%
%TA.AperFunction,Conductor*%
%TO.N,GND*%
G36*
X143949138Y-63628427D02*
G01*
X143952215Y-63633860D01*
X143983333Y-63758333D01*
X143983336Y-63758342D01*
X144016664Y-63874992D01*
X144047717Y-63968151D01*
X144047082Y-63977083D01*
X144044902Y-63980112D01*
X143708285Y-64317691D01*
X143700017Y-64321130D01*
X143691739Y-64317715D01*
X143691715Y-64317691D01*
X143355097Y-63980112D01*
X143351682Y-63971834D01*
X143352281Y-63968156D01*
X143383333Y-63874999D01*
X143416666Y-63758333D01*
X143447784Y-63633861D01*
X143453115Y-63626667D01*
X143459135Y-63625000D01*
X143940865Y-63625000D01*
X143949138Y-63628427D01*
G37*
%TD.AperFunction*%
%TD*%
%TA.AperFunction,Conductor*%
%TO.N,GND*%
G36*
X142957267Y-63978114D02*
G01*
X143066666Y-64024999D01*
X143183333Y-64058333D01*
X143183338Y-64058333D01*
X143183339Y-64058334D01*
X143289955Y-64073565D01*
X143297660Y-64078127D01*
X143300000Y-64085147D01*
X143300000Y-64564852D01*
X143296573Y-64573125D01*
X143289955Y-64576434D01*
X143183345Y-64591663D01*
X143183337Y-64591665D01*
X143183334Y-64591665D01*
X143183333Y-64591666D01*
X143066666Y-64625000D01*
X143066663Y-64625001D01*
X142957269Y-64671884D01*
X142948315Y-64671993D01*
X142944399Y-64669415D01*
X142839537Y-64564852D01*
X142607307Y-64333283D01*
X142603869Y-64325017D01*
X142607283Y-64316740D01*
X142944400Y-63980583D01*
X142952677Y-63977169D01*
X142957267Y-63978114D01*
G37*
%TD.AperFunction*%
%TD*%
%TA.AperFunction,Conductor*%
%TO.N,GND*%
G36*
X143355600Y-63980584D02*
G01*
X143692691Y-64316715D01*
X143696130Y-64324983D01*
X143692715Y-64333261D01*
X143692691Y-64333285D01*
X143355600Y-64669415D01*
X143347322Y-64672830D01*
X143342730Y-64671884D01*
X143233335Y-64625001D01*
X143233336Y-64625001D01*
X143233333Y-64625000D01*
X143116666Y-64591666D01*
X143116663Y-64591665D01*
X143116661Y-64591665D01*
X143116653Y-64591663D01*
X143010045Y-64576434D01*
X143002340Y-64571872D01*
X143000000Y-64564852D01*
X143000000Y-64085147D01*
X143003427Y-64076874D01*
X143010045Y-64073565D01*
X143116659Y-64058334D01*
X143116658Y-64058334D01*
X143116666Y-64058333D01*
X143233333Y-64024999D01*
X143342731Y-63978114D01*
X143351684Y-63978006D01*
X143355600Y-63980584D01*
G37*
%TD.AperFunction*%
%TD*%
%TA.AperFunction,Conductor*%
%TO.N,GND*%
G36*
X144455600Y-62880584D02*
G01*
X144792691Y-63216715D01*
X144796130Y-63224983D01*
X144792715Y-63233261D01*
X144792691Y-63233285D01*
X144455600Y-63569415D01*
X144447322Y-63572830D01*
X144442730Y-63571884D01*
X144333335Y-63525001D01*
X144333336Y-63525001D01*
X144333333Y-63525000D01*
X144216666Y-63491666D01*
X144216663Y-63491665D01*
X144216661Y-63491665D01*
X144216653Y-63491663D01*
X144110045Y-63476434D01*
X144102340Y-63471872D01*
X144100000Y-63464852D01*
X144100000Y-62985147D01*
X144103427Y-62976874D01*
X144110045Y-62973565D01*
X144216659Y-62958334D01*
X144216658Y-62958334D01*
X144216666Y-62958333D01*
X144333333Y-62924999D01*
X144442731Y-62878114D01*
X144451684Y-62878006D01*
X144455600Y-62880584D01*
G37*
%TD.AperFunction*%
%TD*%
%TA.AperFunction,Conductor*%
%TO.N,GND*%
G36*
X144057267Y-62878114D02*
G01*
X144166666Y-62924999D01*
X144283333Y-62958333D01*
X144283338Y-62958333D01*
X144283339Y-62958334D01*
X144389955Y-62973565D01*
X144397660Y-62978127D01*
X144400000Y-62985147D01*
X144400000Y-63464852D01*
X144396573Y-63473125D01*
X144389955Y-63476434D01*
X144283345Y-63491663D01*
X144283337Y-63491665D01*
X144283334Y-63491665D01*
X144283333Y-63491666D01*
X144166666Y-63525000D01*
X144166663Y-63525001D01*
X144057269Y-63571884D01*
X144048315Y-63571993D01*
X144044399Y-63569415D01*
X143939537Y-63464852D01*
X143707307Y-63233283D01*
X143703869Y-63225017D01*
X143707283Y-63216740D01*
X144044400Y-62880583D01*
X144052677Y-62877169D01*
X144057267Y-62878114D01*
G37*
%TD.AperFunction*%
%TD*%
%TA.AperFunction,Conductor*%
%TO.N,GND*%
G36*
X142608259Y-64332283D02*
G01*
X142944902Y-64669887D01*
X142948317Y-64678165D01*
X142947717Y-64681848D01*
X142916666Y-64775000D01*
X142883333Y-64891666D01*
X142852215Y-65016139D01*
X142846885Y-65023333D01*
X142840865Y-65025000D01*
X142359135Y-65025000D01*
X142350862Y-65021573D01*
X142347784Y-65016138D01*
X142316666Y-64891666D01*
X142283333Y-64775000D01*
X142252282Y-64681846D01*
X142252917Y-64672916D01*
X142255093Y-64669892D01*
X142591716Y-64332307D01*
X142599983Y-64328869D01*
X142608259Y-64332283D01*
G37*
%TD.AperFunction*%
%TD*%
%TA.AperFunction,Conductor*%
%TO.N,GND*%
G36*
X142849138Y-64728427D02*
G01*
X142852215Y-64733860D01*
X142883333Y-64858333D01*
X142883336Y-64858342D01*
X142916664Y-64974992D01*
X142947717Y-65068151D01*
X142947082Y-65077083D01*
X142944902Y-65080112D01*
X142608285Y-65417691D01*
X142600017Y-65421130D01*
X142591739Y-65417715D01*
X142591715Y-65417691D01*
X142255097Y-65080112D01*
X142251682Y-65071834D01*
X142252281Y-65068156D01*
X142283333Y-64974999D01*
X142316666Y-64858333D01*
X142347784Y-64733861D01*
X142353115Y-64726667D01*
X142359135Y-64725000D01*
X142840865Y-64725000D01*
X142849138Y-64728427D01*
G37*
%TD.AperFunction*%
%TD*%
%TA.AperFunction,Conductor*%
%TO.N,GND*%
G36*
X142260574Y-65284375D02*
G01*
X142596194Y-65422436D01*
X142602541Y-65428752D01*
X142646472Y-65535547D01*
X142740242Y-65763496D01*
X142740220Y-65772451D01*
X142733873Y-65778767D01*
X142733203Y-65779019D01*
X142526960Y-65849453D01*
X142526952Y-65849456D01*
X142308920Y-65961418D01*
X142308917Y-65961419D01*
X142098916Y-66105379D01*
X142090155Y-66107231D01*
X142084028Y-66104002D01*
X141920682Y-65940656D01*
X141917255Y-65932383D01*
X141919010Y-65926221D01*
X142026083Y-65753574D01*
X142138041Y-65535550D01*
X142245411Y-65290498D01*
X142251867Y-65284298D01*
X142260574Y-65284375D01*
G37*
%TD.AperFunction*%
%TD*%
%TA.AperFunction,Conductor*%
%TO.N,GND*%
G36*
X137905228Y-54629715D02*
G01*
X137910467Y-54634954D01*
X138396967Y-55608928D01*
X138397598Y-55617860D01*
X138396235Y-55620646D01*
X138316667Y-55739997D01*
X138316664Y-55740002D01*
X138233336Y-55906658D01*
X138233330Y-55906672D01*
X138152942Y-56107645D01*
X138146688Y-56114054D01*
X138142079Y-56115000D01*
X137657921Y-56115000D01*
X137649648Y-56111573D01*
X137647058Y-56107645D01*
X137566669Y-55906672D01*
X137483334Y-55740002D01*
X137483331Y-55739997D01*
X137403764Y-55620646D01*
X137402026Y-55611861D01*
X137403029Y-55608934D01*
X137889533Y-54634953D01*
X137896296Y-54629084D01*
X137905228Y-54629715D01*
G37*
%TD.AperFunction*%
%TD*%
%TA.AperFunction,Conductor*%
%TO.N,GND*%
G36*
X138147283Y-55703427D02*
G01*
X138150687Y-55710968D01*
X138169400Y-56009606D01*
X138169401Y-56009610D01*
X138235896Y-56220253D01*
X138357172Y-56497748D01*
X138357345Y-56506701D01*
X138351136Y-56513154D01*
X138350948Y-56513234D01*
X137904497Y-56699127D01*
X137895543Y-56699144D01*
X137895503Y-56699127D01*
X137449051Y-56513234D01*
X137442730Y-56506890D01*
X137442747Y-56497936D01*
X137442790Y-56497834D01*
X137564098Y-56220261D01*
X137630598Y-56009608D01*
X137649313Y-55710968D01*
X137653250Y-55702926D01*
X137660990Y-55700000D01*
X138139010Y-55700000D01*
X138147283Y-55703427D01*
G37*
%TD.AperFunction*%
%TD*%
%TA.AperFunction,Conductor*%
%TO.N,GND*%
G36*
X143355600Y-65080584D02*
G01*
X143692691Y-65416715D01*
X143696130Y-65424983D01*
X143692715Y-65433261D01*
X143692691Y-65433285D01*
X143355600Y-65769415D01*
X143347322Y-65772830D01*
X143342730Y-65771884D01*
X143233335Y-65725001D01*
X143233336Y-65725001D01*
X143233333Y-65725000D01*
X143116666Y-65691666D01*
X143116663Y-65691665D01*
X143116661Y-65691665D01*
X143116653Y-65691663D01*
X143010045Y-65676434D01*
X143002340Y-65671872D01*
X143000000Y-65664852D01*
X143000000Y-65185147D01*
X143003427Y-65176874D01*
X143010045Y-65173565D01*
X143116659Y-65158334D01*
X143116658Y-65158334D01*
X143116666Y-65158333D01*
X143233333Y-65124999D01*
X143342731Y-65078114D01*
X143351684Y-65078006D01*
X143355600Y-65080584D01*
G37*
%TD.AperFunction*%
%TD*%
%TA.AperFunction,Conductor*%
%TO.N,GND*%
G36*
X142957267Y-65078114D02*
G01*
X143066666Y-65124999D01*
X143183333Y-65158333D01*
X143183338Y-65158333D01*
X143183339Y-65158334D01*
X143289955Y-65173565D01*
X143297660Y-65178127D01*
X143300000Y-65185147D01*
X143300000Y-65664852D01*
X143296573Y-65673125D01*
X143289955Y-65676434D01*
X143183345Y-65691663D01*
X143183337Y-65691665D01*
X143183334Y-65691665D01*
X143183333Y-65691666D01*
X143066666Y-65725000D01*
X143066663Y-65725001D01*
X142957269Y-65771884D01*
X142948315Y-65771993D01*
X142944399Y-65769415D01*
X142839537Y-65664852D01*
X142607307Y-65433283D01*
X142603869Y-65425017D01*
X142607283Y-65416740D01*
X142944400Y-65080583D01*
X142952677Y-65077169D01*
X142957267Y-65078114D01*
G37*
%TD.AperFunction*%
%TD*%
%TA.AperFunction,Conductor*%
%TO.N,GND*%
G36*
X144808259Y-64332283D02*
G01*
X145144902Y-64669887D01*
X145148317Y-64678165D01*
X145147717Y-64681848D01*
X145116666Y-64775000D01*
X145083333Y-64891666D01*
X145052215Y-65016139D01*
X145046885Y-65023333D01*
X145040865Y-65025000D01*
X144559135Y-65025000D01*
X144550862Y-65021573D01*
X144547784Y-65016138D01*
X144516666Y-64891666D01*
X144483333Y-64775000D01*
X144452282Y-64681846D01*
X144452917Y-64672916D01*
X144455093Y-64669892D01*
X144791716Y-64332307D01*
X144799983Y-64328869D01*
X144808259Y-64332283D01*
G37*
%TD.AperFunction*%
%TD*%
%TA.AperFunction,Conductor*%
%TO.N,GND*%
G36*
X145049138Y-64728427D02*
G01*
X145052215Y-64733860D01*
X145083333Y-64858333D01*
X145083336Y-64858342D01*
X145116664Y-64974992D01*
X145147717Y-65068151D01*
X145147082Y-65077083D01*
X145144902Y-65080112D01*
X144808285Y-65417691D01*
X144800017Y-65421130D01*
X144791739Y-65417715D01*
X144791715Y-65417691D01*
X144455097Y-65080112D01*
X144451682Y-65071834D01*
X144452281Y-65068156D01*
X144483333Y-64974999D01*
X144516666Y-64858333D01*
X144547784Y-64733861D01*
X144553115Y-64726667D01*
X144559135Y-64725000D01*
X145040865Y-64725000D01*
X145049138Y-64728427D01*
G37*
%TD.AperFunction*%
%TD*%
%TA.AperFunction,Conductor*%
%TO.N,GND*%
G36*
X143355600Y-62880584D02*
G01*
X143692691Y-63216715D01*
X143696130Y-63224983D01*
X143692715Y-63233261D01*
X143692691Y-63233285D01*
X143355600Y-63569415D01*
X143347322Y-63572830D01*
X143342730Y-63571884D01*
X143233335Y-63525001D01*
X143233336Y-63525001D01*
X143233333Y-63525000D01*
X143116666Y-63491666D01*
X143116663Y-63491665D01*
X143116661Y-63491665D01*
X143116653Y-63491663D01*
X143010045Y-63476434D01*
X143002340Y-63471872D01*
X143000000Y-63464852D01*
X143000000Y-62985147D01*
X143003427Y-62976874D01*
X143010045Y-62973565D01*
X143116659Y-62958334D01*
X143116658Y-62958334D01*
X143116666Y-62958333D01*
X143233333Y-62924999D01*
X143342731Y-62878114D01*
X143351684Y-62878006D01*
X143355600Y-62880584D01*
G37*
%TD.AperFunction*%
%TD*%
%TA.AperFunction,Conductor*%
%TO.N,GND*%
G36*
X142957267Y-62878114D02*
G01*
X143066666Y-62924999D01*
X143183333Y-62958333D01*
X143183338Y-62958333D01*
X143183339Y-62958334D01*
X143289955Y-62973565D01*
X143297660Y-62978127D01*
X143300000Y-62985147D01*
X143300000Y-63464852D01*
X143296573Y-63473125D01*
X143289955Y-63476434D01*
X143183345Y-63491663D01*
X143183337Y-63491665D01*
X143183334Y-63491665D01*
X143183333Y-63491666D01*
X143066666Y-63525000D01*
X143066663Y-63525001D01*
X142957269Y-63571884D01*
X142948315Y-63571993D01*
X142944399Y-63569415D01*
X142839537Y-63464852D01*
X142607307Y-63233283D01*
X142603869Y-63225017D01*
X142607283Y-63216740D01*
X142944400Y-62880583D01*
X142952677Y-62877169D01*
X142957267Y-62878114D01*
G37*
%TD.AperFunction*%
%TD*%
%TA.AperFunction,Conductor*%
%TO.N,Net-(U4-IO9)*%
G36*
X138643066Y-53180197D02*
G01*
X138876767Y-53382872D01*
X139020590Y-53470447D01*
X139118696Y-53530184D01*
X139118699Y-53530186D01*
X139353129Y-53612370D01*
X139359802Y-53618341D01*
X139360949Y-53622943D01*
X139400339Y-54606522D01*
X139397246Y-54614925D01*
X139391869Y-54618238D01*
X138911348Y-54755859D01*
X138902451Y-54754842D01*
X138896879Y-54747832D01*
X138896851Y-54747732D01*
X138857768Y-54606522D01*
X138752686Y-54226851D01*
X138605372Y-53757093D01*
X138603328Y-53751442D01*
X138601198Y-53745552D01*
X138600500Y-53741573D01*
X138600500Y-53595252D01*
X138588867Y-53536769D01*
X138544552Y-53470448D01*
X138544551Y-53470447D01*
X138491219Y-53434810D01*
X138486717Y-53429062D01*
X138470009Y-53382872D01*
X138460588Y-53356826D01*
X138460996Y-53347883D01*
X138463314Y-53344579D01*
X138627130Y-53180763D01*
X138635402Y-53177337D01*
X138643066Y-53180197D01*
G37*
%TD.AperFunction*%
%TD*%
%TA.AperFunction,Conductor*%
%TO.N,Net-(U3-D+)*%
G36*
X131809734Y-58089722D02*
G01*
X131811473Y-58093922D01*
X131999253Y-59033764D01*
X131998403Y-59040959D01*
X131974999Y-59091668D01*
X131949999Y-59158334D01*
X131927582Y-59229323D01*
X131921823Y-59236180D01*
X131916425Y-59237500D01*
X131683575Y-59237500D01*
X131675302Y-59234073D01*
X131672418Y-59229323D01*
X131650000Y-59158334D01*
X131650000Y-59158333D01*
X131625000Y-59091666D01*
X131601595Y-59040957D01*
X131600746Y-59033764D01*
X131788527Y-58093922D01*
X131793508Y-58086480D01*
X131802292Y-58084741D01*
X131809734Y-58089722D01*
G37*
%TD.AperFunction*%
%TD*%
%TA.AperFunction,Conductor*%
%TO.N,Net-(U3-D+)*%
G36*
X131923054Y-59153427D02*
G01*
X131926375Y-59160126D01*
X131958994Y-59400414D01*
X131958995Y-59400416D01*
X132047334Y-59564058D01*
X132047398Y-59564179D01*
X132163612Y-59785609D01*
X132164422Y-59794527D01*
X132158689Y-59801406D01*
X132157754Y-59801845D01*
X131804502Y-59949123D01*
X131795548Y-59949144D01*
X131795498Y-59949123D01*
X131442245Y-59801845D01*
X131435927Y-59795498D01*
X131435948Y-59786544D01*
X131436378Y-59785626D01*
X131552664Y-59564058D01*
X131641004Y-59400416D01*
X131673625Y-59160125D01*
X131678134Y-59152389D01*
X131685219Y-59150000D01*
X131914781Y-59150000D01*
X131923054Y-59153427D01*
G37*
%TD.AperFunction*%
%TD*%
%TA.AperFunction,Conductor*%
%TO.N,Net-(U3-D+)*%
G36*
X144026484Y-70618427D02*
G01*
X144028369Y-70620895D01*
X144149996Y-70833744D01*
X144149997Y-70833746D01*
X144149999Y-70833749D01*
X144150000Y-70833750D01*
X144275000Y-71000416D01*
X144393497Y-71109039D01*
X144397280Y-71117155D01*
X144396058Y-71122891D01*
X143910467Y-72095045D01*
X143903704Y-72100915D01*
X143894772Y-72100284D01*
X143889533Y-72095045D01*
X143862464Y-72040853D01*
X143403940Y-71122889D01*
X143403310Y-71113959D01*
X143406499Y-71109042D01*
X143525000Y-71000416D01*
X143650000Y-70833750D01*
X143771631Y-70620894D01*
X143778710Y-70615412D01*
X143781789Y-70615000D01*
X144018211Y-70615000D01*
X144026484Y-70618427D01*
G37*
%TD.AperFunction*%
%TD*%
%TA.AperFunction,Conductor*%
%TO.N,Net-(U3-D+)*%
G36*
X144257754Y-70248154D02*
G01*
X144264072Y-70254501D01*
X144264051Y-70263455D01*
X144263612Y-70264390D01*
X144147398Y-70485819D01*
X144147334Y-70485940D01*
X144058995Y-70649583D01*
X144058994Y-70649584D01*
X144026375Y-70889874D01*
X144021866Y-70897611D01*
X144014781Y-70900000D01*
X143785219Y-70900000D01*
X143776946Y-70896573D01*
X143773625Y-70889874D01*
X143741004Y-70649584D01*
X143741004Y-70649583D01*
X143652664Y-70485940D01*
X143536386Y-70264388D01*
X143535577Y-70255472D01*
X143541310Y-70248593D01*
X143542233Y-70248159D01*
X143895500Y-70100875D01*
X143904449Y-70100855D01*
X144257754Y-70248154D01*
G37*
%TD.AperFunction*%
%TD*%
%TA.AperFunction,Conductor*%
%TO.N,Net-(U3-D-)*%
G36*
X132630832Y-59552112D02*
G01*
X132823811Y-59698958D01*
X133001989Y-59752205D01*
X133240870Y-59826645D01*
X133247749Y-59832378D01*
X133248559Y-59841296D01*
X133248209Y-59842267D01*
X133102563Y-60196195D01*
X133096245Y-60202542D01*
X133096195Y-60202563D01*
X132742267Y-60348209D01*
X132733313Y-60348188D01*
X132726995Y-60341841D01*
X132726645Y-60340870D01*
X132683539Y-60202542D01*
X132652205Y-60101989D01*
X132598958Y-59923811D01*
X132452112Y-59730832D01*
X132449830Y-59722176D01*
X132453150Y-59715478D01*
X132615478Y-59553150D01*
X132623750Y-59549724D01*
X132630832Y-59552112D01*
G37*
%TD.AperFunction*%
%TD*%
%TA.AperFunction,Conductor*%
%TO.N,Net-(U3-D-)*%
G36*
X132459734Y-58089722D02*
G01*
X132461473Y-58093922D01*
X132649253Y-59033764D01*
X132648403Y-59040959D01*
X132624999Y-59091668D01*
X132599999Y-59158334D01*
X132577582Y-59229323D01*
X132571823Y-59236180D01*
X132566425Y-59237500D01*
X132333575Y-59237500D01*
X132325302Y-59234073D01*
X132322418Y-59229323D01*
X132300000Y-59158334D01*
X132300000Y-59158333D01*
X132275000Y-59091666D01*
X132251595Y-59040957D01*
X132250746Y-59033764D01*
X132438527Y-58093922D01*
X132443508Y-58086480D01*
X132452292Y-58084741D01*
X132459734Y-58089722D01*
G37*
%TD.AperFunction*%
%TD*%
%TA.AperFunction,Conductor*%
%TO.N,Net-(U3-D-)*%
G36*
X142526484Y-70618427D02*
G01*
X142528369Y-70620895D01*
X142649996Y-70833744D01*
X142649997Y-70833746D01*
X142649999Y-70833749D01*
X142650000Y-70833750D01*
X142775000Y-71000416D01*
X142893497Y-71109039D01*
X142897280Y-71117155D01*
X142896058Y-71122891D01*
X142410467Y-72095045D01*
X142403704Y-72100915D01*
X142394772Y-72100284D01*
X142389533Y-72095045D01*
X142362464Y-72040853D01*
X141903940Y-71122889D01*
X141903310Y-71113959D01*
X141906499Y-71109042D01*
X142025000Y-71000416D01*
X142150000Y-70833750D01*
X142271631Y-70620894D01*
X142278710Y-70615412D01*
X142281789Y-70615000D01*
X142518211Y-70615000D01*
X142526484Y-70618427D01*
G37*
%TD.AperFunction*%
%TD*%
%TA.AperFunction,Conductor*%
%TO.N,Net-(U3-D-)*%
G36*
X142757754Y-70248154D02*
G01*
X142764072Y-70254501D01*
X142764051Y-70263455D01*
X142763612Y-70264390D01*
X142647398Y-70485819D01*
X142647334Y-70485940D01*
X142558995Y-70649583D01*
X142558994Y-70649584D01*
X142526375Y-70889874D01*
X142521866Y-70897611D01*
X142514781Y-70900000D01*
X142285219Y-70900000D01*
X142276946Y-70896573D01*
X142273625Y-70889874D01*
X142241004Y-70649584D01*
X142241004Y-70649583D01*
X142152664Y-70485940D01*
X142036386Y-70264388D01*
X142035577Y-70255472D01*
X142041310Y-70248593D01*
X142042233Y-70248159D01*
X142395500Y-70100875D01*
X142404449Y-70100855D01*
X142757754Y-70248154D01*
G37*
%TD.AperFunction*%
%TD*%
%TA.AperFunction,Conductor*%
%TO.N,Net-(JP1-B)*%
G36*
X132172886Y-65543658D02*
G01*
X132173248Y-65544037D01*
X132353333Y-65741342D01*
X132541666Y-65888009D01*
X132723207Y-65971862D01*
X132729280Y-65978441D01*
X132730000Y-65982483D01*
X132730000Y-66217516D01*
X132726573Y-66225789D01*
X132723206Y-66228138D01*
X132541666Y-66311989D01*
X132353331Y-66458658D01*
X132173248Y-66655962D01*
X132165139Y-66659763D01*
X132156719Y-66656717D01*
X132156340Y-66656355D01*
X131811364Y-66311989D01*
X131607293Y-66108278D01*
X131603860Y-66100010D01*
X131607279Y-66091735D01*
X132156341Y-65543643D01*
X132164616Y-65540224D01*
X132172886Y-65543658D01*
G37*
%TD.AperFunction*%
%TD*%
%TA.AperFunction,Conductor*%
%TO.N,Net-(JP1-B)*%
G36*
X148405228Y-54629715D02*
G01*
X148410467Y-54634954D01*
X148896057Y-55607108D01*
X148896688Y-55616040D01*
X148893496Y-55620961D01*
X148775000Y-55729582D01*
X148649997Y-55896252D01*
X148649996Y-55896254D01*
X148528369Y-56109105D01*
X148521290Y-56114588D01*
X148518211Y-56115000D01*
X148281789Y-56115000D01*
X148273516Y-56111573D01*
X148271631Y-56109105D01*
X148150003Y-55896254D01*
X148150002Y-55896252D01*
X148024999Y-55729582D01*
X147906503Y-55620961D01*
X147902720Y-55612844D01*
X147903942Y-55607108D01*
X148389533Y-54634954D01*
X148396296Y-54629084D01*
X148405228Y-54629715D01*
G37*
%TD.AperFunction*%
%TD*%
M02*
