%TF.GenerationSoftware,KiCad,Pcbnew,8.0.5-8.0.5-0~ubuntu22.04.1*%
%TF.CreationDate,2024-09-17T12:21:12-05:00*%
%TF.ProjectId,cheating-calc,63686561-7469-46e6-972d-63616c632e6b,rev?*%
%TF.SameCoordinates,Original*%
%TF.FileFunction,Soldermask,Top*%
%TF.FilePolarity,Negative*%
%FSLAX46Y46*%
G04 Gerber Fmt 4.6, Leading zero omitted, Abs format (unit mm)*
G04 Created by KiCad (PCBNEW 8.0.5-8.0.5-0~ubuntu22.04.1) date 2024-09-17 12:21:12*
%MOMM*%
%LPD*%
G01*
G04 APERTURE LIST*
G04 Aperture macros list*
%AMFreePoly0*
4,1,19,0.500000,-0.750000,0.000000,-0.750000,0.000000,-0.744911,-0.071157,-0.744911,-0.207708,-0.704816,-0.327430,-0.627875,-0.420627,-0.520320,-0.479746,-0.390866,-0.500000,-0.250000,-0.500000,0.250000,-0.479746,0.390866,-0.420627,0.520320,-0.327430,0.627875,-0.207708,0.704816,-0.071157,0.744911,0.000000,0.744911,0.000000,0.750000,0.500000,0.750000,0.500000,-0.750000,0.500000,-0.750000,
$1*%
%AMFreePoly1*
4,1,19,0.000000,0.744911,0.071157,0.744911,0.207708,0.704816,0.327430,0.627875,0.420627,0.520320,0.479746,0.390866,0.500000,0.250000,0.500000,-0.250000,0.479746,-0.390866,0.420627,-0.520320,0.327430,-0.627875,0.207708,-0.704816,0.071157,-0.744911,0.000000,-0.744911,0.000000,-0.750000,-0.500000,-0.750000,-0.500000,0.750000,0.000000,0.750000,0.000000,0.744911,0.000000,0.744911,
$1*%
G04 Aperture macros list end*
%ADD10R,0.600000X1.100000*%
%ADD11R,0.790000X0.540000*%
%ADD12R,1.070000X0.600000*%
%ADD13FreePoly0,180.000000*%
%ADD14FreePoly1,180.000000*%
%ADD15R,1.700000X1.700000*%
%ADD16O,1.700000X1.700000*%
%ADD17R,1.130000X1.380000*%
%ADD18C,0.850000*%
%ADD19R,0.900000X2.000000*%
%ADD20R,1.100000X0.930000*%
%ADD21R,3.460000X1.280000*%
%ADD22C,0.600000*%
%ADD23R,0.400000X2.000000*%
%ADD24O,1.200000X2.300000*%
%ADD25O,1.100000X2.100000*%
%ADD26R,1.000000X2.000000*%
%ADD27R,0.700000X0.700000*%
G04 APERTURE END LIST*
D10*
%TO.C,U2*%
X95500000Y-67600000D03*
X97400000Y-67600000D03*
X97400000Y-70200000D03*
X96450000Y-70200000D03*
X95500000Y-70200000D03*
%TD*%
D11*
%TO.C,C2*%
X93800000Y-67600000D03*
X92700000Y-67600000D03*
%TD*%
%TO.C,C1*%
X93800000Y-70200000D03*
X92700000Y-70200000D03*
%TD*%
D12*
%TO.C,Q1*%
X111708500Y-65069000D03*
X111708500Y-63169000D03*
X109228500Y-64119000D03*
%TD*%
D13*
%TO.C,JP1*%
X135850000Y-66100000D03*
D14*
X134550000Y-66100000D03*
%TD*%
D15*
%TO.C,J1*%
X107920000Y-71600000D03*
D16*
X105380000Y-71600000D03*
X102840000Y-71600000D03*
X100300000Y-71600000D03*
%TD*%
D17*
%TO.C,R5*%
X131600000Y-66100000D03*
X129600000Y-66100000D03*
%TD*%
D18*
%TO.C,SW1*%
X91800000Y-55912500D03*
X88800000Y-55912500D03*
D19*
X92550000Y-57762500D03*
X89550000Y-57762500D03*
X88050000Y-57762500D03*
D20*
X86500000Y-57052500D03*
X86500000Y-54782500D03*
X94100000Y-54782500D03*
X94100000Y-57052500D03*
%TD*%
D21*
%TO.C,R4*%
X122300000Y-62100000D03*
X122300000Y-55960000D03*
%TD*%
%TO.C,R2*%
X104700000Y-60470000D03*
X104700000Y-54330000D03*
%TD*%
%TO.C,R3*%
X99700000Y-60470000D03*
X99700000Y-54330000D03*
%TD*%
D12*
%TO.C,Q2*%
X111708500Y-60116000D03*
X111708500Y-58216000D03*
X109228500Y-59166000D03*
%TD*%
D21*
%TO.C,R1*%
X117100000Y-62070000D03*
X117100000Y-55930000D03*
%TD*%
D22*
%TO.C,U3*%
X133800000Y-56837500D03*
X129800000Y-56837500D03*
D23*
X133100000Y-58037500D03*
X132450000Y-58037500D03*
X131800000Y-58037500D03*
X131150000Y-58037500D03*
X130500000Y-58037500D03*
D24*
X135380000Y-58087500D03*
D25*
X135380000Y-54627500D03*
D24*
X128220000Y-58087500D03*
D25*
X128220000Y-54627500D03*
%TD*%
D26*
%TO.C,U4*%
X149900000Y-54615000D03*
X148400000Y-54615000D03*
X146900000Y-54615000D03*
X145400000Y-54615000D03*
X143900000Y-54615000D03*
X142400000Y-54615000D03*
X140900000Y-54615000D03*
X139400000Y-54615000D03*
X137900000Y-54615000D03*
X137900000Y-72115000D03*
X139400000Y-72115000D03*
X140900000Y-72115000D03*
X142400000Y-72115000D03*
X143900000Y-72115000D03*
X145400000Y-72115000D03*
X146900000Y-72115000D03*
X148400000Y-72115000D03*
X149900000Y-72115000D03*
D27*
X144800000Y-63225000D03*
X143700000Y-63225000D03*
X142600000Y-63225000D03*
X144800000Y-64325000D03*
X143700000Y-64325000D03*
X142600000Y-64325000D03*
X144800000Y-65425000D03*
X143700000Y-65425000D03*
X142600000Y-65425000D03*
%TD*%
M02*
